<?xml version="1.0" encoding="UTF-8" standalone="no"?>
<!DOCTYPE svg PUBLIC "-//W3C//DTD SVG 1.1//EN"
 "http://www.w3.org/Graphics/SVG/1.1/DTD/svg11.dtd">
<!-- Generated by graphviz version 5.0.0 (20220707.1540)
 -->
<!-- Title: dependencies Pages: 1 -->
<svg width="1115pt" height="247pt"
 viewBox="0.00 0.00 1115.00 246.80" xmlns="http://www.w3.org/2000/svg" xmlns:xlink="http://www.w3.org/1999/xlink">
<g id="graph0" class="graph" transform="scale(1 1) rotate(0) translate(4 242.8)">
<title>dependencies</title>
<polygon fill="white" stroke="transparent" points="-4,4 -4,-242.8 1111,-242.8 1111,4 -4,4"/>
<text text-anchor="middle" x="553.5" y="-8.2" font-family="sans-serif" font-size="14.00">dependencies</text>
<g id="clust1" class="cluster">
<title>cluster_AuthModule</title>
<polygon fill="none" stroke="black" stroke-dasharray="1,5" points="8,-32.8 8,-230.8 1099,-230.8 1099,-32.8 8,-32.8"/>
</g>
<g id="clust4" class="cluster">
<title>cluster_AuthModule_exports</title>
<polygon fill="none" stroke="black" points="496,-170.8 496,-222.8 602,-222.8 602,-170.8 496,-170.8"/>
</g>
<g id="clust3" class="cluster">
<title>cluster_AuthModule_imports</title>
<polygon fill="none" stroke="black" points="971,-40.8 971,-92.8 1091,-92.8 1091,-40.8 971,-40.8"/>
</g>
<g id="clust6" class="cluster">
<title>cluster_AuthModule_providers</title>
<polygon fill="none" stroke="black" points="16,-40.8 16,-92.8 963,-92.8 963,-40.8 16,-40.8"/>
</g>
<!-- ApiLogModule -->
<g id="node1" class="node">
<title>ApiLogModule</title>
<polygon fill="#8dd3c7" stroke="black" points="1082.6,-84.8 1079.6,-88.8 1058.6,-88.8 1055.6,-84.8 979.4,-84.8 979.4,-48.8 1082.6,-48.8 1082.6,-84.8"/>
<text text-anchor="middle" x="1031" y="-62.6" font-family="Times,serif" font-size="14.00">ApiLogModule</text>
</g>
<!-- AuthModule -->
<g id="node2" class="node">
<title>AuthModule</title>
<polygon fill="#8dd3c7" stroke="black" points="592.55,-149.8 589.55,-153.8 568.55,-153.8 565.55,-149.8 505.45,-149.8 505.45,-113.8 592.55,-113.8 592.55,-149.8"/>
<text text-anchor="middle" x="549" y="-127.6" font-family="Times,serif" font-size="14.00">AuthModule</text>
</g>
<!-- ApiLogModule&#45;&gt;AuthModule -->
<g id="edge1" class="edge">
<title>ApiLogModule&#45;&gt;AuthModule</title>
<path fill="none" stroke="black" d="M1031,-85.09C1031,-107.01 1031,-140.8 1031,-140.8 1031,-140.8 602.62,-140.8 602.62,-140.8"/>
<polygon fill="black" stroke="black" points="602.62,-137.3 592.62,-140.8 602.62,-144.3 602.62,-137.3"/>
</g>
<!-- AuthService  -->
<g id="node3" class="node">
<title>AuthService </title>
<polygon fill="#fb8072" stroke="black" points="593.98,-214.8 504.02,-214.8 504.02,-178.8 593.98,-178.8 593.98,-214.8"/>
<text text-anchor="middle" x="549" y="-192.6" font-family="Times,serif" font-size="14.00">AuthService </text>
</g>
<!-- AuthModule&#45;&gt;AuthService  -->
<g id="edge2" class="edge">
<title>AuthModule&#45;&gt;AuthService </title>
<path fill="none" stroke="black" stroke-dasharray="5,2" d="M549,-149.91C549,-149.91 549,-168.79 549,-168.79"/>
<polygon fill="black" stroke="black" points="545.5,-168.79 549,-178.79 552.5,-168.79 545.5,-168.79"/>
</g>
<!-- ApiLogService -->
<g id="node4" class="node">
<title>ApiLogService</title>
<ellipse fill="#fdb462" stroke="black" cx="885" cy="-66.8" rx="70.07" ry="18"/>
<text text-anchor="middle" x="885" y="-62.6" font-family="Times,serif" font-size="14.00">ApiLogService</text>
</g>
<!-- ApiLogService&#45;&gt;AuthModule -->
<g id="edge3" class="edge">
<title>ApiLogService&#45;&gt;AuthModule</title>
<path fill="none" stroke="black" d="M885,-84.91C885,-104.14 885,-131.8 885,-131.8 885,-131.8 602.58,-131.8 602.58,-131.8"/>
<polygon fill="black" stroke="black" points="602.58,-128.3 592.58,-131.8 602.58,-135.3 602.58,-128.3"/>
</g>
<!-- AuthService -->
<g id="node5" class="node">
<title>AuthService</title>
<ellipse fill="#fdb462" stroke="black" cx="738" cy="-66.8" rx="59.11" ry="18"/>
<text text-anchor="middle" x="738" y="-62.6" font-family="Times,serif" font-size="14.00">AuthService</text>
</g>
<!-- AuthService&#45;&gt;AuthModule -->
<g id="edge4" class="edge">
<title>AuthService&#45;&gt;AuthModule</title>
<path fill="none" stroke="black" d="M738,-84.83C738,-101.2 738,-122.8 738,-122.8 738,-122.8 602.84,-122.8 602.84,-122.8"/>
<polygon fill="black" stroke="black" points="602.84,-119.3 592.84,-122.8 602.84,-126.3 602.84,-119.3"/>
</g>
<!-- JwtRefreshTokenStrategy -->
<g id="node6" class="node">
<title>JwtRefreshTokenStrategy</title>
<ellipse fill="#fdb462" stroke="black" cx="549" cy="-66.8" rx="111.17" ry="18"/>
<text text-anchor="middle" x="549" y="-62.6" font-family="Times,serif" font-size="14.00">JwtRefreshTokenStrategy</text>
</g>
<!-- JwtRefreshTokenStrategy&#45;&gt;AuthModule -->
<g id="edge5" class="edge">
<title>JwtRefreshTokenStrategy&#45;&gt;AuthModule</title>
<path fill="none" stroke="black" d="M549,-84.91C549,-84.91 549,-103.79 549,-103.79"/>
<polygon fill="black" stroke="black" points="545.5,-103.79 549,-113.79 552.5,-103.79 545.5,-103.79"/>
</g>
<!-- JwtStrategy -->
<g id="node7" class="node">
<title>JwtStrategy</title>
<ellipse fill="#fdb462" stroke="black" cx="363" cy="-66.8" rx="56.77" ry="18"/>
<text text-anchor="middle" x="363" y="-62.6" font-family="Times,serif" font-size="14.00">JwtStrategy</text>
</g>
<!-- JwtStrategy&#45;&gt;AuthModule -->
<g id="edge6" class="edge">
<title>JwtStrategy&#45;&gt;AuthModule</title>
<path fill="none" stroke="black" d="M363,-84.83C363,-101.2 363,-122.8 363,-122.8 363,-122.8 495.39,-122.8 495.39,-122.8"/>
<polygon fill="black" stroke="black" points="495.39,-126.3 505.39,-122.8 495.39,-119.3 495.39,-126.3"/>
</g>
<!-- LocalStrategy -->
<g id="node8" class="node">
<title>LocalStrategy</title>
<ellipse fill="#fdb462" stroke="black" cx="223" cy="-66.8" rx="65.4" ry="18"/>
<text text-anchor="middle" x="223" y="-62.6" font-family="Times,serif" font-size="14.00">LocalStrategy</text>
</g>
<!-- LocalStrategy&#45;&gt;AuthModule -->
<g id="edge7" class="edge">
<title>LocalStrategy&#45;&gt;AuthModule</title>
<path fill="none" stroke="black" d="M223,-84.91C223,-104.14 223,-131.8 223,-131.8 223,-131.8 495.37,-131.8 495.37,-131.8"/>
<polygon fill="black" stroke="black" points="495.37,-135.3 505.37,-131.8 495.37,-128.3 495.37,-135.3"/>
</g>
<!-- UserService -->
<g id="node9" class="node">
<title>UserService</title>
<ellipse fill="#fdb462" stroke="black" cx="82" cy="-66.8" rx="58.46" ry="18"/>
<text text-anchor="middle" x="82" y="-62.6" font-family="Times,serif" font-size="14.00">UserService</text>
</g>
<!-- UserService&#45;&gt;AuthModule -->
<g id="edge8" class="edge">
<title>UserService&#45;&gt;AuthModule</title>
<path fill="none" stroke="black" d="M82,-85.09C82,-107.01 82,-140.8 82,-140.8 82,-140.8 495.07,-140.8 495.07,-140.8"/>
<polygon fill="black" stroke="black" points="495.07,-144.3 505.07,-140.8 495.07,-137.3 495.07,-144.3"/>
</g>
</g>
</svg>
