<?xml version="1.0" encoding="UTF-8" standalone="no"?>
<!DOCTYPE svg PUBLIC "-//W3C//DTD SVG 1.1//EN"
 "http://www.w3.org/Graphics/SVG/1.1/DTD/svg11.dtd">
<!-- Generated by graphviz version 5.0.0 (20220707.1540)
 -->
<!-- Title: dependencies Pages: 1 -->
<svg width="1688pt" height="174pt"
 viewBox="0.00 0.00 1688.00 173.80" xmlns="http://www.w3.org/2000/svg" xmlns:xlink="http://www.w3.org/1999/xlink">
<g id="graph0" class="graph" transform="scale(1 1) rotate(0) translate(4 169.8)">
<title>dependencies</title>
<polygon fill="white" stroke="transparent" points="-4,4 -4,-169.8 1684,-169.8 1684,4 -4,4"/>
<text text-anchor="middle" x="840" y="-8.2" font-family="sans-serif" font-size="14.00">dependencies</text>
<g id="clust1" class="cluster">
<title>cluster_AppTestE2eModule</title>
<polygon fill="none" stroke="black" stroke-dasharray="1,5" points="8,-32.8 8,-157.8 1672,-157.8 1672,-32.8 8,-32.8"/>
</g>
<g id="clust3" class="cluster">
<title>cluster_AppTestE2eModule_imports</title>
<polygon fill="none" stroke="black" points="1564,-40.8 1564,-92.8 1664,-92.8 1664,-40.8 1564,-40.8"/>
</g>
<g id="clust6" class="cluster">
<title>cluster_AppTestE2eModule_providers</title>
<polygon fill="none" stroke="black" points="16,-40.8 16,-92.8 1556,-92.8 1556,-40.8 16,-40.8"/>
</g>
<!-- AppModule -->
<g id="node1" class="node">
<title>AppModule</title>
<polygon fill="#8dd3c7" stroke="black" points="1655.66,-84.8 1652.66,-88.8 1631.66,-88.8 1628.66,-84.8 1572.34,-84.8 1572.34,-48.8 1655.66,-48.8 1655.66,-84.8"/>
<text text-anchor="middle" x="1614" y="-62.6" font-family="Times,serif" font-size="14.00">AppModule</text>
</g>
<!-- AppTestE2eModule -->
<g id="node2" class="node">
<title>AppTestE2eModule</title>
<polygon fill="#8dd3c7" stroke="black" points="1007.53,-149.8 1004.53,-153.8 983.53,-153.8 980.53,-149.8 878.47,-149.8 878.47,-113.8 1007.53,-113.8 1007.53,-149.8"/>
<text text-anchor="middle" x="943" y="-127.6" font-family="Times,serif" font-size="14.00">AppTestE2eModule</text>
</g>
<!-- AppModule&#45;&gt;AppTestE2eModule -->
<g id="edge1" class="edge">
<title>AppModule&#45;&gt;AppTestE2eModule</title>
<path fill="none" stroke="black" d="M1614,-85.09C1614,-107.01 1614,-140.8 1614,-140.8 1614,-140.8 1017.64,-140.8 1017.64,-140.8"/>
<polygon fill="black" stroke="black" points="1017.64,-137.3 1007.64,-140.8 1017.64,-144.3 1017.64,-137.3"/>
</g>
<!-- AppTestE2eService -->
<g id="node3" class="node">
<title>AppTestE2eService</title>
<ellipse fill="#fdb462" stroke="black" cx="1460" cy="-66.8" rx="88.03" ry="18"/>
<text text-anchor="middle" x="1460" y="-62.6" font-family="Times,serif" font-size="14.00">AppTestE2eService</text>
</g>
<!-- AppTestE2eService&#45;&gt;AppTestE2eModule -->
<g id="edge2" class="edge">
<title>AppTestE2eService&#45;&gt;AppTestE2eModule</title>
<path fill="none" stroke="black" d="M1460,-84.91C1460,-104.14 1460,-131.8 1460,-131.8 1460,-131.8 1017.69,-131.8 1017.69,-131.8"/>
<polygon fill="black" stroke="black" points="1017.69,-128.3 1007.69,-131.8 1017.69,-135.3 1017.69,-128.3"/>
</g>
<!-- CardTestE2eService -->
<g id="node4" class="node">
<title>CardTestE2eService</title>
<ellipse fill="#fdb462" stroke="black" cx="1263" cy="-66.8" rx="90.31" ry="18"/>
<text text-anchor="middle" x="1263" y="-62.6" font-family="Times,serif" font-size="14.00">CardTestE2eService</text>
</g>
<!-- CardTestE2eService&#45;&gt;AppTestE2eModule -->
<g id="edge3" class="edge">
<title>CardTestE2eService&#45;&gt;AppTestE2eModule</title>
<path fill="none" stroke="black" d="M1263,-84.83C1263,-101.2 1263,-122.8 1263,-122.8 1263,-122.8 1017.76,-122.8 1017.76,-122.8"/>
<polygon fill="black" stroke="black" points="1017.76,-119.3 1007.76,-122.8 1017.76,-126.3 1017.76,-119.3"/>
</g>
<!-- GroupTestE2eService -->
<g id="node5" class="node">
<title>GroupTestE2eService</title>
<ellipse fill="#fdb462" stroke="black" cx="1058" cy="-66.8" rx="96.12" ry="18"/>
<text text-anchor="middle" x="1058" y="-62.6" font-family="Times,serif" font-size="14.00">GroupTestE2eService</text>
</g>
<!-- GroupTestE2eService&#45;&gt;AppTestE2eModule -->
<g id="edge4" class="edge">
<title>GroupTestE2eService&#45;&gt;AppTestE2eModule</title>
<path fill="none" stroke="black" d="M984.73,-78.72C984.73,-78.72 984.73,-103.57 984.73,-103.57"/>
<polygon fill="black" stroke="black" points="981.23,-103.57 984.73,-113.57 988.23,-103.57 981.23,-103.57"/>
</g>
<!-- OccupationTestE2eService -->
<g id="node6" class="node">
<title>OccupationTestE2eService</title>
<ellipse fill="#fdb462" stroke="black" cx="828" cy="-66.8" rx="116.29" ry="18"/>
<text text-anchor="middle" x="828" y="-62.6" font-family="Times,serif" font-size="14.00">OccupationTestE2eService</text>
</g>
<!-- OccupationTestE2eService&#45;&gt;AppTestE2eModule -->
<g id="edge5" class="edge">
<title>OccupationTestE2eService&#45;&gt;AppTestE2eModule</title>
<path fill="none" stroke="black" d="M911.19,-79.64C911.19,-79.64 911.19,-103.32 911.19,-103.32"/>
<polygon fill="black" stroke="black" points="907.69,-103.32 911.19,-113.32 914.69,-103.32 907.69,-103.32"/>
</g>
<!-- ProfileTestE2eService -->
<g id="node7" class="node">
<title>ProfileTestE2eService</title>
<ellipse fill="#fdb462" stroke="black" cx="596" cy="-66.8" rx="97.83" ry="18"/>
<text text-anchor="middle" x="596" y="-62.6" font-family="Times,serif" font-size="14.00">ProfileTestE2eService</text>
</g>
<!-- ProfileTestE2eService&#45;&gt;AppTestE2eModule -->
<g id="edge6" class="edge">
<title>ProfileTestE2eService&#45;&gt;AppTestE2eModule</title>
<path fill="none" stroke="black" d="M596,-84.83C596,-101.2 596,-122.8 596,-122.8 596,-122.8 868.14,-122.8 868.14,-122.8"/>
<polygon fill="black" stroke="black" points="868.14,-126.3 878.14,-122.8 868.14,-119.3 868.14,-126.3"/>
</g>
<!-- SocialNetworkTestE2eService -->
<g id="node8" class="node">
<title>SocialNetworkTestE2eService</title>
<ellipse fill="#fdb462" stroke="black" cx="351" cy="-66.8" rx="129.62" ry="18"/>
<text text-anchor="middle" x="351" y="-62.6" font-family="Times,serif" font-size="14.00">SocialNetworkTestE2eService</text>
</g>
<!-- SocialNetworkTestE2eService&#45;&gt;AppTestE2eModule -->
<g id="edge7" class="edge">
<title>SocialNetworkTestE2eService&#45;&gt;AppTestE2eModule</title>
<path fill="none" stroke="black" d="M351,-84.91C351,-104.14 351,-131.8 351,-131.8 351,-131.8 868.24,-131.8 868.24,-131.8"/>
<polygon fill="black" stroke="black" points="868.24,-135.3 878.24,-131.8 868.24,-128.3 868.24,-135.3"/>
</g>
<!-- UserTestE2eService -->
<g id="node9" class="node">
<title>UserTestE2eService</title>
<ellipse fill="#fdb462" stroke="black" cx="114" cy="-66.8" rx="89.73" ry="18"/>
<text text-anchor="middle" x="114" y="-62.6" font-family="Times,serif" font-size="14.00">UserTestE2eService</text>
</g>
<!-- UserTestE2eService&#45;&gt;AppTestE2eModule -->
<g id="edge8" class="edge">
<title>UserTestE2eService&#45;&gt;AppTestE2eModule</title>
<path fill="none" stroke="black" d="M114,-85.09C114,-107.01 114,-140.8 114,-140.8 114,-140.8 868.3,-140.8 868.3,-140.8"/>
<polygon fill="black" stroke="black" points="868.3,-144.3 878.3,-140.8 868.3,-137.3 868.3,-144.3"/>
</g>
</g>
</svg>
