<?xml version="1.0" encoding="UTF-8" standalone="no"?>
<!DOCTYPE svg PUBLIC "-//W3C//DTD SVG 1.1//EN"
 "http://www.w3.org/Graphics/SVG/1.1/DTD/svg11.dtd">
<!-- Generated by graphviz version 5.0.0 (20220707.1540)
 -->
<!-- Title: dependencies Pages: 1 -->
<svg width="340pt" height="174pt"
 viewBox="0.00 0.00 340.00 173.80" xmlns="http://www.w3.org/2000/svg" xmlns:xlink="http://www.w3.org/1999/xlink">
<g id="graph0" class="graph" transform="scale(1 1) rotate(0) translate(4 169.8)">
<title>dependencies</title>
<polygon fill="white" stroke="transparent" points="-4,4 -4,-169.8 336,-169.8 336,4 -4,4"/>
<text text-anchor="middle" x="166" y="-8.2" font-family="sans-serif" font-size="14.00">dependencies</text>
<g id="clust1" class="cluster">
<title>cluster_AppTestE2eModule</title>
<polygon fill="none" stroke="black" stroke-dasharray="1,5" points="8,-32.8 8,-157.8 324,-157.8 324,-32.8 8,-32.8"/>
</g>
<g id="clust3" class="cluster">
<title>cluster_AppTestE2eModule_imports</title>
<polygon fill="none" stroke="black" points="216,-40.8 216,-92.8 316,-92.8 316,-40.8 216,-40.8"/>
</g>
<g id="clust6" class="cluster">
<title>cluster_AppTestE2eModule_providers</title>
<polygon fill="none" stroke="black" points="16,-40.8 16,-92.8 208,-92.8 208,-40.8 16,-40.8"/>
</g>
<!-- AppModule -->
<g id="node1" class="node">
<title>AppModule</title>
<polygon fill="#8dd3c7" stroke="black" points="307.66,-84.8 304.66,-88.8 283.66,-88.8 280.66,-84.8 224.34,-84.8 224.34,-48.8 307.66,-48.8 307.66,-84.8"/>
<text text-anchor="middle" x="266" y="-62.6" font-family="Times,serif" font-size="14.00">AppModule</text>
</g>
<!-- AppTestE2eModule -->
<g id="node2" class="node">
<title>AppTestE2eModule</title>
<polygon fill="#8dd3c7" stroke="black" points="245.53,-149.8 242.53,-153.8 221.53,-153.8 218.53,-149.8 116.47,-149.8 116.47,-113.8 245.53,-113.8 245.53,-149.8"/>
<text text-anchor="middle" x="181" y="-127.6" font-family="Times,serif" font-size="14.00">AppTestE2eModule</text>
</g>
<!-- AppModule&#45;&gt;AppTestE2eModule -->
<g id="edge1" class="edge">
<title>AppModule&#45;&gt;AppTestE2eModule</title>
<path fill="none" stroke="black" d="M234.97,-84.91C234.97,-84.91 234.97,-103.79 234.97,-103.79"/>
<polygon fill="black" stroke="black" points="231.47,-103.79 234.97,-113.79 238.47,-103.79 231.47,-103.79"/>
</g>
<!-- AppTestE2eService -->
<g id="node3" class="node">
<title>AppTestE2eService</title>
<ellipse fill="#fdb462" stroke="black" cx="112" cy="-66.8" rx="88.03" ry="18"/>
<text text-anchor="middle" x="112" y="-62.6" font-family="Times,serif" font-size="14.00">AppTestE2eService</text>
</g>
<!-- AppTestE2eService&#45;&gt;AppTestE2eModule -->
<g id="edge2" class="edge">
<title>AppTestE2eService&#45;&gt;AppTestE2eModule</title>
<path fill="none" stroke="black" d="M158.25,-82.2C158.25,-82.2 158.25,-103.74 158.25,-103.74"/>
<polygon fill="black" stroke="black" points="154.75,-103.74 158.25,-113.74 161.75,-103.74 154.75,-103.74"/>
</g>
</g>
</svg>
