<?xml version="1.0" encoding="UTF-8" standalone="no"?>
<!DOCTYPE svg PUBLIC "-//W3C//DTD SVG 1.1//EN"
 "http://www.w3.org/Graphics/SVG/1.1/DTD/svg11.dtd">
<!-- Generated by graphviz version 2.47.0 (20210316.0004)
 -->
<!-- Title: dependencies Pages: 1 -->
<svg width="1688pt" height="211pt"
 viewBox="0.00 0.00 1688.00 211.00" xmlns="http://www.w3.org/2000/svg" xmlns:xlink="http://www.w3.org/1999/xlink">
<g id="graph0" class="graph" transform="scale(1 1) rotate(0) translate(4 207)">
<title>dependencies</title>
<polygon fill="white" stroke="transparent" points="-4,4 -4,-207 1684,-207 1684,4 -4,4"/>
<text text-anchor="start" x="819.01" y="-42.4" font-family="Times-12" font-weight="bold" font-size="14.00">Legend</text>
<polygon fill="#ffffb3" stroke="transparent" points="606,-10 606,-30 626,-30 626,-10 606,-10"/>
<text text-anchor="start" x="629.63" y="-15.4" font-family="Times-12" font-size="14.00"> &#160;Declarations</text>
<polygon fill="#8dd3c7" stroke="transparent" points="719,-10 719,-30 739,-30 739,-10 719,-10"/>
<text text-anchor="start" x="742.73" y="-15.4" font-family="Times-12" font-size="14.00"> &#160;Module</text>
<polygon fill="#80b1d3" stroke="transparent" points="805,-10 805,-30 825,-30 825,-10 805,-10"/>
<text text-anchor="start" x="828.78" y="-15.4" font-family="Times-12" font-size="14.00"> &#160;Bootstrap</text>
<polygon fill="#fdb462" stroke="transparent" points="902,-10 902,-30 922,-30 922,-10 902,-10"/>
<text text-anchor="start" x="925.67" y="-15.4" font-family="Times-12" font-size="14.00"> &#160;Providers</text>
<polygon fill="#fb8072" stroke="transparent" points="998,-10 998,-30 1018,-30 1018,-10 998,-10"/>
<text text-anchor="start" x="1021.73" y="-15.4" font-family="Times-12" font-size="14.00"> &#160;Exports</text>
<g id="clust1" class="cluster">
<title>cluster_AppTestE2eModule</title>
<polygon fill="none" stroke="black" stroke-dasharray="1,5" points="8,-70 8,-195 1672,-195 1672,-70 8,-70"/>
</g>
<g id="clust3" class="cluster">
<title>cluster_AppTestE2eModule_imports</title>
<polygon fill="none" stroke="black" points="1564,-78 1564,-130 1664,-130 1664,-78 1564,-78"/>
</g>
<g id="clust6" class="cluster">
<title>cluster_AppTestE2eModule_providers</title>
<polygon fill="none" stroke="black" points="16,-78 16,-130 1556,-130 1556,-78 16,-78"/>
</g>
<!-- AppModule -->
<g id="node1" class="node">
<title>AppModule</title>
<polygon fill="#8dd3c7" stroke="black" points="1655.66,-122 1652.66,-126 1631.66,-126 1628.66,-122 1572.34,-122 1572.34,-86 1655.66,-86 1655.66,-122"/>
<text text-anchor="middle" x="1614" y="-99.8" font-family="Times,serif" font-size="14.00">AppModule</text>
</g>
<!-- AppTestE2eModule -->
<g id="node2" class="node">
<title>AppTestE2eModule</title>
<polygon fill="#8dd3c7" stroke="black" points="1007.53,-187 1004.53,-191 983.53,-191 980.53,-187 878.47,-187 878.47,-151 1007.53,-151 1007.53,-187"/>
<text text-anchor="middle" x="943" y="-164.8" font-family="Times,serif" font-size="14.00">AppTestE2eModule</text>
</g>
<!-- AppModule&#45;&gt;AppTestE2eModule -->
<g id="edge1" class="edge">
<title>AppModule&#45;&gt;AppTestE2eModule</title>
<path fill="none" stroke="black" d="M1614,-122.29C1614,-144.21 1614,-178 1614,-178 1614,-178 1017.64,-178 1017.64,-178"/>
<polygon fill="black" stroke="black" points="1017.64,-174.5 1007.64,-178 1017.64,-181.5 1017.64,-174.5"/>
</g>
<!-- AppTestE2eService -->
<g id="node3" class="node">
<title>AppTestE2eService</title>
<ellipse fill="#fdb462" stroke="black" cx="1460" cy="-104" rx="88.02" ry="18"/>
<text text-anchor="middle" x="1460" y="-99.8" font-family="Times,serif" font-size="14.00">AppTestE2eService</text>
</g>
<!-- AppTestE2eService&#45;&gt;AppTestE2eModule -->
<g id="edge2" class="edge">
<title>AppTestE2eService&#45;&gt;AppTestE2eModule</title>
<path fill="none" stroke="black" d="M1460,-122.11C1460,-141.34 1460,-169 1460,-169 1460,-169 1017.69,-169 1017.69,-169"/>
<polygon fill="black" stroke="black" points="1017.69,-165.5 1007.69,-169 1017.69,-172.5 1017.69,-165.5"/>
</g>
<!-- CardTestE2eService -->
<g id="node4" class="node">
<title>CardTestE2eService</title>
<ellipse fill="#fdb462" stroke="black" cx="1263" cy="-104" rx="90.3" ry="18"/>
<text text-anchor="middle" x="1263" y="-99.8" font-family="Times,serif" font-size="14.00">CardTestE2eService</text>
</g>
<!-- CardTestE2eService&#45;&gt;AppTestE2eModule -->
<g id="edge3" class="edge">
<title>CardTestE2eService&#45;&gt;AppTestE2eModule</title>
<path fill="none" stroke="black" d="M1263,-122.03C1263,-138.4 1263,-160 1263,-160 1263,-160 1017.76,-160 1017.76,-160"/>
<polygon fill="black" stroke="black" points="1017.76,-156.5 1007.76,-160 1017.76,-163.5 1017.76,-156.5"/>
</g>
<!-- GroupTestE2eService -->
<g id="node5" class="node">
<title>GroupTestE2eService</title>
<ellipse fill="#fdb462" stroke="black" cx="1058" cy="-104" rx="96.11" ry="18"/>
<text text-anchor="middle" x="1058" y="-99.8" font-family="Times,serif" font-size="14.00">GroupTestE2eService</text>
</g>
<!-- GroupTestE2eService&#45;&gt;AppTestE2eModule -->
<g id="edge4" class="edge">
<title>GroupTestE2eService&#45;&gt;AppTestE2eModule</title>
<path fill="none" stroke="black" d="M984.73,-115.92C984.73,-115.92 984.73,-140.77 984.73,-140.77"/>
<polygon fill="black" stroke="black" points="981.23,-140.77 984.73,-150.77 988.23,-140.77 981.23,-140.77"/>
</g>
<!-- OccupationTestE2eService -->
<g id="node6" class="node">
<title>OccupationTestE2eService</title>
<ellipse fill="#fdb462" stroke="black" cx="828" cy="-104" rx="116.29" ry="18"/>
<text text-anchor="middle" x="828" y="-99.8" font-family="Times,serif" font-size="14.00">OccupationTestE2eService</text>
</g>
<!-- OccupationTestE2eService&#45;&gt;AppTestE2eModule -->
<g id="edge5" class="edge">
<title>OccupationTestE2eService&#45;&gt;AppTestE2eModule</title>
<path fill="none" stroke="black" d="M911.19,-116.84C911.19,-116.84 911.19,-140.52 911.19,-140.52"/>
<polygon fill="black" stroke="black" points="907.69,-140.52 911.19,-150.52 914.69,-140.52 907.69,-140.52"/>
</g>
<!-- ProfileTestE2eService -->
<g id="node7" class="node">
<title>ProfileTestE2eService</title>
<ellipse fill="#fdb462" stroke="black" cx="596" cy="-104" rx="97.82" ry="18"/>
<text text-anchor="middle" x="596" y="-99.8" font-family="Times,serif" font-size="14.00">ProfileTestE2eService</text>
</g>
<!-- ProfileTestE2eService&#45;&gt;AppTestE2eModule -->
<g id="edge6" class="edge">
<title>ProfileTestE2eService&#45;&gt;AppTestE2eModule</title>
<path fill="none" stroke="black" d="M596,-122.03C596,-138.4 596,-160 596,-160 596,-160 868.14,-160 868.14,-160"/>
<polygon fill="black" stroke="black" points="868.14,-163.5 878.14,-160 868.14,-156.5 868.14,-163.5"/>
</g>
<!-- SocialNetworkTestE2eService -->
<g id="node8" class="node">
<title>SocialNetworkTestE2eService</title>
<ellipse fill="#fdb462" stroke="black" cx="351" cy="-104" rx="129.61" ry="18"/>
<text text-anchor="middle" x="351" y="-99.8" font-family="Times,serif" font-size="14.00">SocialNetworkTestE2eService</text>
</g>
<!-- SocialNetworkTestE2eService&#45;&gt;AppTestE2eModule -->
<g id="edge7" class="edge">
<title>SocialNetworkTestE2eService&#45;&gt;AppTestE2eModule</title>
<path fill="none" stroke="black" d="M351,-122.11C351,-141.34 351,-169 351,-169 351,-169 868.24,-169 868.24,-169"/>
<polygon fill="black" stroke="black" points="868.24,-172.5 878.24,-169 868.24,-165.5 868.24,-172.5"/>
</g>
<!-- UserTestE2eService -->
<g id="node9" class="node">
<title>UserTestE2eService</title>
<ellipse fill="#fdb462" stroke="black" cx="114" cy="-104" rx="89.72" ry="18"/>
<text text-anchor="middle" x="114" y="-99.8" font-family="Times,serif" font-size="14.00">UserTestE2eService</text>
</g>
<!-- UserTestE2eService&#45;&gt;AppTestE2eModule -->
<g id="edge8" class="edge">
<title>UserTestE2eService&#45;&gt;AppTestE2eModule</title>
<path fill="none" stroke="black" d="M114,-122.29C114,-144.21 114,-178 114,-178 114,-178 868.3,-178 868.3,-178"/>
<polygon fill="black" stroke="black" points="868.3,-181.5 878.3,-178 868.3,-174.5 868.3,-181.5"/>
</g>
</g>
</svg>
