<?xml version="1.0" encoding="UTF-8" standalone="no"?>
<!DOCTYPE svg PUBLIC "-//W3C//DTD SVG 1.1//EN"
 "http://www.w3.org/Graphics/SVG/1.1/DTD/svg11.dtd">
<!-- Generated by graphviz version 5.0.0 (20220707.1540)
 -->
<!-- Title: dependencies Pages: 1 -->
<svg width="790pt" height="174pt"
 viewBox="0.00 0.00 790.00 173.80" xmlns="http://www.w3.org/2000/svg" xmlns:xlink="http://www.w3.org/1999/xlink">
<g id="graph0" class="graph" transform="scale(1 1) rotate(0) translate(4 169.8)">
<title>dependencies</title>
<polygon fill="white" stroke="transparent" points="-4,4 -4,-169.8 786,-169.8 786,4 -4,4"/>
<text text-anchor="middle" x="391" y="-8.2" font-family="sans-serif" font-size="14.00">dependencies</text>
<g id="clust1" class="cluster">
<title>cluster_ApiLandingPageModule</title>
<polygon fill="none" stroke="black" stroke-dasharray="1,5" points="8,-32.8 8,-157.8 774,-157.8 774,-32.8 8,-32.8"/>
</g>
<g id="clust3" class="cluster">
<title>cluster_ApiLandingPageModule_imports</title>
<polygon fill="none" stroke="black" points="542,-40.8 542,-92.8 766,-92.8 766,-40.8 542,-40.8"/>
</g>
<g id="clust6" class="cluster">
<title>cluster_ApiLandingPageModule_providers</title>
<polygon fill="none" stroke="black" points="16,-40.8 16,-92.8 534,-92.8 534,-40.8 16,-40.8"/>
</g>
<!-- ApiLogModule -->
<g id="node1" class="node">
<title>ApiLogModule</title>
<polygon fill="#8dd3c7" stroke="black" points="757.6,-84.8 754.6,-88.8 733.6,-88.8 730.6,-84.8 654.4,-84.8 654.4,-48.8 757.6,-48.8 757.6,-84.8"/>
<text text-anchor="middle" x="706" y="-62.6" font-family="Times,serif" font-size="14.00">ApiLogModule</text>
</g>
<!-- ApiLandingPageModule -->
<g id="node3" class="node">
<title>ApiLandingPageModule</title>
<polygon fill="#8dd3c7" stroke="black" points="498.42,-149.8 495.42,-153.8 474.42,-153.8 471.42,-149.8 343.58,-149.8 343.58,-113.8 498.42,-113.8 498.42,-149.8"/>
<text text-anchor="middle" x="421" y="-127.6" font-family="Times,serif" font-size="14.00">ApiLandingPageModule</text>
</g>
<!-- ApiLogModule&#45;&gt;ApiLandingPageModule -->
<g id="edge1" class="edge">
<title>ApiLogModule&#45;&gt;ApiLandingPageModule</title>
<path fill="none" stroke="black" d="M706,-85.08C706,-106.12 706,-137.8 706,-137.8 706,-137.8 508.5,-137.8 508.5,-137.8"/>
<polygon fill="black" stroke="black" points="508.5,-134.3 498.5,-137.8 508.5,-141.3 508.5,-134.3"/>
</g>
<!-- UserModule -->
<g id="node2" class="node">
<title>UserModule</title>
<polygon fill="#8dd3c7" stroke="black" points="635.99,-84.8 632.99,-88.8 611.99,-88.8 608.99,-84.8 550.01,-84.8 550.01,-48.8 635.99,-48.8 635.99,-84.8"/>
<text text-anchor="middle" x="593" y="-62.6" font-family="Times,serif" font-size="14.00">UserModule</text>
</g>
<!-- UserModule&#45;&gt;ApiLandingPageModule -->
<g id="edge2" class="edge">
<title>UserModule&#45;&gt;ApiLandingPageModule</title>
<path fill="none" stroke="black" d="M593,-84.82C593,-102.17 593,-125.8 593,-125.8 593,-125.8 508.45,-125.8 508.45,-125.8"/>
<polygon fill="black" stroke="black" points="508.45,-122.3 498.45,-125.8 508.45,-129.3 508.45,-122.3"/>
</g>
<!-- ApiLandingPageService -->
<g id="node4" class="node">
<title>ApiLandingPageService</title>
<ellipse fill="#fdb462" stroke="black" cx="421" cy="-66.8" rx="105.36" ry="18"/>
<text text-anchor="middle" x="421" y="-62.6" font-family="Times,serif" font-size="14.00">ApiLandingPageService</text>
</g>
<!-- ApiLandingPageService&#45;&gt;ApiLandingPageModule -->
<g id="edge3" class="edge">
<title>ApiLandingPageService&#45;&gt;ApiLandingPageModule</title>
<path fill="none" stroke="black" d="M421,-84.91C421,-84.91 421,-103.79 421,-103.79"/>
<polygon fill="black" stroke="black" points="417.5,-103.79 421,-113.79 424.5,-103.79 417.5,-103.79"/>
</g>
<!-- ApiLogService -->
<g id="node5" class="node">
<title>ApiLogService</title>
<ellipse fill="#fdb462" stroke="black" cx="228" cy="-66.8" rx="70.07" ry="18"/>
<text text-anchor="middle" x="228" y="-62.6" font-family="Times,serif" font-size="14.00">ApiLogService</text>
</g>
<!-- ApiLogService&#45;&gt;ApiLandingPageModule -->
<g id="edge4" class="edge">
<title>ApiLogService&#45;&gt;ApiLandingPageModule</title>
<path fill="none" stroke="black" d="M228,-84.82C228,-102.17 228,-125.8 228,-125.8 228,-125.8 333.61,-125.8 333.61,-125.8"/>
<polygon fill="black" stroke="black" points="333.61,-129.3 343.61,-125.8 333.61,-122.3 333.61,-129.3"/>
</g>
<!-- UserService -->
<g id="node6" class="node">
<title>UserService</title>
<ellipse fill="#fdb462" stroke="black" cx="82" cy="-66.8" rx="58.46" ry="18"/>
<text text-anchor="middle" x="82" y="-62.6" font-family="Times,serif" font-size="14.00">UserService</text>
</g>
<!-- UserService&#45;&gt;ApiLandingPageModule -->
<g id="edge5" class="edge">
<title>UserService&#45;&gt;ApiLandingPageModule</title>
<path fill="none" stroke="black" d="M82,-85.08C82,-106.12 82,-137.8 82,-137.8 82,-137.8 333.65,-137.8 333.65,-137.8"/>
<polygon fill="black" stroke="black" points="333.65,-141.3 343.65,-137.8 333.65,-134.3 333.65,-141.3"/>
</g>
</g>
</svg>
