<?xml version="1.0" encoding="UTF-8" standalone="no"?>
<!DOCTYPE svg PUBLIC "-//W3C//DTD SVG 1.1//EN"
 "http://www.w3.org/Graphics/SVG/1.1/DTD/svg11.dtd">
<!-- Generated by graphviz version 2.47.0 (20210316.0004)
 -->
<!-- Title: dependencies Pages: 1 -->
<svg width="790pt" height="211pt"
 viewBox="0.00 0.00 790.00 211.00" xmlns="http://www.w3.org/2000/svg" xmlns:xlink="http://www.w3.org/1999/xlink">
<g id="graph0" class="graph" transform="scale(1 1) rotate(0) translate(4 207)">
<title>dependencies</title>
<polygon fill="white" stroke="transparent" points="-4,4 -4,-207 786,-207 786,4 -4,4"/>
<text text-anchor="start" x="370.01" y="-42.4" font-family="Times-12" font-weight="bold" font-size="14.00">Legend</text>
<polygon fill="#ffffb3" stroke="transparent" points="157,-10 157,-30 177,-30 177,-10 157,-10"/>
<text text-anchor="start" x="180.63" y="-15.4" font-family="Times-12" font-size="14.00"> &#160;Declarations</text>
<polygon fill="#8dd3c7" stroke="transparent" points="270,-10 270,-30 290,-30 290,-10 270,-10"/>
<text text-anchor="start" x="293.73" y="-15.4" font-family="Times-12" font-size="14.00"> &#160;Module</text>
<polygon fill="#80b1d3" stroke="transparent" points="356,-10 356,-30 376,-30 376,-10 356,-10"/>
<text text-anchor="start" x="379.78" y="-15.4" font-family="Times-12" font-size="14.00"> &#160;Bootstrap</text>
<polygon fill="#fdb462" stroke="transparent" points="453,-10 453,-30 473,-30 473,-10 453,-10"/>
<text text-anchor="start" x="476.67" y="-15.4" font-family="Times-12" font-size="14.00"> &#160;Providers</text>
<polygon fill="#fb8072" stroke="transparent" points="549,-10 549,-30 569,-30 569,-10 549,-10"/>
<text text-anchor="start" x="572.73" y="-15.4" font-family="Times-12" font-size="14.00"> &#160;Exports</text>
<g id="clust1" class="cluster">
<title>cluster_ApiLandingPageModule</title>
<polygon fill="none" stroke="black" stroke-dasharray="1,5" points="8,-70 8,-195 774,-195 774,-70 8,-70"/>
</g>
<g id="clust3" class="cluster">
<title>cluster_ApiLandingPageModule_imports</title>
<polygon fill="none" stroke="black" points="542,-78 542,-130 766,-130 766,-78 542,-78"/>
</g>
<g id="clust6" class="cluster">
<title>cluster_ApiLandingPageModule_providers</title>
<polygon fill="none" stroke="black" points="16,-78 16,-130 534,-130 534,-78 16,-78"/>
</g>
<!-- ApiLogModule -->
<g id="node1" class="node">
<title>ApiLogModule</title>
<polygon fill="#8dd3c7" stroke="black" points="757.6,-122 754.6,-126 733.6,-126 730.6,-122 654.4,-122 654.4,-86 757.6,-86 757.6,-122"/>
<text text-anchor="middle" x="706" y="-99.8" font-family="Times,serif" font-size="14.00">ApiLogModule</text>
</g>
<!-- ApiLandingPageModule -->
<g id="node3" class="node">
<title>ApiLandingPageModule</title>
<polygon fill="#8dd3c7" stroke="black" points="498.42,-187 495.42,-191 474.42,-191 471.42,-187 343.58,-187 343.58,-151 498.42,-151 498.42,-187"/>
<text text-anchor="middle" x="421" y="-164.8" font-family="Times,serif" font-size="14.00">ApiLandingPageModule</text>
</g>
<!-- ApiLogModule&#45;&gt;ApiLandingPageModule -->
<g id="edge1" class="edge">
<title>ApiLogModule&#45;&gt;ApiLandingPageModule</title>
<path fill="none" stroke="black" d="M706,-122.28C706,-143.32 706,-175 706,-175 706,-175 508.5,-175 508.5,-175"/>
<polygon fill="black" stroke="black" points="508.5,-171.5 498.5,-175 508.5,-178.5 508.5,-171.5"/>
</g>
<!-- UserModule -->
<g id="node2" class="node">
<title>UserModule</title>
<polygon fill="#8dd3c7" stroke="black" points="635.98,-122 632.98,-126 611.98,-126 608.98,-122 550.02,-122 550.02,-86 635.98,-86 635.98,-122"/>
<text text-anchor="middle" x="593" y="-99.8" font-family="Times,serif" font-size="14.00">UserModule</text>
</g>
<!-- UserModule&#45;&gt;ApiLandingPageModule -->
<g id="edge2" class="edge">
<title>UserModule&#45;&gt;ApiLandingPageModule</title>
<path fill="none" stroke="black" d="M593,-122.02C593,-139.37 593,-163 593,-163 593,-163 508.45,-163 508.45,-163"/>
<polygon fill="black" stroke="black" points="508.45,-159.5 498.45,-163 508.45,-166.5 508.45,-159.5"/>
</g>
<!-- ApiLandingPageService -->
<g id="node4" class="node">
<title>ApiLandingPageService</title>
<ellipse fill="#fdb462" stroke="black" cx="421" cy="-104" rx="105.36" ry="18"/>
<text text-anchor="middle" x="421" y="-99.8" font-family="Times,serif" font-size="14.00">ApiLandingPageService</text>
</g>
<!-- ApiLandingPageService&#45;&gt;ApiLandingPageModule -->
<g id="edge3" class="edge">
<title>ApiLandingPageService&#45;&gt;ApiLandingPageModule</title>
<path fill="none" stroke="black" d="M421,-122.11C421,-122.11 421,-140.99 421,-140.99"/>
<polygon fill="black" stroke="black" points="417.5,-140.99 421,-150.99 424.5,-140.99 417.5,-140.99"/>
</g>
<!-- ApiLogService -->
<g id="node5" class="node">
<title>ApiLogService</title>
<ellipse fill="#fdb462" stroke="black" cx="228" cy="-104" rx="70.06" ry="18"/>
<text text-anchor="middle" x="228" y="-99.8" font-family="Times,serif" font-size="14.00">ApiLogService</text>
</g>
<!-- ApiLogService&#45;&gt;ApiLandingPageModule -->
<g id="edge4" class="edge">
<title>ApiLogService&#45;&gt;ApiLandingPageModule</title>
<path fill="none" stroke="black" d="M228,-122.02C228,-139.37 228,-163 228,-163 228,-163 333.61,-163 333.61,-163"/>
<polygon fill="black" stroke="black" points="333.61,-166.5 343.61,-163 333.61,-159.5 333.61,-166.5"/>
</g>
<!-- UserService -->
<g id="node6" class="node">
<title>UserService</title>
<ellipse fill="#fdb462" stroke="black" cx="82" cy="-104" rx="58.44" ry="18"/>
<text text-anchor="middle" x="82" y="-99.8" font-family="Times,serif" font-size="14.00">UserService</text>
</g>
<!-- UserService&#45;&gt;ApiLandingPageModule -->
<g id="edge5" class="edge">
<title>UserService&#45;&gt;ApiLandingPageModule</title>
<path fill="none" stroke="black" d="M82,-122.28C82,-143.32 82,-175 82,-175 82,-175 333.65,-175 333.65,-175"/>
<polygon fill="black" stroke="black" points="333.65,-178.5 343.65,-175 333.65,-171.5 333.65,-178.5"/>
</g>
</g>
</svg>
