<?xml version="1.0" encoding="UTF-8" standalone="no"?>
<!DOCTYPE svg PUBLIC "-//W3C//DTD SVG 1.1//EN"
 "http://www.w3.org/Graphics/SVG/1.1/DTD/svg11.dtd">
<!-- Generated by graphviz version 5.0.0 (20220707.1540)
 -->
<!-- Title: dependencies Pages: 1 -->
<svg width="790pt" height="174pt"
 viewBox="0.00 0.00 790.00 173.80" xmlns="http://www.w3.org/2000/svg" xmlns:xlink="http://www.w3.org/1999/xlink">
<g id="graph0" class="graph" transform="scale(1 1) rotate(0) translate(4 169.8)">
<title>dependencies</title>
<polygon fill="white" stroke="transparent" points="-4,4 -4,-169.8 786,-169.8 786,4 -4,4"/>
<text text-anchor="middle" x="391" y="-8.2" font-family="sans-serif" font-size="14.00">dependencies</text>
<g id="clust1" class="cluster">
<title>cluster_ApiLandingPageModule</title>
<polygon fill="none" stroke="black" stroke-dasharray="1,5" points="8,-32.8 8,-157.8 774,-157.8 774,-32.8 8,-32.8"/>
</g>
<g id="clust6" class="cluster">
<title>cluster_ApiLandingPageModule_providers</title>
<polygon fill="none" stroke="black" points="248,-40.8 248,-92.8 766,-92.8 766,-40.8 248,-40.8"/>
</g>
<g id="clust3" class="cluster">
<title>cluster_ApiLandingPageModule_imports</title>
<polygon fill="none" stroke="black" points="16,-40.8 16,-92.8 240,-92.8 240,-40.8 16,-40.8"/>
</g>
<!-- ApiLogModule -->
<g id="node1" class="node">
<title>ApiLogModule</title>
<polygon fill="#8dd3c7" stroke="black" points="231.6,-84.8 228.6,-88.8 207.6,-88.8 204.6,-84.8 128.4,-84.8 128.4,-48.8 231.6,-48.8 231.6,-84.8"/>
<text text-anchor="middle" x="180" y="-62.6" font-family="Times,serif" font-size="14.00">ApiLogModule</text>
</g>
<!-- ApiLandingPageModule -->
<g id="node3" class="node">
<title>ApiLandingPageModule</title>
<polygon fill="#8dd3c7" stroke="black" points="391.42,-149.8 388.42,-153.8 367.42,-153.8 364.42,-149.8 236.58,-149.8 236.58,-113.8 391.42,-113.8 391.42,-149.8"/>
<text text-anchor="middle" x="314" y="-127.6" font-family="Times,serif" font-size="14.00">ApiLandingPageModule</text>
</g>
<!-- ApiLogModule&#45;&gt;ApiLandingPageModule -->
<g id="edge1" class="edge">
<title>ApiLogModule&#45;&gt;ApiLandingPageModule</title>
<path fill="none" stroke="black" d="M231.57,-66.8C240.13,-66.8 246.28,-66.8 246.28,-66.8 246.28,-66.8 246.28,-103.69 246.28,-103.69"/>
<polygon fill="black" stroke="black" points="242.78,-103.69 246.28,-113.69 249.78,-103.69 242.78,-103.69"/>
</g>
<!-- UserModule -->
<g id="node2" class="node">
<title>UserModule</title>
<polygon fill="#8dd3c7" stroke="black" points="109.99,-84.8 106.99,-88.8 85.99,-88.8 82.99,-84.8 24.01,-84.8 24.01,-48.8 109.99,-48.8 109.99,-84.8"/>
<text text-anchor="middle" x="67" y="-62.6" font-family="Times,serif" font-size="14.00">UserModule</text>
</g>
<!-- UserModule&#45;&gt;ApiLandingPageModule -->
<g id="edge2" class="edge">
<title>UserModule&#45;&gt;ApiLandingPageModule</title>
<path fill="none" stroke="black" d="M67,-84.91C67,-104.14 67,-131.8 67,-131.8 67,-131.8 226.53,-131.8 226.53,-131.8"/>
<polygon fill="black" stroke="black" points="226.53,-135.3 236.53,-131.8 226.53,-128.3 226.53,-135.3"/>
</g>
<!-- ApiLandingPageService -->
<g id="node4" class="node">
<title>ApiLandingPageService</title>
<ellipse fill="#fdb462" stroke="black" cx="653" cy="-66.8" rx="105.36" ry="18"/>
<text text-anchor="middle" x="653" y="-62.6" font-family="Times,serif" font-size="14.00">ApiLandingPageService</text>
</g>
<!-- ApiLandingPageService&#45;&gt;ApiLandingPageModule -->
<g id="edge3" class="edge">
<title>ApiLandingPageService&#45;&gt;ApiLandingPageModule</title>
<path fill="none" stroke="black" d="M653,-84.91C653,-104.14 653,-131.8 653,-131.8 653,-131.8 401.35,-131.8 401.35,-131.8"/>
<polygon fill="black" stroke="black" points="401.35,-128.3 391.35,-131.8 401.35,-135.3 401.35,-128.3"/>
</g>
<!-- ApiLogService -->
<g id="node5" class="node">
<title>ApiLogService</title>
<ellipse fill="#fdb462" stroke="black" cx="460" cy="-66.8" rx="70.07" ry="18"/>
<text text-anchor="middle" x="460" y="-62.6" font-family="Times,serif" font-size="14.00">ApiLogService</text>
</g>
<!-- ApiLogService&#45;&gt;ApiLandingPageModule -->
<g id="edge4" class="edge">
<title>ApiLogService&#45;&gt;ApiLandingPageModule</title>
<path fill="none" stroke="black" d="M389.84,-66.8C384.48,-66.8 381.1,-66.8 381.1,-66.8 381.1,-66.8 381.1,-103.69 381.1,-103.69"/>
<polygon fill="black" stroke="black" points="377.6,-103.69 381.1,-113.69 384.6,-103.69 377.6,-103.69"/>
</g>
<!-- UserService -->
<g id="node6" class="node">
<title>UserService</title>
<ellipse fill="#fdb462" stroke="black" cx="314" cy="-66.8" rx="58.46" ry="18"/>
<text text-anchor="middle" x="314" y="-62.6" font-family="Times,serif" font-size="14.00">UserService</text>
</g>
<!-- UserService&#45;&gt;ApiLandingPageModule -->
<g id="edge5" class="edge">
<title>UserService&#45;&gt;ApiLandingPageModule</title>
<path fill="none" stroke="black" d="M314,-84.91C314,-84.91 314,-103.79 314,-103.79"/>
<polygon fill="black" stroke="black" points="310.5,-103.79 314,-113.79 317.5,-103.79 310.5,-103.79"/>
</g>
</g>
</svg>
