<?xml version="1.0" encoding="UTF-8" standalone="no"?>
<!DOCTYPE svg PUBLIC "-//W3C//DTD SVG 1.1//EN"
 "http://www.w3.org/Graphics/SVG/1.1/DTD/svg11.dtd">
<!-- Generated by graphviz version 2.47.0 (20210316.0004)
 -->
<!-- Title: dependencies Pages: 1 -->
<svg width="1275pt" height="211pt"
 viewBox="0.00 0.00 1275.00 211.00" xmlns="http://www.w3.org/2000/svg" xmlns:xlink="http://www.w3.org/1999/xlink">
<g id="graph0" class="graph" transform="scale(1 1) rotate(0) translate(4 207)">
<title>dependencies</title>
<polygon fill="white" stroke="transparent" points="-4,4 -4,-207 1271,-207 1271,4 -4,4"/>
<text text-anchor="start" x="612.51" y="-42.4" font-family="Times-12" font-weight="bold" font-size="14.00">Legend</text>
<polygon fill="#ffffb3" stroke="transparent" points="399.5,-10 399.5,-30 419.5,-30 419.5,-10 399.5,-10"/>
<text text-anchor="start" x="423.13" y="-15.4" font-family="Times-12" font-size="14.00"> &#160;Declarations</text>
<polygon fill="#8dd3c7" stroke="transparent" points="512.5,-10 512.5,-30 532.5,-30 532.5,-10 512.5,-10"/>
<text text-anchor="start" x="536.23" y="-15.4" font-family="Times-12" font-size="14.00"> &#160;Module</text>
<polygon fill="#80b1d3" stroke="transparent" points="598.5,-10 598.5,-30 618.5,-30 618.5,-10 598.5,-10"/>
<text text-anchor="start" x="622.28" y="-15.4" font-family="Times-12" font-size="14.00"> &#160;Bootstrap</text>
<polygon fill="#fdb462" stroke="transparent" points="695.5,-10 695.5,-30 715.5,-30 715.5,-10 695.5,-10"/>
<text text-anchor="start" x="719.17" y="-15.4" font-family="Times-12" font-size="14.00"> &#160;Providers</text>
<polygon fill="#fb8072" stroke="transparent" points="791.5,-10 791.5,-30 811.5,-30 811.5,-10 791.5,-10"/>
<text text-anchor="start" x="815.23" y="-15.4" font-family="Times-12" font-size="14.00"> &#160;Exports</text>
<g id="clust1" class="cluster">
<title>cluster_StripeWebhookModule</title>
<polygon fill="none" stroke="black" stroke-dasharray="1,5" points="8,-70 8,-195 1259,-195 1259,-70 8,-70"/>
</g>
<g id="clust3" class="cluster">
<title>cluster_StripeWebhookModule_imports</title>
<polygon fill="none" stroke="black" points="877,-78 877,-130 1251,-130 1251,-78 877,-78"/>
</g>
<g id="clust6" class="cluster">
<title>cluster_StripeWebhookModule_providers</title>
<polygon fill="none" stroke="black" points="16,-78 16,-130 869,-130 869,-78 16,-78"/>
</g>
<!-- ApiLogModule -->
<g id="node1" class="node">
<title>ApiLogModule</title>
<polygon fill="#8dd3c7" stroke="black" points="1242.6,-122 1239.6,-126 1218.6,-126 1215.6,-122 1139.4,-122 1139.4,-86 1242.6,-86 1242.6,-122"/>
<text text-anchor="middle" x="1191" y="-99.8" font-family="Times,serif" font-size="14.00">ApiLogModule</text>
</g>
<!-- StripeWebhookModule -->
<g id="node4" class="node">
<title>StripeWebhookModule</title>
<polygon fill="#8dd3c7" stroke="black" points="716.92,-187 713.92,-191 692.92,-191 689.92,-187 569.08,-187 569.08,-151 716.92,-151 716.92,-187"/>
<text text-anchor="middle" x="643" y="-164.8" font-family="Times,serif" font-size="14.00">StripeWebhookModule</text>
</g>
<!-- ApiLogModule&#45;&gt;StripeWebhookModule -->
<g id="edge1" class="edge">
<title>ApiLogModule&#45;&gt;StripeWebhookModule</title>
<path fill="none" stroke="black" d="M1191,-122.29C1191,-144.21 1191,-178 1191,-178 1191,-178 726.91,-178 726.91,-178"/>
<polygon fill="black" stroke="black" points="726.91,-174.5 716.91,-178 726.91,-181.5 726.91,-174.5"/>
</g>
<!-- PriceModule -->
<g id="node2" class="node">
<title>PriceModule</title>
<polygon fill="#8dd3c7" stroke="black" points="1121.31,-122 1118.31,-126 1097.31,-126 1094.31,-122 1032.69,-122 1032.69,-86 1121.31,-86 1121.31,-122"/>
<text text-anchor="middle" x="1077" y="-99.8" font-family="Times,serif" font-size="14.00">PriceModule</text>
</g>
<!-- PriceModule&#45;&gt;StripeWebhookModule -->
<g id="edge2" class="edge">
<title>PriceModule&#45;&gt;StripeWebhookModule</title>
<path fill="none" stroke="black" d="M1077,-122.11C1077,-141.34 1077,-169 1077,-169 1077,-169 727.11,-169 727.11,-169"/>
<polygon fill="black" stroke="black" points="727.11,-165.5 717.11,-169 727.11,-172.5 727.11,-165.5"/>
</g>
<!-- SubscriptionModule -->
<g id="node3" class="node">
<title>SubscriptionModule</title>
<polygon fill="#8dd3c7" stroke="black" points="1015.32,-122 1012.32,-126 991.32,-126 988.32,-122 884.68,-122 884.68,-86 1015.32,-86 1015.32,-122"/>
<text text-anchor="middle" x="950" y="-99.8" font-family="Times,serif" font-size="14.00">SubscriptionModule</text>
</g>
<!-- SubscriptionModule&#45;&gt;StripeWebhookModule -->
<g id="edge3" class="edge">
<title>SubscriptionModule&#45;&gt;StripeWebhookModule</title>
<path fill="none" stroke="black" d="M950,-122.03C950,-138.4 950,-160 950,-160 950,-160 726.92,-160 726.92,-160"/>
<polygon fill="black" stroke="black" points="726.92,-156.5 716.92,-160 726.92,-163.5 726.92,-156.5"/>
</g>
<!-- ApiLogService -->
<g id="node5" class="node">
<title>ApiLogService</title>
<ellipse fill="#fdb462" stroke="black" cx="791" cy="-104" rx="70.06" ry="18"/>
<text text-anchor="middle" x="791" y="-99.8" font-family="Times,serif" font-size="14.00">ApiLogService</text>
</g>
<!-- ApiLogService&#45;&gt;StripeWebhookModule -->
<g id="edge4" class="edge">
<title>ApiLogService&#45;&gt;StripeWebhookModule</title>
<path fill="none" stroke="black" d="M720.73,-104C714.09,-104 709.77,-104 709.77,-104 709.77,-104 709.77,-140.89 709.77,-140.89"/>
<polygon fill="black" stroke="black" points="706.27,-140.89 709.77,-150.89 713.27,-140.89 706.27,-140.89"/>
</g>
<!-- PriceService -->
<g id="node6" class="node">
<title>PriceService</title>
<ellipse fill="#fdb462" stroke="black" cx="643" cy="-104" rx="59.66" ry="18"/>
<text text-anchor="middle" x="643" y="-99.8" font-family="Times,serif" font-size="14.00">PriceService</text>
</g>
<!-- PriceService&#45;&gt;StripeWebhookModule -->
<g id="edge5" class="edge">
<title>PriceService&#45;&gt;StripeWebhookModule</title>
<path fill="none" stroke="black" d="M643,-122.11C643,-122.11 643,-140.99 643,-140.99"/>
<polygon fill="black" stroke="black" points="639.5,-140.99 643,-150.99 646.5,-140.99 639.5,-140.99"/>
</g>
<!-- StripeService -->
<g id="node7" class="node">
<title>StripeService</title>
<ellipse fill="#fdb462" stroke="black" cx="502" cy="-104" rx="63.12" ry="18"/>
<text text-anchor="middle" x="502" y="-99.8" font-family="Times,serif" font-size="14.00">StripeService</text>
</g>
<!-- StripeService&#45;&gt;StripeWebhookModule -->
<g id="edge6" class="edge">
<title>StripeService&#45;&gt;StripeWebhookModule</title>
<path fill="none" stroke="black" d="M565.28,-104C571.88,-104 576.23,-104 576.23,-104 576.23,-104 576.23,-140.89 576.23,-140.89"/>
<polygon fill="black" stroke="black" points="572.73,-140.89 576.23,-150.89 579.73,-140.89 572.73,-140.89"/>
</g>
<!-- StripeWebhookService -->
<g id="node8" class="node">
<title>StripeWebhookService</title>
<ellipse fill="#fdb462" stroke="black" cx="320" cy="-104" rx="100.7" ry="18"/>
<text text-anchor="middle" x="320" y="-99.8" font-family="Times,serif" font-size="14.00">StripeWebhookService</text>
</g>
<!-- StripeWebhookService&#45;&gt;StripeWebhookModule -->
<g id="edge7" class="edge">
<title>StripeWebhookService&#45;&gt;StripeWebhookModule</title>
<path fill="none" stroke="black" d="M320,-122.03C320,-138.4 320,-160 320,-160 320,-160 558.9,-160 558.9,-160"/>
<polygon fill="black" stroke="black" points="558.9,-163.5 568.9,-160 558.9,-156.5 558.9,-163.5"/>
</g>
<!-- SubscriptionService -->
<g id="node9" class="node">
<title>SubscriptionService</title>
<ellipse fill="#fdb462" stroke="black" cx="113" cy="-104" rx="88.62" ry="18"/>
<text text-anchor="middle" x="113" y="-99.8" font-family="Times,serif" font-size="14.00">SubscriptionService</text>
</g>
<!-- SubscriptionService&#45;&gt;StripeWebhookModule -->
<g id="edge8" class="edge">
<title>SubscriptionService&#45;&gt;StripeWebhookModule</title>
<path fill="none" stroke="black" d="M83.4,-121.16C83.4,-143.02 83.4,-178 83.4,-178 83.4,-178 559.27,-178 559.27,-178"/>
<polygon fill="black" stroke="black" points="559.27,-181.5 569.27,-178 559.27,-174.5 559.27,-181.5"/>
</g>
<!-- SubscriptionService&#45;&gt;StripeWebhookModule -->
<g id="edge9" class="edge">
<title>SubscriptionService&#45;&gt;StripeWebhookModule</title>
<path fill="none" stroke="black" d="M142.6,-121.08C142.6,-140.34 142.6,-169 142.6,-169 142.6,-169 559.16,-169 559.16,-169"/>
<polygon fill="black" stroke="black" points="559.16,-172.5 569.16,-169 559.16,-165.5 559.16,-172.5"/>
</g>
</g>
</svg>
