<?xml version="1.0" encoding="UTF-8" standalone="no"?>
<!DOCTYPE svg PUBLIC "-//W3C//DTD SVG 1.1//EN"
 "http://www.w3.org/Graphics/SVG/1.1/DTD/svg11.dtd">
<!-- Generated by graphviz version 5.0.0 (20220707.1540)
 -->
<!-- Title: dependencies Pages: 1 -->
<svg width="474pt" height="174pt"
 viewBox="0.00 0.00 474.00 173.80" xmlns="http://www.w3.org/2000/svg" xmlns:xlink="http://www.w3.org/1999/xlink">
<g id="graph0" class="graph" transform="scale(1 1) rotate(0) translate(4 169.8)">
<title>dependencies</title>
<polygon fill="white" stroke="transparent" points="-4,4 -4,-169.8 470,-169.8 470,4 -4,4"/>
<text text-anchor="middle" x="233" y="-8.2" font-family="sans-serif" font-size="14.00">dependencies</text>
<g id="clust1" class="cluster">
<title>cluster_ProfileModule</title>
<polygon fill="none" stroke="black" stroke-dasharray="1,5" points="8,-32.8 8,-157.8 458,-157.8 458,-32.8 8,-32.8"/>
</g>
<g id="clust6" class="cluster">
<title>cluster_ProfileModule_providers</title>
<polygon fill="none" stroke="black" points="144,-40.8 144,-92.8 450,-92.8 450,-40.8 144,-40.8"/>
</g>
<g id="clust3" class="cluster">
<title>cluster_ProfileModule_imports</title>
<polygon fill="none" stroke="black" points="16,-40.8 16,-92.8 136,-92.8 136,-40.8 16,-40.8"/>
</g>
<!-- ApiLogModule -->
<g id="node1" class="node">
<title>ApiLogModule</title>
<polygon fill="#8dd3c7" stroke="black" points="127.6,-84.8 124.6,-88.8 103.6,-88.8 100.6,-84.8 24.4,-84.8 24.4,-48.8 127.6,-48.8 127.6,-84.8"/>
<text text-anchor="middle" x="76" y="-62.6" font-family="Times,serif" font-size="14.00">ApiLogModule</text>
</g>
<!-- ProfileModule -->
<g id="node2" class="node">
<title>ProfileModule</title>
<polygon fill="#8dd3c7" stroke="black" points="266.66,-149.8 263.66,-153.8 242.66,-153.8 239.66,-149.8 169.34,-149.8 169.34,-113.8 266.66,-113.8 266.66,-149.8"/>
<text text-anchor="middle" x="218" y="-127.6" font-family="Times,serif" font-size="14.00">ProfileModule</text>
</g>
<!-- ApiLogModule&#45;&gt;ProfileModule -->
<g id="edge1" class="edge">
<title>ApiLogModule&#45;&gt;ProfileModule</title>
<path fill="none" stroke="black" d="M76,-84.91C76,-104.14 76,-131.8 76,-131.8 76,-131.8 159.13,-131.8 159.13,-131.8"/>
<polygon fill="black" stroke="black" points="159.13,-135.3 169.13,-131.8 159.13,-128.3 159.13,-135.3"/>
</g>
<!-- ApiLogService -->
<g id="node3" class="node">
<title>ApiLogService</title>
<ellipse fill="#fdb462" stroke="black" cx="372" cy="-66.8" rx="70.07" ry="18"/>
<text text-anchor="middle" x="372" y="-62.6" font-family="Times,serif" font-size="14.00">ApiLogService</text>
</g>
<!-- ApiLogService&#45;&gt;ProfileModule -->
<g id="edge2" class="edge">
<title>ApiLogService&#45;&gt;ProfileModule</title>
<path fill="none" stroke="black" d="M372,-84.91C372,-104.14 372,-131.8 372,-131.8 372,-131.8 276.73,-131.8 276.73,-131.8"/>
<polygon fill="black" stroke="black" points="276.73,-128.3 266.73,-131.8 276.73,-135.3 276.73,-128.3"/>
</g>
<!-- ProfileService -->
<g id="node4" class="node">
<title>ProfileService</title>
<ellipse fill="#fdb462" stroke="black" cx="218" cy="-66.8" rx="66.05" ry="18"/>
<text text-anchor="middle" x="218" y="-62.6" font-family="Times,serif" font-size="14.00">ProfileService</text>
</g>
<!-- ProfileService&#45;&gt;ProfileModule -->
<g id="edge3" class="edge">
<title>ProfileService&#45;&gt;ProfileModule</title>
<path fill="none" stroke="black" d="M218,-84.91C218,-84.91 218,-103.79 218,-103.79"/>
<polygon fill="black" stroke="black" points="214.5,-103.79 218,-113.79 221.5,-103.79 214.5,-103.79"/>
</g>
</g>
</svg>
