<?xml version="1.0" encoding="UTF-8" standalone="no"?>
<!DOCTYPE svg PUBLIC "-//W3C//DTD SVG 1.1//EN"
 "http://www.w3.org/Graphics/SVG/1.1/DTD/svg11.dtd">
<!-- Generated by graphviz version 5.0.0 (20220707.1540)
 -->
<!-- Title: dependencies Pages: 1 -->
<svg width="474pt" height="174pt"
 viewBox="0.00 0.00 474.00 173.80" xmlns="http://www.w3.org/2000/svg" xmlns:xlink="http://www.w3.org/1999/xlink">
<g id="graph0" class="graph" transform="scale(1 1) rotate(0) translate(4 169.8)">
<title>dependencies</title>
<polygon fill="white" stroke="transparent" points="-4,4 -4,-169.8 470,-169.8 470,4 -4,4"/>
<text text-anchor="middle" x="233" y="-8.2" font-family="sans-serif" font-size="14.00">dependencies</text>
<g id="clust1" class="cluster">
<title>cluster_ProfileModule</title>
<polygon fill="none" stroke="black" stroke-dasharray="1,5" points="8,-32.8 8,-157.8 458,-157.8 458,-32.8 8,-32.8"/>
</g>
<g id="clust3" class="cluster">
<title>cluster_ProfileModule_imports</title>
<polygon fill="none" stroke="black" points="330,-40.8 330,-92.8 450,-92.8 450,-40.8 330,-40.8"/>
</g>
<g id="clust6" class="cluster">
<title>cluster_ProfileModule_providers</title>
<polygon fill="none" stroke="black" points="16,-40.8 16,-92.8 322,-92.8 322,-40.8 16,-40.8"/>
</g>
<!-- ApiLogModule -->
<g id="node1" class="node">
<title>ApiLogModule</title>
<polygon fill="#8dd3c7" stroke="black" points="441.6,-84.8 438.6,-88.8 417.6,-88.8 414.6,-84.8 338.4,-84.8 338.4,-48.8 441.6,-48.8 441.6,-84.8"/>
<text text-anchor="middle" x="390" y="-62.6" font-family="Times,serif" font-size="14.00">ApiLogModule</text>
</g>
<!-- ProfileModule -->
<g id="node2" class="node">
<title>ProfileModule</title>
<polygon fill="#8dd3c7" stroke="black" points="292.66,-149.8 289.66,-153.8 268.66,-153.8 265.66,-149.8 195.34,-149.8 195.34,-113.8 292.66,-113.8 292.66,-149.8"/>
<text text-anchor="middle" x="244" y="-127.6" font-family="Times,serif" font-size="14.00">ProfileModule</text>
</g>
<!-- ApiLogModule&#45;&gt;ProfileModule -->
<g id="edge1" class="edge">
<title>ApiLogModule&#45;&gt;ProfileModule</title>
<path fill="none" stroke="black" d="M390,-84.91C390,-104.14 390,-131.8 390,-131.8 390,-131.8 303.02,-131.8 303.02,-131.8"/>
<polygon fill="black" stroke="black" points="303.02,-128.3 293.02,-131.8 303.02,-135.3 303.02,-128.3"/>
</g>
<!-- ApiLogService -->
<g id="node3" class="node">
<title>ApiLogService</title>
<ellipse fill="#fdb462" stroke="black" cx="244" cy="-66.8" rx="70.07" ry="18"/>
<text text-anchor="middle" x="244" y="-62.6" font-family="Times,serif" font-size="14.00">ApiLogService</text>
</g>
<!-- ApiLogService&#45;&gt;ProfileModule -->
<g id="edge2" class="edge">
<title>ApiLogService&#45;&gt;ProfileModule</title>
<path fill="none" stroke="black" d="M244,-84.91C244,-84.91 244,-103.79 244,-103.79"/>
<polygon fill="black" stroke="black" points="240.5,-103.79 244,-113.79 247.5,-103.79 240.5,-103.79"/>
</g>
<!-- ProfileService -->
<g id="node4" class="node">
<title>ProfileService</title>
<ellipse fill="#fdb462" stroke="black" cx="90" cy="-66.8" rx="66.05" ry="18"/>
<text text-anchor="middle" x="90" y="-62.6" font-family="Times,serif" font-size="14.00">ProfileService</text>
</g>
<!-- ProfileService&#45;&gt;ProfileModule -->
<g id="edge3" class="edge">
<title>ProfileService&#45;&gt;ProfileModule</title>
<path fill="none" stroke="black" d="M90,-84.91C90,-104.14 90,-131.8 90,-131.8 90,-131.8 185.27,-131.8 185.27,-131.8"/>
<polygon fill="black" stroke="black" points="185.27,-135.3 195.27,-131.8 185.27,-128.3 185.27,-135.3"/>
</g>
</g>
</svg>
