<?xml version="1.0" encoding="UTF-8" standalone="no"?>
<!DOCTYPE svg PUBLIC "-//W3C//DTD SVG 1.1//EN"
 "http://www.w3.org/Graphics/SVG/1.1/DTD/svg11.dtd">
<!-- Generated by graphviz version 5.0.0 (20220707.1540)
 -->
<!-- Title: dependencies Pages: 1 -->
<svg width="726pt" height="174pt"
 viewBox="0.00 0.00 726.00 173.80" xmlns="http://www.w3.org/2000/svg" xmlns:xlink="http://www.w3.org/1999/xlink">
<g id="graph0" class="graph" transform="scale(1 1) rotate(0) translate(4 169.8)">
<title>dependencies</title>
<polygon fill="white" stroke="transparent" points="-4,4 -4,-169.8 722,-169.8 722,4 -4,4"/>
<text text-anchor="middle" x="359" y="-8.2" font-family="sans-serif" font-size="14.00">dependencies</text>
<g id="clust1" class="cluster">
<title>cluster_ApiMailModule</title>
<polygon fill="none" stroke="black" stroke-dasharray="1,5" points="8,-32.8 8,-157.8 710,-157.8 710,-32.8 8,-32.8"/>
</g>
<g id="clust6" class="cluster">
<title>cluster_ApiMailModule_providers</title>
<polygon fill="none" stroke="black" points="248,-40.8 248,-92.8 702,-92.8 702,-40.8 248,-40.8"/>
</g>
<g id="clust3" class="cluster">
<title>cluster_ApiMailModule_imports</title>
<polygon fill="none" stroke="black" points="16,-40.8 16,-92.8 240,-92.8 240,-40.8 16,-40.8"/>
</g>
<!-- ApiLogModule -->
<g id="node1" class="node">
<title>ApiLogModule</title>
<polygon fill="#8dd3c7" stroke="black" points="231.6,-84.8 228.6,-88.8 207.6,-88.8 204.6,-84.8 128.4,-84.8 128.4,-48.8 231.6,-48.8 231.6,-84.8"/>
<text text-anchor="middle" x="180" y="-62.6" font-family="Times,serif" font-size="14.00">ApiLogModule</text>
</g>
<!-- ApiMailModule -->
<g id="node3" class="node">
<title>ApiMailModule</title>
<polygon fill="#8dd3c7" stroke="black" points="367.49,-149.8 364.49,-153.8 343.49,-153.8 340.49,-149.8 260.51,-149.8 260.51,-113.8 367.49,-113.8 367.49,-149.8"/>
<text text-anchor="middle" x="314" y="-127.6" font-family="Times,serif" font-size="14.00">ApiMailModule</text>
</g>
<!-- ApiLogModule&#45;&gt;ApiMailModule -->
<g id="edge1" class="edge">
<title>ApiLogModule&#45;&gt;ApiMailModule</title>
<path fill="none" stroke="black" d="M180,-84.82C180,-102.17 180,-125.8 180,-125.8 180,-125.8 250.27,-125.8 250.27,-125.8"/>
<polygon fill="black" stroke="black" points="250.27,-129.3 260.27,-125.8 250.27,-122.3 250.27,-129.3"/>
</g>
<!-- UserModule -->
<g id="node2" class="node">
<title>UserModule</title>
<polygon fill="#8dd3c7" stroke="black" points="109.99,-84.8 106.99,-88.8 85.99,-88.8 82.99,-84.8 24.01,-84.8 24.01,-48.8 109.99,-48.8 109.99,-84.8"/>
<text text-anchor="middle" x="67" y="-62.6" font-family="Times,serif" font-size="14.00">UserModule</text>
</g>
<!-- UserModule&#45;&gt;ApiMailModule -->
<g id="edge2" class="edge">
<title>UserModule&#45;&gt;ApiMailModule</title>
<path fill="none" stroke="black" d="M67,-85.08C67,-106.12 67,-137.8 67,-137.8 67,-137.8 250.4,-137.8 250.4,-137.8"/>
<polygon fill="black" stroke="black" points="250.4,-141.3 260.4,-137.8 250.4,-134.3 250.4,-141.3"/>
</g>
<!-- ApiLogService -->
<g id="node4" class="node">
<title>ApiLogService</title>
<ellipse fill="#fdb462" stroke="black" cx="624" cy="-66.8" rx="70.07" ry="18"/>
<text text-anchor="middle" x="624" y="-62.6" font-family="Times,serif" font-size="14.00">ApiLogService</text>
</g>
<!-- ApiLogService&#45;&gt;ApiMailModule -->
<g id="edge3" class="edge">
<title>ApiLogService&#45;&gt;ApiMailModule</title>
<path fill="none" stroke="black" d="M624,-85.08C624,-106.12 624,-137.8 624,-137.8 624,-137.8 377.64,-137.8 377.64,-137.8"/>
<polygon fill="black" stroke="black" points="377.64,-134.3 367.64,-137.8 377.64,-141.3 377.64,-134.3"/>
</g>
<!-- ApiMailService -->
<g id="node5" class="node">
<title>ApiMailService</title>
<ellipse fill="#fdb462" stroke="black" cx="463" cy="-66.8" rx="72.94" ry="18"/>
<text text-anchor="middle" x="463" y="-62.6" font-family="Times,serif" font-size="14.00">ApiMailService</text>
</g>
<!-- ApiMailService&#45;&gt;ApiMailModule -->
<g id="edge4" class="edge">
<title>ApiMailService&#45;&gt;ApiMailModule</title>
<path fill="none" stroke="black" d="M463,-84.82C463,-102.17 463,-125.8 463,-125.8 463,-125.8 377.79,-125.8 377.79,-125.8"/>
<polygon fill="black" stroke="black" points="377.79,-122.3 367.79,-125.8 377.79,-129.3 377.79,-122.3"/>
</g>
<!-- UserService -->
<g id="node6" class="node">
<title>UserService</title>
<ellipse fill="#fdb462" stroke="black" cx="314" cy="-66.8" rx="58.46" ry="18"/>
<text text-anchor="middle" x="314" y="-62.6" font-family="Times,serif" font-size="14.00">UserService</text>
</g>
<!-- UserService&#45;&gt;ApiMailModule -->
<g id="edge5" class="edge">
<title>UserService&#45;&gt;ApiMailModule</title>
<path fill="none" stroke="black" d="M314,-84.91C314,-84.91 314,-103.79 314,-103.79"/>
<polygon fill="black" stroke="black" points="310.5,-103.79 314,-113.79 317.5,-103.79 310.5,-103.79"/>
</g>
</g>
</svg>
