<?xml version="1.0" encoding="UTF-8" standalone="no"?>
<!DOCTYPE svg PUBLIC "-//W3C//DTD SVG 1.1//EN"
 "http://www.w3.org/Graphics/SVG/1.1/DTD/svg11.dtd">
<!-- Generated by graphviz version 5.0.0 (20220707.1540)
 -->
<!-- Title: dependencies Pages: 1 -->
<svg width="726pt" height="174pt"
 viewBox="0.00 0.00 726.00 173.80" xmlns="http://www.w3.org/2000/svg" xmlns:xlink="http://www.w3.org/1999/xlink">
<g id="graph0" class="graph" transform="scale(1 1) rotate(0) translate(4 169.8)">
<title>dependencies</title>
<polygon fill="white" stroke="transparent" points="-4,4 -4,-169.8 722,-169.8 722,4 -4,4"/>
<text text-anchor="middle" x="359" y="-8.2" font-family="sans-serif" font-size="14.00">dependencies</text>
<g id="clust1" class="cluster">
<title>cluster_ApiMailModule</title>
<polygon fill="none" stroke="black" stroke-dasharray="1,5" points="8,-32.8 8,-157.8 710,-157.8 710,-32.8 8,-32.8"/>
</g>
<g id="clust3" class="cluster">
<title>cluster_ApiMailModule_imports</title>
<polygon fill="none" stroke="black" points="478,-40.8 478,-92.8 702,-92.8 702,-40.8 478,-40.8"/>
</g>
<g id="clust6" class="cluster">
<title>cluster_ApiMailModule_providers</title>
<polygon fill="none" stroke="black" points="16,-40.8 16,-92.8 470,-92.8 470,-40.8 16,-40.8"/>
</g>
<!-- ApiLogModule -->
<g id="node1" class="node">
<title>ApiLogModule</title>
<polygon fill="#8dd3c7" stroke="black" points="693.6,-84.8 690.6,-88.8 669.6,-88.8 666.6,-84.8 590.4,-84.8 590.4,-48.8 693.6,-48.8 693.6,-84.8"/>
<text text-anchor="middle" x="642" y="-62.6" font-family="Times,serif" font-size="14.00">ApiLogModule</text>
</g>
<!-- ApiMailModule -->
<g id="node3" class="node">
<title>ApiMailModule</title>
<polygon fill="#8dd3c7" stroke="black" points="445.49,-149.8 442.49,-153.8 421.49,-153.8 418.49,-149.8 338.51,-149.8 338.51,-113.8 445.49,-113.8 445.49,-149.8"/>
<text text-anchor="middle" x="392" y="-127.6" font-family="Times,serif" font-size="14.00">ApiMailModule</text>
</g>
<!-- ApiLogModule&#45;&gt;ApiMailModule -->
<g id="edge1" class="edge">
<title>ApiLogModule&#45;&gt;ApiMailModule</title>
<path fill="none" stroke="black" d="M642,-85.08C642,-106.12 642,-137.8 642,-137.8 642,-137.8 455.63,-137.8 455.63,-137.8"/>
<polygon fill="black" stroke="black" points="455.63,-134.3 445.63,-137.8 455.63,-141.3 455.63,-134.3"/>
</g>
<!-- UserModule -->
<g id="node2" class="node">
<title>UserModule</title>
<polygon fill="#8dd3c7" stroke="black" points="571.99,-84.8 568.99,-88.8 547.99,-88.8 544.99,-84.8 486.01,-84.8 486.01,-48.8 571.99,-48.8 571.99,-84.8"/>
<text text-anchor="middle" x="529" y="-62.6" font-family="Times,serif" font-size="14.00">UserModule</text>
</g>
<!-- UserModule&#45;&gt;ApiMailModule -->
<g id="edge2" class="edge">
<title>UserModule&#45;&gt;ApiMailModule</title>
<path fill="none" stroke="black" d="M529,-84.82C529,-102.17 529,-125.8 529,-125.8 529,-125.8 455.75,-125.8 455.75,-125.8"/>
<polygon fill="black" stroke="black" points="455.75,-122.3 445.75,-125.8 455.75,-129.3 455.75,-122.3"/>
</g>
<!-- ApiLogService -->
<g id="node4" class="node">
<title>ApiLogService</title>
<ellipse fill="#fdb462" stroke="black" cx="392" cy="-66.8" rx="70.07" ry="18"/>
<text text-anchor="middle" x="392" y="-62.6" font-family="Times,serif" font-size="14.00">ApiLogService</text>
</g>
<!-- ApiLogService&#45;&gt;ApiMailModule -->
<g id="edge3" class="edge">
<title>ApiLogService&#45;&gt;ApiMailModule</title>
<path fill="none" stroke="black" d="M392,-84.91C392,-84.91 392,-103.79 392,-103.79"/>
<polygon fill="black" stroke="black" points="388.5,-103.79 392,-113.79 395.5,-103.79 388.5,-103.79"/>
</g>
<!-- ApiMailService -->
<g id="node5" class="node">
<title>ApiMailService</title>
<ellipse fill="#fdb462" stroke="black" cx="231" cy="-66.8" rx="72.94" ry="18"/>
<text text-anchor="middle" x="231" y="-62.6" font-family="Times,serif" font-size="14.00">ApiMailService</text>
</g>
<!-- ApiMailService&#45;&gt;ApiMailModule -->
<g id="edge4" class="edge">
<title>ApiMailService&#45;&gt;ApiMailModule</title>
<path fill="none" stroke="black" d="M231,-84.82C231,-102.17 231,-125.8 231,-125.8 231,-125.8 328.39,-125.8 328.39,-125.8"/>
<polygon fill="black" stroke="black" points="328.39,-129.3 338.39,-125.8 328.39,-122.3 328.39,-129.3"/>
</g>
<!-- UserService -->
<g id="node6" class="node">
<title>UserService</title>
<ellipse fill="#fdb462" stroke="black" cx="82" cy="-66.8" rx="58.46" ry="18"/>
<text text-anchor="middle" x="82" y="-62.6" font-family="Times,serif" font-size="14.00">UserService</text>
</g>
<!-- UserService&#45;&gt;ApiMailModule -->
<g id="edge5" class="edge">
<title>UserService&#45;&gt;ApiMailModule</title>
<path fill="none" stroke="black" d="M82,-85.08C82,-106.12 82,-137.8 82,-137.8 82,-137.8 328.36,-137.8 328.36,-137.8"/>
<polygon fill="black" stroke="black" points="328.36,-141.3 338.36,-137.8 328.36,-134.3 328.36,-141.3"/>
</g>
</g>
</svg>
