<?xml version="1.0" encoding="UTF-8" standalone="no"?>
<!DOCTYPE svg PUBLIC "-//W3C//DTD SVG 1.1//EN"
 "http://www.w3.org/Graphics/SVG/1.1/DTD/svg11.dtd">
<!-- Generated by graphviz version 2.47.0 (20210316.0004)
 -->
<!-- Title: dependencies Pages: 1 -->
<svg width="726pt" height="211pt"
 viewBox="0.00 0.00 726.00 211.00" xmlns="http://www.w3.org/2000/svg" xmlns:xlink="http://www.w3.org/1999/xlink">
<g id="graph0" class="graph" transform="scale(1 1) rotate(0) translate(4 207)">
<title>dependencies</title>
<polygon fill="white" stroke="transparent" points="-4,4 -4,-207 722,-207 722,4 -4,4"/>
<text text-anchor="start" x="338.01" y="-42.4" font-family="Times-12" font-weight="bold" font-size="14.00">Legend</text>
<polygon fill="#ffffb3" stroke="transparent" points="125,-10 125,-30 145,-30 145,-10 125,-10"/>
<text text-anchor="start" x="148.63" y="-15.4" font-family="Times-12" font-size="14.00"> &#160;Declarations</text>
<polygon fill="#8dd3c7" stroke="transparent" points="238,-10 238,-30 258,-30 258,-10 238,-10"/>
<text text-anchor="start" x="261.73" y="-15.4" font-family="Times-12" font-size="14.00"> &#160;Module</text>
<polygon fill="#80b1d3" stroke="transparent" points="324,-10 324,-30 344,-30 344,-10 324,-10"/>
<text text-anchor="start" x="347.78" y="-15.4" font-family="Times-12" font-size="14.00"> &#160;Bootstrap</text>
<polygon fill="#fdb462" stroke="transparent" points="421,-10 421,-30 441,-30 441,-10 421,-10"/>
<text text-anchor="start" x="444.67" y="-15.4" font-family="Times-12" font-size="14.00"> &#160;Providers</text>
<polygon fill="#fb8072" stroke="transparent" points="517,-10 517,-30 537,-30 537,-10 517,-10"/>
<text text-anchor="start" x="540.73" y="-15.4" font-family="Times-12" font-size="14.00"> &#160;Exports</text>
<g id="clust1" class="cluster">
<title>cluster_ApiMailModule</title>
<polygon fill="none" stroke="black" stroke-dasharray="1,5" points="8,-70 8,-195 710,-195 710,-70 8,-70"/>
</g>
<g id="clust3" class="cluster">
<title>cluster_ApiMailModule_imports</title>
<polygon fill="none" stroke="black" points="478,-78 478,-130 702,-130 702,-78 478,-78"/>
</g>
<g id="clust6" class="cluster">
<title>cluster_ApiMailModule_providers</title>
<polygon fill="none" stroke="black" points="16,-78 16,-130 470,-130 470,-78 16,-78"/>
</g>
<!-- ApiLogModule -->
<g id="node1" class="node">
<title>ApiLogModule</title>
<polygon fill="#8dd3c7" stroke="black" points="693.6,-122 690.6,-126 669.6,-126 666.6,-122 590.4,-122 590.4,-86 693.6,-86 693.6,-122"/>
<text text-anchor="middle" x="642" y="-99.8" font-family="Times,serif" font-size="14.00">ApiLogModule</text>
</g>
<!-- ApiMailModule -->
<g id="node3" class="node">
<title>ApiMailModule</title>
<polygon fill="#8dd3c7" stroke="black" points="445.49,-187 442.49,-191 421.49,-191 418.49,-187 338.51,-187 338.51,-151 445.49,-151 445.49,-187"/>
<text text-anchor="middle" x="392" y="-164.8" font-family="Times,serif" font-size="14.00">ApiMailModule</text>
</g>
<!-- ApiLogModule&#45;&gt;ApiMailModule -->
<g id="edge1" class="edge">
<title>ApiLogModule&#45;&gt;ApiMailModule</title>
<path fill="none" stroke="black" d="M642,-122.28C642,-143.32 642,-175 642,-175 642,-175 455.63,-175 455.63,-175"/>
<polygon fill="black" stroke="black" points="455.63,-171.5 445.63,-175 455.63,-178.5 455.63,-171.5"/>
</g>
<!-- UserModule -->
<g id="node2" class="node">
<title>UserModule</title>
<polygon fill="#8dd3c7" stroke="black" points="571.98,-122 568.98,-126 547.98,-126 544.98,-122 486.02,-122 486.02,-86 571.98,-86 571.98,-122"/>
<text text-anchor="middle" x="529" y="-99.8" font-family="Times,serif" font-size="14.00">UserModule</text>
</g>
<!-- UserModule&#45;&gt;ApiMailModule -->
<g id="edge2" class="edge">
<title>UserModule&#45;&gt;ApiMailModule</title>
<path fill="none" stroke="black" d="M529,-122.02C529,-139.37 529,-163 529,-163 529,-163 455.75,-163 455.75,-163"/>
<polygon fill="black" stroke="black" points="455.75,-159.5 445.75,-163 455.75,-166.5 455.75,-159.5"/>
</g>
<!-- ApiLogService -->
<g id="node4" class="node">
<title>ApiLogService</title>
<ellipse fill="#fdb462" stroke="black" cx="392" cy="-104" rx="70.06" ry="18"/>
<text text-anchor="middle" x="392" y="-99.8" font-family="Times,serif" font-size="14.00">ApiLogService</text>
</g>
<!-- ApiLogService&#45;&gt;ApiMailModule -->
<g id="edge3" class="edge">
<title>ApiLogService&#45;&gt;ApiMailModule</title>
<path fill="none" stroke="black" d="M392,-122.11C392,-122.11 392,-140.99 392,-140.99"/>
<polygon fill="black" stroke="black" points="388.5,-140.99 392,-150.99 395.5,-140.99 388.5,-140.99"/>
</g>
<!-- ApiMailService -->
<g id="node5" class="node">
<title>ApiMailService</title>
<ellipse fill="#fdb462" stroke="black" cx="231" cy="-104" rx="72.93" ry="18"/>
<text text-anchor="middle" x="231" y="-99.8" font-family="Times,serif" font-size="14.00">ApiMailService</text>
</g>
<!-- ApiMailService&#45;&gt;ApiMailModule -->
<g id="edge4" class="edge">
<title>ApiMailService&#45;&gt;ApiMailModule</title>
<path fill="none" stroke="black" d="M231,-122.02C231,-139.37 231,-163 231,-163 231,-163 328.39,-163 328.39,-163"/>
<polygon fill="black" stroke="black" points="328.39,-166.5 338.39,-163 328.39,-159.5 328.39,-166.5"/>
</g>
<!-- UserService -->
<g id="node6" class="node">
<title>UserService</title>
<ellipse fill="#fdb462" stroke="black" cx="82" cy="-104" rx="58.44" ry="18"/>
<text text-anchor="middle" x="82" y="-99.8" font-family="Times,serif" font-size="14.00">UserService</text>
</g>
<!-- UserService&#45;&gt;ApiMailModule -->
<g id="edge5" class="edge">
<title>UserService&#45;&gt;ApiMailModule</title>
<path fill="none" stroke="black" d="M82,-122.28C82,-143.32 82,-175 82,-175 82,-175 328.36,-175 328.36,-175"/>
<polygon fill="black" stroke="black" points="328.36,-178.5 338.36,-175 328.36,-171.5 328.36,-178.5"/>
</g>
</g>
</svg>
