<?xml version="1.0" encoding="UTF-8" standalone="no"?>
<!DOCTYPE svg PUBLIC "-//W3C//DTD SVG 1.1//EN"
 "http://www.w3.org/Graphics/SVG/1.1/DTD/svg11.dtd">
<!-- Generated by graphviz version 2.47.0 (20210316.0004)
 -->
<!-- Title: dependencies Pages: 1 -->
<svg width="504pt" height="211pt"
 viewBox="0.00 0.00 504.00 211.00" xmlns="http://www.w3.org/2000/svg" xmlns:xlink="http://www.w3.org/1999/xlink">
<g id="graph0" class="graph" transform="scale(1 1) rotate(0) translate(4 207)">
<title>dependencies</title>
<polygon fill="white" stroke="transparent" points="-4,4 -4,-207 500,-207 500,4 -4,4"/>
<text text-anchor="start" x="227.01" y="-42.4" font-family="Times-12" font-weight="bold" font-size="14.00">Legend</text>
<polygon fill="#ffffb3" stroke="transparent" points="14,-10 14,-30 34,-30 34,-10 14,-10"/>
<text text-anchor="start" x="37.63" y="-15.4" font-family="Times-12" font-size="14.00"> &#160;Declarations</text>
<polygon fill="#8dd3c7" stroke="transparent" points="127,-10 127,-30 147,-30 147,-10 127,-10"/>
<text text-anchor="start" x="150.73" y="-15.4" font-family="Times-12" font-size="14.00"> &#160;Module</text>
<polygon fill="#80b1d3" stroke="transparent" points="213,-10 213,-30 233,-30 233,-10 213,-10"/>
<text text-anchor="start" x="236.78" y="-15.4" font-family="Times-12" font-size="14.00"> &#160;Bootstrap</text>
<polygon fill="#fdb462" stroke="transparent" points="310,-10 310,-30 330,-30 330,-10 310,-10"/>
<text text-anchor="start" x="333.67" y="-15.4" font-family="Times-12" font-size="14.00"> &#160;Providers</text>
<polygon fill="#fb8072" stroke="transparent" points="406,-10 406,-30 426,-30 426,-10 406,-10"/>
<text text-anchor="start" x="429.73" y="-15.4" font-family="Times-12" font-size="14.00"> &#160;Exports</text>
<g id="clust1" class="cluster">
<title>cluster_CompanyModule</title>
<polygon fill="none" stroke="black" stroke-dasharray="1,5" points="11,-70 11,-195 485,-195 485,-70 11,-70"/>
</g>
<g id="clust3" class="cluster">
<title>cluster_CompanyModule_imports</title>
<polygon fill="none" stroke="black" points="357,-78 357,-130 477,-130 477,-78 357,-78"/>
</g>
<g id="clust6" class="cluster">
<title>cluster_CompanyModule_providers</title>
<polygon fill="none" stroke="black" points="19,-78 19,-130 349,-130 349,-78 19,-78"/>
</g>
<!-- ApiLogModule -->
<g id="node1" class="node">
<title>ApiLogModule</title>
<polygon fill="#8dd3c7" stroke="black" points="468.6,-122 465.6,-126 444.6,-126 441.6,-122 365.4,-122 365.4,-86 468.6,-86 468.6,-122"/>
<text text-anchor="middle" x="417" y="-99.8" font-family="Times,serif" font-size="14.00">ApiLogModule</text>
</g>
<!-- CompanyModule -->
<g id="node2" class="node">
<title>CompanyModule</title>
<polygon fill="#8dd3c7" stroke="black" points="327.99,-187 324.99,-191 303.99,-191 300.99,-187 214.01,-187 214.01,-151 327.99,-151 327.99,-187"/>
<text text-anchor="middle" x="271" y="-164.8" font-family="Times,serif" font-size="14.00">CompanyModule</text>
</g>
<!-- ApiLogModule&#45;&gt;CompanyModule -->
<g id="edge1" class="edge">
<title>ApiLogModule&#45;&gt;CompanyModule</title>
<path fill="none" stroke="black" d="M417,-122.11C417,-141.34 417,-169 417,-169 417,-169 338.28,-169 338.28,-169"/>
<polygon fill="black" stroke="black" points="338.28,-165.5 328.28,-169 338.28,-172.5 338.28,-165.5"/>
</g>
<!-- ApiLogService -->
<g id="node3" class="node">
<title>ApiLogService</title>
<ellipse fill="#fdb462" stroke="black" cx="271" cy="-104" rx="70.06" ry="18"/>
<text text-anchor="middle" x="271" y="-99.8" font-family="Times,serif" font-size="14.00">ApiLogService</text>
</g>
<!-- ApiLogService&#45;&gt;CompanyModule -->
<g id="edge2" class="edge">
<title>ApiLogService&#45;&gt;CompanyModule</title>
<path fill="none" stroke="black" d="M271,-122.11C271,-122.11 271,-140.99 271,-140.99"/>
<polygon fill="black" stroke="black" points="267.5,-140.99 271,-150.99 274.5,-140.99 267.5,-140.99"/>
</g>
<!-- CompanyService -->
<g id="node4" class="node">
<title>CompanyService</title>
<ellipse fill="#fdb462" stroke="black" cx="105" cy="-104" rx="77.59" ry="18"/>
<text text-anchor="middle" x="105" y="-99.8" font-family="Times,serif" font-size="14.00">CompanyService</text>
</g>
<!-- CompanyService&#45;&gt;CompanyModule -->
<g id="edge3" class="edge">
<title>CompanyService&#45;&gt;CompanyModule</title>
<path fill="none" stroke="black" d="M105,-122.11C105,-141.34 105,-169 105,-169 105,-169 203.87,-169 203.87,-169"/>
<polygon fill="black" stroke="black" points="203.87,-172.5 213.87,-169 203.87,-165.5 203.87,-172.5"/>
</g>
</g>
</svg>
