<?xml version="1.0" encoding="UTF-8" standalone="no"?>
<!DOCTYPE svg PUBLIC "-//W3C//DTD SVG 1.1//EN"
 "http://www.w3.org/Graphics/SVG/1.1/DTD/svg11.dtd">
<!-- Generated by graphviz version 5.0.0 (20220707.1540)
 -->
<!-- Title: dependencies Pages: 1 -->
<svg width="196pt" height="182pt"
 viewBox="0.00 0.00 196.00 181.80" xmlns="http://www.w3.org/2000/svg" xmlns:xlink="http://www.w3.org/1999/xlink">
<g id="graph0" class="graph" transform="scale(1 1) rotate(0) translate(4 177.8)">
<title>dependencies</title>
<polygon fill="white" stroke="transparent" points="-4,4 -4,-177.8 192,-177.8 192,4 -4,4"/>
<text text-anchor="middle" x="94" y="-8.2" font-family="sans-serif" font-size="14.00">dependencies</text>
<g id="clust1" class="cluster">
<title>cluster_ApiLogModule</title>
<polygon fill="none" stroke="black" stroke-dasharray="1,5" points="8,-32.8 8,-165.8 180,-165.8 180,-32.8 8,-32.8"/>
</g>
<g id="clust6" class="cluster">
<title>cluster_ApiLogModule_providers</title>
<polygon fill="none" stroke="black" points="16,-40.8 16,-92.8 172,-92.8 172,-40.8 16,-40.8"/>
</g>
<g id="clust3" class="cluster">
<title>cluster_ApiLogModule_imports</title>
<polygon fill="none" stroke="black" points="34,-105.8 34,-157.8 172,-157.8 172,-105.8 34,-105.8"/>
</g>
<!-- ApiLogModule -->
<g id="node1" class="node">
<title>ApiLogModule</title>
<polygon fill="#8dd3c7" stroke="black" points="145.6,-149.8 142.6,-153.8 121.6,-153.8 118.6,-149.8 42.4,-149.8 42.4,-113.8 145.6,-113.8 145.6,-149.8"/>
<text text-anchor="middle" x="94" y="-127.6" font-family="Times,serif" font-size="14.00">ApiLogModule</text>
</g>
<!-- ApiLogModule&#45;&gt;ApiLogModule -->
<g id="edge1" class="edge">
<title>ApiLogModule&#45;&gt;ApiLogModule</title>
<path fill="none" stroke="black" d="M76.82,-113.56C76.82,-106.37 76.82,-99.8 76.82,-99.8 76.82,-99.8 33.21,-99.8 33.21,-99.8 33.21,-99.8 33.21,-167.8 33.21,-167.8 33.21,-167.8 94,-167.8 94,-167.8 94,-167.8 94,-160.22 94,-160.22"/>
<polygon fill="black" stroke="black" points="97.5,-160.22 94,-150.22 90.5,-160.22 97.5,-160.22"/>
</g>
<!-- ApiLogService -->
<g id="node2" class="node">
<title>ApiLogService</title>
<ellipse fill="#fdb462" stroke="black" cx="94" cy="-66.8" rx="70.07" ry="18"/>
<text text-anchor="middle" x="94" y="-62.6" font-family="Times,serif" font-size="14.00">ApiLogService</text>
</g>
<!-- ApiLogService&#45;&gt;ApiLogModule -->
<g id="edge2" class="edge">
<title>ApiLogService&#45;&gt;ApiLogModule</title>
<path fill="none" stroke="black" d="M111.18,-84.56C111.18,-84.56 111.18,-103.61 111.18,-103.61"/>
<polygon fill="black" stroke="black" points="107.68,-103.61 111.18,-113.61 114.68,-103.61 107.68,-103.61"/>
</g>
</g>
</svg>
