<?xml version="1.0" encoding="UTF-8" standalone="no"?>
<!DOCTYPE svg PUBLIC "-//W3C//DTD SVG 1.1//EN"
 "http://www.w3.org/Graphics/SVG/1.1/DTD/svg11.dtd">
<!-- Generated by graphviz version 5.0.0 (20220707.1540)
 -->
<!-- Title: dependencies Pages: 1 -->
<svg width="460pt" height="174pt"
 viewBox="0.00 0.00 460.00 173.80" xmlns="http://www.w3.org/2000/svg" xmlns:xlink="http://www.w3.org/1999/xlink">
<g id="graph0" class="graph" transform="scale(1 1) rotate(0) translate(4 169.8)">
<title>dependencies</title>
<polygon fill="white" stroke="transparent" points="-4,4 -4,-169.8 456,-169.8 456,4 -4,4"/>
<text text-anchor="middle" x="226" y="-8.2" font-family="sans-serif" font-size="14.00">dependencies</text>
<g id="clust1" class="cluster">
<title>cluster_CardModule</title>
<polygon fill="none" stroke="black" stroke-dasharray="1,5" points="8,-32.8 8,-157.8 444,-157.8 444,-32.8 8,-32.8"/>
</g>
<g id="clust3" class="cluster">
<title>cluster_CardModule_imports</title>
<polygon fill="none" stroke="black" points="316,-40.8 316,-92.8 436,-92.8 436,-40.8 316,-40.8"/>
</g>
<g id="clust6" class="cluster">
<title>cluster_CardModule_providers</title>
<polygon fill="none" stroke="black" points="16,-40.8 16,-92.8 308,-92.8 308,-40.8 16,-40.8"/>
</g>
<!-- ApiLogModule -->
<g id="node1" class="node">
<title>ApiLogModule</title>
<polygon fill="#8dd3c7" stroke="black" points="427.6,-84.8 424.6,-88.8 403.6,-88.8 400.6,-84.8 324.4,-84.8 324.4,-48.8 427.6,-48.8 427.6,-84.8"/>
<text text-anchor="middle" x="376" y="-62.6" font-family="Times,serif" font-size="14.00">ApiLogModule</text>
</g>
<!-- CardModule -->
<g id="node2" class="node">
<title>CardModule</title>
<polygon fill="#8dd3c7" stroke="black" points="273.27,-149.8 270.27,-153.8 249.27,-153.8 246.27,-149.8 186.73,-149.8 186.73,-113.8 273.27,-113.8 273.27,-149.8"/>
<text text-anchor="middle" x="230" y="-127.6" font-family="Times,serif" font-size="14.00">CardModule</text>
</g>
<!-- ApiLogModule&#45;&gt;CardModule -->
<g id="edge1" class="edge">
<title>ApiLogModule&#45;&gt;CardModule</title>
<path fill="none" stroke="black" d="M376,-84.91C376,-104.14 376,-131.8 376,-131.8 376,-131.8 283.41,-131.8 283.41,-131.8"/>
<polygon fill="black" stroke="black" points="283.41,-128.3 273.41,-131.8 283.41,-135.3 283.41,-128.3"/>
</g>
<!-- ApiLogService -->
<g id="node3" class="node">
<title>ApiLogService</title>
<ellipse fill="#fdb462" stroke="black" cx="230" cy="-66.8" rx="70.07" ry="18"/>
<text text-anchor="middle" x="230" y="-62.6" font-family="Times,serif" font-size="14.00">ApiLogService</text>
</g>
<!-- ApiLogService&#45;&gt;CardModule -->
<g id="edge2" class="edge">
<title>ApiLogService&#45;&gt;CardModule</title>
<path fill="none" stroke="black" d="M230,-84.91C230,-84.91 230,-103.79 230,-103.79"/>
<polygon fill="black" stroke="black" points="226.5,-103.79 230,-113.79 233.5,-103.79 226.5,-103.79"/>
</g>
<!-- CardService -->
<g id="node4" class="node">
<title>CardService</title>
<ellipse fill="#fdb462" stroke="black" cx="83" cy="-66.8" rx="58.53" ry="18"/>
<text text-anchor="middle" x="83" y="-62.6" font-family="Times,serif" font-size="14.00">CardService</text>
</g>
<!-- CardService&#45;&gt;CardModule -->
<g id="edge3" class="edge">
<title>CardService&#45;&gt;CardModule</title>
<path fill="none" stroke="black" d="M83,-84.91C83,-104.14 83,-131.8 83,-131.8 83,-131.8 176.69,-131.8 176.69,-131.8"/>
<polygon fill="black" stroke="black" points="176.69,-135.3 186.69,-131.8 176.69,-128.3 176.69,-135.3"/>
</g>
</g>
</svg>
