<?xml version="1.0" encoding="UTF-8" standalone="no"?>
<!DOCTYPE svg PUBLIC "-//W3C//DTD SVG 1.1//EN"
 "http://www.w3.org/Graphics/SVG/1.1/DTD/svg11.dtd">
<!-- Generated by graphviz version 5.0.0 (20220707.1540)
 -->
<!-- Title: dependencies Pages: 1 -->
<svg width="512pt" height="174pt"
 viewBox="0.00 0.00 512.00 173.80" xmlns="http://www.w3.org/2000/svg" xmlns:xlink="http://www.w3.org/1999/xlink">
<g id="graph0" class="graph" transform="scale(1 1) rotate(0) translate(4 169.8)">
<title>dependencies</title>
<polygon fill="white" stroke="transparent" points="-4,4 -4,-169.8 508,-169.8 508,4 -4,4"/>
<text text-anchor="middle" x="252" y="-8.2" font-family="sans-serif" font-size="14.00">dependencies</text>
<g id="clust1" class="cluster">
<title>cluster_OccupationModule</title>
<polygon fill="none" stroke="black" stroke-dasharray="1,5" points="8,-32.8 8,-157.8 496,-157.8 496,-32.8 8,-32.8"/>
</g>
<g id="clust3" class="cluster">
<title>cluster_OccupationModule_imports</title>
<polygon fill="none" stroke="black" points="368,-40.8 368,-92.8 488,-92.8 488,-40.8 368,-40.8"/>
</g>
<g id="clust6" class="cluster">
<title>cluster_OccupationModule_providers</title>
<polygon fill="none" stroke="black" points="16,-40.8 16,-92.8 360,-92.8 360,-40.8 16,-40.8"/>
</g>
<!-- ApiLogModule -->
<g id="node1" class="node">
<title>ApiLogModule</title>
<polygon fill="#8dd3c7" stroke="black" points="479.6,-84.8 476.6,-88.8 455.6,-88.8 452.6,-84.8 376.4,-84.8 376.4,-48.8 479.6,-48.8 479.6,-84.8"/>
<text text-anchor="middle" x="428" y="-62.6" font-family="Times,serif" font-size="14.00">ApiLogModule</text>
</g>
<!-- OccupationModule -->
<g id="node2" class="node">
<title>OccupationModule</title>
<polygon fill="#8dd3c7" stroke="black" points="344.08,-149.8 341.08,-153.8 320.08,-153.8 317.08,-149.8 219.92,-149.8 219.92,-113.8 344.08,-113.8 344.08,-149.8"/>
<text text-anchor="middle" x="282" y="-127.6" font-family="Times,serif" font-size="14.00">OccupationModule</text>
</g>
<!-- ApiLogModule&#45;&gt;OccupationModule -->
<g id="edge1" class="edge">
<title>ApiLogModule&#45;&gt;OccupationModule</title>
<path fill="none" stroke="black" d="M428,-84.91C428,-104.14 428,-131.8 428,-131.8 428,-131.8 354.34,-131.8 354.34,-131.8"/>
<polygon fill="black" stroke="black" points="354.34,-128.3 344.34,-131.8 354.34,-135.3 354.34,-128.3"/>
</g>
<!-- ApiLogService -->
<g id="node3" class="node">
<title>ApiLogService</title>
<ellipse fill="#fdb462" stroke="black" cx="282" cy="-66.8" rx="70.07" ry="18"/>
<text text-anchor="middle" x="282" y="-62.6" font-family="Times,serif" font-size="14.00">ApiLogService</text>
</g>
<!-- ApiLogService&#45;&gt;OccupationModule -->
<g id="edge2" class="edge">
<title>ApiLogService&#45;&gt;OccupationModule</title>
<path fill="none" stroke="black" d="M282,-84.91C282,-84.91 282,-103.79 282,-103.79"/>
<polygon fill="black" stroke="black" points="278.5,-103.79 282,-113.79 285.5,-103.79 278.5,-103.79"/>
</g>
<!-- OccupationService -->
<g id="node4" class="node">
<title>OccupationService</title>
<ellipse fill="#fdb462" stroke="black" cx="109" cy="-66.8" rx="84.51" ry="18"/>
<text text-anchor="middle" x="109" y="-62.6" font-family="Times,serif" font-size="14.00">OccupationService</text>
</g>
<!-- OccupationService&#45;&gt;OccupationModule -->
<g id="edge3" class="edge">
<title>OccupationService&#45;&gt;OccupationModule</title>
<path fill="none" stroke="black" d="M109,-84.91C109,-104.14 109,-131.8 109,-131.8 109,-131.8 209.54,-131.8 209.54,-131.8"/>
<polygon fill="black" stroke="black" points="209.54,-135.3 219.54,-131.8 209.54,-128.3 209.54,-135.3"/>
</g>
</g>
</svg>
