<?xml version="1.0" encoding="UTF-8" standalone="no"?>
<!DOCTYPE svg PUBLIC "-//W3C//DTD SVG 1.1//EN"
 "http://www.w3.org/Graphics/SVG/1.1/DTD/svg11.dtd">
<!-- Generated by graphviz version 5.0.0 (20220707.1540)
 -->
<!-- Title: dependencies Pages: 1 -->
<svg width="512pt" height="174pt"
 viewBox="0.00 0.00 512.00 173.80" xmlns="http://www.w3.org/2000/svg" xmlns:xlink="http://www.w3.org/1999/xlink">
<g id="graph0" class="graph" transform="scale(1 1) rotate(0) translate(4 169.8)">
<title>dependencies</title>
<polygon fill="white" stroke="transparent" points="-4,4 -4,-169.8 508,-169.8 508,4 -4,4"/>
<text text-anchor="middle" x="252" y="-8.2" font-family="sans-serif" font-size="14.00">dependencies</text>
<g id="clust1" class="cluster">
<title>cluster_OccupationModule</title>
<polygon fill="none" stroke="black" stroke-dasharray="1,5" points="8,-32.8 8,-157.8 496,-157.8 496,-32.8 8,-32.8"/>
</g>
<g id="clust6" class="cluster">
<title>cluster_OccupationModule_providers</title>
<polygon fill="none" stroke="black" points="144,-40.8 144,-92.8 488,-92.8 488,-40.8 144,-40.8"/>
</g>
<g id="clust3" class="cluster">
<title>cluster_OccupationModule_imports</title>
<polygon fill="none" stroke="black" points="16,-40.8 16,-92.8 136,-92.8 136,-40.8 16,-40.8"/>
</g>
<!-- ApiLogModule -->
<g id="node1" class="node">
<title>ApiLogModule</title>
<polygon fill="#8dd3c7" stroke="black" points="127.6,-84.8 124.6,-88.8 103.6,-88.8 100.6,-84.8 24.4,-84.8 24.4,-48.8 127.6,-48.8 127.6,-84.8"/>
<text text-anchor="middle" x="76" y="-62.6" font-family="Times,serif" font-size="14.00">ApiLogModule</text>
</g>
<!-- OccupationModule -->
<g id="node2" class="node">
<title>OccupationModule</title>
<polygon fill="#8dd3c7" stroke="black" points="299.08,-149.8 296.08,-153.8 275.08,-153.8 272.08,-149.8 174.92,-149.8 174.92,-113.8 299.08,-113.8 299.08,-149.8"/>
<text text-anchor="middle" x="237" y="-127.6" font-family="Times,serif" font-size="14.00">OccupationModule</text>
</g>
<!-- ApiLogModule&#45;&gt;OccupationModule -->
<g id="edge1" class="edge">
<title>ApiLogModule&#45;&gt;OccupationModule</title>
<path fill="none" stroke="black" d="M76,-84.91C76,-104.14 76,-131.8 76,-131.8 76,-131.8 164.75,-131.8 164.75,-131.8"/>
<polygon fill="black" stroke="black" points="164.75,-135.3 174.75,-131.8 164.75,-128.3 164.75,-135.3"/>
</g>
<!-- ApiLogService -->
<g id="node3" class="node">
<title>ApiLogService</title>
<ellipse fill="#fdb462" stroke="black" cx="410" cy="-66.8" rx="70.07" ry="18"/>
<text text-anchor="middle" x="410" y="-62.6" font-family="Times,serif" font-size="14.00">ApiLogService</text>
</g>
<!-- ApiLogService&#45;&gt;OccupationModule -->
<g id="edge2" class="edge">
<title>ApiLogService&#45;&gt;OccupationModule</title>
<path fill="none" stroke="black" d="M410,-84.91C410,-104.14 410,-131.8 410,-131.8 410,-131.8 309.46,-131.8 309.46,-131.8"/>
<polygon fill="black" stroke="black" points="309.46,-128.3 299.46,-131.8 309.46,-135.3 309.46,-128.3"/>
</g>
<!-- OccupationService -->
<g id="node4" class="node">
<title>OccupationService</title>
<ellipse fill="#fdb462" stroke="black" cx="237" cy="-66.8" rx="84.51" ry="18"/>
<text text-anchor="middle" x="237" y="-62.6" font-family="Times,serif" font-size="14.00">OccupationService</text>
</g>
<!-- OccupationService&#45;&gt;OccupationModule -->
<g id="edge3" class="edge">
<title>OccupationService&#45;&gt;OccupationModule</title>
<path fill="none" stroke="black" d="M237,-84.91C237,-84.91 237,-103.79 237,-103.79"/>
<polygon fill="black" stroke="black" points="233.5,-103.79 237,-113.79 240.5,-103.79 233.5,-103.79"/>
</g>
</g>
</svg>
