<?xml version="1.0" encoding="UTF-8" standalone="no"?>
<!DOCTYPE svg PUBLIC "-//W3C//DTD SVG 1.1//EN"
 "http://www.w3.org/Graphics/SVG/1.1/DTD/svg11.dtd">
<!-- Generated by graphviz version 2.47.0 (20210316.0004)
 -->
<!-- Title: dependencies Pages: 1 -->
<svg width="504pt" height="211pt"
 viewBox="0.00 0.00 504.00 211.00" xmlns="http://www.w3.org/2000/svg" xmlns:xlink="http://www.w3.org/1999/xlink">
<g id="graph0" class="graph" transform="scale(1 1) rotate(0) translate(4 207)">
<title>dependencies</title>
<polygon fill="white" stroke="transparent" points="-4,4 -4,-207 500,-207 500,4 -4,4"/>
<text text-anchor="start" x="227.01" y="-42.4" font-family="Times-12" font-weight="bold" font-size="14.00">Legend</text>
<polygon fill="#ffffb3" stroke="transparent" points="14,-10 14,-30 34,-30 34,-10 14,-10"/>
<text text-anchor="start" x="37.63" y="-15.4" font-family="Times-12" font-size="14.00"> &#160;Declarations</text>
<polygon fill="#8dd3c7" stroke="transparent" points="127,-10 127,-30 147,-30 147,-10 127,-10"/>
<text text-anchor="start" x="150.73" y="-15.4" font-family="Times-12" font-size="14.00"> &#160;Module</text>
<polygon fill="#80b1d3" stroke="transparent" points="213,-10 213,-30 233,-30 233,-10 213,-10"/>
<text text-anchor="start" x="236.78" y="-15.4" font-family="Times-12" font-size="14.00"> &#160;Bootstrap</text>
<polygon fill="#fdb462" stroke="transparent" points="310,-10 310,-30 330,-30 330,-10 310,-10"/>
<text text-anchor="start" x="333.67" y="-15.4" font-family="Times-12" font-size="14.00"> &#160;Providers</text>
<polygon fill="#fb8072" stroke="transparent" points="406,-10 406,-30 426,-30 426,-10 406,-10"/>
<text text-anchor="start" x="429.73" y="-15.4" font-family="Times-12" font-size="14.00"> &#160;Exports</text>
<g id="clust1" class="cluster">
<title>cluster_MediaModule</title>
<polygon fill="none" stroke="black" stroke-dasharray="1,5" points="24,-70 24,-195 472,-195 472,-70 24,-70"/>
</g>
<g id="clust3" class="cluster">
<title>cluster_MediaModule_imports</title>
<polygon fill="none" stroke="black" points="344,-78 344,-130 464,-130 464,-78 344,-78"/>
</g>
<g id="clust6" class="cluster">
<title>cluster_MediaModule_providers</title>
<polygon fill="none" stroke="black" points="32,-78 32,-130 336,-130 336,-78 32,-78"/>
</g>
<!-- ApiLogModule -->
<g id="node1" class="node">
<title>ApiLogModule</title>
<polygon fill="#8dd3c7" stroke="black" points="455.6,-122 452.6,-126 431.6,-126 428.6,-122 352.4,-122 352.4,-86 455.6,-86 455.6,-122"/>
<text text-anchor="middle" x="404" y="-99.8" font-family="Times,serif" font-size="14.00">ApiLogModule</text>
</g>
<!-- MediaModule -->
<g id="node2" class="node">
<title>MediaModule</title>
<polygon fill="#8dd3c7" stroke="black" points="305.81,-187 302.81,-191 281.81,-191 278.81,-187 210.19,-187 210.19,-151 305.81,-151 305.81,-187"/>
<text text-anchor="middle" x="258" y="-164.8" font-family="Times,serif" font-size="14.00">MediaModule</text>
</g>
<!-- ApiLogModule&#45;&gt;MediaModule -->
<g id="edge1" class="edge">
<title>ApiLogModule&#45;&gt;MediaModule</title>
<path fill="none" stroke="black" d="M404,-122.11C404,-141.34 404,-169 404,-169 404,-169 315.81,-169 315.81,-169"/>
<polygon fill="black" stroke="black" points="315.81,-165.5 305.81,-169 315.81,-172.5 315.81,-165.5"/>
</g>
<!-- ApiLogService -->
<g id="node3" class="node">
<title>ApiLogService</title>
<ellipse fill="#fdb462" stroke="black" cx="258" cy="-104" rx="70.06" ry="18"/>
<text text-anchor="middle" x="258" y="-99.8" font-family="Times,serif" font-size="14.00">ApiLogService</text>
</g>
<!-- ApiLogService&#45;&gt;MediaModule -->
<g id="edge2" class="edge">
<title>ApiLogService&#45;&gt;MediaModule</title>
<path fill="none" stroke="black" d="M258,-122.11C258,-122.11 258,-140.99 258,-140.99"/>
<polygon fill="black" stroke="black" points="254.5,-140.99 258,-150.99 261.5,-140.99 254.5,-140.99"/>
</g>
<!-- MediaService -->
<g id="node4" class="node">
<title>MediaService</title>
<ellipse fill="#fdb462" stroke="black" cx="105" cy="-104" rx="64.82" ry="18"/>
<text text-anchor="middle" x="105" y="-99.8" font-family="Times,serif" font-size="14.00">MediaService</text>
</g>
<!-- MediaService&#45;&gt;MediaModule -->
<g id="edge3" class="edge">
<title>MediaService&#45;&gt;MediaModule</title>
<path fill="none" stroke="black" d="M105,-122.11C105,-141.34 105,-169 105,-169 105,-169 200.01,-169 200.01,-169"/>
<polygon fill="black" stroke="black" points="200.01,-172.5 210.01,-169 200.01,-165.5 200.01,-172.5"/>
</g>
</g>
</svg>
