<?xml version="1.0" encoding="UTF-8" standalone="no"?>
<!DOCTYPE svg PUBLIC "-//W3C//DTD SVG 1.1//EN"
 "http://www.w3.org/Graphics/SVG/1.1/DTD/svg11.dtd">
<!-- Generated by graphviz version 5.0.0 (20220707.1540)
 -->
<!-- Title: dependencies Pages: 1 -->
<svg width="324pt" height="174pt"
 viewBox="0.00 0.00 324.00 173.80" xmlns="http://www.w3.org/2000/svg" xmlns:xlink="http://www.w3.org/1999/xlink">
<g id="graph0" class="graph" transform="scale(1 1) rotate(0) translate(4 169.8)">
<title>dependencies</title>
<polygon fill="white" stroke="transparent" points="-4,4 -4,-169.8 320,-169.8 320,4 -4,4"/>
<text text-anchor="middle" x="158" y="-8.2" font-family="sans-serif" font-size="14.00">dependencies</text>
<g id="clust1" class="cluster">
<title>cluster_GroupModule</title>
<polygon fill="none" stroke="black" stroke-dasharray="1,5" points="8,-32.8 8,-157.8 308,-157.8 308,-32.8 8,-32.8"/>
</g>
<g id="clust3" class="cluster">
<title>cluster_GroupModule_imports</title>
<polygon fill="none" stroke="black" points="180,-40.8 180,-92.8 300,-92.8 300,-40.8 180,-40.8"/>
</g>
<g id="clust6" class="cluster">
<title>cluster_GroupModule_providers</title>
<polygon fill="none" stroke="black" points="16,-40.8 16,-92.8 172,-92.8 172,-40.8 16,-40.8"/>
</g>
<!-- ApiLogModule -->
<g id="node1" class="node">
<title>ApiLogModule</title>
<polygon fill="#8dd3c7" stroke="black" points="291.6,-84.8 288.6,-88.8 267.6,-88.8 264.6,-84.8 188.4,-84.8 188.4,-48.8 291.6,-48.8 291.6,-84.8"/>
<text text-anchor="middle" x="240" y="-62.6" font-family="Times,serif" font-size="14.00">ApiLogModule</text>
</g>
<!-- GroupModule -->
<g id="node2" class="node">
<title>GroupModule</title>
<polygon fill="#8dd3c7" stroke="black" points="214.82,-149.8 211.82,-153.8 190.82,-153.8 187.82,-149.8 119.18,-149.8 119.18,-113.8 214.82,-113.8 214.82,-149.8"/>
<text text-anchor="middle" x="167" y="-127.6" font-family="Times,serif" font-size="14.00">GroupModule</text>
</g>
<!-- ApiLogModule&#45;&gt;GroupModule -->
<g id="edge1" class="edge">
<title>ApiLogModule&#45;&gt;GroupModule</title>
<path fill="none" stroke="black" d="M201.56,-84.91C201.56,-84.91 201.56,-103.79 201.56,-103.79"/>
<polygon fill="black" stroke="black" points="198.06,-103.79 201.56,-113.79 205.06,-103.79 198.06,-103.79"/>
</g>
<!-- ApiLogService -->
<g id="node3" class="node">
<title>ApiLogService</title>
<ellipse fill="#fdb462" stroke="black" cx="94" cy="-66.8" rx="70.07" ry="18"/>
<text text-anchor="middle" x="94" y="-62.6" font-family="Times,serif" font-size="14.00">ApiLogService</text>
</g>
<!-- ApiLogService&#45;&gt;GroupModule -->
<g id="edge2" class="edge">
<title>ApiLogService&#45;&gt;GroupModule</title>
<path fill="none" stroke="black" d="M141.69,-80.27C141.69,-80.27 141.69,-103.66 141.69,-103.66"/>
<polygon fill="black" stroke="black" points="138.19,-103.66 141.69,-113.66 145.19,-103.66 138.19,-103.66"/>
</g>
</g>
</svg>
