<?xml version="1.0" encoding="UTF-8" standalone="no"?>
<!DOCTYPE svg PUBLIC "-//W3C//DTD SVG 1.1//EN"
 "http://www.w3.org/Graphics/SVG/1.1/DTD/svg11.dtd">
<!-- Generated by graphviz version 5.0.0 (20220707.1540)
 -->
<!-- Title: dependencies Pages: 1 -->
<svg width="472pt" height="174pt"
 viewBox="0.00 0.00 472.00 173.80" xmlns="http://www.w3.org/2000/svg" xmlns:xlink="http://www.w3.org/1999/xlink">
<g id="graph0" class="graph" transform="scale(1 1) rotate(0) translate(4 169.8)">
<title>dependencies</title>
<polygon fill="white" stroke="transparent" points="-4,4 -4,-169.8 468,-169.8 468,4 -4,4"/>
<text text-anchor="middle" x="232" y="-8.2" font-family="sans-serif" font-size="14.00">dependencies</text>
<g id="clust1" class="cluster">
<title>cluster_GroupModule</title>
<polygon fill="none" stroke="black" stroke-dasharray="1,5" points="8,-32.8 8,-157.8 456,-157.8 456,-32.8 8,-32.8"/>
</g>
<g id="clust3" class="cluster">
<title>cluster_GroupModule_imports</title>
<polygon fill="none" stroke="black" points="328,-40.8 328,-92.8 448,-92.8 448,-40.8 328,-40.8"/>
</g>
<g id="clust6" class="cluster">
<title>cluster_GroupModule_providers</title>
<polygon fill="none" stroke="black" points="16,-40.8 16,-92.8 320,-92.8 320,-40.8 16,-40.8"/>
</g>
<!-- ApiLogModule -->
<g id="node1" class="node">
<title>ApiLogModule</title>
<polygon fill="#8dd3c7" stroke="black" points="439.6,-84.8 436.6,-88.8 415.6,-88.8 412.6,-84.8 336.4,-84.8 336.4,-48.8 439.6,-48.8 439.6,-84.8"/>
<text text-anchor="middle" x="388" y="-62.6" font-family="Times,serif" font-size="14.00">ApiLogModule</text>
</g>
<!-- GroupModule -->
<g id="node2" class="node">
<title>GroupModule</title>
<polygon fill="#8dd3c7" stroke="black" points="289.82,-149.8 286.82,-153.8 265.82,-153.8 262.82,-149.8 194.18,-149.8 194.18,-113.8 289.82,-113.8 289.82,-149.8"/>
<text text-anchor="middle" x="242" y="-127.6" font-family="Times,serif" font-size="14.00">GroupModule</text>
</g>
<!-- ApiLogModule&#45;&gt;GroupModule -->
<g id="edge1" class="edge">
<title>ApiLogModule&#45;&gt;GroupModule</title>
<path fill="none" stroke="black" d="M388,-84.91C388,-104.14 388,-131.8 388,-131.8 388,-131.8 299.81,-131.8 299.81,-131.8"/>
<polygon fill="black" stroke="black" points="299.81,-128.3 289.81,-131.8 299.81,-135.3 299.81,-128.3"/>
</g>
<!-- ApiLogService -->
<g id="node3" class="node">
<title>ApiLogService</title>
<ellipse fill="#fdb462" stroke="black" cx="242" cy="-66.8" rx="70.07" ry="18"/>
<text text-anchor="middle" x="242" y="-62.6" font-family="Times,serif" font-size="14.00">ApiLogService</text>
</g>
<!-- ApiLogService&#45;&gt;GroupModule -->
<g id="edge2" class="edge">
<title>ApiLogService&#45;&gt;GroupModule</title>
<path fill="none" stroke="black" d="M242,-84.91C242,-84.91 242,-103.79 242,-103.79"/>
<polygon fill="black" stroke="black" points="238.5,-103.79 242,-113.79 245.5,-103.79 238.5,-103.79"/>
</g>
<!-- GroupService -->
<g id="node4" class="node">
<title>GroupService</title>
<ellipse fill="#fdb462" stroke="black" cx="89" cy="-66.8" rx="64.84" ry="18"/>
<text text-anchor="middle" x="89" y="-62.6" font-family="Times,serif" font-size="14.00">GroupService</text>
</g>
<!-- GroupService&#45;&gt;GroupModule -->
<g id="edge3" class="edge">
<title>GroupService&#45;&gt;GroupModule</title>
<path fill="none" stroke="black" d="M89,-84.91C89,-104.14 89,-131.8 89,-131.8 89,-131.8 184.01,-131.8 184.01,-131.8"/>
<polygon fill="black" stroke="black" points="184.01,-135.3 194.01,-131.8 184.01,-128.3 184.01,-135.3"/>
</g>
</g>
</svg>
