<?xml version="1.0" encoding="UTF-8" standalone="no"?>
<!DOCTYPE svg PUBLIC "-//W3C//DTD SVG 1.1//EN"
 "http://www.w3.org/Graphics/SVG/1.1/DTD/svg11.dtd">
<!-- Generated by graphviz version 2.47.0 (20210316.0004)
 -->
<!-- Title: dependencies Pages: 1 -->
<svg width="716pt" height="211pt"
 viewBox="0.00 0.00 716.00 211.00" xmlns="http://www.w3.org/2000/svg" xmlns:xlink="http://www.w3.org/1999/xlink">
<g id="graph0" class="graph" transform="scale(1 1) rotate(0) translate(4 207)">
<title>dependencies</title>
<polygon fill="white" stroke="transparent" points="-4,4 -4,-207 712,-207 712,4 -4,4"/>
<text text-anchor="start" x="333.01" y="-42.4" font-family="Times-12" font-weight="bold" font-size="14.00">Legend</text>
<polygon fill="#ffffb3" stroke="transparent" points="120,-10 120,-30 140,-30 140,-10 120,-10"/>
<text text-anchor="start" x="143.63" y="-15.4" font-family="Times-12" font-size="14.00"> &#160;Declarations</text>
<polygon fill="#8dd3c7" stroke="transparent" points="233,-10 233,-30 253,-30 253,-10 233,-10"/>
<text text-anchor="start" x="256.73" y="-15.4" font-family="Times-12" font-size="14.00"> &#160;Module</text>
<polygon fill="#80b1d3" stroke="transparent" points="319,-10 319,-30 339,-30 339,-10 319,-10"/>
<text text-anchor="start" x="342.78" y="-15.4" font-family="Times-12" font-size="14.00"> &#160;Bootstrap</text>
<polygon fill="#fdb462" stroke="transparent" points="416,-10 416,-30 436,-30 436,-10 416,-10"/>
<text text-anchor="start" x="439.67" y="-15.4" font-family="Times-12" font-size="14.00"> &#160;Providers</text>
<polygon fill="#fb8072" stroke="transparent" points="512,-10 512,-30 532,-30 532,-10 512,-10"/>
<text text-anchor="start" x="535.73" y="-15.4" font-family="Times-12" font-size="14.00"> &#160;Exports</text>
<g id="clust1" class="cluster">
<title>cluster_PriceModule</title>
<polygon fill="none" stroke="black" stroke-dasharray="1,5" points="8,-70 8,-195 700,-195 700,-70 8,-70"/>
</g>
<g id="clust3" class="cluster">
<title>cluster_PriceModule_imports</title>
<polygon fill="none" stroke="black" points="462,-78 462,-130 692,-130 692,-78 462,-78"/>
</g>
<g id="clust6" class="cluster">
<title>cluster_PriceModule_providers</title>
<polygon fill="none" stroke="black" points="16,-78 16,-130 454,-130 454,-78 16,-78"/>
</g>
<!-- ApiLogModule -->
<g id="node1" class="node">
<title>ApiLogModule</title>
<polygon fill="#8dd3c7" stroke="black" points="683.6,-122 680.6,-126 659.6,-126 656.6,-122 580.4,-122 580.4,-86 683.6,-86 683.6,-122"/>
<text text-anchor="middle" x="632" y="-99.8" font-family="Times,serif" font-size="14.00">ApiLogModule</text>
</g>
<!-- PriceModule -->
<g id="node3" class="node">
<title>PriceModule</title>
<polygon fill="#8dd3c7" stroke="black" points="560.31,-187 557.31,-191 536.31,-191 533.31,-187 471.69,-187 471.69,-151 560.31,-151 560.31,-187"/>
<text text-anchor="middle" x="516" y="-164.8" font-family="Times,serif" font-size="14.00">PriceModule</text>
</g>
<!-- ApiLogModule&#45;&gt;PriceModule -->
<g id="edge1" class="edge">
<title>ApiLogModule&#45;&gt;PriceModule</title>
<path fill="none" stroke="black" d="M649.18,-122.28C649.18,-143.32 649.18,-175 649.18,-175 649.18,-175 570.35,-175 570.35,-175"/>
<polygon fill="black" stroke="black" points="570.35,-171.5 560.35,-175 570.35,-178.5 570.35,-171.5"/>
</g>
<!-- ApiLogModule&#45;&gt;PriceModule -->
<g id="edge2" class="edge">
<title>ApiLogModule&#45;&gt;PriceModule</title>
<path fill="none" stroke="black" d="M614.82,-122.02C614.82,-139.37 614.82,-163 614.82,-163 614.82,-163 570.21,-163 570.21,-163"/>
<polygon fill="black" stroke="black" points="570.21,-159.5 560.21,-163 570.21,-166.5 570.21,-159.5"/>
</g>
<!-- StripeModule -->
<g id="node2" class="node">
<title>StripeModule</title>
<polygon fill="#8dd3c7" stroke="black" points="562.49,-122 559.49,-126 538.49,-126 535.49,-122 469.51,-122 469.51,-86 562.49,-86 562.49,-122"/>
<text text-anchor="middle" x="516" y="-99.8" font-family="Times,serif" font-size="14.00">StripeModule</text>
</g>
<!-- StripeModule&#45;&gt;PriceModule -->
<g id="edge3" class="edge">
<title>StripeModule&#45;&gt;PriceModule</title>
<path fill="none" stroke="black" d="M501.28,-122.11C501.28,-122.11 501.28,-140.99 501.28,-140.99"/>
<polygon fill="black" stroke="black" points="497.78,-140.99 501.28,-150.99 504.78,-140.99 497.78,-140.99"/>
</g>
<!-- StripeModule&#45;&gt;PriceModule -->
<g id="edge4" class="edge">
<title>StripeModule&#45;&gt;PriceModule</title>
<path fill="none" stroke="black" d="M530.72,-122.11C530.72,-122.11 530.72,-140.99 530.72,-140.99"/>
<polygon fill="black" stroke="black" points="527.22,-140.99 530.72,-150.99 534.22,-140.99 527.22,-140.99"/>
</g>
<!-- ApiLogService -->
<g id="node4" class="node">
<title>ApiLogService</title>
<ellipse fill="#fdb462" stroke="black" cx="376" cy="-104" rx="70.06" ry="18"/>
<text text-anchor="middle" x="376" y="-99.8" font-family="Times,serif" font-size="14.00">ApiLogService</text>
</g>
<!-- ApiLogService&#45;&gt;PriceModule -->
<g id="edge5" class="edge">
<title>ApiLogService&#45;&gt;PriceModule</title>
<path fill="none" stroke="black" d="M376,-122.03C376,-138.4 376,-160 376,-160 376,-160 461.7,-160 461.7,-160"/>
<polygon fill="black" stroke="black" points="461.7,-163.5 471.7,-160 461.7,-156.5 461.7,-163.5"/>
</g>
<!-- PriceService -->
<g id="node5" class="node">
<title>PriceService</title>
<ellipse fill="#fdb462" stroke="black" cx="228" cy="-104" rx="59.66" ry="18"/>
<text text-anchor="middle" x="228" y="-99.8" font-family="Times,serif" font-size="14.00">PriceService</text>
</g>
<!-- PriceService&#45;&gt;PriceModule -->
<g id="edge6" class="edge">
<title>PriceService&#45;&gt;PriceModule</title>
<path fill="none" stroke="black" d="M228,-122.11C228,-141.34 228,-169 228,-169 228,-169 461.63,-169 461.63,-169"/>
<polygon fill="black" stroke="black" points="461.63,-172.5 471.63,-169 461.63,-165.5 461.63,-172.5"/>
</g>
<!-- StripeService -->
<g id="node6" class="node">
<title>StripeService</title>
<ellipse fill="#fdb462" stroke="black" cx="87" cy="-104" rx="63.12" ry="18"/>
<text text-anchor="middle" x="87" y="-99.8" font-family="Times,serif" font-size="14.00">StripeService</text>
</g>
<!-- StripeService&#45;&gt;PriceModule -->
<g id="edge7" class="edge">
<title>StripeService&#45;&gt;PriceModule</title>
<path fill="none" stroke="black" d="M87,-122.29C87,-144.21 87,-178 87,-178 87,-178 461.71,-178 461.71,-178"/>
<polygon fill="black" stroke="black" points="461.71,-181.5 471.71,-178 461.71,-174.5 461.71,-181.5"/>
</g>
</g>
</svg>
