<?xml version="1.0" encoding="UTF-8" standalone="no"?>
<!DOCTYPE svg PUBLIC "-//W3C//DTD SVG 1.1//EN"
 "http://www.w3.org/Graphics/SVG/1.1/DTD/svg11.dtd">
<!-- Generated by graphviz version 5.0.0 (20220707.1540)
 -->
<!-- Title: dependencies Pages: 1 -->
<svg width="1806pt" height="174pt"
 viewBox="0.00 0.00 1806.00 173.80" xmlns="http://www.w3.org/2000/svg" xmlns:xlink="http://www.w3.org/1999/xlink">
<g id="graph0" class="graph" transform="scale(1 1) rotate(0) translate(4 169.8)">
<title>dependencies</title>
<polygon fill="white" stroke="transparent" points="-4,4 -4,-169.8 1802,-169.8 1802,4 -4,4"/>
<text text-anchor="middle" x="899" y="-8.2" font-family="sans-serif" font-size="14.00">dependencies</text>
<g id="clust1" class="cluster">
<title>cluster_AppModule</title>
<polygon fill="none" stroke="black" stroke-dasharray="1,5" points="8,-32.8 8,-157.8 1790,-157.8 1790,-32.8 8,-32.8"/>
</g>
<g id="clust3" class="cluster">
<title>cluster_AppModule_imports</title>
<polygon fill="none" stroke="black" points="312,-40.8 312,-92.8 1782,-92.8 1782,-40.8 312,-40.8"/>
</g>
<g id="clust6" class="cluster">
<title>cluster_AppModule_providers</title>
<polygon fill="none" stroke="black" points="16,-40.8 16,-92.8 304,-92.8 304,-40.8 16,-40.8"/>
</g>
<!-- ApiLandingPageModule -->
<g id="node1" class="node">
<title>ApiLandingPageModule</title>
<polygon fill="#8dd3c7" stroke="black" points="1774.42,-84.8 1771.42,-88.8 1750.42,-88.8 1747.42,-84.8 1619.58,-84.8 1619.58,-48.8 1774.42,-48.8 1774.42,-84.8"/>
<text text-anchor="middle" x="1697" y="-62.6" font-family="Times,serif" font-size="14.00">ApiLandingPageModule</text>
</g>
<!-- AppModule -->
<g id="node12" class="node">
<title>AppModule</title>
<polygon fill="#8dd3c7" stroke="black" points="951.66,-149.8 948.66,-153.8 927.66,-153.8 924.66,-149.8 868.34,-149.8 868.34,-113.8 951.66,-113.8 951.66,-149.8"/>
<text text-anchor="middle" x="910" y="-127.6" font-family="Times,serif" font-size="14.00">AppModule</text>
</g>
<!-- ApiLandingPageModule&#45;&gt;AppModule -->
<g id="edge1" class="edge">
<title>ApiLandingPageModule&#45;&gt;AppModule</title>
<path fill="none" stroke="black" d="M1697,-84.89C1697,-107.93 1697,-144.8 1697,-144.8 1697,-144.8 961.76,-144.8 961.76,-144.8"/>
<polygon fill="black" stroke="black" points="961.76,-141.3 951.76,-144.8 961.76,-148.3 961.76,-141.3"/>
</g>
<!-- ApiLogModule -->
<g id="node2" class="node">
<title>ApiLogModule</title>
<polygon fill="#8dd3c7" stroke="black" points="1601.6,-84.8 1598.6,-88.8 1577.6,-88.8 1574.6,-84.8 1498.4,-84.8 1498.4,-48.8 1601.6,-48.8 1601.6,-84.8"/>
<text text-anchor="middle" x="1550" y="-62.6" font-family="Times,serif" font-size="14.00">ApiLogModule</text>
</g>
<!-- ApiLogModule&#45;&gt;AppModule -->
<g id="edge2" class="edge">
<title>ApiLogModule&#45;&gt;AppModule</title>
<path fill="none" stroke="black" d="M1550,-84.84C1550,-106.46 1550,-139.8 1550,-139.8 1550,-139.8 961.99,-139.8 961.99,-139.8"/>
<polygon fill="black" stroke="black" points="961.99,-136.3 951.99,-139.8 961.99,-143.3 961.99,-136.3"/>
</g>
<!-- ApiMailModule -->
<g id="node3" class="node">
<title>ApiMailModule</title>
<polygon fill="#8dd3c7" stroke="black" points="1480.49,-84.8 1477.49,-88.8 1456.49,-88.8 1453.49,-84.8 1373.51,-84.8 1373.51,-48.8 1480.49,-48.8 1480.49,-84.8"/>
<text text-anchor="middle" x="1427" y="-62.6" font-family="Times,serif" font-size="14.00">ApiMailModule</text>
</g>
<!-- ApiMailModule&#45;&gt;AppModule -->
<g id="edge3" class="edge">
<title>ApiMailModule&#45;&gt;AppModule</title>
<path fill="none" stroke="black" d="M1427,-85.02C1427,-105.17 1427,-134.8 1427,-134.8 1427,-134.8 961.87,-134.8 961.87,-134.8"/>
<polygon fill="black" stroke="black" points="961.87,-131.3 951.87,-134.8 961.87,-138.3 961.87,-131.3"/>
</g>
<!-- AuthModule -->
<g id="node4" class="node">
<title>AuthModule</title>
<polygon fill="#8dd3c7" stroke="black" points="1355.55,-84.8 1352.55,-88.8 1331.55,-88.8 1328.55,-84.8 1268.45,-84.8 1268.45,-48.8 1355.55,-48.8 1355.55,-84.8"/>
<text text-anchor="middle" x="1312" y="-62.6" font-family="Times,serif" font-size="14.00">AuthModule</text>
</g>
<!-- AuthModule&#45;&gt;AppModule -->
<g id="edge4" class="edge">
<title>AuthModule&#45;&gt;AppModule</title>
<path fill="none" stroke="black" d="M1312,-85.02C1312,-103.63 1312,-129.8 1312,-129.8 1312,-129.8 961.88,-129.8 961.88,-129.8"/>
<polygon fill="black" stroke="black" points="961.88,-126.3 951.88,-129.8 961.88,-133.3 961.88,-126.3"/>
</g>
<!-- CardModule -->
<g id="node5" class="node">
<title>CardModule</title>
<polygon fill="#8dd3c7" stroke="black" points="1250.27,-84.8 1247.27,-88.8 1226.27,-88.8 1223.27,-84.8 1163.73,-84.8 1163.73,-48.8 1250.27,-48.8 1250.27,-84.8"/>
<text text-anchor="middle" x="1207" y="-62.6" font-family="Times,serif" font-size="14.00">CardModule</text>
</g>
<!-- CardModule&#45;&gt;AppModule -->
<g id="edge5" class="edge">
<title>CardModule&#45;&gt;AppModule</title>
<path fill="none" stroke="black" d="M1207,-84.83C1207,-101.86 1207,-124.8 1207,-124.8 1207,-124.8 961.92,-124.8 961.92,-124.8"/>
<polygon fill="black" stroke="black" points="961.92,-121.3 951.92,-124.8 961.92,-128.3 961.92,-121.3"/>
</g>
<!-- EntitiesToMoveModule -->
<g id="node6" class="node">
<title>EntitiesToMoveModule</title>
<polygon fill="#8dd3c7" stroke="black" points="1145.04,-84.8 1142.04,-88.8 1121.04,-88.8 1118.04,-84.8 994.96,-84.8 994.96,-48.8 1145.04,-48.8 1145.04,-84.8"/>
<text text-anchor="middle" x="1070" y="-62.6" font-family="Times,serif" font-size="14.00">EntitiesToMoveModule</text>
</g>
<!-- EntitiesToMoveModule&#45;&gt;AppModule -->
<g id="edge6" class="edge">
<title>EntitiesToMoveModule&#45;&gt;AppModule</title>
<path fill="none" stroke="black" d="M1070,-85.04C1070,-100.37 1070,-119.8 1070,-119.8 1070,-119.8 962.04,-119.8 962.04,-119.8"/>
<polygon fill="black" stroke="black" points="962.04,-116.3 952.04,-119.8 962.04,-123.3 962.04,-116.3"/>
</g>
<!-- HealthCheckModule -->
<g id="node7" class="node">
<title>HealthCheckModule</title>
<polygon fill="#8dd3c7" stroke="black" points="976.14,-84.8 973.14,-88.8 952.14,-88.8 949.14,-84.8 843.86,-84.8 843.86,-48.8 976.14,-48.8 976.14,-84.8"/>
<text text-anchor="middle" x="910" y="-62.6" font-family="Times,serif" font-size="14.00">HealthCheckModule</text>
</g>
<!-- HealthCheckModule&#45;&gt;AppModule -->
<g id="edge7" class="edge">
<title>HealthCheckModule&#45;&gt;AppModule</title>
<path fill="none" stroke="black" d="M910,-84.91C910,-84.91 910,-103.79 910,-103.79"/>
<polygon fill="black" stroke="black" points="906.5,-103.79 910,-113.79 913.5,-103.79 906.5,-103.79"/>
</g>
<!-- OccupationModule -->
<g id="node8" class="node">
<title>OccupationModule</title>
<polygon fill="#8dd3c7" stroke="black" points="826.08,-84.8 823.08,-88.8 802.08,-88.8 799.08,-84.8 701.92,-84.8 701.92,-48.8 826.08,-48.8 826.08,-84.8"/>
<text text-anchor="middle" x="764" y="-62.6" font-family="Times,serif" font-size="14.00">OccupationModule</text>
</g>
<!-- OccupationModule&#45;&gt;AppModule -->
<g id="edge8" class="edge">
<title>OccupationModule&#45;&gt;AppModule</title>
<path fill="none" stroke="black" d="M764,-85.04C764,-100.37 764,-119.8 764,-119.8 764,-119.8 858.16,-119.8 858.16,-119.8"/>
<polygon fill="black" stroke="black" points="858.16,-123.3 868.16,-119.8 858.16,-116.3 858.16,-123.3"/>
</g>
<!-- ProfileModule -->
<g id="node9" class="node">
<title>ProfileModule</title>
<polygon fill="#8dd3c7" stroke="black" points="683.66,-84.8 680.66,-88.8 659.66,-88.8 656.66,-84.8 586.34,-84.8 586.34,-48.8 683.66,-48.8 683.66,-84.8"/>
<text text-anchor="middle" x="635" y="-62.6" font-family="Times,serif" font-size="14.00">ProfileModule</text>
</g>
<!-- ProfileModule&#45;&gt;AppModule -->
<g id="edge9" class="edge">
<title>ProfileModule&#45;&gt;AppModule</title>
<path fill="none" stroke="black" d="M635,-84.83C635,-101.86 635,-124.8 635,-124.8 635,-124.8 858.23,-124.8 858.23,-124.8"/>
<polygon fill="black" stroke="black" points="858.23,-128.3 868.23,-124.8 858.23,-121.3 858.23,-128.3"/>
</g>
<!-- SocialNetworkModule -->
<g id="node10" class="node">
<title>SocialNetworkModule</title>
<polygon fill="#8dd3c7" stroke="black" points="567.53,-84.8 564.53,-88.8 543.53,-88.8 540.53,-84.8 424.47,-84.8 424.47,-48.8 567.53,-48.8 567.53,-84.8"/>
<text text-anchor="middle" x="496" y="-62.6" font-family="Times,serif" font-size="14.00">SocialNetworkModule</text>
</g>
<!-- SocialNetworkModule&#45;&gt;AppModule -->
<g id="edge10" class="edge">
<title>SocialNetworkModule&#45;&gt;AppModule</title>
<path fill="none" stroke="black" d="M496,-85.02C496,-103.63 496,-129.8 496,-129.8 496,-129.8 858.03,-129.8 858.03,-129.8"/>
<polygon fill="black" stroke="black" points="858.03,-133.3 868.03,-129.8 858.03,-126.3 858.03,-133.3"/>
</g>
<!-- UserModule -->
<g id="node11" class="node">
<title>UserModule</title>
<polygon fill="#8dd3c7" stroke="black" points="405.99,-84.8 402.99,-88.8 381.99,-88.8 378.99,-84.8 320.01,-84.8 320.01,-48.8 405.99,-48.8 405.99,-84.8"/>
<text text-anchor="middle" x="363" y="-62.6" font-family="Times,serif" font-size="14.00">UserModule</text>
</g>
<!-- UserModule&#45;&gt;AppModule -->
<g id="edge11" class="edge">
<title>UserModule&#45;&gt;AppModule</title>
<path fill="none" stroke="black" d="M363,-85.02C363,-105.17 363,-134.8 363,-134.8 363,-134.8 857.99,-134.8 857.99,-134.8"/>
<polygon fill="black" stroke="black" points="857.99,-138.3 867.99,-134.8 857.99,-131.3 857.99,-138.3"/>
</g>
<!-- ApiLogService -->
<g id="node13" class="node">
<title>ApiLogService</title>
<ellipse fill="#fdb462" stroke="black" cx="226" cy="-66.8" rx="70.07" ry="18"/>
<text text-anchor="middle" x="226" y="-62.6" font-family="Times,serif" font-size="14.00">ApiLogService</text>
</g>
<!-- ApiLogService&#45;&gt;AppModule -->
<g id="edge12" class="edge">
<title>ApiLogService&#45;&gt;AppModule</title>
<path fill="none" stroke="black" d="M226,-84.84C226,-106.46 226,-139.8 226,-139.8 226,-139.8 858.24,-139.8 858.24,-139.8"/>
<polygon fill="black" stroke="black" points="858.24,-143.3 868.24,-139.8 858.24,-136.3 858.24,-143.3"/>
</g>
<!-- AppService -->
<g id="node14" class="node">
<title>AppService</title>
<ellipse fill="#fdb462" stroke="black" cx="81" cy="-66.8" rx="56.75" ry="18"/>
<text text-anchor="middle" x="81" y="-62.6" font-family="Times,serif" font-size="14.00">AppService</text>
</g>
<!-- AppService&#45;&gt;AppModule -->
<g id="edge13" class="edge">
<title>AppService&#45;&gt;AppModule</title>
<path fill="none" stroke="black" d="M81,-84.89C81,-107.93 81,-144.8 81,-144.8 81,-144.8 858.32,-144.8 858.32,-144.8"/>
<polygon fill="black" stroke="black" points="858.32,-148.3 868.32,-144.8 858.32,-141.3 858.32,-148.3"/>
</g>
</g>
</svg>
