<?xml version="1.0" encoding="UTF-8" standalone="no"?>
<!DOCTYPE svg PUBLIC "-//W3C//DTD SVG 1.1//EN"
 "http://www.w3.org/Graphics/SVG/1.1/DTD/svg11.dtd">
<!-- Generated by graphviz version 5.0.0 (20220707.1540)
 -->
<!-- Title: dependencies Pages: 1 -->
<svg width="1281pt" height="174pt"
 viewBox="0.00 0.00 1281.00 173.80" xmlns="http://www.w3.org/2000/svg" xmlns:xlink="http://www.w3.org/1999/xlink">
<g id="graph0" class="graph" transform="scale(1 1) rotate(0) translate(4 169.8)">
<title>dependencies</title>
<polygon fill="white" stroke="transparent" points="-4,4 -4,-169.8 1277,-169.8 1277,4 -4,4"/>
<text text-anchor="middle" x="636.5" y="-8.2" font-family="sans-serif" font-size="14.00">dependencies</text>
<g id="clust1" class="cluster">
<title>cluster_AppModule</title>
<polygon fill="none" stroke="black" stroke-dasharray="1,5" points="8,-32.8 8,-157.8 1265,-157.8 1265,-32.8 8,-32.8"/>
</g>
<g id="clust6" class="cluster">
<title>cluster_AppModule_providers</title>
<polygon fill="none" stroke="black" points="969,-40.8 969,-92.8 1257,-92.8 1257,-40.8 969,-40.8"/>
</g>
<g id="clust3" class="cluster">
<title>cluster_AppModule_imports</title>
<polygon fill="none" stroke="black" points="16,-40.8 16,-92.8 961,-92.8 961,-40.8 16,-40.8"/>
</g>
<!-- ApiLandingPageModule -->
<g id="node1" class="node">
<title>ApiLandingPageModule</title>
<polygon fill="#8dd3c7" stroke="black" points="953.42,-84.8 950.42,-88.8 929.42,-88.8 926.42,-84.8 798.58,-84.8 798.58,-48.8 953.42,-48.8 953.42,-84.8"/>
<text text-anchor="middle" x="876" y="-62.6" font-family="Times,serif" font-size="14.00">ApiLandingPageModule</text>
</g>
<!-- AppModule -->
<g id="node8" class="node">
<title>AppModule</title>
<polygon fill="#8dd3c7" stroke="black" points="647.66,-149.8 644.66,-153.8 623.66,-153.8 620.66,-149.8 564.34,-149.8 564.34,-113.8 647.66,-113.8 647.66,-149.8"/>
<text text-anchor="middle" x="606" y="-127.6" font-family="Times,serif" font-size="14.00">AppModule</text>
</g>
<!-- ApiLandingPageModule&#45;&gt;AppModule -->
<g id="edge1" class="edge">
<title>ApiLandingPageModule&#45;&gt;AppModule</title>
<path fill="none" stroke="black" d="M876,-85.07C876,-103.36 876,-128.8 876,-128.8 876,-128.8 657.89,-128.8 657.89,-128.8"/>
<polygon fill="black" stroke="black" points="657.89,-125.3 647.89,-128.8 657.89,-132.3 657.89,-125.3"/>
</g>
<!-- ApiLogModule -->
<g id="node2" class="node">
<title>ApiLogModule</title>
<polygon fill="#8dd3c7" stroke="black" points="780.6,-84.8 777.6,-88.8 756.6,-88.8 753.6,-84.8 677.4,-84.8 677.4,-48.8 780.6,-48.8 780.6,-84.8"/>
<text text-anchor="middle" x="729" y="-62.6" font-family="Times,serif" font-size="14.00">ApiLogModule</text>
</g>
<!-- ApiLogModule&#45;&gt;AppModule -->
<g id="edge2" class="edge">
<title>ApiLogModule&#45;&gt;AppModule</title>
<path fill="none" stroke="black" d="M729,-84.81C729,-100.85 729,-121.8 729,-121.8 729,-121.8 657.99,-121.8 657.99,-121.8"/>
<polygon fill="black" stroke="black" points="657.99,-118.3 647.99,-121.8 657.99,-125.3 657.99,-118.3"/>
</g>
<!-- ApiMailModule -->
<g id="node3" class="node">
<title>ApiMailModule</title>
<polygon fill="#8dd3c7" stroke="black" points="659.49,-84.8 656.49,-88.8 635.49,-88.8 632.49,-84.8 552.51,-84.8 552.51,-48.8 659.49,-48.8 659.49,-84.8"/>
<text text-anchor="middle" x="606" y="-62.6" font-family="Times,serif" font-size="14.00">ApiMailModule</text>
</g>
<!-- ApiMailModule&#45;&gt;AppModule -->
<g id="edge3" class="edge">
<title>ApiMailModule&#45;&gt;AppModule</title>
<path fill="none" stroke="black" d="M606,-84.91C606,-84.91 606,-103.79 606,-103.79"/>
<polygon fill="black" stroke="black" points="602.5,-103.79 606,-113.79 609.5,-103.79 602.5,-103.79"/>
</g>
<!-- AuthModule -->
<g id="node4" class="node">
<title>AuthModule</title>
<polygon fill="#8dd3c7" stroke="black" points="534.55,-84.8 531.55,-88.8 510.55,-88.8 507.55,-84.8 447.45,-84.8 447.45,-48.8 534.55,-48.8 534.55,-84.8"/>
<text text-anchor="middle" x="491" y="-62.6" font-family="Times,serif" font-size="14.00">AuthModule</text>
</g>
<!-- AuthModule&#45;&gt;AppModule -->
<g id="edge4" class="edge">
<title>AuthModule&#45;&gt;AppModule</title>
<path fill="none" stroke="black" d="M491,-84.81C491,-100.85 491,-121.8 491,-121.8 491,-121.8 554.16,-121.8 554.16,-121.8"/>
<polygon fill="black" stroke="black" points="554.16,-125.3 564.16,-121.8 554.16,-118.3 554.16,-125.3"/>
</g>
<!-- EntitiesToMoveModule -->
<g id="node5" class="node">
<title>EntitiesToMoveModule</title>
<polygon fill="#8dd3c7" stroke="black" points="429.04,-84.8 426.04,-88.8 405.04,-88.8 402.04,-84.8 278.96,-84.8 278.96,-48.8 429.04,-48.8 429.04,-84.8"/>
<text text-anchor="middle" x="354" y="-62.6" font-family="Times,serif" font-size="14.00">EntitiesToMoveModule</text>
</g>
<!-- EntitiesToMoveModule&#45;&gt;AppModule -->
<g id="edge5" class="edge">
<title>EntitiesToMoveModule&#45;&gt;AppModule</title>
<path fill="none" stroke="black" d="M354,-85.07C354,-103.36 354,-128.8 354,-128.8 354,-128.8 554.1,-128.8 554.1,-128.8"/>
<polygon fill="black" stroke="black" points="554.1,-132.3 564.1,-128.8 554.1,-125.3 554.1,-132.3"/>
</g>
<!-- HealthCheckModule -->
<g id="node6" class="node">
<title>HealthCheckModule</title>
<polygon fill="#8dd3c7" stroke="black" points="260.14,-84.8 257.14,-88.8 236.14,-88.8 233.14,-84.8 127.86,-84.8 127.86,-48.8 260.14,-48.8 260.14,-84.8"/>
<text text-anchor="middle" x="194" y="-62.6" font-family="Times,serif" font-size="14.00">HealthCheckModule</text>
</g>
<!-- HealthCheckModule&#45;&gt;AppModule -->
<g id="edge6" class="edge">
<title>HealthCheckModule&#45;&gt;AppModule</title>
<path fill="none" stroke="black" d="M194,-84.93C194,-105.37 194,-135.8 194,-135.8 194,-135.8 554.23,-135.8 554.23,-135.8"/>
<polygon fill="black" stroke="black" points="554.23,-139.3 564.23,-135.8 554.23,-132.3 554.23,-139.3"/>
</g>
<!-- UserModule -->
<g id="node7" class="node">
<title>UserModule</title>
<polygon fill="#8dd3c7" stroke="black" points="109.99,-84.8 106.99,-88.8 85.99,-88.8 82.99,-84.8 24.01,-84.8 24.01,-48.8 109.99,-48.8 109.99,-84.8"/>
<text text-anchor="middle" x="67" y="-62.6" font-family="Times,serif" font-size="14.00">UserModule</text>
</g>
<!-- UserModule&#45;&gt;AppModule -->
<g id="edge7" class="edge">
<title>UserModule&#45;&gt;AppModule</title>
<path fill="none" stroke="black" d="M67,-84.81C67,-107.29 67,-142.8 67,-142.8 67,-142.8 554.15,-142.8 554.15,-142.8"/>
<polygon fill="black" stroke="black" points="554.15,-146.3 564.15,-142.8 554.15,-139.3 554.15,-146.3"/>
</g>
<!-- ApiLogService -->
<g id="node9" class="node">
<title>ApiLogService</title>
<ellipse fill="#fdb462" stroke="black" cx="1179" cy="-66.8" rx="70.07" ry="18"/>
<text text-anchor="middle" x="1179" y="-62.6" font-family="Times,serif" font-size="14.00">ApiLogService</text>
</g>
<!-- ApiLogService&#45;&gt;AppModule -->
<g id="edge8" class="edge">
<title>ApiLogService&#45;&gt;AppModule</title>
<path fill="none" stroke="black" d="M1179,-84.81C1179,-107.29 1179,-142.8 1179,-142.8 1179,-142.8 657.67,-142.8 657.67,-142.8"/>
<polygon fill="black" stroke="black" points="657.67,-139.3 647.67,-142.8 657.67,-146.3 657.67,-139.3"/>
</g>
<!-- AppService -->
<g id="node10" class="node">
<title>AppService</title>
<ellipse fill="#fdb462" stroke="black" cx="1034" cy="-66.8" rx="56.75" ry="18"/>
<text text-anchor="middle" x="1034" y="-62.6" font-family="Times,serif" font-size="14.00">AppService</text>
</g>
<!-- AppService&#45;&gt;AppModule -->
<g id="edge9" class="edge">
<title>AppService&#45;&gt;AppModule</title>
<path fill="none" stroke="black" d="M1034,-84.93C1034,-105.37 1034,-135.8 1034,-135.8 1034,-135.8 657.82,-135.8 657.82,-135.8"/>
<polygon fill="black" stroke="black" points="657.82,-132.3 647.82,-135.8 657.82,-139.3 657.82,-132.3"/>
</g>
</g>
</svg>
