<?xml version="1.0" encoding="UTF-8" standalone="no"?>
<!DOCTYPE svg PUBLIC "-//W3C//DTD SVG 1.1//EN"
 "http://www.w3.org/Graphics/SVG/1.1/DTD/svg11.dtd">
<!-- Generated by graphviz version 5.0.0 (20220707.1540)
 -->
<!-- Title: dependencies Pages: 1 -->
<svg width="1806pt" height="174pt"
 viewBox="0.00 0.00 1806.00 173.80" xmlns="http://www.w3.org/2000/svg" xmlns:xlink="http://www.w3.org/1999/xlink">
<g id="graph0" class="graph" transform="scale(1 1) rotate(0) translate(4 169.8)">
<title>dependencies</title>
<polygon fill="white" stroke="transparent" points="-4,4 -4,-169.8 1802,-169.8 1802,4 -4,4"/>
<text text-anchor="middle" x="899" y="-8.2" font-family="sans-serif" font-size="14.00">dependencies</text>
<g id="clust1" class="cluster">
<title>cluster_AppModule</title>
<polygon fill="none" stroke="black" stroke-dasharray="1,5" points="8,-32.8 8,-157.8 1790,-157.8 1790,-32.8 8,-32.8"/>
</g>
<g id="clust6" class="cluster">
<title>cluster_AppModule_providers</title>
<polygon fill="none" stroke="black" points="1494,-40.8 1494,-92.8 1782,-92.8 1782,-40.8 1494,-40.8"/>
</g>
<g id="clust3" class="cluster">
<title>cluster_AppModule_imports</title>
<polygon fill="none" stroke="black" points="16,-40.8 16,-92.8 1486,-92.8 1486,-40.8 16,-40.8"/>
</g>
<!-- ApiLandingPageModule -->
<g id="node1" class="node">
<title>ApiLandingPageModule</title>
<polygon fill="#8dd3c7" stroke="black" points="1478.42,-84.8 1475.42,-88.8 1454.42,-88.8 1451.42,-84.8 1323.58,-84.8 1323.58,-48.8 1478.42,-48.8 1478.42,-84.8"/>
<text text-anchor="middle" x="1401" y="-62.6" font-family="Times,serif" font-size="14.00">ApiLandingPageModule</text>
</g>
<!-- AppModule -->
<g id="node12" class="node">
<title>AppModule</title>
<polygon fill="#8dd3c7" stroke="black" points="952.66,-149.8 949.66,-153.8 928.66,-153.8 925.66,-149.8 869.34,-149.8 869.34,-113.8 952.66,-113.8 952.66,-149.8"/>
<text text-anchor="middle" x="911" y="-127.6" font-family="Times,serif" font-size="14.00">AppModule</text>
</g>
<!-- ApiLandingPageModule&#45;&gt;AppModule -->
<g id="edge1" class="edge">
<title>ApiLandingPageModule&#45;&gt;AppModule</title>
<path fill="none" stroke="black" d="M1401,-85.02C1401,-105.17 1401,-134.8 1401,-134.8 1401,-134.8 962.78,-134.8 962.78,-134.8"/>
<polygon fill="black" stroke="black" points="962.78,-131.3 952.78,-134.8 962.78,-138.3 962.78,-131.3"/>
</g>
<!-- ApiLogModule -->
<g id="node2" class="node">
<title>ApiLogModule</title>
<polygon fill="#8dd3c7" stroke="black" points="1305.6,-84.8 1302.6,-88.8 1281.6,-88.8 1278.6,-84.8 1202.4,-84.8 1202.4,-48.8 1305.6,-48.8 1305.6,-84.8"/>
<text text-anchor="middle" x="1254" y="-62.6" font-family="Times,serif" font-size="14.00">ApiLogModule</text>
</g>
<!-- ApiLogModule&#45;&gt;AppModule -->
<g id="edge2" class="edge">
<title>ApiLogModule&#45;&gt;AppModule</title>
<path fill="none" stroke="black" d="M1254,-85.02C1254,-103.63 1254,-129.8 1254,-129.8 1254,-129.8 962.72,-129.8 962.72,-129.8"/>
<polygon fill="black" stroke="black" points="962.72,-126.3 952.72,-129.8 962.72,-133.3 962.72,-126.3"/>
</g>
<!-- ApiMailModule -->
<g id="node3" class="node">
<title>ApiMailModule</title>
<polygon fill="#8dd3c7" stroke="black" points="1184.49,-84.8 1181.49,-88.8 1160.49,-88.8 1157.49,-84.8 1077.51,-84.8 1077.51,-48.8 1184.49,-48.8 1184.49,-84.8"/>
<text text-anchor="middle" x="1131" y="-62.6" font-family="Times,serif" font-size="14.00">ApiMailModule</text>
</g>
<!-- ApiMailModule&#45;&gt;AppModule -->
<g id="edge3" class="edge">
<title>ApiMailModule&#45;&gt;AppModule</title>
<path fill="none" stroke="black" d="M1131,-84.83C1131,-101.86 1131,-124.8 1131,-124.8 1131,-124.8 962.9,-124.8 962.9,-124.8"/>
<polygon fill="black" stroke="black" points="962.9,-121.3 952.9,-124.8 962.9,-128.3 962.9,-121.3"/>
</g>
<!-- AuthModule -->
<g id="node4" class="node">
<title>AuthModule</title>
<polygon fill="#8dd3c7" stroke="black" points="1059.55,-84.8 1056.55,-88.8 1035.55,-88.8 1032.55,-84.8 972.45,-84.8 972.45,-48.8 1059.55,-48.8 1059.55,-84.8"/>
<text text-anchor="middle" x="1016" y="-62.6" font-family="Times,serif" font-size="14.00">AuthModule</text>
</g>
<!-- AuthModule&#45;&gt;AppModule -->
<g id="edge4" class="edge">
<title>AuthModule&#45;&gt;AppModule</title>
<path fill="none" stroke="black" d="M1016,-85.04C1016,-100.37 1016,-119.8 1016,-119.8 1016,-119.8 962.8,-119.8 962.8,-119.8"/>
<polygon fill="black" stroke="black" points="962.8,-116.3 952.8,-119.8 962.8,-123.3 962.8,-116.3"/>
</g>
<!-- CardModule -->
<g id="node5" class="node">
<title>CardModule</title>
<polygon fill="#8dd3c7" stroke="black" points="954.27,-84.8 951.27,-88.8 930.27,-88.8 927.27,-84.8 867.73,-84.8 867.73,-48.8 954.27,-48.8 954.27,-84.8"/>
<text text-anchor="middle" x="911" y="-62.6" font-family="Times,serif" font-size="14.00">CardModule</text>
</g>
<!-- CardModule&#45;&gt;AppModule -->
<g id="edge5" class="edge">
<title>CardModule&#45;&gt;AppModule</title>
<path fill="none" stroke="black" d="M911,-84.91C911,-84.91 911,-103.79 911,-103.79"/>
<polygon fill="black" stroke="black" points="907.5,-103.79 911,-113.79 914.5,-103.79 907.5,-103.79"/>
</g>
<!-- EntitiesToMoveModule -->
<g id="node6" class="node">
<title>EntitiesToMoveModule</title>
<polygon fill="#8dd3c7" stroke="black" points="849.04,-84.8 846.04,-88.8 825.04,-88.8 822.04,-84.8 698.96,-84.8 698.96,-48.8 849.04,-48.8 849.04,-84.8"/>
<text text-anchor="middle" x="774" y="-62.6" font-family="Times,serif" font-size="14.00">EntitiesToMoveModule</text>
</g>
<!-- EntitiesToMoveModule&#45;&gt;AppModule -->
<g id="edge6" class="edge">
<title>EntitiesToMoveModule&#45;&gt;AppModule</title>
<path fill="none" stroke="black" d="M774,-85.04C774,-100.37 774,-119.8 774,-119.8 774,-119.8 859.15,-119.8 859.15,-119.8"/>
<polygon fill="black" stroke="black" points="859.15,-123.3 869.15,-119.8 859.15,-116.3 859.15,-123.3"/>
</g>
<!-- HealthCheckModule -->
<g id="node7" class="node">
<title>HealthCheckModule</title>
<polygon fill="#8dd3c7" stroke="black" points="680.14,-84.8 677.14,-88.8 656.14,-88.8 653.14,-84.8 547.86,-84.8 547.86,-48.8 680.14,-48.8 680.14,-84.8"/>
<text text-anchor="middle" x="614" y="-62.6" font-family="Times,serif" font-size="14.00">HealthCheckModule</text>
</g>
<!-- HealthCheckModule&#45;&gt;AppModule -->
<g id="edge7" class="edge">
<title>HealthCheckModule&#45;&gt;AppModule</title>
<path fill="none" stroke="black" d="M614,-84.83C614,-101.86 614,-124.8 614,-124.8 614,-124.8 859.08,-124.8 859.08,-124.8"/>
<polygon fill="black" stroke="black" points="859.08,-128.3 869.08,-124.8 859.08,-121.3 859.08,-128.3"/>
</g>
<!-- OccupationModule -->
<g id="node8" class="node">
<title>OccupationModule</title>
<polygon fill="#8dd3c7" stroke="black" points="530.08,-84.8 527.08,-88.8 506.08,-88.8 503.08,-84.8 405.92,-84.8 405.92,-48.8 530.08,-48.8 530.08,-84.8"/>
<text text-anchor="middle" x="468" y="-62.6" font-family="Times,serif" font-size="14.00">OccupationModule</text>
</g>
<!-- OccupationModule&#45;&gt;AppModule -->
<g id="edge8" class="edge">
<title>OccupationModule&#45;&gt;AppModule</title>
<path fill="none" stroke="black" d="M468,-85.02C468,-103.63 468,-129.8 468,-129.8 468,-129.8 859.32,-129.8 859.32,-129.8"/>
<polygon fill="black" stroke="black" points="859.32,-133.3 869.32,-129.8 859.32,-126.3 859.32,-133.3"/>
</g>
<!-- ProfileModule -->
<g id="node9" class="node">
<title>ProfileModule</title>
<polygon fill="#8dd3c7" stroke="black" points="387.66,-84.8 384.66,-88.8 363.66,-88.8 360.66,-84.8 290.34,-84.8 290.34,-48.8 387.66,-48.8 387.66,-84.8"/>
<text text-anchor="middle" x="339" y="-62.6" font-family="Times,serif" font-size="14.00">ProfileModule</text>
</g>
<!-- ProfileModule&#45;&gt;AppModule -->
<g id="edge9" class="edge">
<title>ProfileModule&#45;&gt;AppModule</title>
<path fill="none" stroke="black" d="M339,-85.02C339,-105.17 339,-134.8 339,-134.8 339,-134.8 858.94,-134.8 858.94,-134.8"/>
<polygon fill="black" stroke="black" points="858.94,-138.3 868.94,-134.8 858.94,-131.3 858.94,-138.3"/>
</g>
<!-- SocialNetworkModule -->
<g id="node10" class="node">
<title>SocialNetworkModule</title>
<polygon fill="#8dd3c7" stroke="black" points="271.53,-84.8 268.53,-88.8 247.53,-88.8 244.53,-84.8 128.47,-84.8 128.47,-48.8 271.53,-48.8 271.53,-84.8"/>
<text text-anchor="middle" x="200" y="-62.6" font-family="Times,serif" font-size="14.00">SocialNetworkModule</text>
</g>
<!-- SocialNetworkModule&#45;&gt;AppModule -->
<g id="edge10" class="edge">
<title>SocialNetworkModule&#45;&gt;AppModule</title>
<path fill="none" stroke="black" d="M200,-84.84C200,-106.46 200,-139.8 200,-139.8 200,-139.8 859.18,-139.8 859.18,-139.8"/>
<polygon fill="black" stroke="black" points="859.18,-143.3 869.18,-139.8 859.18,-136.3 859.18,-143.3"/>
</g>
<!-- UserModule -->
<g id="node11" class="node">
<title>UserModule</title>
<polygon fill="#8dd3c7" stroke="black" points="109.99,-84.8 106.99,-88.8 85.99,-88.8 82.99,-84.8 24.01,-84.8 24.01,-48.8 109.99,-48.8 109.99,-84.8"/>
<text text-anchor="middle" x="67" y="-62.6" font-family="Times,serif" font-size="14.00">UserModule</text>
</g>
<!-- UserModule&#45;&gt;AppModule -->
<g id="edge11" class="edge">
<title>UserModule&#45;&gt;AppModule</title>
<path fill="none" stroke="black" d="M67,-84.89C67,-107.93 67,-144.8 67,-144.8 67,-144.8 859.15,-144.8 859.15,-144.8"/>
<polygon fill="black" stroke="black" points="859.15,-148.3 869.15,-144.8 859.15,-141.3 859.15,-148.3"/>
</g>
<!-- ApiLogService -->
<g id="node13" class="node">
<title>ApiLogService</title>
<ellipse fill="#fdb462" stroke="black" cx="1704" cy="-66.8" rx="70.07" ry="18"/>
<text text-anchor="middle" x="1704" y="-62.6" font-family="Times,serif" font-size="14.00">ApiLogService</text>
</g>
<!-- ApiLogService&#45;&gt;AppModule -->
<g id="edge12" class="edge">
<title>ApiLogService&#45;&gt;AppModule</title>
<path fill="none" stroke="black" d="M1704,-84.89C1704,-107.93 1704,-144.8 1704,-144.8 1704,-144.8 962.8,-144.8 962.8,-144.8"/>
<polygon fill="black" stroke="black" points="962.8,-141.3 952.8,-144.8 962.8,-148.3 962.8,-141.3"/>
</g>
<!-- AppService -->
<g id="node14" class="node">
<title>AppService</title>
<ellipse fill="#fdb462" stroke="black" cx="1559" cy="-66.8" rx="56.75" ry="18"/>
<text text-anchor="middle" x="1559" y="-62.6" font-family="Times,serif" font-size="14.00">AppService</text>
</g>
<!-- AppService&#45;&gt;AppModule -->
<g id="edge13" class="edge">
<title>AppService&#45;&gt;AppModule</title>
<path fill="none" stroke="black" d="M1559,-84.84C1559,-106.46 1559,-139.8 1559,-139.8 1559,-139.8 963.02,-139.8 963.02,-139.8"/>
<polygon fill="black" stroke="black" points="963.02,-136.3 953.02,-139.8 963.02,-143.3 963.02,-136.3"/>
</g>
</g>
</svg>
