<?xml version="1.0" encoding="UTF-8" standalone="no"?>
<!DOCTYPE svg PUBLIC "-//W3C//DTD SVG 1.1//EN"
 "http://www.w3.org/Graphics/SVG/1.1/DTD/svg11.dtd">
<!-- Generated by graphviz version 5.0.0 (20220707.1540)
 -->
<!-- Title: dependencies Pages: 1 -->
<svg width="1701pt" height="174pt"
 viewBox="0.00 0.00 1701.00 173.80" xmlns="http://www.w3.org/2000/svg" xmlns:xlink="http://www.w3.org/1999/xlink">
<g id="graph0" class="graph" transform="scale(1 1) rotate(0) translate(4 169.8)">
<title>dependencies</title>
<polygon fill="white" stroke="transparent" points="-4,4 -4,-169.8 1697,-169.8 1697,4 -4,4"/>
<text text-anchor="middle" x="846.5" y="-8.2" font-family="sans-serif" font-size="14.00">dependencies</text>
<g id="clust1" class="cluster">
<title>cluster_AppModule</title>
<polygon fill="none" stroke="black" stroke-dasharray="1,5" points="8,-32.8 8,-157.8 1685,-157.8 1685,-32.8 8,-32.8"/>
</g>
<g id="clust3" class="cluster">
<title>cluster_AppModule_imports</title>
<polygon fill="none" stroke="black" points="312,-40.8 312,-92.8 1677,-92.8 1677,-40.8 312,-40.8"/>
</g>
<g id="clust6" class="cluster">
<title>cluster_AppModule_providers</title>
<polygon fill="none" stroke="black" points="16,-40.8 16,-92.8 304,-92.8 304,-40.8 16,-40.8"/>
</g>
<!-- ApiLandingPageModule -->
<g id="node1" class="node">
<title>ApiLandingPageModule</title>
<polygon fill="#8dd3c7" stroke="black" points="1669.42,-84.8 1666.42,-88.8 1645.42,-88.8 1642.42,-84.8 1514.58,-84.8 1514.58,-48.8 1669.42,-48.8 1669.42,-84.8"/>
<text text-anchor="middle" x="1592" y="-62.6" font-family="Times,serif" font-size="14.00">ApiLandingPageModule</text>
</g>
<!-- AppModule -->
<g id="node11" class="node">
<title>AppModule</title>
<polygon fill="#8dd3c7" stroke="black" points="878.66,-149.8 875.66,-153.8 854.66,-153.8 851.66,-149.8 795.34,-149.8 795.34,-113.8 878.66,-113.8 878.66,-149.8"/>
<text text-anchor="middle" x="837" y="-127.6" font-family="Times,serif" font-size="14.00">AppModule</text>
</g>
<!-- ApiLandingPageModule&#45;&gt;AppModule -->
<g id="edge1" class="edge">
<title>ApiLandingPageModule&#45;&gt;AppModule</title>
<path fill="none" stroke="black" d="M1592,-84.89C1592,-107.93 1592,-144.8 1592,-144.8 1592,-144.8 888.67,-144.8 888.67,-144.8"/>
<polygon fill="black" stroke="black" points="888.67,-141.3 878.67,-144.8 888.67,-148.3 888.67,-141.3"/>
</g>
<!-- ApiLogModule -->
<g id="node2" class="node">
<title>ApiLogModule</title>
<polygon fill="#8dd3c7" stroke="black" points="1496.6,-84.8 1493.6,-88.8 1472.6,-88.8 1469.6,-84.8 1393.4,-84.8 1393.4,-48.8 1496.6,-48.8 1496.6,-84.8"/>
<text text-anchor="middle" x="1445" y="-62.6" font-family="Times,serif" font-size="14.00">ApiLogModule</text>
</g>
<!-- ApiLogModule&#45;&gt;AppModule -->
<g id="edge2" class="edge">
<title>ApiLogModule&#45;&gt;AppModule</title>
<path fill="none" stroke="black" d="M1445,-85.08C1445,-106.12 1445,-137.8 1445,-137.8 1445,-137.8 888.79,-137.8 888.79,-137.8"/>
<polygon fill="black" stroke="black" points="888.79,-134.3 878.79,-137.8 888.79,-141.3 888.79,-134.3"/>
</g>
<!-- ApiMailModule -->
<g id="node3" class="node">
<title>ApiMailModule</title>
<polygon fill="#8dd3c7" stroke="black" points="1375.49,-84.8 1372.49,-88.8 1351.49,-88.8 1348.49,-84.8 1268.51,-84.8 1268.51,-48.8 1375.49,-48.8 1375.49,-84.8"/>
<text text-anchor="middle" x="1322" y="-62.6" font-family="Times,serif" font-size="14.00">ApiMailModule</text>
</g>
<!-- ApiMailModule&#45;&gt;AppModule -->
<g id="edge3" class="edge">
<title>ApiMailModule&#45;&gt;AppModule</title>
<path fill="none" stroke="black" d="M1322,-84.91C1322,-104.14 1322,-131.8 1322,-131.8 1322,-131.8 888.77,-131.8 888.77,-131.8"/>
<polygon fill="black" stroke="black" points="888.77,-128.3 878.77,-131.8 888.77,-135.3 888.77,-128.3"/>
</g>
<!-- AuthModule -->
<g id="node4" class="node">
<title>AuthModule</title>
<polygon fill="#8dd3c7" stroke="black" points="1250.55,-84.8 1247.55,-88.8 1226.55,-88.8 1223.55,-84.8 1163.45,-84.8 1163.45,-48.8 1250.55,-48.8 1250.55,-84.8"/>
<text text-anchor="middle" x="1207" y="-62.6" font-family="Times,serif" font-size="14.00">AuthModule</text>
</g>
<!-- AuthModule&#45;&gt;AppModule -->
<g id="edge4" class="edge">
<title>AuthModule&#45;&gt;AppModule</title>
<path fill="none" stroke="black" d="M1207,-84.82C1207,-102.17 1207,-125.8 1207,-125.8 1207,-125.8 888.72,-125.8 888.72,-125.8"/>
<polygon fill="black" stroke="black" points="888.72,-122.3 878.72,-125.8 888.72,-129.3 888.72,-122.3"/>
</g>
<!-- EntitiesToMoveModule -->
<g id="node5" class="node">
<title>EntitiesToMoveModule</title>
<polygon fill="#8dd3c7" stroke="black" points="1145.04,-84.8 1142.04,-88.8 1121.04,-88.8 1118.04,-84.8 994.96,-84.8 994.96,-48.8 1145.04,-48.8 1145.04,-84.8"/>
<text text-anchor="middle" x="1070" y="-62.6" font-family="Times,serif" font-size="14.00">EntitiesToMoveModule</text>
</g>
<!-- EntitiesToMoveModule&#45;&gt;AppModule -->
<g id="edge5" class="edge">
<title>EntitiesToMoveModule&#45;&gt;AppModule</title>
<path fill="none" stroke="black" d="M1070,-85.04C1070,-100.37 1070,-119.8 1070,-119.8 1070,-119.8 888.92,-119.8 888.92,-119.8"/>
<polygon fill="black" stroke="black" points="888.92,-116.3 878.92,-119.8 888.92,-123.3 888.92,-116.3"/>
</g>
<!-- HealthCheckModule -->
<g id="node6" class="node">
<title>HealthCheckModule</title>
<polygon fill="#8dd3c7" stroke="black" points="976.14,-84.8 973.14,-88.8 952.14,-88.8 949.14,-84.8 843.86,-84.8 843.86,-48.8 976.14,-48.8 976.14,-84.8"/>
<text text-anchor="middle" x="910" y="-62.6" font-family="Times,serif" font-size="14.00">HealthCheckModule</text>
</g>
<!-- HealthCheckModule&#45;&gt;AppModule -->
<g id="edge6" class="edge">
<title>HealthCheckModule&#45;&gt;AppModule</title>
<path fill="none" stroke="black" d="M861.26,-84.91C861.26,-84.91 861.26,-103.79 861.26,-103.79"/>
<polygon fill="black" stroke="black" points="857.76,-103.79 861.26,-113.79 864.76,-103.79 857.76,-103.79"/>
</g>
<!-- OccupationModule -->
<g id="node7" class="node">
<title>OccupationModule</title>
<polygon fill="#8dd3c7" stroke="black" points="826.08,-84.8 823.08,-88.8 802.08,-88.8 799.08,-84.8 701.92,-84.8 701.92,-48.8 826.08,-48.8 826.08,-84.8"/>
<text text-anchor="middle" x="764" y="-62.6" font-family="Times,serif" font-size="14.00">OccupationModule</text>
</g>
<!-- OccupationModule&#45;&gt;AppModule -->
<g id="edge7" class="edge">
<title>OccupationModule&#45;&gt;AppModule</title>
<path fill="none" stroke="black" d="M810.61,-84.91C810.61,-84.91 810.61,-103.79 810.61,-103.79"/>
<polygon fill="black" stroke="black" points="807.11,-103.79 810.61,-113.79 814.11,-103.79 807.11,-103.79"/>
</g>
<!-- ProfileModule -->
<g id="node8" class="node">
<title>ProfileModule</title>
<polygon fill="#8dd3c7" stroke="black" points="683.66,-84.8 680.66,-88.8 659.66,-88.8 656.66,-84.8 586.34,-84.8 586.34,-48.8 683.66,-48.8 683.66,-84.8"/>
<text text-anchor="middle" x="635" y="-62.6" font-family="Times,serif" font-size="14.00">ProfileModule</text>
</g>
<!-- ProfileModule&#45;&gt;AppModule -->
<g id="edge8" class="edge">
<title>ProfileModule&#45;&gt;AppModule</title>
<path fill="none" stroke="black" d="M635,-85.04C635,-100.37 635,-119.8 635,-119.8 635,-119.8 785.15,-119.8 785.15,-119.8"/>
<polygon fill="black" stroke="black" points="785.15,-123.3 795.15,-119.8 785.15,-116.3 785.15,-123.3"/>
</g>
<!-- SocialNetworkModule -->
<g id="node9" class="node">
<title>SocialNetworkModule</title>
<polygon fill="#8dd3c7" stroke="black" points="567.53,-84.8 564.53,-88.8 543.53,-88.8 540.53,-84.8 424.47,-84.8 424.47,-48.8 567.53,-48.8 567.53,-84.8"/>
<text text-anchor="middle" x="496" y="-62.6" font-family="Times,serif" font-size="14.00">SocialNetworkModule</text>
</g>
<!-- SocialNetworkModule&#45;&gt;AppModule -->
<g id="edge9" class="edge">
<title>SocialNetworkModule&#45;&gt;AppModule</title>
<path fill="none" stroke="black" d="M496,-84.82C496,-102.17 496,-125.8 496,-125.8 496,-125.8 785.19,-125.8 785.19,-125.8"/>
<polygon fill="black" stroke="black" points="785.19,-129.3 795.19,-125.8 785.19,-122.3 785.19,-129.3"/>
</g>
<!-- UserModule -->
<g id="node10" class="node">
<title>UserModule</title>
<polygon fill="#8dd3c7" stroke="black" points="405.99,-84.8 402.99,-88.8 381.99,-88.8 378.99,-84.8 320.01,-84.8 320.01,-48.8 405.99,-48.8 405.99,-84.8"/>
<text text-anchor="middle" x="363" y="-62.6" font-family="Times,serif" font-size="14.00">UserModule</text>
</g>
<!-- UserModule&#45;&gt;AppModule -->
<g id="edge10" class="edge">
<title>UserModule&#45;&gt;AppModule</title>
<path fill="none" stroke="black" d="M363,-84.91C363,-104.14 363,-131.8 363,-131.8 363,-131.8 784.94,-131.8 784.94,-131.8"/>
<polygon fill="black" stroke="black" points="784.94,-135.3 794.94,-131.8 784.94,-128.3 784.94,-135.3"/>
</g>
<!-- ApiLogService -->
<g id="node12" class="node">
<title>ApiLogService</title>
<ellipse fill="#fdb462" stroke="black" cx="226" cy="-66.8" rx="70.07" ry="18"/>
<text text-anchor="middle" x="226" y="-62.6" font-family="Times,serif" font-size="14.00">ApiLogService</text>
</g>
<!-- ApiLogService&#45;&gt;AppModule -->
<g id="edge11" class="edge">
<title>ApiLogService&#45;&gt;AppModule</title>
<path fill="none" stroke="black" d="M226,-85.08C226,-106.12 226,-137.8 226,-137.8 226,-137.8 785,-137.8 785,-137.8"/>
<polygon fill="black" stroke="black" points="785,-141.3 795,-137.8 785,-134.3 785,-141.3"/>
</g>
<!-- AppService -->
<g id="node13" class="node">
<title>AppService</title>
<ellipse fill="#fdb462" stroke="black" cx="81" cy="-66.8" rx="56.75" ry="18"/>
<text text-anchor="middle" x="81" y="-62.6" font-family="Times,serif" font-size="14.00">AppService</text>
</g>
<!-- AppService&#45;&gt;AppModule -->
<g id="edge12" class="edge">
<title>AppService&#45;&gt;AppModule</title>
<path fill="none" stroke="black" d="M81,-84.89C81,-107.93 81,-144.8 81,-144.8 81,-144.8 785.28,-144.8 785.28,-144.8"/>
<polygon fill="black" stroke="black" points="785.28,-148.3 795.28,-144.8 785.28,-141.3 785.28,-148.3"/>
</g>
</g>
</svg>
