<?xml version="1.0" encoding="UTF-8" standalone="no"?>
<!DOCTYPE svg PUBLIC "-//W3C//DTD SVG 1.1//EN"
 "http://www.w3.org/Graphics/SVG/1.1/DTD/svg11.dtd">
<!-- Generated by graphviz version 5.0.0 (20220707.1540)
 -->
<!-- Title: dependencies Pages: 1 -->
<svg width="879pt" height="174pt"
 viewBox="0.00 0.00 879.00 173.80" xmlns="http://www.w3.org/2000/svg" xmlns:xlink="http://www.w3.org/1999/xlink">
<g id="graph0" class="graph" transform="scale(1 1) rotate(0) translate(4 169.8)">
<title>dependencies</title>
<polygon fill="white" stroke="transparent" points="-4,4 -4,-169.8 875,-169.8 875,4 -4,4"/>
<text text-anchor="middle" x="435.5" y="-8.2" font-family="sans-serif" font-size="14.00">dependencies</text>
<g id="clust1" class="cluster">
<title>cluster_AppModule</title>
<polygon fill="none" stroke="black" stroke-dasharray="1,5" points="8,-32.8 8,-157.8 863,-157.8 863,-32.8 8,-32.8"/>
</g>
<g id="clust6" class="cluster">
<title>cluster_AppModule_providers</title>
<polygon fill="none" stroke="black" points="567,-40.8 567,-92.8 855,-92.8 855,-40.8 567,-40.8"/>
</g>
<g id="clust3" class="cluster">
<title>cluster_AppModule_imports</title>
<polygon fill="none" stroke="black" points="16,-40.8 16,-92.8 559,-92.8 559,-40.8 16,-40.8"/>
</g>
<!-- ApiLogModule -->
<g id="node1" class="node">
<title>ApiLogModule</title>
<polygon fill="#8dd3c7" stroke="black" points="550.6,-84.8 547.6,-88.8 526.6,-88.8 523.6,-84.8 447.4,-84.8 447.4,-48.8 550.6,-48.8 550.6,-84.8"/>
<text text-anchor="middle" x="499" y="-62.6" font-family="Times,serif" font-size="14.00">ApiLogModule</text>
</g>
<!-- AppModule -->
<g id="node5" class="node">
<title>AppModule</title>
<polygon fill="#8dd3c7" stroke="black" points="467.66,-149.8 464.66,-153.8 443.66,-153.8 440.66,-149.8 384.34,-149.8 384.34,-113.8 467.66,-113.8 467.66,-149.8"/>
<text text-anchor="middle" x="426" y="-127.6" font-family="Times,serif" font-size="14.00">AppModule</text>
</g>
<!-- ApiLogModule&#45;&gt;AppModule -->
<g id="edge1" class="edge">
<title>ApiLogModule&#45;&gt;AppModule</title>
<path fill="none" stroke="black" d="M457.64,-84.91C457.64,-84.91 457.64,-103.79 457.64,-103.79"/>
<polygon fill="black" stroke="black" points="454.14,-103.79 457.64,-113.79 461.14,-103.79 454.14,-103.79"/>
</g>
<!-- EntitiesToMoveModule -->
<g id="node2" class="node">
<title>EntitiesToMoveModule</title>
<polygon fill="#8dd3c7" stroke="black" points="429.04,-84.8 426.04,-88.8 405.04,-88.8 402.04,-84.8 278.96,-84.8 278.96,-48.8 429.04,-48.8 429.04,-84.8"/>
<text text-anchor="middle" x="354" y="-62.6" font-family="Times,serif" font-size="14.00">EntitiesToMoveModule</text>
</g>
<!-- EntitiesToMoveModule&#45;&gt;AppModule -->
<g id="edge2" class="edge">
<title>EntitiesToMoveModule&#45;&gt;AppModule</title>
<path fill="none" stroke="black" d="M406.72,-84.91C406.72,-84.91 406.72,-103.79 406.72,-103.79"/>
<polygon fill="black" stroke="black" points="403.22,-103.79 406.72,-113.79 410.22,-103.79 403.22,-103.79"/>
</g>
<!-- HealthCheckModule -->
<g id="node3" class="node">
<title>HealthCheckModule</title>
<polygon fill="#8dd3c7" stroke="black" points="260.14,-84.8 257.14,-88.8 236.14,-88.8 233.14,-84.8 127.86,-84.8 127.86,-48.8 260.14,-48.8 260.14,-84.8"/>
<text text-anchor="middle" x="194" y="-62.6" font-family="Times,serif" font-size="14.00">HealthCheckModule</text>
</g>
<!-- HealthCheckModule&#45;&gt;AppModule -->
<g id="edge3" class="edge">
<title>HealthCheckModule&#45;&gt;AppModule</title>
<path fill="none" stroke="black" d="M194,-84.82C194,-102.17 194,-125.8 194,-125.8 194,-125.8 374.26,-125.8 374.26,-125.8"/>
<polygon fill="black" stroke="black" points="374.26,-129.3 384.26,-125.8 374.26,-122.3 374.26,-129.3"/>
</g>
<!-- UserModule -->
<g id="node4" class="node">
<title>UserModule</title>
<polygon fill="#8dd3c7" stroke="black" points="109.99,-84.8 106.99,-88.8 85.99,-88.8 82.99,-84.8 24.01,-84.8 24.01,-48.8 109.99,-48.8 109.99,-84.8"/>
<text text-anchor="middle" x="67" y="-62.6" font-family="Times,serif" font-size="14.00">UserModule</text>
</g>
<!-- UserModule&#45;&gt;AppModule -->
<g id="edge4" class="edge">
<title>UserModule&#45;&gt;AppModule</title>
<path fill="none" stroke="black" d="M67,-85.08C67,-106.12 67,-137.8 67,-137.8 67,-137.8 374.12,-137.8 374.12,-137.8"/>
<polygon fill="black" stroke="black" points="374.12,-141.3 384.12,-137.8 374.12,-134.3 374.12,-141.3"/>
</g>
<!-- ApiLogService -->
<g id="node6" class="node">
<title>ApiLogService</title>
<ellipse fill="#fdb462" stroke="black" cx="777" cy="-66.8" rx="70.07" ry="18"/>
<text text-anchor="middle" x="777" y="-62.6" font-family="Times,serif" font-size="14.00">ApiLogService</text>
</g>
<!-- ApiLogService&#45;&gt;AppModule -->
<g id="edge5" class="edge">
<title>ApiLogService&#45;&gt;AppModule</title>
<path fill="none" stroke="black" d="M777,-85.08C777,-106.12 777,-137.8 777,-137.8 777,-137.8 477.99,-137.8 477.99,-137.8"/>
<polygon fill="black" stroke="black" points="477.99,-134.3 467.99,-137.8 477.99,-141.3 477.99,-134.3"/>
</g>
<!-- AppService -->
<g id="node7" class="node">
<title>AppService</title>
<ellipse fill="#fdb462" stroke="black" cx="632" cy="-66.8" rx="56.75" ry="18"/>
<text text-anchor="middle" x="632" y="-62.6" font-family="Times,serif" font-size="14.00">AppService</text>
</g>
<!-- AppService&#45;&gt;AppModule -->
<g id="edge6" class="edge">
<title>AppService&#45;&gt;AppModule</title>
<path fill="none" stroke="black" d="M632,-84.82C632,-102.17 632,-125.8 632,-125.8 632,-125.8 477.69,-125.8 477.69,-125.8"/>
<polygon fill="black" stroke="black" points="477.69,-122.3 467.69,-125.8 477.69,-129.3 477.69,-122.3"/>
</g>
</g>
</svg>
