<?xml version="1.0" encoding="UTF-8" standalone="no"?>
<!DOCTYPE svg PUBLIC "-//W3C//DTD SVG 1.1//EN"
 "http://www.w3.org/Graphics/SVG/1.1/DTD/svg11.dtd">
<!-- Generated by graphviz version 5.0.0 (20220707.1540)
 -->
<!-- Title: dependencies Pages: 1 -->
<svg width="984pt" height="174pt"
 viewBox="0.00 0.00 984.00 173.80" xmlns="http://www.w3.org/2000/svg" xmlns:xlink="http://www.w3.org/1999/xlink">
<g id="graph0" class="graph" transform="scale(1 1) rotate(0) translate(4 169.8)">
<title>dependencies</title>
<polygon fill="white" stroke="transparent" points="-4,4 -4,-169.8 980,-169.8 980,4 -4,4"/>
<text text-anchor="middle" x="488" y="-8.2" font-family="sans-serif" font-size="14.00">dependencies</text>
<g id="clust1" class="cluster">
<title>cluster_AppModule</title>
<polygon fill="none" stroke="black" stroke-dasharray="1,5" points="8,-32.8 8,-157.8 968,-157.8 968,-32.8 8,-32.8"/>
</g>
<g id="clust3" class="cluster">
<title>cluster_AppModule_imports</title>
<polygon fill="none" stroke="black" points="312,-40.8 312,-92.8 960,-92.8 960,-40.8 312,-40.8"/>
</g>
<g id="clust6" class="cluster">
<title>cluster_AppModule_providers</title>
<polygon fill="none" stroke="black" points="16,-40.8 16,-92.8 304,-92.8 304,-40.8 16,-40.8"/>
</g>
<!-- ApiLogModule -->
<g id="node1" class="node">
<title>ApiLogModule</title>
<polygon fill="#8dd3c7" stroke="black" points="951.6,-84.8 948.6,-88.8 927.6,-88.8 924.6,-84.8 848.4,-84.8 848.4,-48.8 951.6,-48.8 951.6,-84.8"/>
<text text-anchor="middle" x="900" y="-62.6" font-family="Times,serif" font-size="14.00">ApiLogModule</text>
</g>
<!-- AppModule -->
<g id="node6" class="node">
<title>AppModule</title>
<polygon fill="#8dd3c7" stroke="black" points="531.66,-149.8 528.66,-153.8 507.66,-153.8 504.66,-149.8 448.34,-149.8 448.34,-113.8 531.66,-113.8 531.66,-149.8"/>
<text text-anchor="middle" x="490" y="-127.6" font-family="Times,serif" font-size="14.00">AppModule</text>
</g>
<!-- ApiLogModule&#45;&gt;AppModule -->
<g id="edge1" class="edge">
<title>ApiLogModule&#45;&gt;AppModule</title>
<path fill="none" stroke="black" d="M900,-85.09C900,-107.01 900,-140.8 900,-140.8 900,-140.8 541.95,-140.8 541.95,-140.8"/>
<polygon fill="black" stroke="black" points="541.95,-137.3 531.95,-140.8 541.95,-144.3 541.95,-137.3"/>
</g>
<!-- AuthModule -->
<g id="node2" class="node">
<title>AuthModule</title>
<polygon fill="#8dd3c7" stroke="black" points="830.55,-84.8 827.55,-88.8 806.55,-88.8 803.55,-84.8 743.45,-84.8 743.45,-48.8 830.55,-48.8 830.55,-84.8"/>
<text text-anchor="middle" x="787" y="-62.6" font-family="Times,serif" font-size="14.00">AuthModule</text>
</g>
<!-- AuthModule&#45;&gt;AppModule -->
<g id="edge2" class="edge">
<title>AuthModule&#45;&gt;AppModule</title>
<path fill="none" stroke="black" d="M787,-84.91C787,-104.14 787,-131.8 787,-131.8 787,-131.8 541.92,-131.8 541.92,-131.8"/>
<polygon fill="black" stroke="black" points="541.92,-128.3 531.92,-131.8 541.92,-135.3 541.92,-128.3"/>
</g>
<!-- EntitiesToMoveModule -->
<g id="node3" class="node">
<title>EntitiesToMoveModule</title>
<polygon fill="#8dd3c7" stroke="black" points="725.04,-84.8 722.04,-88.8 701.04,-88.8 698.04,-84.8 574.96,-84.8 574.96,-48.8 725.04,-48.8 725.04,-84.8"/>
<text text-anchor="middle" x="650" y="-62.6" font-family="Times,serif" font-size="14.00">EntitiesToMoveModule</text>
</g>
<!-- EntitiesToMoveModule&#45;&gt;AppModule -->
<g id="edge3" class="edge">
<title>EntitiesToMoveModule&#45;&gt;AppModule</title>
<path fill="none" stroke="black" d="M650,-84.83C650,-101.2 650,-122.8 650,-122.8 650,-122.8 542.04,-122.8 542.04,-122.8"/>
<polygon fill="black" stroke="black" points="542.04,-119.3 532.04,-122.8 542.04,-126.3 542.04,-119.3"/>
</g>
<!-- HealthCheckModule -->
<g id="node4" class="node">
<title>HealthCheckModule</title>
<polygon fill="#8dd3c7" stroke="black" points="556.14,-84.8 553.14,-88.8 532.14,-88.8 529.14,-84.8 423.86,-84.8 423.86,-48.8 556.14,-48.8 556.14,-84.8"/>
<text text-anchor="middle" x="490" y="-62.6" font-family="Times,serif" font-size="14.00">HealthCheckModule</text>
</g>
<!-- HealthCheckModule&#45;&gt;AppModule -->
<g id="edge4" class="edge">
<title>HealthCheckModule&#45;&gt;AppModule</title>
<path fill="none" stroke="black" d="M490,-84.91C490,-84.91 490,-103.79 490,-103.79"/>
<polygon fill="black" stroke="black" points="486.5,-103.79 490,-113.79 493.5,-103.79 486.5,-103.79"/>
</g>
<!-- UserModule -->
<g id="node5" class="node">
<title>UserModule</title>
<polygon fill="#8dd3c7" stroke="black" points="405.99,-84.8 402.99,-88.8 381.99,-88.8 378.99,-84.8 320.01,-84.8 320.01,-48.8 405.99,-48.8 405.99,-84.8"/>
<text text-anchor="middle" x="363" y="-62.6" font-family="Times,serif" font-size="14.00">UserModule</text>
</g>
<!-- UserModule&#45;&gt;AppModule -->
<g id="edge5" class="edge">
<title>UserModule&#45;&gt;AppModule</title>
<path fill="none" stroke="black" d="M363,-84.83C363,-101.2 363,-122.8 363,-122.8 363,-122.8 438.06,-122.8 438.06,-122.8"/>
<polygon fill="black" stroke="black" points="438.06,-126.3 448.06,-122.8 438.06,-119.3 438.06,-126.3"/>
</g>
<!-- ApiLogService -->
<g id="node7" class="node">
<title>ApiLogService</title>
<ellipse fill="#fdb462" stroke="black" cx="226" cy="-66.8" rx="70.07" ry="18"/>
<text text-anchor="middle" x="226" y="-62.6" font-family="Times,serif" font-size="14.00">ApiLogService</text>
</g>
<!-- ApiLogService&#45;&gt;AppModule -->
<g id="edge6" class="edge">
<title>ApiLogService&#45;&gt;AppModule</title>
<path fill="none" stroke="black" d="M226,-84.91C226,-104.14 226,-131.8 226,-131.8 226,-131.8 438.17,-131.8 438.17,-131.8"/>
<polygon fill="black" stroke="black" points="438.17,-135.3 448.17,-131.8 438.17,-128.3 438.17,-135.3"/>
</g>
<!-- AppService -->
<g id="node8" class="node">
<title>AppService</title>
<ellipse fill="#fdb462" stroke="black" cx="81" cy="-66.8" rx="56.75" ry="18"/>
<text text-anchor="middle" x="81" y="-62.6" font-family="Times,serif" font-size="14.00">AppService</text>
</g>
<!-- AppService&#45;&gt;AppModule -->
<g id="edge7" class="edge">
<title>AppService&#45;&gt;AppModule</title>
<path fill="none" stroke="black" d="M81,-85.09C81,-107.01 81,-140.8 81,-140.8 81,-140.8 438.15,-140.8 438.15,-140.8"/>
<polygon fill="black" stroke="black" points="438.15,-144.3 448.15,-140.8 438.15,-137.3 438.15,-144.3"/>
</g>
</g>
</svg>
