<?xml version="1.0" encoding="UTF-8" standalone="no"?>
<!DOCTYPE svg PUBLIC "-//W3C//DTD SVG 1.1//EN"
 "http://www.w3.org/Graphics/SVG/1.1/DTD/svg11.dtd">
<!-- Generated by graphviz version 5.0.0 (20220707.1540)
 -->
<!-- Title: dependencies Pages: 1 -->
<svg width="1281pt" height="174pt"
 viewBox="0.00 0.00 1281.00 173.80" xmlns="http://www.w3.org/2000/svg" xmlns:xlink="http://www.w3.org/1999/xlink">
<g id="graph0" class="graph" transform="scale(1 1) rotate(0) translate(4 169.8)">
<title>dependencies</title>
<polygon fill="white" stroke="transparent" points="-4,4 -4,-169.8 1277,-169.8 1277,4 -4,4"/>
<text text-anchor="middle" x="636.5" y="-8.2" font-family="sans-serif" font-size="14.00">dependencies</text>
<g id="clust1" class="cluster">
<title>cluster_AppModule</title>
<polygon fill="none" stroke="black" stroke-dasharray="1,5" points="8,-32.8 8,-157.8 1265,-157.8 1265,-32.8 8,-32.8"/>
</g>
<g id="clust3" class="cluster">
<title>cluster_AppModule_imports</title>
<polygon fill="none" stroke="black" points="312,-40.8 312,-92.8 1257,-92.8 1257,-40.8 312,-40.8"/>
</g>
<g id="clust6" class="cluster">
<title>cluster_AppModule_providers</title>
<polygon fill="none" stroke="black" points="16,-40.8 16,-92.8 304,-92.8 304,-40.8 16,-40.8"/>
</g>
<!-- ApiLandingPageModule -->
<g id="node1" class="node">
<title>ApiLandingPageModule</title>
<polygon fill="#8dd3c7" stroke="black" points="1249.42,-84.8 1246.42,-88.8 1225.42,-88.8 1222.42,-84.8 1094.58,-84.8 1094.58,-48.8 1249.42,-48.8 1249.42,-84.8"/>
<text text-anchor="middle" x="1172" y="-62.6" font-family="Times,serif" font-size="14.00">ApiLandingPageModule</text>
</g>
<!-- AppModule -->
<g id="node8" class="node">
<title>AppModule</title>
<polygon fill="#8dd3c7" stroke="black" points="691.66,-149.8 688.66,-153.8 667.66,-153.8 664.66,-149.8 608.34,-149.8 608.34,-113.8 691.66,-113.8 691.66,-149.8"/>
<text text-anchor="middle" x="650" y="-127.6" font-family="Times,serif" font-size="14.00">AppModule</text>
</g>
<!-- ApiLandingPageModule&#45;&gt;AppModule -->
<g id="edge1" class="edge">
<title>ApiLandingPageModule&#45;&gt;AppModule</title>
<path fill="none" stroke="black" d="M1172,-84.81C1172,-107.29 1172,-142.8 1172,-142.8 1172,-142.8 701.84,-142.8 701.84,-142.8"/>
<polygon fill="black" stroke="black" points="701.84,-139.3 691.84,-142.8 701.84,-146.3 701.84,-139.3"/>
</g>
<!-- ApiLogModule -->
<g id="node2" class="node">
<title>ApiLogModule</title>
<polygon fill="#8dd3c7" stroke="black" points="1076.6,-84.8 1073.6,-88.8 1052.6,-88.8 1049.6,-84.8 973.4,-84.8 973.4,-48.8 1076.6,-48.8 1076.6,-84.8"/>
<text text-anchor="middle" x="1025" y="-62.6" font-family="Times,serif" font-size="14.00">ApiLogModule</text>
</g>
<!-- ApiLogModule&#45;&gt;AppModule -->
<g id="edge2" class="edge">
<title>ApiLogModule&#45;&gt;AppModule</title>
<path fill="none" stroke="black" d="M1025,-84.93C1025,-105.37 1025,-135.8 1025,-135.8 1025,-135.8 701.93,-135.8 701.93,-135.8"/>
<polygon fill="black" stroke="black" points="701.93,-132.3 691.93,-135.8 701.93,-139.3 701.93,-132.3"/>
</g>
<!-- ApiMailModule -->
<g id="node3" class="node">
<title>ApiMailModule</title>
<polygon fill="#8dd3c7" stroke="black" points="955.49,-84.8 952.49,-88.8 931.49,-88.8 928.49,-84.8 848.51,-84.8 848.51,-48.8 955.49,-48.8 955.49,-84.8"/>
<text text-anchor="middle" x="902" y="-62.6" font-family="Times,serif" font-size="14.00">ApiMailModule</text>
</g>
<!-- ApiMailModule&#45;&gt;AppModule -->
<g id="edge3" class="edge">
<title>ApiMailModule&#45;&gt;AppModule</title>
<path fill="none" stroke="black" d="M902,-85.07C902,-103.36 902,-128.8 902,-128.8 902,-128.8 701.9,-128.8 701.9,-128.8"/>
<polygon fill="black" stroke="black" points="701.9,-125.3 691.9,-128.8 701.9,-132.3 701.9,-125.3"/>
</g>
<!-- AuthModule -->
<g id="node4" class="node">
<title>AuthModule</title>
<polygon fill="#8dd3c7" stroke="black" points="830.55,-84.8 827.55,-88.8 806.55,-88.8 803.55,-84.8 743.45,-84.8 743.45,-48.8 830.55,-48.8 830.55,-84.8"/>
<text text-anchor="middle" x="787" y="-62.6" font-family="Times,serif" font-size="14.00">AuthModule</text>
</g>
<!-- AuthModule&#45;&gt;AppModule -->
<g id="edge4" class="edge">
<title>AuthModule&#45;&gt;AppModule</title>
<path fill="none" stroke="black" d="M787,-84.81C787,-100.85 787,-121.8 787,-121.8 787,-121.8 701.85,-121.8 701.85,-121.8"/>
<polygon fill="black" stroke="black" points="701.85,-118.3 691.85,-121.8 701.85,-125.3 701.85,-118.3"/>
</g>
<!-- EntitiesToMoveModule -->
<g id="node5" class="node">
<title>EntitiesToMoveModule</title>
<polygon fill="#8dd3c7" stroke="black" points="725.04,-84.8 722.04,-88.8 701.04,-88.8 698.04,-84.8 574.96,-84.8 574.96,-48.8 725.04,-48.8 725.04,-84.8"/>
<text text-anchor="middle" x="650" y="-62.6" font-family="Times,serif" font-size="14.00">EntitiesToMoveModule</text>
</g>
<!-- EntitiesToMoveModule&#45;&gt;AppModule -->
<g id="edge5" class="edge">
<title>EntitiesToMoveModule&#45;&gt;AppModule</title>
<path fill="none" stroke="black" d="M650,-84.91C650,-84.91 650,-103.79 650,-103.79"/>
<polygon fill="black" stroke="black" points="646.5,-103.79 650,-113.79 653.5,-103.79 646.5,-103.79"/>
</g>
<!-- HealthCheckModule -->
<g id="node6" class="node">
<title>HealthCheckModule</title>
<polygon fill="#8dd3c7" stroke="black" points="556.14,-84.8 553.14,-88.8 532.14,-88.8 529.14,-84.8 423.86,-84.8 423.86,-48.8 556.14,-48.8 556.14,-84.8"/>
<text text-anchor="middle" x="490" y="-62.6" font-family="Times,serif" font-size="14.00">HealthCheckModule</text>
</g>
<!-- HealthCheckModule&#45;&gt;AppModule -->
<g id="edge6" class="edge">
<title>HealthCheckModule&#45;&gt;AppModule</title>
<path fill="none" stroke="black" d="M490,-84.81C490,-100.85 490,-121.8 490,-121.8 490,-121.8 597.96,-121.8 597.96,-121.8"/>
<polygon fill="black" stroke="black" points="597.96,-125.3 607.96,-121.8 597.96,-118.3 597.96,-125.3"/>
</g>
<!-- UserModule -->
<g id="node7" class="node">
<title>UserModule</title>
<polygon fill="#8dd3c7" stroke="black" points="405.99,-84.8 402.99,-88.8 381.99,-88.8 378.99,-84.8 320.01,-84.8 320.01,-48.8 405.99,-48.8 405.99,-84.8"/>
<text text-anchor="middle" x="363" y="-62.6" font-family="Times,serif" font-size="14.00">UserModule</text>
</g>
<!-- UserModule&#45;&gt;AppModule -->
<g id="edge7" class="edge">
<title>UserModule&#45;&gt;AppModule</title>
<path fill="none" stroke="black" d="M363,-85.07C363,-103.36 363,-128.8 363,-128.8 363,-128.8 598.27,-128.8 598.27,-128.8"/>
<polygon fill="black" stroke="black" points="598.27,-132.3 608.27,-128.8 598.27,-125.3 598.27,-132.3"/>
</g>
<!-- ApiLogService -->
<g id="node9" class="node">
<title>ApiLogService</title>
<ellipse fill="#fdb462" stroke="black" cx="226" cy="-66.8" rx="70.07" ry="18"/>
<text text-anchor="middle" x="226" y="-62.6" font-family="Times,serif" font-size="14.00">ApiLogService</text>
</g>
<!-- ApiLogService&#45;&gt;AppModule -->
<g id="edge8" class="edge">
<title>ApiLogService&#45;&gt;AppModule</title>
<path fill="none" stroke="black" d="M226,-84.93C226,-105.37 226,-135.8 226,-135.8 226,-135.8 598.18,-135.8 598.18,-135.8"/>
<polygon fill="black" stroke="black" points="598.18,-139.3 608.18,-135.8 598.18,-132.3 598.18,-139.3"/>
</g>
<!-- AppService -->
<g id="node10" class="node">
<title>AppService</title>
<ellipse fill="#fdb462" stroke="black" cx="81" cy="-66.8" rx="56.75" ry="18"/>
<text text-anchor="middle" x="81" y="-62.6" font-family="Times,serif" font-size="14.00">AppService</text>
</g>
<!-- AppService&#45;&gt;AppModule -->
<g id="edge9" class="edge">
<title>AppService&#45;&gt;AppModule</title>
<path fill="none" stroke="black" d="M81,-84.81C81,-107.29 81,-142.8 81,-142.8 81,-142.8 598.16,-142.8 598.16,-142.8"/>
<polygon fill="black" stroke="black" points="598.16,-146.3 608.16,-142.8 598.16,-139.3 598.16,-146.3"/>
</g>
</g>
</svg>
