<?xml version="1.0" encoding="UTF-8" standalone="no"?>
<!DOCTYPE svg PUBLIC "-//W3C//DTD SVG 1.1//EN"
 "http://www.w3.org/Graphics/SVG/1.1/DTD/svg11.dtd">
<!-- Generated by graphviz version 5.0.0 (20220707.1540)
 -->
<!-- Title: dependencies Pages: 1 -->
<svg width="1919pt" height="174pt"
 viewBox="0.00 0.00 1919.00 173.80" xmlns="http://www.w3.org/2000/svg" xmlns:xlink="http://www.w3.org/1999/xlink">
<g id="graph0" class="graph" transform="scale(1 1) rotate(0) translate(4 169.8)">
<title>dependencies</title>
<polygon fill="white" stroke="transparent" points="-4,4 -4,-169.8 1915,-169.8 1915,4 -4,4"/>
<text text-anchor="middle" x="955.5" y="-8.2" font-family="sans-serif" font-size="14.00">dependencies</text>
<g id="clust1" class="cluster">
<title>cluster_AppModule</title>
<polygon fill="none" stroke="black" stroke-dasharray="1,5" points="8,-32.8 8,-157.8 1903,-157.8 1903,-32.8 8,-32.8"/>
</g>
<g id="clust3" class="cluster">
<title>cluster_AppModule_imports</title>
<polygon fill="none" stroke="black" points="312,-40.8 312,-92.8 1895,-92.8 1895,-40.8 312,-40.8"/>
</g>
<g id="clust6" class="cluster">
<title>cluster_AppModule_providers</title>
<polygon fill="none" stroke="black" points="16,-40.8 16,-92.8 304,-92.8 304,-40.8 16,-40.8"/>
</g>
<!-- ApiLandingPageModule -->
<g id="node1" class="node">
<title>ApiLandingPageModule</title>
<polygon fill="#8dd3c7" stroke="black" points="1887.42,-84.8 1884.42,-88.8 1863.42,-88.8 1860.42,-84.8 1732.58,-84.8 1732.58,-48.8 1887.42,-48.8 1887.42,-84.8"/>
<text text-anchor="middle" x="1810" y="-62.6" font-family="Times,serif" font-size="14.00">ApiLandingPageModule</text>
</g>
<!-- AppModule -->
<g id="node13" class="node">
<title>AppModule</title>
<polygon fill="#8dd3c7" stroke="black" points="1017.66,-149.8 1014.66,-153.8 993.66,-153.8 990.66,-149.8 934.34,-149.8 934.34,-113.8 1017.66,-113.8 1017.66,-149.8"/>
<text text-anchor="middle" x="976" y="-127.6" font-family="Times,serif" font-size="14.00">AppModule</text>
</g>
<!-- ApiLandingPageModule&#45;&gt;AppModule -->
<g id="edge1" class="edge">
<title>ApiLandingPageModule&#45;&gt;AppModule</title>
<path fill="none" stroke="black" d="M1810,-84.89C1810,-107.93 1810,-144.8 1810,-144.8 1810,-144.8 1027.93,-144.8 1027.93,-144.8"/>
<polygon fill="black" stroke="black" points="1027.93,-141.3 1017.93,-144.8 1027.93,-148.3 1027.93,-141.3"/>
</g>
<!-- ApiLogModule -->
<g id="node2" class="node">
<title>ApiLogModule</title>
<polygon fill="#8dd3c7" stroke="black" points="1714.6,-84.8 1711.6,-88.8 1690.6,-88.8 1687.6,-84.8 1611.4,-84.8 1611.4,-48.8 1714.6,-48.8 1714.6,-84.8"/>
<text text-anchor="middle" x="1663" y="-62.6" font-family="Times,serif" font-size="14.00">ApiLogModule</text>
</g>
<!-- ApiLogModule&#45;&gt;AppModule -->
<g id="edge2" class="edge">
<title>ApiLogModule&#45;&gt;AppModule</title>
<path fill="none" stroke="black" d="M1663,-84.84C1663,-106.46 1663,-139.8 1663,-139.8 1663,-139.8 1027.68,-139.8 1027.68,-139.8"/>
<polygon fill="black" stroke="black" points="1027.68,-136.3 1017.68,-139.8 1027.68,-143.3 1027.68,-136.3"/>
</g>
<!-- ApiMailModule -->
<g id="node3" class="node">
<title>ApiMailModule</title>
<polygon fill="#8dd3c7" stroke="black" points="1593.49,-84.8 1590.49,-88.8 1569.49,-88.8 1566.49,-84.8 1486.51,-84.8 1486.51,-48.8 1593.49,-48.8 1593.49,-84.8"/>
<text text-anchor="middle" x="1540" y="-62.6" font-family="Times,serif" font-size="14.00">ApiMailModule</text>
</g>
<!-- ApiMailModule&#45;&gt;AppModule -->
<g id="edge3" class="edge">
<title>ApiMailModule&#45;&gt;AppModule</title>
<path fill="none" stroke="black" d="M1540,-85.02C1540,-105.17 1540,-134.8 1540,-134.8 1540,-134.8 1027.93,-134.8 1027.93,-134.8"/>
<polygon fill="black" stroke="black" points="1027.93,-131.3 1017.93,-134.8 1027.93,-138.3 1027.93,-131.3"/>
</g>
<!-- AuthModule -->
<g id="node4" class="node">
<title>AuthModule</title>
<polygon fill="#8dd3c7" stroke="black" points="1468.55,-84.8 1465.55,-88.8 1444.55,-88.8 1441.55,-84.8 1381.45,-84.8 1381.45,-48.8 1468.55,-48.8 1468.55,-84.8"/>
<text text-anchor="middle" x="1425" y="-62.6" font-family="Times,serif" font-size="14.00">AuthModule</text>
</g>
<!-- AuthModule&#45;&gt;AppModule -->
<g id="edge4" class="edge">
<title>AuthModule&#45;&gt;AppModule</title>
<path fill="none" stroke="black" d="M1425,-85.02C1425,-103.63 1425,-129.8 1425,-129.8 1425,-129.8 1027.84,-129.8 1027.84,-129.8"/>
<polygon fill="black" stroke="black" points="1027.84,-126.3 1017.84,-129.8 1027.84,-133.3 1027.84,-126.3"/>
</g>
<!-- CardModule -->
<g id="node5" class="node">
<title>CardModule</title>
<polygon fill="#8dd3c7" stroke="black" points="1363.27,-84.8 1360.27,-88.8 1339.27,-88.8 1336.27,-84.8 1276.73,-84.8 1276.73,-48.8 1363.27,-48.8 1363.27,-84.8"/>
<text text-anchor="middle" x="1320" y="-62.6" font-family="Times,serif" font-size="14.00">CardModule</text>
</g>
<!-- CardModule&#45;&gt;AppModule -->
<g id="edge5" class="edge">
<title>CardModule&#45;&gt;AppModule</title>
<path fill="none" stroke="black" d="M1320,-84.83C1320,-101.86 1320,-124.8 1320,-124.8 1320,-124.8 1027.84,-124.8 1027.84,-124.8"/>
<polygon fill="black" stroke="black" points="1027.84,-121.3 1017.84,-124.8 1027.84,-128.3 1027.84,-121.3"/>
</g>
<!-- EntitiesToMoveModule -->
<g id="node6" class="node">
<title>EntitiesToMoveModule</title>
<polygon fill="#8dd3c7" stroke="black" points="1258.04,-84.8 1255.04,-88.8 1234.04,-88.8 1231.04,-84.8 1107.96,-84.8 1107.96,-48.8 1258.04,-48.8 1258.04,-84.8"/>
<text text-anchor="middle" x="1183" y="-62.6" font-family="Times,serif" font-size="14.00">EntitiesToMoveModule</text>
</g>
<!-- EntitiesToMoveModule&#45;&gt;AppModule -->
<g id="edge6" class="edge">
<title>EntitiesToMoveModule&#45;&gt;AppModule</title>
<path fill="none" stroke="black" d="M1183,-85.04C1183,-100.37 1183,-119.8 1183,-119.8 1183,-119.8 1027.89,-119.8 1027.89,-119.8"/>
<polygon fill="black" stroke="black" points="1027.89,-116.3 1017.89,-119.8 1027.89,-123.3 1027.89,-116.3"/>
</g>
<!-- GroupModule -->
<g id="node7" class="node">
<title>GroupModule</title>
<polygon fill="#8dd3c7" stroke="black" points="1089.82,-84.8 1086.82,-88.8 1065.82,-88.8 1062.82,-84.8 994.18,-84.8 994.18,-48.8 1089.82,-48.8 1089.82,-84.8"/>
<text text-anchor="middle" x="1042" y="-62.6" font-family="Times,serif" font-size="14.00">GroupModule</text>
</g>
<!-- GroupModule&#45;&gt;AppModule -->
<g id="edge7" class="edge">
<title>GroupModule&#45;&gt;AppModule</title>
<path fill="none" stroke="black" d="M1006.08,-84.91C1006.08,-84.91 1006.08,-103.79 1006.08,-103.79"/>
<polygon fill="black" stroke="black" points="1002.58,-103.79 1006.08,-113.79 1009.58,-103.79 1002.58,-103.79"/>
</g>
<!-- HealthCheckModule -->
<g id="node8" class="node">
<title>HealthCheckModule</title>
<polygon fill="#8dd3c7" stroke="black" points="976.14,-84.8 973.14,-88.8 952.14,-88.8 949.14,-84.8 843.86,-84.8 843.86,-48.8 976.14,-48.8 976.14,-84.8"/>
<text text-anchor="middle" x="910" y="-62.6" font-family="Times,serif" font-size="14.00">HealthCheckModule</text>
</g>
<!-- HealthCheckModule&#45;&gt;AppModule -->
<g id="edge8" class="edge">
<title>HealthCheckModule&#45;&gt;AppModule</title>
<path fill="none" stroke="black" d="M955.24,-84.91C955.24,-84.91 955.24,-103.79 955.24,-103.79"/>
<polygon fill="black" stroke="black" points="951.74,-103.79 955.24,-113.79 958.74,-103.79 951.74,-103.79"/>
</g>
<!-- OccupationModule -->
<g id="node9" class="node">
<title>OccupationModule</title>
<polygon fill="#8dd3c7" stroke="black" points="826.08,-84.8 823.08,-88.8 802.08,-88.8 799.08,-84.8 701.92,-84.8 701.92,-48.8 826.08,-48.8 826.08,-84.8"/>
<text text-anchor="middle" x="764" y="-62.6" font-family="Times,serif" font-size="14.00">OccupationModule</text>
</g>
<!-- OccupationModule&#45;&gt;AppModule -->
<g id="edge9" class="edge">
<title>OccupationModule&#45;&gt;AppModule</title>
<path fill="none" stroke="black" d="M764,-85.04C764,-100.37 764,-119.8 764,-119.8 764,-119.8 924.12,-119.8 924.12,-119.8"/>
<polygon fill="black" stroke="black" points="924.12,-123.3 934.12,-119.8 924.12,-116.3 924.12,-123.3"/>
</g>
<!-- ProfileModule -->
<g id="node10" class="node">
<title>ProfileModule</title>
<polygon fill="#8dd3c7" stroke="black" points="683.66,-84.8 680.66,-88.8 659.66,-88.8 656.66,-84.8 586.34,-84.8 586.34,-48.8 683.66,-48.8 683.66,-84.8"/>
<text text-anchor="middle" x="635" y="-62.6" font-family="Times,serif" font-size="14.00">ProfileModule</text>
</g>
<!-- ProfileModule&#45;&gt;AppModule -->
<g id="edge10" class="edge">
<title>ProfileModule&#45;&gt;AppModule</title>
<path fill="none" stroke="black" d="M635,-84.83C635,-101.86 635,-124.8 635,-124.8 635,-124.8 924.19,-124.8 924.19,-124.8"/>
<polygon fill="black" stroke="black" points="924.19,-128.3 934.19,-124.8 924.19,-121.3 924.19,-128.3"/>
</g>
<!-- SocialNetworkModule -->
<g id="node11" class="node">
<title>SocialNetworkModule</title>
<polygon fill="#8dd3c7" stroke="black" points="567.53,-84.8 564.53,-88.8 543.53,-88.8 540.53,-84.8 424.47,-84.8 424.47,-48.8 567.53,-48.8 567.53,-84.8"/>
<text text-anchor="middle" x="496" y="-62.6" font-family="Times,serif" font-size="14.00">SocialNetworkModule</text>
</g>
<!-- SocialNetworkModule&#45;&gt;AppModule -->
<g id="edge11" class="edge">
<title>SocialNetworkModule&#45;&gt;AppModule</title>
<path fill="none" stroke="black" d="M496,-85.02C496,-103.63 496,-129.8 496,-129.8 496,-129.8 924.24,-129.8 924.24,-129.8"/>
<polygon fill="black" stroke="black" points="924.24,-133.3 934.24,-129.8 924.24,-126.3 924.24,-133.3"/>
</g>
<!-- UserModule -->
<g id="node12" class="node">
<title>UserModule</title>
<polygon fill="#8dd3c7" stroke="black" points="405.99,-84.8 402.99,-88.8 381.99,-88.8 378.99,-84.8 320.01,-84.8 320.01,-48.8 405.99,-48.8 405.99,-84.8"/>
<text text-anchor="middle" x="363" y="-62.6" font-family="Times,serif" font-size="14.00">UserModule</text>
</g>
<!-- UserModule&#45;&gt;AppModule -->
<g id="edge12" class="edge">
<title>UserModule&#45;&gt;AppModule</title>
<path fill="none" stroke="black" d="M363,-85.02C363,-105.17 363,-134.8 363,-134.8 363,-134.8 923.87,-134.8 923.87,-134.8"/>
<polygon fill="black" stroke="black" points="923.87,-138.3 933.87,-134.8 923.87,-131.3 923.87,-138.3"/>
</g>
<!-- ApiLogService -->
<g id="node14" class="node">
<title>ApiLogService</title>
<ellipse fill="#fdb462" stroke="black" cx="226" cy="-66.8" rx="70.07" ry="18"/>
<text text-anchor="middle" x="226" y="-62.6" font-family="Times,serif" font-size="14.00">ApiLogService</text>
</g>
<!-- ApiLogService&#45;&gt;AppModule -->
<g id="edge13" class="edge">
<title>ApiLogService&#45;&gt;AppModule</title>
<path fill="none" stroke="black" d="M226,-84.84C226,-106.46 226,-139.8 226,-139.8 226,-139.8 924.07,-139.8 924.07,-139.8"/>
<polygon fill="black" stroke="black" points="924.07,-143.3 934.07,-139.8 924.07,-136.3 924.07,-143.3"/>
</g>
<!-- AppService -->
<g id="node15" class="node">
<title>AppService</title>
<ellipse fill="#fdb462" stroke="black" cx="81" cy="-66.8" rx="56.75" ry="18"/>
<text text-anchor="middle" x="81" y="-62.6" font-family="Times,serif" font-size="14.00">AppService</text>
</g>
<!-- AppService&#45;&gt;AppModule -->
<g id="edge14" class="edge">
<title>AppService&#45;&gt;AppModule</title>
<path fill="none" stroke="black" d="M81,-84.89C81,-107.93 81,-144.8 81,-144.8 81,-144.8 924.33,-144.8 924.33,-144.8"/>
<polygon fill="black" stroke="black" points="924.33,-148.3 934.33,-144.8 924.33,-141.3 924.33,-148.3"/>
</g>
</g>
</svg>
