<?xml version="1.0" encoding="UTF-8" standalone="no"?>
<!DOCTYPE svg PUBLIC "-//W3C//DTD SVG 1.1//EN"
 "http://www.w3.org/Graphics/SVG/1.1/DTD/svg11.dtd">
<!-- Generated by graphviz version 5.0.0 (20220707.1540)
 -->
<!-- Title: dependencies Pages: 1 -->
<svg width="1701pt" height="174pt"
 viewBox="0.00 0.00 1701.00 173.80" xmlns="http://www.w3.org/2000/svg" xmlns:xlink="http://www.w3.org/1999/xlink">
<g id="graph0" class="graph" transform="scale(1 1) rotate(0) translate(4 169.8)">
<title>dependencies</title>
<polygon fill="white" stroke="transparent" points="-4,4 -4,-169.8 1697,-169.8 1697,4 -4,4"/>
<text text-anchor="middle" x="846.5" y="-8.2" font-family="sans-serif" font-size="14.00">dependencies</text>
<g id="clust1" class="cluster">
<title>cluster_AppModule</title>
<polygon fill="none" stroke="black" stroke-dasharray="1,5" points="8,-32.8 8,-157.8 1685,-157.8 1685,-32.8 8,-32.8"/>
</g>
<g id="clust6" class="cluster">
<title>cluster_AppModule_providers</title>
<polygon fill="none" stroke="black" points="1389,-40.8 1389,-92.8 1677,-92.8 1677,-40.8 1389,-40.8"/>
</g>
<g id="clust3" class="cluster">
<title>cluster_AppModule_imports</title>
<polygon fill="none" stroke="black" points="16,-40.8 16,-92.8 1381,-92.8 1381,-40.8 16,-40.8"/>
</g>
<!-- ApiLandingPageModule -->
<g id="node1" class="node">
<title>ApiLandingPageModule</title>
<polygon fill="#8dd3c7" stroke="black" points="1373.42,-84.8 1370.42,-88.8 1349.42,-88.8 1346.42,-84.8 1218.58,-84.8 1218.58,-48.8 1373.42,-48.8 1373.42,-84.8"/>
<text text-anchor="middle" x="1296" y="-62.6" font-family="Times,serif" font-size="14.00">ApiLandingPageModule</text>
</g>
<!-- AppModule -->
<g id="node11" class="node">
<title>AppModule</title>
<polygon fill="#8dd3c7" stroke="black" points="883.66,-149.8 880.66,-153.8 859.66,-153.8 856.66,-149.8 800.34,-149.8 800.34,-113.8 883.66,-113.8 883.66,-149.8"/>
<text text-anchor="middle" x="842" y="-127.6" font-family="Times,serif" font-size="14.00">AppModule</text>
</g>
<!-- ApiLandingPageModule&#45;&gt;AppModule -->
<g id="edge1" class="edge">
<title>ApiLandingPageModule&#45;&gt;AppModule</title>
<path fill="none" stroke="black" d="M1296,-84.91C1296,-104.14 1296,-131.8 1296,-131.8 1296,-131.8 893.9,-131.8 893.9,-131.8"/>
<polygon fill="black" stroke="black" points="893.9,-128.3 883.9,-131.8 893.9,-135.3 893.9,-128.3"/>
</g>
<!-- ApiLogModule -->
<g id="node2" class="node">
<title>ApiLogModule</title>
<polygon fill="#8dd3c7" stroke="black" points="1200.6,-84.8 1197.6,-88.8 1176.6,-88.8 1173.6,-84.8 1097.4,-84.8 1097.4,-48.8 1200.6,-48.8 1200.6,-84.8"/>
<text text-anchor="middle" x="1149" y="-62.6" font-family="Times,serif" font-size="14.00">ApiLogModule</text>
</g>
<!-- ApiLogModule&#45;&gt;AppModule -->
<g id="edge2" class="edge">
<title>ApiLogModule&#45;&gt;AppModule</title>
<path fill="none" stroke="black" d="M1149,-84.82C1149,-102.17 1149,-125.8 1149,-125.8 1149,-125.8 893.72,-125.8 893.72,-125.8"/>
<polygon fill="black" stroke="black" points="893.72,-122.3 883.72,-125.8 893.72,-129.3 893.72,-122.3"/>
</g>
<!-- ApiMailModule -->
<g id="node3" class="node">
<title>ApiMailModule</title>
<polygon fill="#8dd3c7" stroke="black" points="1079.49,-84.8 1076.49,-88.8 1055.49,-88.8 1052.49,-84.8 972.51,-84.8 972.51,-48.8 1079.49,-48.8 1079.49,-84.8"/>
<text text-anchor="middle" x="1026" y="-62.6" font-family="Times,serif" font-size="14.00">ApiMailModule</text>
</g>
<!-- ApiMailModule&#45;&gt;AppModule -->
<g id="edge3" class="edge">
<title>ApiMailModule&#45;&gt;AppModule</title>
<path fill="none" stroke="black" d="M1026,-85.04C1026,-100.37 1026,-119.8 1026,-119.8 1026,-119.8 893.75,-119.8 893.75,-119.8"/>
<polygon fill="black" stroke="black" points="893.75,-116.3 883.75,-119.8 893.75,-123.3 893.75,-116.3"/>
</g>
<!-- AuthModule -->
<g id="node4" class="node">
<title>AuthModule</title>
<polygon fill="#8dd3c7" stroke="black" points="954.55,-84.8 951.55,-88.8 930.55,-88.8 927.55,-84.8 867.45,-84.8 867.45,-48.8 954.55,-48.8 954.55,-84.8"/>
<text text-anchor="middle" x="911" y="-62.6" font-family="Times,serif" font-size="14.00">AuthModule</text>
</g>
<!-- AuthModule&#45;&gt;AppModule -->
<g id="edge4" class="edge">
<title>AuthModule&#45;&gt;AppModule</title>
<path fill="none" stroke="black" d="M875.53,-84.91C875.53,-84.91 875.53,-103.79 875.53,-103.79"/>
<polygon fill="black" stroke="black" points="872.03,-103.79 875.53,-113.79 879.03,-103.79 872.03,-103.79"/>
</g>
<!-- EntitiesToMoveModule -->
<g id="node5" class="node">
<title>EntitiesToMoveModule</title>
<polygon fill="#8dd3c7" stroke="black" points="849.04,-84.8 846.04,-88.8 825.04,-88.8 822.04,-84.8 698.96,-84.8 698.96,-48.8 849.04,-48.8 849.04,-84.8"/>
<text text-anchor="middle" x="774" y="-62.6" font-family="Times,serif" font-size="14.00">EntitiesToMoveModule</text>
</g>
<!-- EntitiesToMoveModule&#45;&gt;AppModule -->
<g id="edge5" class="edge">
<title>EntitiesToMoveModule&#45;&gt;AppModule</title>
<path fill="none" stroke="black" d="M824.72,-84.91C824.72,-84.91 824.72,-103.79 824.72,-103.79"/>
<polygon fill="black" stroke="black" points="821.22,-103.79 824.72,-113.79 828.22,-103.79 821.22,-103.79"/>
</g>
<!-- HealthCheckModule -->
<g id="node6" class="node">
<title>HealthCheckModule</title>
<polygon fill="#8dd3c7" stroke="black" points="680.14,-84.8 677.14,-88.8 656.14,-88.8 653.14,-84.8 547.86,-84.8 547.86,-48.8 680.14,-48.8 680.14,-84.8"/>
<text text-anchor="middle" x="614" y="-62.6" font-family="Times,serif" font-size="14.00">HealthCheckModule</text>
</g>
<!-- HealthCheckModule&#45;&gt;AppModule -->
<g id="edge6" class="edge">
<title>HealthCheckModule&#45;&gt;AppModule</title>
<path fill="none" stroke="black" d="M614,-85.04C614,-100.37 614,-119.8 614,-119.8 614,-119.8 790.18,-119.8 790.18,-119.8"/>
<polygon fill="black" stroke="black" points="790.18,-123.3 800.18,-119.8 790.18,-116.3 790.18,-123.3"/>
</g>
<!-- OccupationModule -->
<g id="node7" class="node">
<title>OccupationModule</title>
<polygon fill="#8dd3c7" stroke="black" points="530.08,-84.8 527.08,-88.8 506.08,-88.8 503.08,-84.8 405.92,-84.8 405.92,-48.8 530.08,-48.8 530.08,-84.8"/>
<text text-anchor="middle" x="468" y="-62.6" font-family="Times,serif" font-size="14.00">OccupationModule</text>
</g>
<!-- OccupationModule&#45;&gt;AppModule -->
<g id="edge7" class="edge">
<title>OccupationModule&#45;&gt;AppModule</title>
<path fill="none" stroke="black" d="M468,-84.82C468,-102.17 468,-125.8 468,-125.8 468,-125.8 790.19,-125.8 790.19,-125.8"/>
<polygon fill="black" stroke="black" points="790.19,-129.3 800.19,-125.8 790.19,-122.3 790.19,-129.3"/>
</g>
<!-- ProfileModule -->
<g id="node8" class="node">
<title>ProfileModule</title>
<polygon fill="#8dd3c7" stroke="black" points="387.66,-84.8 384.66,-88.8 363.66,-88.8 360.66,-84.8 290.34,-84.8 290.34,-48.8 387.66,-48.8 387.66,-84.8"/>
<text text-anchor="middle" x="339" y="-62.6" font-family="Times,serif" font-size="14.00">ProfileModule</text>
</g>
<!-- ProfileModule&#45;&gt;AppModule -->
<g id="edge8" class="edge">
<title>ProfileModule&#45;&gt;AppModule</title>
<path fill="none" stroke="black" d="M339,-84.91C339,-104.14 339,-131.8 339,-131.8 339,-131.8 789.98,-131.8 789.98,-131.8"/>
<polygon fill="black" stroke="black" points="789.98,-135.3 799.98,-131.8 789.98,-128.3 789.98,-135.3"/>
</g>
<!-- SocialNetworkModule -->
<g id="node9" class="node">
<title>SocialNetworkModule</title>
<polygon fill="#8dd3c7" stroke="black" points="271.53,-84.8 268.53,-88.8 247.53,-88.8 244.53,-84.8 128.47,-84.8 128.47,-48.8 271.53,-48.8 271.53,-84.8"/>
<text text-anchor="middle" x="200" y="-62.6" font-family="Times,serif" font-size="14.00">SocialNetworkModule</text>
</g>
<!-- SocialNetworkModule&#45;&gt;AppModule -->
<g id="edge9" class="edge">
<title>SocialNetworkModule&#45;&gt;AppModule</title>
<path fill="none" stroke="black" d="M200,-85.08C200,-106.12 200,-137.8 200,-137.8 200,-137.8 789.88,-137.8 789.88,-137.8"/>
<polygon fill="black" stroke="black" points="789.88,-141.3 799.88,-137.8 789.88,-134.3 789.88,-141.3"/>
</g>
<!-- UserModule -->
<g id="node10" class="node">
<title>UserModule</title>
<polygon fill="#8dd3c7" stroke="black" points="109.99,-84.8 106.99,-88.8 85.99,-88.8 82.99,-84.8 24.01,-84.8 24.01,-48.8 109.99,-48.8 109.99,-84.8"/>
<text text-anchor="middle" x="67" y="-62.6" font-family="Times,serif" font-size="14.00">UserModule</text>
</g>
<!-- UserModule&#45;&gt;AppModule -->
<g id="edge10" class="edge">
<title>UserModule&#45;&gt;AppModule</title>
<path fill="none" stroke="black" d="M67,-84.89C67,-107.93 67,-144.8 67,-144.8 67,-144.8 790.33,-144.8 790.33,-144.8"/>
<polygon fill="black" stroke="black" points="790.33,-148.3 800.33,-144.8 790.33,-141.3 790.33,-148.3"/>
</g>
<!-- ApiLogService -->
<g id="node12" class="node">
<title>ApiLogService</title>
<ellipse fill="#fdb462" stroke="black" cx="1599" cy="-66.8" rx="70.07" ry="18"/>
<text text-anchor="middle" x="1599" y="-62.6" font-family="Times,serif" font-size="14.00">ApiLogService</text>
</g>
<!-- ApiLogService&#45;&gt;AppModule -->
<g id="edge11" class="edge">
<title>ApiLogService&#45;&gt;AppModule</title>
<path fill="none" stroke="black" d="M1599,-84.89C1599,-107.93 1599,-144.8 1599,-144.8 1599,-144.8 893.78,-144.8 893.78,-144.8"/>
<polygon fill="black" stroke="black" points="893.78,-141.3 883.78,-144.8 893.78,-148.3 893.78,-141.3"/>
</g>
<!-- AppService -->
<g id="node13" class="node">
<title>AppService</title>
<ellipse fill="#fdb462" stroke="black" cx="1454" cy="-66.8" rx="56.75" ry="18"/>
<text text-anchor="middle" x="1454" y="-62.6" font-family="Times,serif" font-size="14.00">AppService</text>
</g>
<!-- AppService&#45;&gt;AppModule -->
<g id="edge12" class="edge">
<title>AppService&#45;&gt;AppModule</title>
<path fill="none" stroke="black" d="M1454,-85.08C1454,-106.12 1454,-137.8 1454,-137.8 1454,-137.8 894.07,-137.8 894.07,-137.8"/>
<polygon fill="black" stroke="black" points="894.07,-134.3 884.07,-137.8 894.07,-141.3 894.07,-134.3"/>
</g>
</g>
</svg>
