<?xml version="1.0" encoding="UTF-8" standalone="no"?>
<!DOCTYPE svg PUBLIC "-//W3C//DTD SVG 1.1//EN"
 "http://www.w3.org/Graphics/SVG/1.1/DTD/svg11.dtd">
<!-- Generated by graphviz version 5.0.0 (20220707.1540)
 -->
<!-- Title: dependencies Pages: 1 -->
<svg width="495pt" height="174pt"
 viewBox="0.00 0.00 495.00 173.80" xmlns="http://www.w3.org/2000/svg" xmlns:xlink="http://www.w3.org/1999/xlink">
<g id="graph0" class="graph" transform="scale(1 1) rotate(0) translate(4 169.8)">
<title>dependencies</title>
<polygon fill="white" stroke="transparent" points="-4,4 -4,-169.8 491,-169.8 491,4 -4,4"/>
<text text-anchor="middle" x="243.5" y="-8.2" font-family="sans-serif" font-size="14.00">dependencies</text>
<g id="clust1" class="cluster">
<title>cluster_AppModule</title>
<polygon fill="none" stroke="black" stroke-dasharray="1,5" points="8,-32.8 8,-157.8 479,-157.8 479,-32.8 8,-32.8"/>
</g>
<g id="clust6" class="cluster">
<title>cluster_AppModule_providers</title>
<polygon fill="none" stroke="black" points="341,-40.8 341,-92.8 471,-92.8 471,-40.8 341,-40.8"/>
</g>
<g id="clust3" class="cluster">
<title>cluster_AppModule_imports</title>
<polygon fill="none" stroke="black" points="16,-40.8 16,-92.8 333,-92.8 333,-40.8 16,-40.8"/>
</g>
<!-- EntitiesToMoveModule -->
<g id="node1" class="node">
<title>EntitiesToMoveModule</title>
<polygon fill="#8dd3c7" stroke="black" points="325.04,-84.8 322.04,-88.8 301.04,-88.8 298.04,-84.8 174.96,-84.8 174.96,-48.8 325.04,-48.8 325.04,-84.8"/>
<text text-anchor="middle" x="250" y="-62.6" font-family="Times,serif" font-size="14.00">EntitiesToMoveModule</text>
</g>
<!-- AppModule -->
<g id="node3" class="node">
<title>AppModule</title>
<polygon fill="#8dd3c7" stroke="black" points="291.66,-149.8 288.66,-153.8 267.66,-153.8 264.66,-149.8 208.34,-149.8 208.34,-113.8 291.66,-113.8 291.66,-149.8"/>
<text text-anchor="middle" x="250" y="-127.6" font-family="Times,serif" font-size="14.00">AppModule</text>
</g>
<!-- EntitiesToMoveModule&#45;&gt;AppModule -->
<g id="edge1" class="edge">
<title>EntitiesToMoveModule&#45;&gt;AppModule</title>
<path fill="none" stroke="black" d="M250,-84.91C250,-84.91 250,-103.79 250,-103.79"/>
<polygon fill="black" stroke="black" points="246.5,-103.79 250,-113.79 253.5,-103.79 246.5,-103.79"/>
</g>
<!-- HealthCheckModule -->
<g id="node2" class="node">
<title>HealthCheckModule</title>
<polygon fill="#8dd3c7" stroke="black" points="156.14,-84.8 153.14,-88.8 132.14,-88.8 129.14,-84.8 23.86,-84.8 23.86,-48.8 156.14,-48.8 156.14,-84.8"/>
<text text-anchor="middle" x="90" y="-62.6" font-family="Times,serif" font-size="14.00">HealthCheckModule</text>
</g>
<!-- HealthCheckModule&#45;&gt;AppModule -->
<g id="edge2" class="edge">
<title>HealthCheckModule&#45;&gt;AppModule</title>
<path fill="none" stroke="black" d="M90,-84.91C90,-104.14 90,-131.8 90,-131.8 90,-131.8 197.96,-131.8 197.96,-131.8"/>
<polygon fill="black" stroke="black" points="197.96,-135.3 207.96,-131.8 197.96,-128.3 197.96,-135.3"/>
</g>
<!-- AppService -->
<g id="node4" class="node">
<title>AppService</title>
<ellipse fill="#fdb462" stroke="black" cx="406" cy="-66.8" rx="56.75" ry="18"/>
<text text-anchor="middle" x="406" y="-62.6" font-family="Times,serif" font-size="14.00">AppService</text>
</g>
<!-- AppService&#45;&gt;AppModule -->
<g id="edge3" class="edge">
<title>AppService&#45;&gt;AppModule</title>
<path fill="none" stroke="black" d="M406,-84.91C406,-104.14 406,-131.8 406,-131.8 406,-131.8 301.81,-131.8 301.81,-131.8"/>
<polygon fill="black" stroke="black" points="301.81,-128.3 291.81,-131.8 301.81,-135.3 301.81,-128.3"/>
</g>
</g>
</svg>
