<?xml version="1.0" encoding="UTF-8" standalone="no"?>
<!DOCTYPE svg PUBLIC "-//W3C//DTD SVG 1.1//EN"
 "http://www.w3.org/Graphics/SVG/1.1/DTD/svg11.dtd">
<!-- Generated by graphviz version 5.0.0 (20220707.1540)
 -->
<!-- Title: dependencies Pages: 1 -->
<svg width="1539pt" height="174pt"
 viewBox="0.00 0.00 1539.00 173.80" xmlns="http://www.w3.org/2000/svg" xmlns:xlink="http://www.w3.org/1999/xlink">
<g id="graph0" class="graph" transform="scale(1 1) rotate(0) translate(4 169.8)">
<title>dependencies</title>
<polygon fill="white" stroke="transparent" points="-4,4 -4,-169.8 1535,-169.8 1535,4 -4,4"/>
<text text-anchor="middle" x="765.5" y="-8.2" font-family="sans-serif" font-size="14.00">dependencies</text>
<g id="clust1" class="cluster">
<title>cluster_AppModule</title>
<polygon fill="none" stroke="black" stroke-dasharray="1,5" points="8,-32.8 8,-157.8 1523,-157.8 1523,-32.8 8,-32.8"/>
</g>
<g id="clust6" class="cluster">
<title>cluster_AppModule_providers</title>
<polygon fill="none" stroke="black" points="1227,-40.8 1227,-92.8 1515,-92.8 1515,-40.8 1227,-40.8"/>
</g>
<g id="clust3" class="cluster">
<title>cluster_AppModule_imports</title>
<polygon fill="none" stroke="black" points="16,-40.8 16,-92.8 1219,-92.8 1219,-40.8 16,-40.8"/>
</g>
<!-- ApiLandingPageModule -->
<g id="node1" class="node">
<title>ApiLandingPageModule</title>
<polygon fill="#8dd3c7" stroke="black" points="1211.42,-84.8 1208.42,-88.8 1187.42,-88.8 1184.42,-84.8 1056.58,-84.8 1056.58,-48.8 1211.42,-48.8 1211.42,-84.8"/>
<text text-anchor="middle" x="1134" y="-62.6" font-family="Times,serif" font-size="14.00">ApiLandingPageModule</text>
</g>
<!-- AppModule -->
<g id="node10" class="node">
<title>AppModule</title>
<polygon fill="#8dd3c7" stroke="black" points="790.66,-149.8 787.66,-153.8 766.66,-153.8 763.66,-149.8 707.34,-149.8 707.34,-113.8 790.66,-113.8 790.66,-149.8"/>
<text text-anchor="middle" x="749" y="-127.6" font-family="Times,serif" font-size="14.00">AppModule</text>
</g>
<!-- ApiLandingPageModule&#45;&gt;AppModule -->
<g id="edge1" class="edge">
<title>ApiLandingPageModule&#45;&gt;AppModule</title>
<path fill="none" stroke="black" d="M1134,-84.91C1134,-104.14 1134,-131.8 1134,-131.8 1134,-131.8 800.93,-131.8 800.93,-131.8"/>
<polygon fill="black" stroke="black" points="800.93,-128.3 790.93,-131.8 800.93,-135.3 800.93,-128.3"/>
</g>
<!-- ApiLogModule -->
<g id="node2" class="node">
<title>ApiLogModule</title>
<polygon fill="#8dd3c7" stroke="black" points="1038.6,-84.8 1035.6,-88.8 1014.6,-88.8 1011.6,-84.8 935.4,-84.8 935.4,-48.8 1038.6,-48.8 1038.6,-84.8"/>
<text text-anchor="middle" x="987" y="-62.6" font-family="Times,serif" font-size="14.00">ApiLogModule</text>
</g>
<!-- ApiLogModule&#45;&gt;AppModule -->
<g id="edge2" class="edge">
<title>ApiLogModule&#45;&gt;AppModule</title>
<path fill="none" stroke="black" d="M987,-84.82C987,-102.17 987,-125.8 987,-125.8 987,-125.8 800.73,-125.8 800.73,-125.8"/>
<polygon fill="black" stroke="black" points="800.73,-122.3 790.73,-125.8 800.73,-129.3 800.73,-122.3"/>
</g>
<!-- ApiMailModule -->
<g id="node3" class="node">
<title>ApiMailModule</title>
<polygon fill="#8dd3c7" stroke="black" points="917.49,-84.8 914.49,-88.8 893.49,-88.8 890.49,-84.8 810.51,-84.8 810.51,-48.8 917.49,-48.8 917.49,-84.8"/>
<text text-anchor="middle" x="864" y="-62.6" font-family="Times,serif" font-size="14.00">ApiMailModule</text>
</g>
<!-- ApiMailModule&#45;&gt;AppModule -->
<g id="edge3" class="edge">
<title>ApiMailModule&#45;&gt;AppModule</title>
<path fill="none" stroke="black" d="M864,-85.04C864,-100.37 864,-119.8 864,-119.8 864,-119.8 800.84,-119.8 800.84,-119.8"/>
<polygon fill="black" stroke="black" points="800.84,-116.3 790.84,-119.8 800.84,-123.3 800.84,-116.3"/>
</g>
<!-- AuthModule -->
<g id="node4" class="node">
<title>AuthModule</title>
<polygon fill="#8dd3c7" stroke="black" points="792.55,-84.8 789.55,-88.8 768.55,-88.8 765.55,-84.8 705.45,-84.8 705.45,-48.8 792.55,-48.8 792.55,-84.8"/>
<text text-anchor="middle" x="749" y="-62.6" font-family="Times,serif" font-size="14.00">AuthModule</text>
</g>
<!-- AuthModule&#45;&gt;AppModule -->
<g id="edge4" class="edge">
<title>AuthModule&#45;&gt;AppModule</title>
<path fill="none" stroke="black" d="M749,-84.91C749,-84.91 749,-103.79 749,-103.79"/>
<polygon fill="black" stroke="black" points="745.5,-103.79 749,-113.79 752.5,-103.79 745.5,-103.79"/>
</g>
<!-- EntitiesToMoveModule -->
<g id="node5" class="node">
<title>EntitiesToMoveModule</title>
<polygon fill="#8dd3c7" stroke="black" points="687.04,-84.8 684.04,-88.8 663.04,-88.8 660.04,-84.8 536.96,-84.8 536.96,-48.8 687.04,-48.8 687.04,-84.8"/>
<text text-anchor="middle" x="612" y="-62.6" font-family="Times,serif" font-size="14.00">EntitiesToMoveModule</text>
</g>
<!-- EntitiesToMoveModule&#45;&gt;AppModule -->
<g id="edge5" class="edge">
<title>EntitiesToMoveModule&#45;&gt;AppModule</title>
<path fill="none" stroke="black" d="M612,-85.04C612,-100.37 612,-119.8 612,-119.8 612,-119.8 697.15,-119.8 697.15,-119.8"/>
<polygon fill="black" stroke="black" points="697.15,-123.3 707.15,-119.8 697.15,-116.3 697.15,-123.3"/>
</g>
<!-- HealthCheckModule -->
<g id="node6" class="node">
<title>HealthCheckModule</title>
<polygon fill="#8dd3c7" stroke="black" points="518.14,-84.8 515.14,-88.8 494.14,-88.8 491.14,-84.8 385.86,-84.8 385.86,-48.8 518.14,-48.8 518.14,-84.8"/>
<text text-anchor="middle" x="452" y="-62.6" font-family="Times,serif" font-size="14.00">HealthCheckModule</text>
</g>
<!-- HealthCheckModule&#45;&gt;AppModule -->
<g id="edge6" class="edge">
<title>HealthCheckModule&#45;&gt;AppModule</title>
<path fill="none" stroke="black" d="M452,-84.82C452,-102.17 452,-125.8 452,-125.8 452,-125.8 697.08,-125.8 697.08,-125.8"/>
<polygon fill="black" stroke="black" points="697.08,-129.3 707.08,-125.8 697.08,-122.3 697.08,-129.3"/>
</g>
<!-- OccupationModule -->
<g id="node7" class="node">
<title>OccupationModule</title>
<polygon fill="#8dd3c7" stroke="black" points="368.08,-84.8 365.08,-88.8 344.08,-88.8 341.08,-84.8 243.92,-84.8 243.92,-48.8 368.08,-48.8 368.08,-84.8"/>
<text text-anchor="middle" x="306" y="-62.6" font-family="Times,serif" font-size="14.00">OccupationModule</text>
</g>
<!-- OccupationModule&#45;&gt;AppModule -->
<g id="edge7" class="edge">
<title>OccupationModule&#45;&gt;AppModule</title>
<path fill="none" stroke="black" d="M306,-84.91C306,-104.14 306,-131.8 306,-131.8 306,-131.8 697.32,-131.8 697.32,-131.8"/>
<polygon fill="black" stroke="black" points="697.32,-135.3 707.32,-131.8 697.32,-128.3 697.32,-135.3"/>
</g>
<!-- ProfileModule -->
<g id="node8" class="node">
<title>ProfileModule</title>
<polygon fill="#8dd3c7" stroke="black" points="225.66,-84.8 222.66,-88.8 201.66,-88.8 198.66,-84.8 128.34,-84.8 128.34,-48.8 225.66,-48.8 225.66,-84.8"/>
<text text-anchor="middle" x="177" y="-62.6" font-family="Times,serif" font-size="14.00">ProfileModule</text>
</g>
<!-- ProfileModule&#45;&gt;AppModule -->
<g id="edge8" class="edge">
<title>ProfileModule&#45;&gt;AppModule</title>
<path fill="none" stroke="black" d="M177,-85.08C177,-106.12 177,-137.8 177,-137.8 177,-137.8 696.94,-137.8 696.94,-137.8"/>
<polygon fill="black" stroke="black" points="696.94,-141.3 706.94,-137.8 696.94,-134.3 696.94,-141.3"/>
</g>
<!-- UserModule -->
<g id="node9" class="node">
<title>UserModule</title>
<polygon fill="#8dd3c7" stroke="black" points="109.99,-84.8 106.99,-88.8 85.99,-88.8 82.99,-84.8 24.01,-84.8 24.01,-48.8 109.99,-48.8 109.99,-84.8"/>
<text text-anchor="middle" x="67" y="-62.6" font-family="Times,serif" font-size="14.00">UserModule</text>
</g>
<!-- UserModule&#45;&gt;AppModule -->
<g id="edge9" class="edge">
<title>UserModule&#45;&gt;AppModule</title>
<path fill="none" stroke="black" d="M67,-84.89C67,-107.93 67,-144.8 67,-144.8 67,-144.8 697.11,-144.8 697.11,-144.8"/>
<polygon fill="black" stroke="black" points="697.11,-148.3 707.11,-144.8 697.11,-141.3 697.11,-148.3"/>
</g>
<!-- ApiLogService -->
<g id="node11" class="node">
<title>ApiLogService</title>
<ellipse fill="#fdb462" stroke="black" cx="1437" cy="-66.8" rx="70.07" ry="18"/>
<text text-anchor="middle" x="1437" y="-62.6" font-family="Times,serif" font-size="14.00">ApiLogService</text>
</g>
<!-- ApiLogService&#45;&gt;AppModule -->
<g id="edge10" class="edge">
<title>ApiLogService&#45;&gt;AppModule</title>
<path fill="none" stroke="black" d="M1437,-84.89C1437,-107.93 1437,-144.8 1437,-144.8 1437,-144.8 800.74,-144.8 800.74,-144.8"/>
<polygon fill="black" stroke="black" points="800.74,-141.3 790.74,-144.8 800.74,-148.3 800.74,-141.3"/>
</g>
<!-- AppService -->
<g id="node12" class="node">
<title>AppService</title>
<ellipse fill="#fdb462" stroke="black" cx="1292" cy="-66.8" rx="56.75" ry="18"/>
<text text-anchor="middle" x="1292" y="-62.6" font-family="Times,serif" font-size="14.00">AppService</text>
</g>
<!-- AppService&#45;&gt;AppModule -->
<g id="edge11" class="edge">
<title>AppService&#45;&gt;AppModule</title>
<path fill="none" stroke="black" d="M1292,-85.08C1292,-106.12 1292,-137.8 1292,-137.8 1292,-137.8 800.71,-137.8 800.71,-137.8"/>
<polygon fill="black" stroke="black" points="800.71,-134.3 790.71,-137.8 800.71,-141.3 800.71,-134.3"/>
</g>
</g>
</svg>
