<?xml version="1.0" encoding="UTF-8" standalone="no"?>
<!DOCTYPE svg PUBLIC "-//W3C//DTD SVG 1.1//EN"
 "http://www.w3.org/Graphics/SVG/1.1/DTD/svg11.dtd">
<!-- Generated by graphviz version 2.47.0 (20210316.0004)
 -->
<!-- Title: dependencies Pages: 1 -->
<svg width="624pt" height="211pt"
 viewBox="0.00 0.00 624.00 211.00" xmlns="http://www.w3.org/2000/svg" xmlns:xlink="http://www.w3.org/1999/xlink">
<g id="graph0" class="graph" transform="scale(1 1) rotate(0) translate(4 207)">
<title>dependencies</title>
<polygon fill="white" stroke="transparent" points="-4,4 -4,-207 620,-207 620,4 -4,4"/>
<text text-anchor="start" x="287.01" y="-42.4" font-family="Times-12" font-weight="bold" font-size="14.00">Legend</text>
<polygon fill="#ffffb3" stroke="transparent" points="74,-10 74,-30 94,-30 94,-10 74,-10"/>
<text text-anchor="start" x="97.63" y="-15.4" font-family="Times-12" font-size="14.00"> &#160;Declarations</text>
<polygon fill="#8dd3c7" stroke="transparent" points="187,-10 187,-30 207,-30 207,-10 187,-10"/>
<text text-anchor="start" x="210.73" y="-15.4" font-family="Times-12" font-size="14.00"> &#160;Module</text>
<polygon fill="#80b1d3" stroke="transparent" points="273,-10 273,-30 293,-30 293,-10 273,-10"/>
<text text-anchor="start" x="296.78" y="-15.4" font-family="Times-12" font-size="14.00"> &#160;Bootstrap</text>
<polygon fill="#fdb462" stroke="transparent" points="370,-10 370,-30 390,-30 390,-10 370,-10"/>
<text text-anchor="start" x="393.67" y="-15.4" font-family="Times-12" font-size="14.00"> &#160;Providers</text>
<polygon fill="#fb8072" stroke="transparent" points="466,-10 466,-30 486,-30 486,-10 466,-10"/>
<text text-anchor="start" x="489.73" y="-15.4" font-family="Times-12" font-size="14.00"> &#160;Exports</text>
<g id="clust1" class="cluster">
<title>cluster_InvoiceModule</title>
<polygon fill="none" stroke="black" stroke-dasharray="1,5" points="8,-70 8,-195 608,-195 608,-70 8,-70"/>
</g>
<g id="clust6" class="cluster">
<title>cluster_InvoiceModule_providers</title>
<polygon fill="none" stroke="black" points="144,-78 144,-130 600,-130 600,-78 144,-78"/>
</g>
<g id="clust3" class="cluster">
<title>cluster_InvoiceModule_imports</title>
<polygon fill="none" stroke="black" points="16,-78 16,-130 136,-130 136,-78 16,-78"/>
</g>
<!-- ApiLogModule -->
<g id="node1" class="node">
<title>ApiLogModule</title>
<polygon fill="#8dd3c7" stroke="black" points="127.6,-122 124.6,-126 103.6,-126 100.6,-122 24.4,-122 24.4,-86 127.6,-86 127.6,-122"/>
<text text-anchor="middle" x="76" y="-99.8" font-family="Times,serif" font-size="14.00">ApiLogModule</text>
</g>
<!-- InvoiceModule -->
<g id="node2" class="node">
<title>InvoiceModule</title>
<polygon fill="#8dd3c7" stroke="black" points="340.53,-187 337.53,-191 316.53,-191 313.53,-187 239.47,-187 239.47,-151 340.53,-151 340.53,-187"/>
<text text-anchor="middle" x="290" y="-164.8" font-family="Times,serif" font-size="14.00">InvoiceModule</text>
</g>
<!-- ApiLogModule&#45;&gt;InvoiceModule -->
<g id="edge1" class="edge">
<title>ApiLogModule&#45;&gt;InvoiceModule</title>
<path fill="none" stroke="black" d="M76,-122.11C76,-141.34 76,-169 76,-169 76,-169 229.28,-169 229.28,-169"/>
<polygon fill="black" stroke="black" points="229.29,-172.5 239.28,-169 229.28,-165.5 229.29,-172.5"/>
</g>
<!-- ApiLogService -->
<g id="node3" class="node">
<title>ApiLogService</title>
<ellipse fill="#fdb462" stroke="black" cx="522" cy="-104" rx="70.06" ry="18"/>
<text text-anchor="middle" x="522" y="-99.8" font-family="Times,serif" font-size="14.00">ApiLogService</text>
</g>
<!-- ApiLogService&#45;&gt;InvoiceModule -->
<g id="edge2" class="edge">
<title>ApiLogService&#45;&gt;InvoiceModule</title>
<path fill="none" stroke="black" d="M522,-122.11C522,-141.34 522,-169 522,-169 522,-169 350.63,-169 350.63,-169"/>
<polygon fill="black" stroke="black" points="350.63,-165.5 340.63,-169 350.63,-172.5 350.63,-165.5"/>
</g>
<!-- InvoiceService -->
<g id="node4" class="node">
<title>InvoiceService</title>
<ellipse fill="#fdb462" stroke="black" cx="365" cy="-104" rx="68.9" ry="18"/>
<text text-anchor="middle" x="365" y="-99.8" font-family="Times,serif" font-size="14.00">InvoiceService</text>
</g>
<!-- InvoiceService&#45;&gt;InvoiceModule -->
<g id="edge3" class="edge">
<title>InvoiceService&#45;&gt;InvoiceModule</title>
<path fill="none" stroke="black" d="M318.41,-117.47C318.41,-117.47 318.41,-140.86 318.41,-140.86"/>
<polygon fill="black" stroke="black" points="314.91,-140.86 318.41,-150.86 321.91,-140.86 314.91,-140.86"/>
</g>
<!-- StripeService -->
<g id="node5" class="node">
<title>StripeService</title>
<ellipse fill="#fdb462" stroke="black" cx="215" cy="-104" rx="63.12" ry="18"/>
<text text-anchor="middle" x="215" y="-99.8" font-family="Times,serif" font-size="14.00">StripeService</text>
</g>
<!-- StripeService&#45;&gt;InvoiceModule -->
<g id="edge4" class="edge">
<title>StripeService&#45;&gt;InvoiceModule</title>
<path fill="none" stroke="black" d="M258.65,-117.15C258.65,-117.15 258.65,-140.69 258.65,-140.69"/>
<polygon fill="black" stroke="black" points="255.15,-140.69 258.65,-150.69 262.15,-140.69 255.15,-140.69"/>
</g>
</g>
</svg>
