<?xml version="1.0" encoding="UTF-8" standalone="no"?>
<!DOCTYPE svg PUBLIC "-//W3C//DTD SVG 1.1//EN"
 "http://www.w3.org/Graphics/SVG/1.1/DTD/svg11.dtd">
<!-- Generated by graphviz version 5.0.0 (20220707.1540)
 -->
<!-- Title: dependencies Pages: 1 -->
<svg width="538pt" height="174pt"
 viewBox="0.00 0.00 538.00 173.80" xmlns="http://www.w3.org/2000/svg" xmlns:xlink="http://www.w3.org/1999/xlink">
<g id="graph0" class="graph" transform="scale(1 1) rotate(0) translate(4 169.8)">
<title>dependencies</title>
<polygon fill="white" stroke="transparent" points="-4,4 -4,-169.8 534,-169.8 534,4 -4,4"/>
<text text-anchor="middle" x="265" y="-8.2" font-family="sans-serif" font-size="14.00">dependencies</text>
<g id="clust1" class="cluster">
<title>cluster_SocialNetworkModule</title>
<polygon fill="none" stroke="black" stroke-dasharray="1,5" points="8,-32.8 8,-157.8 522,-157.8 522,-32.8 8,-32.8"/>
</g>
<g id="clust6" class="cluster">
<title>cluster_SocialNetworkModule_providers</title>
<polygon fill="none" stroke="black" points="144,-40.8 144,-92.8 514,-92.8 514,-40.8 144,-40.8"/>
</g>
<g id="clust3" class="cluster">
<title>cluster_SocialNetworkModule_imports</title>
<polygon fill="none" stroke="black" points="16,-40.8 16,-92.8 136,-92.8 136,-40.8 16,-40.8"/>
</g>
<!-- ApiLogModule -->
<g id="node1" class="node">
<title>ApiLogModule</title>
<polygon fill="#8dd3c7" stroke="black" points="127.6,-84.8 124.6,-88.8 103.6,-88.8 100.6,-84.8 24.4,-84.8 24.4,-48.8 127.6,-48.8 127.6,-84.8"/>
<text text-anchor="middle" x="76" y="-62.6" font-family="Times,serif" font-size="14.00">ApiLogModule</text>
</g>
<!-- SocialNetworkModule -->
<g id="node2" class="node">
<title>SocialNetworkModule</title>
<polygon fill="#8dd3c7" stroke="black" points="321.53,-149.8 318.53,-153.8 297.53,-153.8 294.53,-149.8 178.47,-149.8 178.47,-113.8 321.53,-113.8 321.53,-149.8"/>
<text text-anchor="middle" x="250" y="-127.6" font-family="Times,serif" font-size="14.00">SocialNetworkModule</text>
</g>
<!-- ApiLogModule&#45;&gt;SocialNetworkModule -->
<g id="edge1" class="edge">
<title>ApiLogModule&#45;&gt;SocialNetworkModule</title>
<path fill="none" stroke="black" d="M76,-84.91C76,-104.14 76,-131.8 76,-131.8 76,-131.8 168.22,-131.8 168.22,-131.8"/>
<polygon fill="black" stroke="black" points="168.22,-135.3 178.22,-131.8 168.22,-128.3 168.22,-135.3"/>
</g>
<!-- ApiLogService -->
<g id="node3" class="node">
<title>ApiLogService</title>
<ellipse fill="#fdb462" stroke="black" cx="436" cy="-66.8" rx="70.07" ry="18"/>
<text text-anchor="middle" x="436" y="-62.6" font-family="Times,serif" font-size="14.00">ApiLogService</text>
</g>
<!-- ApiLogService&#45;&gt;SocialNetworkModule -->
<g id="edge2" class="edge">
<title>ApiLogService&#45;&gt;SocialNetworkModule</title>
<path fill="none" stroke="black" d="M436,-84.91C436,-104.14 436,-131.8 436,-131.8 436,-131.8 331.65,-131.8 331.65,-131.8"/>
<polygon fill="black" stroke="black" points="331.65,-128.3 321.65,-131.8 331.65,-135.3 331.65,-128.3"/>
</g>
<!-- SocialNetworkService -->
<g id="node4" class="node">
<title>SocialNetworkService</title>
<ellipse fill="#fdb462" stroke="black" cx="250" cy="-66.8" rx="97.84" ry="18"/>
<text text-anchor="middle" x="250" y="-62.6" font-family="Times,serif" font-size="14.00">SocialNetworkService</text>
</g>
<!-- SocialNetworkService&#45;&gt;SocialNetworkModule -->
<g id="edge3" class="edge">
<title>SocialNetworkService&#45;&gt;SocialNetworkModule</title>
<path fill="none" stroke="black" d="M250,-84.91C250,-84.91 250,-103.79 250,-103.79"/>
<polygon fill="black" stroke="black" points="246.5,-103.79 250,-113.79 253.5,-103.79 246.5,-103.79"/>
</g>
</g>
</svg>
