<?xml version="1.0" encoding="UTF-8" standalone="no"?>
<!DOCTYPE svg PUBLIC "-//W3C//DTD SVG 1.1//EN"
 "http://www.w3.org/Graphics/SVG/1.1/DTD/svg11.dtd">
<!-- Generated by graphviz version 2.47.0 (20210316.0004)
 -->
<!-- Title: dependencies Pages: 1 -->
<svg width="736pt" height="211pt"
 viewBox="0.00 0.00 736.00 211.00" xmlns="http://www.w3.org/2000/svg" xmlns:xlink="http://www.w3.org/1999/xlink">
<g id="graph0" class="graph" transform="scale(1 1) rotate(0) translate(4 207)">
<title>dependencies</title>
<polygon fill="white" stroke="transparent" points="-4,4 -4,-207 732,-207 732,4 -4,4"/>
<text text-anchor="start" x="343.01" y="-42.4" font-family="Times-12" font-weight="bold" font-size="14.00">Legend</text>
<polygon fill="#ffffb3" stroke="transparent" points="130,-10 130,-30 150,-30 150,-10 130,-10"/>
<text text-anchor="start" x="153.63" y="-15.4" font-family="Times-12" font-size="14.00"> &#160;Declarations</text>
<polygon fill="#8dd3c7" stroke="transparent" points="243,-10 243,-30 263,-30 263,-10 243,-10"/>
<text text-anchor="start" x="266.73" y="-15.4" font-family="Times-12" font-size="14.00"> &#160;Module</text>
<polygon fill="#80b1d3" stroke="transparent" points="329,-10 329,-30 349,-30 349,-10 329,-10"/>
<text text-anchor="start" x="352.78" y="-15.4" font-family="Times-12" font-size="14.00"> &#160;Bootstrap</text>
<polygon fill="#fdb462" stroke="transparent" points="426,-10 426,-30 446,-30 446,-10 426,-10"/>
<text text-anchor="start" x="449.67" y="-15.4" font-family="Times-12" font-size="14.00"> &#160;Providers</text>
<polygon fill="#fb8072" stroke="transparent" points="522,-10 522,-30 542,-30 542,-10 522,-10"/>
<text text-anchor="start" x="545.73" y="-15.4" font-family="Times-12" font-size="14.00"> &#160;Exports</text>
<g id="clust1" class="cluster">
<title>cluster_ProductModule</title>
<polygon fill="none" stroke="black" stroke-dasharray="1,5" points="8,-70 8,-195 720,-195 720,-70 8,-70"/>
</g>
<g id="clust6" class="cluster">
<title>cluster_ProductModule_providers</title>
<polygon fill="none" stroke="black" points="254,-78 254,-130 712,-130 712,-78 254,-78"/>
</g>
<g id="clust3" class="cluster">
<title>cluster_ProductModule_imports</title>
<polygon fill="none" stroke="black" points="16,-78 16,-130 246,-130 246,-78 16,-78"/>
</g>
<!-- ApiLogModule -->
<g id="node1" class="node">
<title>ApiLogModule</title>
<polygon fill="#8dd3c7" stroke="black" points="237.6,-122 234.6,-126 213.6,-126 210.6,-122 134.4,-122 134.4,-86 237.6,-86 237.6,-122"/>
<text text-anchor="middle" x="186" y="-99.8" font-family="Times,serif" font-size="14.00">ApiLogModule</text>
</g>
<!-- ProductModule -->
<g id="node3" class="node">
<title>ProductModule</title>
<polygon fill="#8dd3c7" stroke="black" points="376.6,-187 373.6,-191 352.6,-191 349.6,-187 273.4,-187 273.4,-151 376.6,-151 376.6,-187"/>
<text text-anchor="middle" x="325" y="-164.8" font-family="Times,serif" font-size="14.00">ProductModule</text>
</g>
<!-- ApiLogModule&#45;&gt;ProductModule -->
<g id="edge1" class="edge">
<title>ApiLogModule&#45;&gt;ProductModule</title>
<path fill="none" stroke="black" d="M186,-122.02C186,-139.37 186,-163 186,-163 186,-163 263.24,-163 263.24,-163"/>
<polygon fill="black" stroke="black" points="263.24,-166.5 273.24,-163 263.24,-159.5 263.24,-166.5"/>
</g>
<!-- StripeModule -->
<g id="node2" class="node">
<title>StripeModule</title>
<polygon fill="#8dd3c7" stroke="black" points="116.49,-122 113.49,-126 92.49,-126 89.49,-122 23.51,-122 23.51,-86 116.49,-86 116.49,-122"/>
<text text-anchor="middle" x="70" y="-99.8" font-family="Times,serif" font-size="14.00">StripeModule</text>
</g>
<!-- StripeModule&#45;&gt;ProductModule -->
<g id="edge2" class="edge">
<title>StripeModule&#45;&gt;ProductModule</title>
<path fill="none" stroke="black" d="M70,-122.28C70,-143.32 70,-175 70,-175 70,-175 263.4,-175 263.4,-175"/>
<polygon fill="black" stroke="black" points="263.4,-178.5 273.4,-175 263.4,-171.5 263.4,-178.5"/>
</g>
<!-- ApiLogService -->
<g id="node4" class="node">
<title>ApiLogService</title>
<ellipse fill="#fdb462" stroke="black" cx="634" cy="-104" rx="70.06" ry="18"/>
<text text-anchor="middle" x="634" y="-99.8" font-family="Times,serif" font-size="14.00">ApiLogService</text>
</g>
<!-- ApiLogService&#45;&gt;ProductModule -->
<g id="edge3" class="edge">
<title>ApiLogService&#45;&gt;ProductModule</title>
<path fill="none" stroke="black" d="M634,-122.28C634,-143.32 634,-175 634,-175 634,-175 386.72,-175 386.72,-175"/>
<polygon fill="black" stroke="black" points="386.72,-171.5 376.72,-175 386.72,-178.5 386.72,-171.5"/>
</g>
<!-- ProductService -->
<g id="node5" class="node">
<title>ProductService</title>
<ellipse fill="#fdb462" stroke="black" cx="476" cy="-104" rx="70.06" ry="18"/>
<text text-anchor="middle" x="476" y="-99.8" font-family="Times,serif" font-size="14.00">ProductService</text>
</g>
<!-- ProductService&#45;&gt;ProductModule -->
<g id="edge4" class="edge">
<title>ProductService&#45;&gt;ProductModule</title>
<path fill="none" stroke="black" d="M476,-122.02C476,-139.37 476,-163 476,-163 476,-163 386.97,-163 386.97,-163"/>
<polygon fill="black" stroke="black" points="386.97,-159.5 376.97,-163 386.97,-166.5 386.97,-159.5"/>
</g>
<!-- StripeService -->
<g id="node6" class="node">
<title>StripeService</title>
<ellipse fill="#fdb462" stroke="black" cx="325" cy="-104" rx="63.12" ry="18"/>
<text text-anchor="middle" x="325" y="-99.8" font-family="Times,serif" font-size="14.00">StripeService</text>
</g>
<!-- StripeService&#45;&gt;ProductModule -->
<g id="edge5" class="edge">
<title>StripeService&#45;&gt;ProductModule</title>
<path fill="none" stroke="black" d="M325,-122.11C325,-122.11 325,-140.99 325,-140.99"/>
<polygon fill="black" stroke="black" points="321.5,-140.99 325,-150.99 328.5,-140.99 321.5,-140.99"/>
</g>
</g>
</svg>
