<?xml version="1.0" encoding="UTF-8" standalone="no"?>
<!DOCTYPE svg PUBLIC "-//W3C//DTD SVG 1.1//EN"
 "http://www.w3.org/Graphics/SVG/1.1/DTD/svg11.dtd">
<!-- Generated by graphviz version 2.47.0 (20210316.0004)
 -->
<!-- Title: dependencies Pages: 1 -->
<svg width="1019pt" height="211pt"
 viewBox="0.00 0.00 1019.00 211.00" xmlns="http://www.w3.org/2000/svg" xmlns:xlink="http://www.w3.org/1999/xlink">
<g id="graph0" class="graph" transform="scale(1 1) rotate(0) translate(4 207)">
<title>dependencies</title>
<polygon fill="white" stroke="transparent" points="-4,4 -4,-207 1015,-207 1015,4 -4,4"/>
<text text-anchor="start" x="484.51" y="-42.4" font-family="Times-12" font-weight="bold" font-size="14.00">Legend</text>
<polygon fill="#ffffb3" stroke="transparent" points="271.5,-10 271.5,-30 291.5,-30 291.5,-10 271.5,-10"/>
<text text-anchor="start" x="295.13" y="-15.4" font-family="Times-12" font-size="14.00"> &#160;Declarations</text>
<polygon fill="#8dd3c7" stroke="transparent" points="384.5,-10 384.5,-30 404.5,-30 404.5,-10 384.5,-10"/>
<text text-anchor="start" x="408.23" y="-15.4" font-family="Times-12" font-size="14.00"> &#160;Module</text>
<polygon fill="#80b1d3" stroke="transparent" points="470.5,-10 470.5,-30 490.5,-30 490.5,-10 470.5,-10"/>
<text text-anchor="start" x="494.28" y="-15.4" font-family="Times-12" font-size="14.00"> &#160;Bootstrap</text>
<polygon fill="#fdb462" stroke="transparent" points="567.5,-10 567.5,-30 587.5,-30 587.5,-10 567.5,-10"/>
<text text-anchor="start" x="591.17" y="-15.4" font-family="Times-12" font-size="14.00"> &#160;Providers</text>
<polygon fill="#fb8072" stroke="transparent" points="663.5,-10 663.5,-30 683.5,-30 683.5,-10 663.5,-10"/>
<text text-anchor="start" x="687.23" y="-15.4" font-family="Times-12" font-size="14.00"> &#160;Exports</text>
<g id="clust1" class="cluster">
<title>cluster_SubscriptionModule</title>
<polygon fill="none" stroke="black" stroke-dasharray="1,5" points="8,-70 8,-195 1003,-195 1003,-70 8,-70"/>
</g>
<g id="clust3" class="cluster">
<title>cluster_SubscriptionModule_imports</title>
<polygon fill="none" stroke="black" points="658,-78 658,-130 995,-130 995,-78 658,-78"/>
</g>
<g id="clust6" class="cluster">
<title>cluster_SubscriptionModule_providers</title>
<polygon fill="none" stroke="black" points="16,-78 16,-130 650,-130 650,-78 16,-78"/>
</g>
<!-- ApiLogModule -->
<g id="node1" class="node">
<title>ApiLogModule</title>
<polygon fill="#8dd3c7" stroke="black" points="986.6,-122 983.6,-126 962.6,-126 959.6,-122 883.4,-122 883.4,-86 986.6,-86 986.6,-122"/>
<text text-anchor="middle" x="935" y="-99.8" font-family="Times,serif" font-size="14.00">ApiLogModule</text>
</g>
<!-- SubscriptionModule -->
<g id="node4" class="node">
<title>SubscriptionModule</title>
<polygon fill="#8dd3c7" stroke="black" points="563.32,-187 560.32,-191 539.32,-191 536.32,-187 432.68,-187 432.68,-151 563.32,-151 563.32,-187"/>
<text text-anchor="middle" x="498" y="-164.8" font-family="Times,serif" font-size="14.00">SubscriptionModule</text>
</g>
<!-- ApiLogModule&#45;&gt;SubscriptionModule -->
<g id="edge1" class="edge">
<title>ApiLogModule&#45;&gt;SubscriptionModule</title>
<path fill="none" stroke="black" d="M935,-122.29C935,-144.21 935,-178 935,-178 935,-178 573.42,-178 573.42,-178"/>
<polygon fill="black" stroke="black" points="573.42,-174.5 563.42,-178 573.42,-181.5 573.42,-174.5"/>
</g>
<!-- PriceModule -->
<g id="node2" class="node">
<title>PriceModule</title>
<polygon fill="#8dd3c7" stroke="black" points="865.31,-122 862.31,-126 841.31,-126 838.31,-122 776.69,-122 776.69,-86 865.31,-86 865.31,-122"/>
<text text-anchor="middle" x="821" y="-99.8" font-family="Times,serif" font-size="14.00">PriceModule</text>
</g>
<!-- PriceModule&#45;&gt;SubscriptionModule -->
<g id="edge2" class="edge">
<title>PriceModule&#45;&gt;SubscriptionModule</title>
<path fill="none" stroke="black" d="M821,-122.11C821,-141.34 821,-169 821,-169 821,-169 573.36,-169 573.36,-169"/>
<polygon fill="black" stroke="black" points="573.36,-165.5 563.36,-169 573.36,-172.5 573.36,-165.5"/>
</g>
<!-- StripeModule -->
<g id="node3" class="node">
<title>StripeModule</title>
<polygon fill="#8dd3c7" stroke="black" points="758.49,-122 755.49,-126 734.49,-126 731.49,-122 665.51,-122 665.51,-86 758.49,-86 758.49,-122"/>
<text text-anchor="middle" x="712" y="-99.8" font-family="Times,serif" font-size="14.00">StripeModule</text>
</g>
<!-- StripeModule&#45;&gt;SubscriptionModule -->
<g id="edge3" class="edge">
<title>StripeModule&#45;&gt;SubscriptionModule</title>
<path fill="none" stroke="black" d="M712,-122.03C712,-138.4 712,-160 712,-160 712,-160 573.37,-160 573.37,-160"/>
<polygon fill="black" stroke="black" points="573.37,-156.5 563.37,-160 573.37,-163.5 573.37,-156.5"/>
</g>
<!-- ApiLogService -->
<g id="node5" class="node">
<title>ApiLogService</title>
<ellipse fill="#fdb462" stroke="black" cx="572" cy="-104" rx="70.06" ry="18"/>
<text text-anchor="middle" x="572" y="-99.8" font-family="Times,serif" font-size="14.00">ApiLogService</text>
</g>
<!-- ApiLogService&#45;&gt;SubscriptionModule -->
<g id="edge4" class="edge">
<title>ApiLogService&#45;&gt;SubscriptionModule</title>
<path fill="none" stroke="black" d="M532.57,-119.08C532.57,-119.08 532.57,-140.76 532.57,-140.76"/>
<polygon fill="black" stroke="black" points="529.07,-140.76 532.57,-150.76 536.07,-140.76 529.07,-140.76"/>
</g>
<!-- PriceService -->
<g id="node6" class="node">
<title>PriceService</title>
<ellipse fill="#fdb462" stroke="black" cx="424" cy="-104" rx="59.66" ry="18"/>
<text text-anchor="middle" x="424" y="-99.8" font-family="Times,serif" font-size="14.00">PriceService</text>
</g>
<!-- PriceService&#45;&gt;SubscriptionModule -->
<g id="edge5" class="edge">
<title>PriceService&#45;&gt;SubscriptionModule</title>
<path fill="none" stroke="black" d="M458.34,-118.75C458.34,-118.75 458.34,-140.59 458.34,-140.59"/>
<polygon fill="black" stroke="black" points="454.84,-140.59 458.34,-150.59 461.84,-140.59 454.84,-140.59"/>
</g>
<!-- StripeService -->
<g id="node7" class="node">
<title>StripeService</title>
<ellipse fill="#fdb462" stroke="black" cx="283" cy="-104" rx="63.12" ry="18"/>
<text text-anchor="middle" x="283" y="-99.8" font-family="Times,serif" font-size="14.00">StripeService</text>
</g>
<!-- StripeService&#45;&gt;SubscriptionModule -->
<g id="edge6" class="edge">
<title>StripeService&#45;&gt;SubscriptionModule</title>
<path fill="none" stroke="black" d="M283,-122.03C283,-138.4 283,-160 283,-160 283,-160 422.62,-160 422.62,-160"/>
<polygon fill="black" stroke="black" points="422.62,-163.5 432.62,-160 422.62,-156.5 422.62,-163.5"/>
</g>
<!-- SubscriptionService -->
<g id="node8" class="node">
<title>SubscriptionService</title>
<ellipse fill="#fdb462" stroke="black" cx="113" cy="-104" rx="88.62" ry="18"/>
<text text-anchor="middle" x="113" y="-99.8" font-family="Times,serif" font-size="14.00">SubscriptionService</text>
</g>
<!-- SubscriptionService&#45;&gt;SubscriptionModule -->
<g id="edge7" class="edge">
<title>SubscriptionService&#45;&gt;SubscriptionModule</title>
<path fill="none" stroke="black" d="M83.4,-121.16C83.4,-143.02 83.4,-178 83.4,-178 83.4,-178 422.76,-178 422.76,-178"/>
<polygon fill="black" stroke="black" points="422.76,-181.5 432.76,-178 422.76,-174.5 422.76,-181.5"/>
</g>
<!-- SubscriptionService&#45;&gt;SubscriptionModule -->
<g id="edge8" class="edge">
<title>SubscriptionService&#45;&gt;SubscriptionModule</title>
<path fill="none" stroke="black" d="M142.6,-121.08C142.6,-140.34 142.6,-169 142.6,-169 142.6,-169 422.81,-169 422.81,-169"/>
<polygon fill="black" stroke="black" points="422.81,-172.5 432.81,-169 422.81,-165.5 422.81,-172.5"/>
</g>
</g>
</svg>
