<?xml version="1.0" encoding="UTF-8" standalone="no"?>
<!DOCTYPE svg PUBLIC "-//W3C//DTD SVG 1.1//EN"
 "http://www.w3.org/Graphics/SVG/1.1/DTD/svg11.dtd">
<!-- Generated by graphviz version 5.0.0 (20220707.1540)
 -->
<!-- Title: dependencies Pages: 1 -->
<svg width="2200pt" height="448pt"
 viewBox="0.00 0.00 2200.00 447.80" xmlns="http://www.w3.org/2000/svg" xmlns:xlink="http://www.w3.org/1999/xlink">
<g id="graph0" class="graph" transform="scale(1 1) rotate(0) translate(4 443.8)">
<title>dependencies</title>
<polygon fill="white" stroke="transparent" points="-4,4 -4,-443.8 2196,-443.8 2196,4 -4,4"/>
<text text-anchor="middle" x="1096" y="-8.2" font-family="sans-serif" font-size="14.00">dependencies</text>
<g id="clust1" class="cluster">
<title>cluster_ApiLandingPageModule</title>
<polygon fill="none" stroke="black" stroke-dasharray="1,5" points="194,-32.8 194,-298.8 729,-298.8 729,-32.8 194,-32.8"/>
</g>
<g id="clust3" class="cluster">
<title>cluster_ApiLandingPageModule_imports</title>
<polygon fill="none" stroke="black" points="483,-105.8 483,-222.8 621,-222.8 621,-105.8 483,-105.8"/>
</g>
<g id="clust6" class="cluster">
<title>cluster_ApiLandingPageModule_providers</title>
<polygon fill="none" stroke="black" points="202,-40.8 202,-92.8 721,-92.8 721,-40.8 202,-40.8"/>
</g>
<g id="clust13" class="cluster">
<title>cluster_ApiMailModule</title>
<polygon fill="none" stroke="black" stroke-dasharray="1,5" points="8,-162.8 8,-298.8 186,-298.8 186,-162.8 8,-162.8"/>
</g>
<g id="clust18" class="cluster">
<title>cluster_ApiMailModule_providers</title>
<polygon fill="none" stroke="black" points="16,-170.8 16,-222.8 178,-222.8 178,-170.8 16,-170.8"/>
</g>
<g id="clust19" class="cluster">
<title>cluster_AppModule</title>
<polygon fill="none" stroke="black" stroke-dasharray="1,5" points="1298,-238.8 1298,-366.8 2132,-366.8 2132,-238.8 1298,-238.8"/>
</g>
<g id="clust21" class="cluster">
<title>cluster_AppModule_imports</title>
<polygon fill="none" stroke="black" points="1444,-246.8 1444,-298.8 2124,-298.8 2124,-246.8 1444,-246.8"/>
</g>
<g id="clust24" class="cluster">
<title>cluster_AppModule_providers</title>
<polygon fill="none" stroke="black" points="1306,-246.8 1306,-298.8 1436,-298.8 1436,-246.8 1306,-246.8"/>
</g>
<g id="clust25" class="cluster">
<title>cluster_AppTestE2eModule</title>
<polygon fill="none" stroke="black" stroke-dasharray="1,5" points="1082,-306.8 1082,-431.8 1290,-431.8 1290,-306.8 1082,-306.8"/>
</g>
<g id="clust30" class="cluster">
<title>cluster_AppTestE2eModule_providers</title>
<polygon fill="none" stroke="black" points="1090,-314.8 1090,-366.8 1282,-366.8 1282,-314.8 1090,-314.8"/>
</g>
<g id="clust31" class="cluster">
<title>cluster_AuthModule</title>
<polygon fill="none" stroke="black" stroke-dasharray="1,5" points="737,-162.8 737,-230.8 1522,-230.8 1522,-162.8 737,-162.8"/>
</g>
<g id="clust34" class="cluster">
<title>cluster_AuthModule_exports</title>
<polygon fill="none" stroke="black" points="1408,-170.8 1408,-222.8 1514,-222.8 1514,-170.8 1408,-170.8"/>
</g>
<g id="clust36" class="cluster">
<title>cluster_AuthModule_providers</title>
<polygon fill="none" stroke="black" points="745,-170.8 745,-222.8 1400,-222.8 1400,-170.8 745,-170.8"/>
</g>
<g id="clust43" class="cluster">
<title>cluster_HealthCheckModule</title>
<polygon fill="none" stroke="black" stroke-dasharray="1,5" points="1530,-162.8 1530,-230.8 1802,-230.8 1802,-162.8 1530,-162.8"/>
</g>
<g id="clust48" class="cluster">
<title>cluster_HealthCheckModule_providers</title>
<polygon fill="none" stroke="black" points="1538,-170.8 1538,-222.8 1794,-222.8 1794,-170.8 1538,-170.8"/>
</g>
<g id="clust49" class="cluster">
<title>cluster_OccupationModule</title>
<polygon fill="none" stroke="black" stroke-dasharray="1,5" points="1810,-162.8 1810,-230.8 2012,-230.8 2012,-162.8 1810,-162.8"/>
</g>
<g id="clust54" class="cluster">
<title>cluster_OccupationModule_providers</title>
<polygon fill="none" stroke="black" points="1818,-170.8 1818,-222.8 2004,-222.8 2004,-170.8 1818,-170.8"/>
</g>
<g id="clust55" class="cluster">
<title>cluster_ProfileModule</title>
<polygon fill="none" stroke="black" stroke-dasharray="1,5" points="2020,-162.8 2020,-230.8 2184,-230.8 2184,-162.8 2020,-162.8"/>
</g>
<g id="clust60" class="cluster">
<title>cluster_ProfileModule_providers</title>
<polygon fill="none" stroke="black" points="2028,-170.8 2028,-222.8 2176,-222.8 2176,-170.8 2028,-170.8"/>
</g>
<!-- ApiLogModule -->
<g id="node1" class="node">
<title>ApiLogModule</title>
<polygon fill="#8dd3c7" stroke="black" points="594.6,-149.8 591.6,-153.8 570.6,-153.8 567.6,-149.8 491.4,-149.8 491.4,-113.8 594.6,-113.8 594.6,-149.8"/>
<text text-anchor="middle" x="543" y="-127.6" font-family="Times,serif" font-size="14.00">ApiLogModule</text>
</g>
<!-- ApiLogModule&#45;&gt;ApiLogModule -->
<g id="edge6" class="edge">
<title>ApiLogModule&#45;&gt;ApiLogModule</title>
<path fill="none" stroke="black" d="M587.36,-113.64C587.36,-108.76 587.36,-104.8 587.36,-104.8 587.36,-104.8 598.68,-104.8 598.68,-104.8 598.68,-104.8 598.68,-164.8 598.68,-164.8 598.68,-164.8 590.16,-164.8 590.16,-164.8 590.16,-164.8 590.16,-159.84 590.16,-159.84"/>
<polygon fill="black" stroke="black" points="593.66,-159.84 590.16,-149.84 586.66,-159.84 593.66,-159.84"/>
</g>
<!-- UserModule -->
<g id="node2" class="node">
<title>UserModule</title>
<polygon fill="#8dd3c7" stroke="black" points="576.99,-214.8 573.99,-218.8 552.99,-218.8 549.99,-214.8 491.01,-214.8 491.01,-178.8 576.99,-178.8 576.99,-214.8"/>
<text text-anchor="middle" x="534" y="-192.6" font-family="Times,serif" font-size="14.00">UserModule</text>
</g>
<!-- ApiLogModule&#45;&gt;UserModule -->
<g id="edge41" class="edge">
<title>ApiLogModule&#45;&gt;UserModule</title>
<path fill="none" stroke="black" d="M534.22,-149.91C534.22,-149.91 534.22,-168.79 534.22,-168.79"/>
<polygon fill="black" stroke="black" points="530.72,-168.79 534.22,-178.79 537.72,-168.79 530.72,-168.79"/>
</g>
<!-- ApiLandingPageModule -->
<g id="node3" class="node">
<title>ApiLandingPageModule</title>
<polygon fill="#8dd3c7" stroke="black" points="615.42,-290.8 612.42,-294.8 591.42,-294.8 588.42,-290.8 460.58,-290.8 460.58,-254.8 615.42,-254.8 615.42,-290.8"/>
<text text-anchor="middle" x="538" y="-268.6" font-family="Times,serif" font-size="14.00">ApiLandingPageModule</text>
</g>
<!-- ApiLogModule&#45;&gt;ApiLandingPageModule -->
<g id="edge1" class="edge">
<title>ApiLogModule&#45;&gt;ApiLandingPageModule</title>
<path fill="none" stroke="black" d="M581.38,-149.94C581.38,-149.94 581.38,-244.73 581.38,-244.73"/>
<polygon fill="black" stroke="black" points="577.88,-244.72 581.38,-254.73 584.88,-244.73 577.88,-244.72"/>
</g>
<!-- ApiMailModule -->
<g id="node7" class="node">
<title>ApiMailModule</title>
<polygon fill="#8dd3c7" stroke="black" points="136.49,-290.8 133.49,-294.8 112.49,-294.8 109.49,-290.8 29.51,-290.8 29.51,-254.8 136.49,-254.8 136.49,-290.8"/>
<text text-anchor="middle" x="83" y="-268.6" font-family="Times,serif" font-size="14.00">ApiMailModule</text>
</g>
<!-- ApiLogModule&#45;&gt;ApiMailModule -->
<g id="edge8" class="edge">
<title>ApiLogModule&#45;&gt;ApiMailModule</title>
<path fill="none" stroke="black" d="M491.42,-131.8C391.88,-131.8 183,-131.8 183,-131.8 183,-131.8 183,-262.8 183,-262.8 183,-262.8 146.51,-262.8 146.51,-262.8"/>
<polygon fill="black" stroke="black" points="146.51,-259.3 136.51,-262.8 146.51,-266.3 146.51,-259.3"/>
</g>
<!-- AuthModule -->
<g id="node9" class="node">
<title>AuthModule</title>
<polygon fill="#8dd3c7" stroke="black" points="1539.55,-290.8 1536.55,-294.8 1515.55,-294.8 1512.55,-290.8 1452.45,-290.8 1452.45,-254.8 1539.55,-254.8 1539.55,-290.8"/>
<text text-anchor="middle" x="1496" y="-268.6" font-family="Times,serif" font-size="14.00">AuthModule</text>
</g>
<!-- ApiLogModule&#45;&gt;AuthModule -->
<g id="edge26" class="edge">
<title>ApiLogModule&#45;&gt;AuthModule</title>
<path fill="none" stroke="black" d="M594.88,-140.8C796.14,-140.8 1514.25,-140.8 1514.25,-140.8 1514.25,-140.8 1514.25,-244.72 1514.25,-244.72"/>
<polygon fill="black" stroke="black" points="1510.75,-244.72 1514.25,-254.72 1517.75,-244.72 1510.75,-244.72"/>
</g>
<!-- OccupationModule -->
<g id="node12" class="node">
<title>OccupationModule</title>
<polygon fill="#8dd3c7" stroke="black" points="1832.08,-290.8 1829.08,-294.8 1808.08,-294.8 1805.08,-290.8 1707.92,-290.8 1707.92,-254.8 1832.08,-254.8 1832.08,-290.8"/>
<text text-anchor="middle" x="1770" y="-268.6" font-family="Times,serif" font-size="14.00">OccupationModule</text>
</g>
<!-- ApiLogModule&#45;&gt;OccupationModule -->
<g id="edge35" class="edge">
<title>ApiLogModule&#45;&gt;OccupationModule</title>
<path fill="none" stroke="black" d="M594.61,-131.8C831.11,-131.8 1799.8,-131.8 1799.8,-131.8 1799.8,-131.8 1799.8,-244.66 1799.8,-244.66"/>
<polygon fill="black" stroke="black" points="1796.3,-244.66 1799.8,-254.66 1803.3,-244.66 1796.3,-244.66"/>
</g>
<!-- ProfileModule -->
<g id="node13" class="node">
<title>ProfileModule</title>
<polygon fill="#8dd3c7" stroke="black" points="2115.66,-290.8 2112.66,-294.8 2091.66,-294.8 2088.66,-290.8 2018.34,-290.8 2018.34,-254.8 2115.66,-254.8 2115.66,-290.8"/>
<text text-anchor="middle" x="2067" y="-268.6" font-family="Times,serif" font-size="14.00">ProfileModule</text>
</g>
<!-- ApiLogModule&#45;&gt;ProfileModule -->
<g id="edge38" class="edge">
<title>ApiLogModule&#45;&gt;ProfileModule</title>
<path fill="none" stroke="black" d="M594.84,-122.8C856.97,-122.8 2024.02,-122.8 2024.02,-122.8 2024.02,-122.8 2024.02,-244.71 2024.02,-244.71"/>
<polygon fill="black" stroke="black" points="2020.52,-244.71 2024.02,-254.71 2027.52,-244.71 2020.52,-244.71"/>
</g>
<!-- AppModule -->
<g id="node14" class="node">
<title>AppModule</title>
<polygon fill="#8dd3c7" stroke="black" points="1474.66,-358.8 1471.66,-362.8 1450.66,-362.8 1447.66,-358.8 1391.34,-358.8 1391.34,-322.8 1474.66,-322.8 1474.66,-358.8"/>
<text text-anchor="middle" x="1433" y="-336.6" font-family="Times,serif" font-size="14.00">AppModule</text>
</g>
<!-- ApiLogModule&#45;&gt;AppModule -->
<g id="edge14" class="edge">
<title>ApiLogModule&#45;&gt;AppModule</title>
<path fill="none" stroke="black" d="M585.77,-149.96C585.77,-181.9 585.77,-244.8 585.77,-244.8 585.77,-244.8 1444.02,-244.8 1444.02,-244.8 1444.02,-244.8 1444.02,-312.74 1444.02,-312.74"/>
<polygon fill="black" stroke="black" points="1440.52,-312.74 1444.02,-322.74 1447.52,-312.74 1440.52,-312.74"/>
</g>
<!-- UserModule&#45;&gt;ApiLandingPageModule -->
<g id="edge2" class="edge">
<title>UserModule&#45;&gt;ApiLandingPageModule</title>
<path fill="none" stroke="black" d="M519.67,-214.81C519.67,-214.81 519.67,-244.65 519.67,-244.65"/>
<polygon fill="black" stroke="black" points="516.17,-244.65 519.67,-254.65 523.17,-244.65 516.17,-244.65"/>
</g>
<!-- UserModule&#45;&gt;ApiMailModule -->
<g id="edge9" class="edge">
<title>UserModule&#45;&gt;ApiMailModule</title>
<path fill="none" stroke="black" d="M490.89,-190.8C399.84,-190.8 196.28,-190.8 196.28,-190.8 196.28,-190.8 196.28,-269.8 196.28,-269.8 196.28,-269.8 146.66,-269.8 146.66,-269.8"/>
<polygon fill="black" stroke="black" points="146.66,-266.3 136.66,-269.8 146.66,-273.3 146.66,-266.3"/>
</g>
<!-- UserModule&#45;&gt;AppModule -->
<g id="edge21" class="edge">
<title>UserModule&#45;&gt;AppModule</title>
<path fill="none" stroke="black" d="M548.33,-215.04C548.33,-230.37 548.33,-249.8 548.33,-249.8 548.33,-249.8 1435.82,-249.8 1435.82,-249.8 1435.82,-249.8 1435.82,-312.38 1435.82,-312.38"/>
<polygon fill="black" stroke="black" points="1432.32,-312.38 1435.82,-322.38 1439.32,-312.38 1432.32,-312.38"/>
</g>
<!-- ApiLandingPageModule&#45;&gt;AppModule -->
<g id="edge13" class="edge">
<title>ApiLandingPageModule&#45;&gt;AppModule</title>
<path fill="none" stroke="black" d="M615.39,-272.8C808.15,-272.8 1294.32,-272.8 1294.32,-272.8 1294.32,-272.8 1294.32,-340.8 1294.32,-340.8 1294.32,-340.8 1381.02,-340.8 1381.02,-340.8"/>
<polygon fill="black" stroke="black" points="1381.02,-344.3 1391.02,-340.8 1381.02,-337.3 1381.02,-344.3"/>
</g>
<!-- ApiLandingPageService -->
<g id="node4" class="node">
<title>ApiLandingPageService</title>
<ellipse fill="#fdb462" stroke="black" cx="315" cy="-66.8" rx="105.36" ry="18"/>
<text text-anchor="middle" x="315" y="-62.6" font-family="Times,serif" font-size="14.00">ApiLandingPageService</text>
</g>
<!-- ApiLandingPageService&#45;&gt;ApiLandingPageModule -->
<g id="edge3" class="edge">
<title>ApiLandingPageService&#45;&gt;ApiLandingPageModule</title>
<path fill="none" stroke="black" d="M315,-84.93C315,-137.08 315,-283.8 315,-283.8 315,-283.8 450.63,-283.8 450.63,-283.8"/>
<polygon fill="black" stroke="black" points="450.63,-287.3 460.63,-283.8 450.63,-280.3 450.63,-287.3"/>
</g>
<!-- ApiLogService -->
<g id="node5" class="node">
<title>ApiLogService</title>
<ellipse fill="#fdb462" stroke="black" cx="643" cy="-66.8" rx="70.07" ry="18"/>
<text text-anchor="middle" x="643" y="-62.6" font-family="Times,serif" font-size="14.00">ApiLogService</text>
</g>
<!-- ApiLogService&#45;&gt;ApiLogModule -->
<g id="edge7" class="edge">
<title>ApiLogService&#45;&gt;ApiLogModule</title>
<path fill="none" stroke="black" d="M580.16,-74.77C580.16,-74.77 580.16,-103.67 580.16,-103.67"/>
<polygon fill="black" stroke="black" points="576.66,-103.67 580.16,-113.67 583.66,-103.67 576.66,-103.67"/>
</g>
<!-- ApiLogService&#45;&gt;UserModule -->
<g id="edge42" class="edge">
<title>ApiLogService&#45;&gt;UserModule</title>
<path fill="none" stroke="black" d="M602.82,-81.71C602.82,-115.86 602.82,-196.8 602.82,-196.8 602.82,-196.8 587.19,-196.8 587.19,-196.8"/>
<polygon fill="black" stroke="black" points="587.19,-193.3 577.19,-196.8 587.19,-200.3 587.19,-193.3"/>
</g>
<!-- ApiLogService&#45;&gt;ApiLandingPageModule -->
<g id="edge4" class="edge">
<title>ApiLogService&#45;&gt;ApiLandingPageModule</title>
<path fill="none" stroke="black" d="M611.08,-82.96C611.08,-82.96 611.08,-244.67 611.08,-244.67"/>
<polygon fill="black" stroke="black" points="607.58,-244.67 611.08,-254.67 614.58,-244.67 607.58,-244.67"/>
</g>
<!-- ApiLogService&#45;&gt;ApiMailModule -->
<g id="edge10" class="edge">
<title>ApiLogService&#45;&gt;ApiMailModule</title>
<path fill="none" stroke="black" d="M606.95,-82.31C606.95,-121.21 606.95,-219.8 606.95,-219.8 606.95,-219.8 100.83,-219.8 100.83,-219.8 100.83,-219.8 100.83,-244.56 100.83,-244.56"/>
<polygon fill="black" stroke="black" points="97.33,-244.56 100.83,-254.56 104.33,-244.56 97.33,-244.56"/>
</g>
<!-- ApiLogService&#45;&gt;AuthModule -->
<g id="edge28" class="edge">
<title>ApiLogService&#45;&gt;AuthModule</title>
<path fill="none" stroke="black" d="M703.7,-75.8C904.01,-75.8 1531.27,-75.8 1531.27,-75.8 1531.27,-75.8 1531.27,-244.62 1531.27,-244.62"/>
<polygon fill="black" stroke="black" points="1527.77,-244.62 1531.27,-254.62 1534.77,-244.62 1527.77,-244.62"/>
</g>
<!-- ApiLogService&#45;&gt;OccupationModule -->
<g id="edge36" class="edge">
<title>ApiLogService&#45;&gt;OccupationModule</title>
<path fill="none" stroke="black" d="M713.13,-66.8C965.58,-66.8 1813.15,-66.8 1813.15,-66.8 1813.15,-66.8 1813.15,-244.52 1813.15,-244.52"/>
<polygon fill="black" stroke="black" points="1809.65,-244.52 1813.15,-254.52 1816.65,-244.52 1809.65,-244.52"/>
</g>
<!-- ApiLogService&#45;&gt;ProfileModule -->
<g id="edge39" class="edge">
<title>ApiLogService&#45;&gt;ProfileModule</title>
<path fill="none" stroke="black" d="M703.93,-57.8C971.6,-57.8 2029.87,-57.8 2029.87,-57.8 2029.87,-57.8 2029.87,-244.47 2029.87,-244.47"/>
<polygon fill="black" stroke="black" points="2026.37,-244.47 2029.87,-254.47 2033.37,-244.47 2026.37,-244.47"/>
</g>
<!-- ApiLogService&#45;&gt;AppModule -->
<g id="edge22" class="edge">
<title>ApiLogService&#45;&gt;AppModule</title>
<path fill="none" stroke="black" d="M664.12,-84.08C664.12,-138.35 664.12,-301.8 664.12,-301.8 664.12,-301.8 1409.4,-301.8 1409.4,-301.8 1409.4,-301.8 1409.4,-312.67 1409.4,-312.67"/>
<polygon fill="black" stroke="black" points="1405.9,-312.67 1409.4,-322.67 1412.9,-312.67 1405.9,-312.67"/>
</g>
<!-- UserService -->
<g id="node6" class="node">
<title>UserService</title>
<ellipse fill="#fdb462" stroke="black" cx="497" cy="-66.8" rx="58.46" ry="18"/>
<text text-anchor="middle" x="497" y="-62.6" font-family="Times,serif" font-size="14.00">UserService</text>
</g>
<!-- UserService&#45;&gt;UserModule -->
<g id="edge43" class="edge">
<title>UserService&#45;&gt;UserModule</title>
<path fill="none" stroke="black" d="M480.93,-84.3C480.93,-121.03 480.93,-202.8 480.93,-202.8 480.93,-202.8 481.91,-202.8 481.91,-202.8"/>
<polygon fill="black" stroke="black" points="480.67,-206.3 490.67,-202.8 480.67,-199.3 480.67,-206.3"/>
</g>
<!-- UserService&#45;&gt;ApiLandingPageModule -->
<g id="edge5" class="edge">
<title>UserService&#45;&gt;ApiLandingPageModule</title>
<path fill="none" stroke="black" d="M470.86,-82.96C470.86,-82.96 470.86,-244.67 470.86,-244.67"/>
<polygon fill="black" stroke="black" points="467.36,-244.67 470.86,-254.67 474.36,-244.67 467.36,-244.67"/>
</g>
<!-- UserService&#45;&gt;ApiMailModule -->
<g id="edge12" class="edge">
<title>UserService&#45;&gt;ApiMailModule</title>
<path fill="none" stroke="black" d="M449.78,-77.5C449.78,-120.3 449.78,-276.8 449.78,-276.8 449.78,-276.8 146.73,-276.8 146.73,-276.8"/>
<polygon fill="black" stroke="black" points="146.73,-273.3 136.73,-276.8 146.73,-280.3 146.73,-273.3"/>
</g>
<!-- UserService&#45;&gt;AuthModule -->
<g id="edge33" class="edge">
<title>UserService&#45;&gt;AuthModule</title>
<path fill="none" stroke="black" d="M523.34,-83.09C523.34,-89.25 523.34,-94.8 523.34,-94.8 523.34,-94.8 1522.76,-94.8 1522.76,-94.8 1522.76,-94.8 1522.76,-244.75 1522.76,-244.75"/>
<polygon fill="black" stroke="black" points="1519.26,-244.75 1522.76,-254.75 1526.26,-244.75 1519.26,-244.75"/>
</g>
<!-- ApiMailModule&#45;&gt;AppModule -->
<g id="edge15" class="edge">
<title>ApiMailModule&#45;&gt;AppModule</title>
<path fill="none" stroke="black" d="M83,-290.93C83,-301.51 83,-312.8 83,-312.8 83,-312.8 1400.28,-312.8 1400.28,-312.8 1400.28,-312.8 1400.28,-313.78 1400.28,-313.78"/>
<polygon fill="black" stroke="black" points="1396.78,-312.59 1400.28,-322.59 1403.78,-312.59 1396.78,-312.59"/>
</g>
<!-- ApiMailService -->
<g id="node8" class="node">
<title>ApiMailService</title>
<ellipse fill="#fdb462" stroke="black" cx="97" cy="-196.8" rx="72.94" ry="18"/>
<text text-anchor="middle" x="97" y="-192.6" font-family="Times,serif" font-size="14.00">ApiMailService</text>
</g>
<!-- ApiMailService&#45;&gt;ApiMailModule -->
<g id="edge11" class="edge">
<title>ApiMailService&#45;&gt;ApiMailModule</title>
<path fill="none" stroke="black" d="M65.17,-213.29C65.17,-213.29 65.17,-244.75 65.17,-244.75"/>
<polygon fill="black" stroke="black" points="61.67,-244.75 65.17,-254.75 68.67,-244.75 61.67,-244.75"/>
</g>
<!-- AuthModule&#45;&gt;AppModule -->
<g id="edge16" class="edge">
<title>AuthModule&#45;&gt;AppModule</title>
<path fill="none" stroke="black" d="M1463.53,-291.02C1463.53,-291.02 1463.53,-312.53 1463.53,-312.53"/>
<polygon fill="black" stroke="black" points="1460.03,-312.53 1463.53,-322.53 1467.03,-312.53 1460.03,-312.53"/>
</g>
<!-- AuthService  -->
<g id="node18" class="node">
<title>AuthService </title>
<polygon fill="#fb8072" stroke="black" points="1505.98,-214.8 1416.02,-214.8 1416.02,-178.8 1505.98,-178.8 1505.98,-214.8"/>
<text text-anchor="middle" x="1461" y="-192.6" font-family="Times,serif" font-size="14.00">AuthService </text>
</g>
<!-- AuthModule&#45;&gt;AuthService  -->
<g id="edge27" class="edge">
<title>AuthModule&#45;&gt;AuthService </title>
<path fill="none" stroke="black" stroke-dasharray="5,2" d="M1496.82,-254.79C1496.82,-254.79 1496.82,-224.95 1496.82,-224.95"/>
<polygon fill="black" stroke="black" points="1500.32,-224.95 1496.82,-214.95 1493.32,-224.95 1500.32,-224.95"/>
</g>
<!-- EntitiesToMoveModule -->
<g id="node10" class="node">
<title>EntitiesToMoveModule</title>
<polygon fill="#8dd3c7" stroke="black" points="2000.04,-290.8 1997.04,-294.8 1976.04,-294.8 1973.04,-290.8 1849.96,-290.8 1849.96,-254.8 2000.04,-254.8 2000.04,-290.8"/>
<text text-anchor="middle" x="1925" y="-268.6" font-family="Times,serif" font-size="14.00">EntitiesToMoveModule</text>
</g>
<!-- EntitiesToMoveModule&#45;&gt;AppModule -->
<g id="edge17" class="edge">
<title>EntitiesToMoveModule&#45;&gt;AppModule</title>
<path fill="none" stroke="black" d="M1925,-290.97C1925,-312.3 1925,-344.8 1925,-344.8 1925,-344.8 1484.95,-344.8 1484.95,-344.8"/>
<polygon fill="black" stroke="black" points="1484.95,-341.3 1474.95,-344.8 1484.95,-348.3 1484.95,-341.3"/>
</g>
<!-- HealthCheckModule -->
<g id="node11" class="node">
<title>HealthCheckModule</title>
<polygon fill="#8dd3c7" stroke="black" points="1690.14,-290.8 1687.14,-294.8 1666.14,-294.8 1663.14,-290.8 1557.86,-290.8 1557.86,-254.8 1690.14,-254.8 1690.14,-290.8"/>
<text text-anchor="middle" x="1624" y="-268.6" font-family="Times,serif" font-size="14.00">HealthCheckModule</text>
</g>
<!-- HealthCheckModule&#45;&gt;AppModule -->
<g id="edge18" class="edge">
<title>HealthCheckModule&#45;&gt;AppModule</title>
<path fill="none" stroke="black" d="M1624,-290.83C1624,-307.86 1624,-330.8 1624,-330.8 1624,-330.8 1484.92,-330.8 1484.92,-330.8"/>
<polygon fill="black" stroke="black" points="1484.92,-327.3 1474.92,-330.8 1484.92,-334.3 1484.92,-327.3"/>
</g>
<!-- OccupationModule&#45;&gt;AppModule -->
<g id="edge19" class="edge">
<title>OccupationModule&#45;&gt;AppModule</title>
<path fill="none" stroke="black" d="M1770,-290.91C1770,-310.14 1770,-337.8 1770,-337.8 1770,-337.8 1485,-337.8 1485,-337.8"/>
<polygon fill="black" stroke="black" points="1485,-334.3 1475,-337.8 1485,-341.3 1485,-334.3"/>
</g>
<!-- ProfileModule&#45;&gt;AppModule -->
<g id="edge20" class="edge">
<title>ProfileModule&#45;&gt;AppModule</title>
<path fill="none" stroke="black" d="M2067,-291.12C2067,-314.46 2067,-351.8 2067,-351.8 2067,-351.8 1485.09,-351.8 1485.09,-351.8"/>
<polygon fill="black" stroke="black" points="1485.09,-348.3 1475.09,-351.8 1485.09,-355.3 1485.09,-348.3"/>
</g>
<!-- AppTestE2eModule -->
<g id="node16" class="node">
<title>AppTestE2eModule</title>
<polygon fill="#8dd3c7" stroke="black" points="1265.53,-423.8 1262.53,-427.8 1241.53,-427.8 1238.53,-423.8 1136.47,-423.8 1136.47,-387.8 1265.53,-387.8 1265.53,-423.8"/>
<text text-anchor="middle" x="1201" y="-401.6" font-family="Times,serif" font-size="14.00">AppTestE2eModule</text>
</g>
<!-- AppModule&#45;&gt;AppTestE2eModule -->
<g id="edge24" class="edge">
<title>AppModule&#45;&gt;AppTestE2eModule</title>
<path fill="none" stroke="black" d="M1433,-358.91C1433,-378.14 1433,-405.8 1433,-405.8 1433,-405.8 1275.62,-405.8 1275.62,-405.8"/>
<polygon fill="black" stroke="black" points="1275.62,-402.3 1265.62,-405.8 1275.62,-409.3 1275.62,-402.3"/>
</g>
<!-- AppService -->
<g id="node15" class="node">
<title>AppService</title>
<ellipse fill="#fdb462" stroke="black" cx="1371" cy="-272.8" rx="56.75" ry="18"/>
<text text-anchor="middle" x="1371" y="-268.6" font-family="Times,serif" font-size="14.00">AppService</text>
</g>
<!-- AppService&#45;&gt;AppModule -->
<g id="edge23" class="edge">
<title>AppService&#45;&gt;AppModule</title>
<path fill="none" stroke="black" d="M1418.51,-282.83C1418.51,-282.83 1418.51,-312.79 1418.51,-312.79"/>
<polygon fill="black" stroke="black" points="1415.01,-312.79 1418.51,-322.79 1422.01,-312.79 1415.01,-312.79"/>
</g>
<!-- AppTestE2eService -->
<g id="node17" class="node">
<title>AppTestE2eService</title>
<ellipse fill="#fdb462" stroke="black" cx="1186" cy="-340.8" rx="88.03" ry="18"/>
<text text-anchor="middle" x="1186" y="-336.6" font-family="Times,serif" font-size="14.00">AppTestE2eService</text>
</g>
<!-- AppTestE2eService&#45;&gt;AppTestE2eModule -->
<g id="edge25" class="edge">
<title>AppTestE2eService&#45;&gt;AppTestE2eModule</title>
<path fill="none" stroke="black" d="M1201,-358.56C1201,-358.56 1201,-377.61 1201,-377.61"/>
<polygon fill="black" stroke="black" points="1197.5,-377.61 1201,-387.61 1204.5,-377.61 1197.5,-377.61"/>
</g>
<!-- AuthService -->
<g id="node19" class="node">
<title>AuthService</title>
<ellipse fill="#fdb462" stroke="black" cx="1333" cy="-196.8" rx="59.11" ry="18"/>
<text text-anchor="middle" x="1333" y="-192.6" font-family="Times,serif" font-size="14.00">AuthService</text>
</g>
<!-- AuthService&#45;&gt;AuthModule -->
<g id="edge29" class="edge">
<title>AuthService&#45;&gt;AuthModule</title>
<path fill="none" stroke="black" d="M1353.34,-213.73C1353.34,-219.63 1353.34,-224.8 1353.34,-224.8 1353.34,-224.8 1487.9,-224.8 1487.9,-224.8 1487.9,-224.8 1487.9,-244.65 1487.9,-244.65"/>
<polygon fill="black" stroke="black" points="1484.4,-244.65 1487.9,-254.65 1491.4,-244.65 1484.4,-244.65"/>
</g>
<!-- JwtRefreshTokenStrategy -->
<g id="node20" class="node">
<title>JwtRefreshTokenStrategy</title>
<ellipse fill="#fdb462" stroke="black" cx="1144" cy="-196.8" rx="111.17" ry="18"/>
<text text-anchor="middle" x="1144" y="-192.6" font-family="Times,serif" font-size="14.00">JwtRefreshTokenStrategy</text>
</g>
<!-- JwtRefreshTokenStrategy&#45;&gt;AuthModule -->
<g id="edge30" class="edge">
<title>JwtRefreshTokenStrategy&#45;&gt;AuthModule</title>
<path fill="none" stroke="black" d="M1176.54,-214.07C1176.54,-222.06 1176.54,-229.8 1176.54,-229.8 1176.54,-229.8 1478.98,-229.8 1478.98,-229.8 1478.98,-229.8 1478.98,-244.31 1478.98,-244.31"/>
<polygon fill="black" stroke="black" points="1475.48,-244.31 1478.98,-254.31 1482.48,-244.31 1475.48,-244.31"/>
</g>
<!-- JwtStrategy -->
<g id="node21" class="node">
<title>JwtStrategy</title>
<ellipse fill="#fdb462" stroke="black" cx="958" cy="-196.8" rx="56.77" ry="18"/>
<text text-anchor="middle" x="958" y="-192.6" font-family="Times,serif" font-size="14.00">JwtStrategy</text>
</g>
<!-- JwtStrategy&#45;&gt;AuthModule -->
<g id="edge31" class="edge">
<title>JwtStrategy&#45;&gt;AuthModule</title>
<path fill="none" stroke="black" d="M958,-214.91C958,-224.7 958,-234.8 958,-234.8 958,-234.8 1470.06,-234.8 1470.06,-234.8 1470.06,-234.8 1470.06,-244.69 1470.06,-244.69"/>
<polygon fill="black" stroke="black" points="1466.56,-244.69 1470.06,-254.69 1473.56,-244.69 1466.56,-244.69"/>
</g>
<!-- LocalStrategy -->
<g id="node22" class="node">
<title>LocalStrategy</title>
<ellipse fill="#fdb462" stroke="black" cx="818" cy="-196.8" rx="65.4" ry="18"/>
<text text-anchor="middle" x="818" y="-192.6" font-family="Times,serif" font-size="14.00">LocalStrategy</text>
</g>
<!-- LocalStrategy&#45;&gt;AuthModule -->
<g id="edge32" class="edge">
<title>LocalStrategy&#45;&gt;AuthModule</title>
<path fill="none" stroke="black" d="M818,-215.29C818,-226.94 818,-239.8 818,-239.8 818,-239.8 1461.14,-239.8 1461.14,-239.8 1461.14,-239.8 1461.14,-244.76 1461.14,-244.76"/>
<polygon fill="black" stroke="black" points="1457.64,-244.76 1461.14,-254.76 1464.64,-244.76 1457.64,-244.76"/>
</g>
<!-- CustomHealthCheckService -->
<g id="node23" class="node">
<title>CustomHealthCheckService</title>
<ellipse fill="#fdb462" stroke="black" cx="1666" cy="-196.8" rx="120.41" ry="18"/>
<text text-anchor="middle" x="1666" y="-192.6" font-family="Times,serif" font-size="14.00">CustomHealthCheckService</text>
</g>
<!-- CustomHealthCheckService&#45;&gt;HealthCheckModule -->
<g id="edge34" class="edge">
<title>CustomHealthCheckService&#45;&gt;HealthCheckModule</title>
<path fill="none" stroke="black" d="M1624,-214.05C1624,-214.05 1624,-244.56 1624,-244.56"/>
<polygon fill="black" stroke="black" points="1620.5,-244.56 1624,-254.56 1627.5,-244.56 1620.5,-244.56"/>
</g>
<!-- OccupationService -->
<g id="node24" class="node">
<title>OccupationService</title>
<ellipse fill="#fdb462" stroke="black" cx="1911" cy="-196.8" rx="84.51" ry="18"/>
<text text-anchor="middle" x="1911" y="-192.6" font-family="Times,serif" font-size="14.00">OccupationService</text>
</g>
<!-- OccupationService&#45;&gt;OccupationModule -->
<g id="edge37" class="edge">
<title>OccupationService&#45;&gt;OccupationModule</title>
<path fill="none" stroke="black" d="M1840.89,-207.05C1840.89,-227.79 1840.89,-272.8 1840.89,-272.8 1840.89,-272.8 1840.02,-272.8 1840.02,-272.8"/>
<polygon fill="black" stroke="black" points="1842.19,-269.3 1832.19,-272.8 1842.19,-276.3 1842.19,-269.3"/>
</g>
<!-- ProfileService -->
<g id="node25" class="node">
<title>ProfileService</title>
<ellipse fill="#fdb462" stroke="black" cx="2102" cy="-196.8" rx="66.05" ry="18"/>
<text text-anchor="middle" x="2102" y="-192.6" font-family="Times,serif" font-size="14.00">ProfileService</text>
</g>
<!-- ProfileService&#45;&gt;ProfileModule -->
<g id="edge40" class="edge">
<title>ProfileService&#45;&gt;ProfileModule</title>
<path fill="none" stroke="black" d="M2075.78,-213.67C2075.78,-213.67 2075.78,-244.65 2075.78,-244.65"/>
<polygon fill="black" stroke="black" points="2072.28,-244.65 2075.78,-254.65 2079.28,-244.65 2072.28,-244.65"/>
</g>
</g>
</svg>
