<?xml version="1.0" encoding="UTF-8" standalone="no"?>
<!DOCTYPE svg PUBLIC "-//W3C//DTD SVG 1.1//EN"
 "http://www.w3.org/Graphics/SVG/1.1/DTD/svg11.dtd">
<!-- Generated by graphviz version 5.0.0 (20220707.1540)
 -->
<!-- Title: dependencies Pages: 1 -->
<svg width="1419pt" height="386pt"
 viewBox="0.00 0.00 1419.00 385.80" xmlns="http://www.w3.org/2000/svg" xmlns:xlink="http://www.w3.org/1999/xlink">
<g id="graph0" class="graph" transform="scale(1 1) rotate(0) translate(4 381.8)">
<title>dependencies</title>
<polygon fill="white" stroke="transparent" points="-4,4 -4,-381.8 1415,-381.8 1415,4 -4,4"/>
<text text-anchor="middle" x="705.5" y="-8.2" font-family="sans-serif" font-size="14.00">dependencies</text>
<g id="clust1" class="cluster">
<title>cluster_ApiLogModule</title>
<polygon fill="none" stroke="black" stroke-dasharray="1,5" points="8,-32.8 8,-160.8 180,-160.8 180,-32.8 8,-32.8"/>
</g>
<g id="clust6" class="cluster">
<title>cluster_ApiLogModule_providers</title>
<polygon fill="none" stroke="black" points="16,-40.8 16,-92.8 172,-92.8 172,-40.8 16,-40.8"/>
</g>
<g id="clust7" class="cluster">
<title>cluster_AppModule</title>
<polygon fill="none" stroke="black" stroke-dasharray="1,5" points="44,-176.8 44,-304.8 724,-304.8 724,-176.8 44,-176.8"/>
</g>
<g id="clust9" class="cluster">
<title>cluster_AppModule_imports</title>
<polygon fill="none" stroke="black" points="190,-184.8 190,-236.8 716,-236.8 716,-184.8 190,-184.8"/>
</g>
<g id="clust12" class="cluster">
<title>cluster_AppModule_providers</title>
<polygon fill="none" stroke="black" points="52,-184.8 52,-236.8 182,-236.8 182,-184.8 52,-184.8"/>
</g>
<g id="clust13" class="cluster">
<title>cluster_AppTestE2eModule</title>
<polygon fill="none" stroke="black" stroke-dasharray="1,5" points="732,-244.8 732,-369.8 940,-369.8 940,-244.8 732,-244.8"/>
</g>
<g id="clust18" class="cluster">
<title>cluster_AppTestE2eModule_providers</title>
<polygon fill="none" stroke="black" points="740,-252.8 740,-304.8 932,-304.8 932,-252.8 740,-252.8"/>
</g>
<g id="clust19" class="cluster">
<title>cluster_AuthModule</title>
<polygon fill="none" stroke="black" stroke-dasharray="1,5" points="204,-100.8 204,-168.8 1123,-168.8 1123,-100.8 204,-100.8"/>
</g>
<g id="clust22" class="cluster">
<title>cluster_AuthModule_exports</title>
<polygon fill="none" stroke="black" points="1009,-108.8 1009,-160.8 1115,-160.8 1115,-108.8 1009,-108.8"/>
</g>
<g id="clust24" class="cluster">
<title>cluster_AuthModule_providers</title>
<polygon fill="none" stroke="black" points="212,-108.8 212,-160.8 1001,-160.8 1001,-108.8 212,-108.8"/>
</g>
<g id="clust31" class="cluster">
<title>cluster_HealthCheckModule</title>
<polygon fill="none" stroke="black" stroke-dasharray="1,5" points="1131,-100.8 1131,-168.8 1403,-168.8 1403,-100.8 1131,-100.8"/>
</g>
<g id="clust36" class="cluster">
<title>cluster_HealthCheckModule_providers</title>
<polygon fill="none" stroke="black" points="1139,-108.8 1139,-160.8 1395,-160.8 1395,-108.8 1139,-108.8"/>
</g>
<!-- ApiLogService -->
<g id="node1" class="node">
<title>ApiLogService</title>
<ellipse fill="#fdb462" stroke="black" cx="94" cy="-66.8" rx="70.07" ry="18"/>
<text text-anchor="middle" x="94" y="-62.6" font-family="Times,serif" font-size="14.00">ApiLogService</text>
</g>
<!-- ApiLogModule -->
<g id="node2" class="node">
<title>ApiLogModule</title>
<polygon fill="#8dd3c7" stroke="black" points="119.6,-152.8 116.6,-156.8 95.6,-156.8 92.6,-152.8 16.4,-152.8 16.4,-116.8 119.6,-116.8 119.6,-152.8"/>
<text text-anchor="middle" x="68" y="-130.6" font-family="Times,serif" font-size="14.00">ApiLogModule</text>
</g>
<!-- ApiLogService&#45;&gt;ApiLogModule -->
<g id="edge1" class="edge">
<title>ApiLogService&#45;&gt;ApiLogModule</title>
<path fill="none" stroke="black" d="M71.76,-83.96C71.76,-83.96 71.76,-106.45 71.76,-106.45"/>
<polygon fill="black" stroke="black" points="68.26,-106.45 71.76,-116.45 75.26,-106.45 68.26,-106.45"/>
</g>
<!-- AuthModule -->
<g id="node3" class="node">
<title>AuthModule</title>
<polygon fill="#8dd3c7" stroke="black" points="557.55,-228.8 554.55,-232.8 533.55,-232.8 530.55,-228.8 470.45,-228.8 470.45,-192.8 557.55,-192.8 557.55,-228.8"/>
<text text-anchor="middle" x="514" y="-206.6" font-family="Times,serif" font-size="14.00">AuthModule</text>
</g>
<!-- ApiLogService&#45;&gt;AuthModule -->
<g id="edge13" class="edge">
<title>ApiLogService&#45;&gt;AuthModule</title>
<path fill="none" stroke="black" d="M160.38,-60.8C273.92,-60.8 493.28,-60.8 493.28,-60.8 493.28,-60.8 493.28,-182.71 493.28,-182.71"/>
<polygon fill="black" stroke="black" points="489.78,-182.71 493.28,-192.71 496.78,-182.71 489.78,-182.71"/>
</g>
<!-- UserModule -->
<g id="node6" class="node">
<title>UserModule</title>
<polygon fill="#8dd3c7" stroke="black" points="451.99,-228.8 448.99,-232.8 427.99,-232.8 424.99,-228.8 366.01,-228.8 366.01,-192.8 451.99,-192.8 451.99,-228.8"/>
<text text-anchor="middle" x="409" y="-206.6" font-family="Times,serif" font-size="14.00">UserModule</text>
</g>
<!-- ApiLogService&#45;&gt;UserModule -->
<g id="edge21" class="edge">
<title>ApiLogService&#45;&gt;UserModule</title>
<path fill="none" stroke="black" d="M141.79,-80.34C141.79,-111.33 141.79,-184.8 141.79,-184.8 141.79,-184.8 409,-184.8 409,-184.8 409,-184.8 409,-185.59 409,-185.59"/>
<polygon fill="black" stroke="black" points="405.5,-182.74 409,-192.74 412.5,-182.74 405.5,-182.74"/>
</g>
<!-- AppModule -->
<g id="node7" class="node">
<title>AppModule</title>
<polygon fill="#8dd3c7" stroke="black" points="502.66,-296.8 499.66,-300.8 478.66,-300.8 475.66,-296.8 419.34,-296.8 419.34,-260.8 502.66,-260.8 502.66,-296.8"/>
<text text-anchor="middle" x="461" y="-274.6" font-family="Times,serif" font-size="14.00">AppModule</text>
</g>
<!-- ApiLogService&#45;&gt;AppModule -->
<g id="edge7" class="edge">
<title>ApiLogService&#45;&gt;AppModule</title>
<path fill="none" stroke="black" d="M160.14,-72.8C174.6,-72.8 185.68,-72.8 185.68,-72.8 185.68,-72.8 185.68,-275.8 185.68,-275.8 185.68,-275.8 409.18,-275.8 409.18,-275.8"/>
<polygon fill="black" stroke="black" points="409.18,-279.3 419.18,-275.8 409.18,-272.3 409.18,-279.3"/>
</g>
<!-- ApiLogModule&#45;&gt;AuthModule -->
<g id="edge11" class="edge">
<title>ApiLogModule&#45;&gt;AuthModule</title>
<path fill="none" stroke="black" d="M99.83,-152.96C99.83,-157.84 99.83,-161.8 99.83,-161.8 99.83,-161.8 473.72,-161.8 473.72,-161.8 473.72,-161.8 473.72,-182.55 473.72,-182.55"/>
<polygon fill="black" stroke="black" points="470.22,-182.55 473.72,-192.55 477.22,-182.55 470.22,-182.55"/>
</g>
<!-- ApiLogModule&#45;&gt;UserModule -->
<g id="edge20" class="edge">
<title>ApiLogModule&#45;&gt;UserModule</title>
<path fill="none" stroke="black" d="M80.1,-153.08C80.1,-168.75 80.1,-188.8 80.1,-188.8 80.1,-188.8 387.5,-188.8 387.5,-188.8 387.5,-188.8 387.5,-189.18 387.5,-189.18"/>
<polygon fill="black" stroke="black" points="384,-182.63 387.5,-192.63 391,-182.63 384,-182.63"/>
</g>
<!-- ApiLogModule&#45;&gt;AppModule -->
<g id="edge2" class="edge">
<title>ApiLogModule&#45;&gt;AppModule</title>
<path fill="none" stroke="black" d="M38.41,-152.88C38.41,-193.77 38.41,-289.8 38.41,-289.8 38.41,-289.8 409.32,-289.8 409.32,-289.8"/>
<polygon fill="black" stroke="black" points="409.32,-293.3 419.32,-289.8 409.32,-286.3 409.32,-293.3"/>
</g>
<!-- AuthModule&#45;&gt;AppModule -->
<g id="edge3" class="edge">
<title>AuthModule&#45;&gt;AppModule</title>
<path fill="none" stroke="black" d="M486.53,-229.02C486.53,-229.02 486.53,-250.53 486.53,-250.53"/>
<polygon fill="black" stroke="black" points="483.03,-250.53 486.53,-260.53 490.03,-250.53 483.03,-250.53"/>
</g>
<!-- AuthService  -->
<g id="node11" class="node">
<title>AuthService </title>
<polygon fill="#fb8072" stroke="black" points="1106.98,-152.8 1017.02,-152.8 1017.02,-116.8 1106.98,-116.8 1106.98,-152.8"/>
<text text-anchor="middle" x="1062" y="-130.6" font-family="Times,serif" font-size="14.00">AuthService </text>
</g>
<!-- AuthModule&#45;&gt;AuthService  -->
<g id="edge12" class="edge">
<title>AuthModule&#45;&gt;AuthService </title>
<path fill="none" stroke="black" stroke-dasharray="5,2" d="M524.53,-192.48C524.53,-184.01 524.53,-175.8 524.53,-175.8 524.53,-175.8 1062,-175.8 1062,-175.8 1062,-175.8 1062,-162.9 1062,-162.9"/>
<polygon fill="black" stroke="black" points="1065.5,-162.9 1062,-152.9 1058.5,-162.9 1065.5,-162.9"/>
</g>
<!-- EntitiesToMoveModule -->
<g id="node4" class="node">
<title>EntitiesToMoveModule</title>
<polygon fill="#8dd3c7" stroke="black" points="348.04,-228.8 345.04,-232.8 324.04,-232.8 321.04,-228.8 197.96,-228.8 197.96,-192.8 348.04,-192.8 348.04,-228.8"/>
<text text-anchor="middle" x="273" y="-206.6" font-family="Times,serif" font-size="14.00">EntitiesToMoveModule</text>
</g>
<!-- EntitiesToMoveModule&#45;&gt;AppModule -->
<g id="edge4" class="edge">
<title>EntitiesToMoveModule&#45;&gt;AppModule</title>
<path fill="none" stroke="black" d="M273,-228.83C273,-245.86 273,-268.8 273,-268.8 273,-268.8 409.28,-268.8 409.28,-268.8"/>
<polygon fill="black" stroke="black" points="409.28,-272.3 419.28,-268.8 409.28,-265.3 409.28,-272.3"/>
</g>
<!-- HealthCheckModule -->
<g id="node5" class="node">
<title>HealthCheckModule</title>
<polygon fill="#8dd3c7" stroke="black" points="708.14,-228.8 705.14,-232.8 684.14,-232.8 681.14,-228.8 575.86,-228.8 575.86,-192.8 708.14,-192.8 708.14,-228.8"/>
<text text-anchor="middle" x="642" y="-206.6" font-family="Times,serif" font-size="14.00">HealthCheckModule</text>
</g>
<!-- HealthCheckModule&#45;&gt;AppModule -->
<g id="edge5" class="edge">
<title>HealthCheckModule&#45;&gt;AppModule</title>
<path fill="none" stroke="black" d="M642,-229.02C642,-249.17 642,-278.8 642,-278.8 642,-278.8 512.98,-278.8 512.98,-278.8"/>
<polygon fill="black" stroke="black" points="512.98,-275.3 502.98,-278.8 512.98,-282.3 512.98,-275.3"/>
</g>
<!-- UserModule&#45;&gt;AppModule -->
<g id="edge6" class="edge">
<title>UserModule&#45;&gt;AppModule</title>
<path fill="none" stroke="black" d="M435.58,-229.02C435.58,-229.02 435.58,-250.53 435.58,-250.53"/>
<polygon fill="black" stroke="black" points="432.08,-250.53 435.58,-260.53 439.08,-250.53 432.08,-250.53"/>
</g>
<!-- AppTestE2eModule -->
<g id="node9" class="node">
<title>AppTestE2eModule</title>
<polygon fill="#8dd3c7" stroke="black" points="884.53,-361.8 881.53,-365.8 860.53,-365.8 857.53,-361.8 755.47,-361.8 755.47,-325.8 884.53,-325.8 884.53,-361.8"/>
<text text-anchor="middle" x="820" y="-339.6" font-family="Times,serif" font-size="14.00">AppTestE2eModule</text>
</g>
<!-- AppModule&#45;&gt;AppTestE2eModule -->
<g id="edge9" class="edge">
<title>AppModule&#45;&gt;AppTestE2eModule</title>
<path fill="none" stroke="black" d="M461,-296.91C461,-316.14 461,-343.8 461,-343.8 461,-343.8 745.4,-343.8 745.4,-343.8"/>
<polygon fill="black" stroke="black" points="745.4,-347.3 755.4,-343.8 745.4,-340.3 745.4,-347.3"/>
</g>
<!-- AppService -->
<g id="node8" class="node">
<title>AppService</title>
<ellipse fill="#fdb462" stroke="black" cx="117" cy="-210.8" rx="56.75" ry="18"/>
<text text-anchor="middle" x="117" y="-206.6" font-family="Times,serif" font-size="14.00">AppService</text>
</g>
<!-- AppService&#45;&gt;AppModule -->
<g id="edge8" class="edge">
<title>AppService&#45;&gt;AppModule</title>
<path fill="none" stroke="black" d="M117,-228.97C117,-250.3 117,-282.8 117,-282.8 117,-282.8 409.16,-282.8 409.16,-282.8"/>
<polygon fill="black" stroke="black" points="409.16,-286.3 419.16,-282.8 409.16,-279.3 409.16,-286.3"/>
</g>
<!-- AppTestE2eService -->
<g id="node10" class="node">
<title>AppTestE2eService</title>
<ellipse fill="#fdb462" stroke="black" cx="836" cy="-278.8" rx="88.03" ry="18"/>
<text text-anchor="middle" x="836" y="-274.6" font-family="Times,serif" font-size="14.00">AppTestE2eService</text>
</g>
<!-- AppTestE2eService&#45;&gt;AppTestE2eModule -->
<g id="edge10" class="edge">
<title>AppTestE2eService&#45;&gt;AppTestE2eModule</title>
<path fill="none" stroke="black" d="M820,-296.56C820,-296.56 820,-315.61 820,-315.61"/>
<polygon fill="black" stroke="black" points="816.5,-315.61 820,-325.61 823.5,-315.61 816.5,-315.61"/>
</g>
<!-- AuthService -->
<g id="node12" class="node">
<title>AuthService</title>
<ellipse fill="#fdb462" stroke="black" cx="934" cy="-134.8" rx="59.11" ry="18"/>
<text text-anchor="middle" x="934" y="-130.6" font-family="Times,serif" font-size="14.00">AuthService</text>
</g>
<!-- AuthService&#45;&gt;AuthModule -->
<g id="edge14" class="edge">
<title>AuthService&#45;&gt;AuthModule</title>
<path fill="none" stroke="black" d="M899.48,-149.44C899.48,-159.41 899.48,-170.8 899.48,-170.8 899.48,-170.8 546.69,-170.8 546.69,-170.8 546.69,-170.8 546.69,-182.67 546.69,-182.67"/>
<polygon fill="black" stroke="black" points="543.19,-182.67 546.69,-192.67 550.19,-182.67 543.19,-182.67"/>
</g>
<!-- JwtRefreshTokenStrategy -->
<g id="node13" class="node">
<title>JwtRefreshTokenStrategy</title>
<ellipse fill="#fdb462" stroke="black" cx="745" cy="-134.8" rx="111.17" ry="18"/>
<text text-anchor="middle" x="745" y="-130.6" font-family="Times,serif" font-size="14.00">JwtRefreshTokenStrategy</text>
</g>
<!-- JwtRefreshTokenStrategy&#45;&gt;AuthModule -->
<g id="edge15" class="edge">
<title>JwtRefreshTokenStrategy&#45;&gt;AuthModule</title>
<path fill="none" stroke="black" d="M670.99,-148.56C670.99,-157.23 670.99,-166.8 670.99,-166.8 670.99,-166.8 535.61,-166.8 535.61,-166.8 535.61,-166.8 535.61,-182.65 535.61,-182.65"/>
<polygon fill="black" stroke="black" points="532.11,-182.65 535.61,-192.65 539.11,-182.65 532.11,-182.65"/>
</g>
<!-- JwtStrategy -->
<g id="node14" class="node">
<title>JwtStrategy</title>
<ellipse fill="#fdb462" stroke="black" cx="559" cy="-134.8" rx="56.77" ry="18"/>
<text text-anchor="middle" x="559" y="-130.6" font-family="Times,serif" font-size="14.00">JwtStrategy</text>
</g>
<!-- JwtStrategy&#45;&gt;AuthModule -->
<g id="edge16" class="edge">
<title>JwtStrategy&#45;&gt;AuthModule</title>
<path fill="none" stroke="black" d="M513.45,-145.69C513.45,-145.69 513.45,-182.59 513.45,-182.59"/>
<polygon fill="black" stroke="black" points="509.95,-182.59 513.45,-192.59 516.95,-182.59 509.95,-182.59"/>
</g>
<!-- LocalStrategy -->
<g id="node15" class="node">
<title>LocalStrategy</title>
<ellipse fill="#fdb462" stroke="black" cx="419" cy="-134.8" rx="65.4" ry="18"/>
<text text-anchor="middle" x="419" y="-130.6" font-family="Times,serif" font-size="14.00">LocalStrategy</text>
</g>
<!-- LocalStrategy&#45;&gt;AuthModule -->
<g id="edge17" class="edge">
<title>LocalStrategy&#45;&gt;AuthModule</title>
<path fill="none" stroke="black" d="M480.71,-140.76C480.71,-140.76 480.71,-182.73 480.71,-182.73"/>
<polygon fill="black" stroke="black" points="477.21,-182.73 480.71,-192.73 484.21,-182.73 477.21,-182.73"/>
</g>
<!-- UserService -->
<g id="node16" class="node">
<title>UserService</title>
<ellipse fill="#fdb462" stroke="black" cx="278" cy="-134.8" rx="58.46" ry="18"/>
<text text-anchor="middle" x="278" y="-130.6" font-family="Times,serif" font-size="14.00">UserService</text>
</g>
<!-- UserService&#45;&gt;AuthModule -->
<g id="edge18" class="edge">
<title>UserService&#45;&gt;AuthModule</title>
<path fill="none" stroke="black" d="M297.41,-152C297.41,-155.32 297.41,-157.8 297.41,-157.8 297.41,-157.8 477.21,-157.8 477.21,-157.8 477.21,-157.8 477.21,-182.56 477.21,-182.56"/>
<polygon fill="black" stroke="black" points="473.71,-182.56 477.21,-192.56 480.71,-182.56 473.71,-182.56"/>
</g>
<!-- UserService&#45;&gt;UserModule -->
<g id="edge22" class="edge">
<title>UserService&#45;&gt;UserModule</title>
<path fill="none" stroke="black" d="M258.59,-151.81C258.59,-164.56 258.59,-179.8 258.59,-179.8 258.59,-179.8 430.5,-179.8 430.5,-179.8 430.5,-179.8 430.5,-182.77 430.5,-182.77"/>
<polygon fill="black" stroke="black" points="427,-182.77 430.5,-192.77 434,-182.77 427,-182.77"/>
</g>
<!-- CustomHealthCheckService -->
<g id="node17" class="node">
<title>CustomHealthCheckService</title>
<ellipse fill="#fdb462" stroke="black" cx="1267" cy="-134.8" rx="120.41" ry="18"/>
<text text-anchor="middle" x="1267" y="-130.6" font-family="Times,serif" font-size="14.00">CustomHealthCheckService</text>
</g>
<!-- CustomHealthCheckService&#45;&gt;HealthCheckModule -->
<g id="edge19" class="edge">
<title>CustomHealthCheckService&#45;&gt;HealthCheckModule</title>
<path fill="none" stroke="black" d="M1267,-152.81C1267,-175.29 1267,-210.8 1267,-210.8 1267,-210.8 718.29,-210.8 718.29,-210.8"/>
<polygon fill="black" stroke="black" points="718.29,-207.3 708.29,-210.8 718.29,-214.3 718.29,-207.3"/>
</g>
</g>
</svg>
