<?xml version="1.0" encoding="UTF-8" standalone="no"?>
<!DOCTYPE svg PUBLIC "-//W3C//DTD SVG 1.1//EN"
 "http://www.w3.org/Graphics/SVG/1.1/DTD/svg11.dtd">
<!-- Generated by graphviz version 5.0.0 (20220707.1540)
 -->
<!-- Title: dependencies Pages: 1 -->
<svg width="2018pt" height="454pt"
 viewBox="0.00 0.00 2018.00 453.80" xmlns="http://www.w3.org/2000/svg" xmlns:xlink="http://www.w3.org/1999/xlink">
<g id="graph0" class="graph" transform="scale(1 1) rotate(0) translate(4 449.8)">
<title>dependencies</title>
<polygon fill="white" stroke="transparent" points="-4,4 -4,-449.8 2014,-449.8 2014,4 -4,4"/>
<text text-anchor="middle" x="1005" y="-8.2" font-family="sans-serif" font-size="14.00">dependencies</text>
<g id="clust1" class="cluster">
<title>cluster_ApiLandingPageModule</title>
<polygon fill="none" stroke="black" stroke-dasharray="1,5" points="194,-32.8 194,-304.8 729,-304.8 729,-32.8 194,-32.8"/>
</g>
<g id="clust3" class="cluster">
<title>cluster_ApiLandingPageModule_imports</title>
<polygon fill="none" stroke="black" points="445,-108.8 445,-228.8 583,-228.8 583,-108.8 445,-108.8"/>
</g>
<g id="clust6" class="cluster">
<title>cluster_ApiLandingPageModule_providers</title>
<polygon fill="none" stroke="black" points="202,-40.8 202,-92.8 721,-92.8 721,-40.8 202,-40.8"/>
</g>
<g id="clust13" class="cluster">
<title>cluster_ApiMailModule</title>
<polygon fill="none" stroke="black" stroke-dasharray="1,5" points="8,-168.8 8,-304.8 186,-304.8 186,-168.8 8,-168.8"/>
</g>
<g id="clust18" class="cluster">
<title>cluster_ApiMailModule_providers</title>
<polygon fill="none" stroke="black" points="16,-176.8 16,-228.8 178,-228.8 178,-176.8 16,-176.8"/>
</g>
<g id="clust19" class="cluster">
<title>cluster_AppModule</title>
<polygon fill="none" stroke="black" stroke-dasharray="1,5" points="737,-244.8 737,-372.8 1314,-372.8 1314,-244.8 737,-244.8"/>
</g>
<g id="clust21" class="cluster">
<title>cluster_AppModule_imports</title>
<polygon fill="none" stroke="black" points="883,-252.8 883,-304.8 1306,-304.8 1306,-252.8 883,-252.8"/>
</g>
<g id="clust24" class="cluster">
<title>cluster_AppModule_providers</title>
<polygon fill="none" stroke="black" points="745,-252.8 745,-304.8 875,-304.8 875,-252.8 745,-252.8"/>
</g>
<g id="clust25" class="cluster">
<title>cluster_AppTestE2eModule</title>
<polygon fill="none" stroke="black" stroke-dasharray="1,5" points="521,-312.8 521,-437.8 729,-437.8 729,-312.8 521,-312.8"/>
</g>
<g id="clust30" class="cluster">
<title>cluster_AppTestE2eModule_providers</title>
<polygon fill="none" stroke="black" points="529,-320.8 529,-372.8 721,-372.8 721,-320.8 529,-320.8"/>
</g>
<g id="clust31" class="cluster">
<title>cluster_AuthModule</title>
<polygon fill="none" stroke="black" stroke-dasharray="1,5" points="1217,-168.8 1217,-236.8 2002,-236.8 2002,-168.8 1217,-168.8"/>
</g>
<g id="clust34" class="cluster">
<title>cluster_AuthModule_exports</title>
<polygon fill="none" stroke="black" points="1888,-176.8 1888,-228.8 1994,-228.8 1994,-176.8 1888,-176.8"/>
</g>
<g id="clust36" class="cluster">
<title>cluster_AuthModule_providers</title>
<polygon fill="none" stroke="black" points="1225,-176.8 1225,-228.8 1880,-228.8 1880,-176.8 1225,-176.8"/>
</g>
<g id="clust43" class="cluster">
<title>cluster_HealthCheckModule</title>
<polygon fill="none" stroke="black" stroke-dasharray="1,5" points="737,-168.8 737,-236.8 1009,-236.8 1009,-168.8 737,-168.8"/>
</g>
<g id="clust48" class="cluster">
<title>cluster_HealthCheckModule_providers</title>
<polygon fill="none" stroke="black" points="745,-176.8 745,-228.8 1001,-228.8 1001,-176.8 745,-176.8"/>
</g>
<g id="clust49" class="cluster">
<title>cluster_ProfileModule</title>
<polygon fill="none" stroke="black" stroke-dasharray="1,5" points="1045,-100.8 1045,-228.8 1209,-228.8 1209,-100.8 1045,-100.8"/>
</g>
<g id="clust54" class="cluster">
<title>cluster_ProfileModule_providers</title>
<polygon fill="none" stroke="black" points="1053,-108.8 1053,-160.8 1201,-160.8 1201,-108.8 1053,-108.8"/>
</g>
<!-- ApiLogModule -->
<g id="node1" class="node">
<title>ApiLogModule</title>
<polygon fill="#8dd3c7" stroke="black" points="556.6,-152.8 553.6,-156.8 532.6,-156.8 529.6,-152.8 453.4,-152.8 453.4,-116.8 556.6,-116.8 556.6,-152.8"/>
<text text-anchor="middle" x="505" y="-130.6" font-family="Times,serif" font-size="14.00">ApiLogModule</text>
</g>
<!-- ApiLogModule&#45;&gt;ApiLogModule -->
<g id="edge6" class="edge">
<title>ApiLogModule&#45;&gt;ApiLogModule</title>
<path fill="none" stroke="black" d="M487.37,-116.59C487.37,-111.25 487.37,-106.8 487.37,-106.8 487.37,-106.8 562.02,-106.8 562.02,-106.8 562.02,-106.8 562.02,-168.8 562.02,-168.8 562.02,-168.8 552.16,-168.8 552.16,-168.8 552.16,-168.8 552.16,-162.99 552.16,-162.99"/>
<polygon fill="black" stroke="black" points="555.66,-162.99 552.16,-152.99 548.66,-162.99 555.66,-162.99"/>
</g>
<!-- UserModule -->
<g id="node2" class="node">
<title>UserModule</title>
<polygon fill="#8dd3c7" stroke="black" points="538.99,-220.8 535.99,-224.8 514.99,-224.8 511.99,-220.8 453.01,-220.8 453.01,-184.8 538.99,-184.8 538.99,-220.8"/>
<text text-anchor="middle" x="496" y="-198.6" font-family="Times,serif" font-size="14.00">UserModule</text>
</g>
<!-- ApiLogModule&#45;&gt;UserModule -->
<g id="edge36" class="edge">
<title>ApiLogModule&#45;&gt;UserModule</title>
<path fill="none" stroke="black" d="M496.22,-153.02C496.22,-153.02 496.22,-174.53 496.22,-174.53"/>
<polygon fill="black" stroke="black" points="492.72,-174.53 496.22,-184.53 499.72,-174.53 492.72,-174.53"/>
</g>
<!-- ApiLandingPageModule -->
<g id="node3" class="node">
<title>ApiLandingPageModule</title>
<polygon fill="#8dd3c7" stroke="black" points="577.42,-296.8 574.42,-300.8 553.42,-300.8 550.42,-296.8 422.58,-296.8 422.58,-260.8 577.42,-260.8 577.42,-296.8"/>
<text text-anchor="middle" x="500" y="-274.6" font-family="Times,serif" font-size="14.00">ApiLandingPageModule</text>
</g>
<!-- ApiLogModule&#45;&gt;ApiLandingPageModule -->
<g id="edge1" class="edge">
<title>ApiLogModule&#45;&gt;ApiLandingPageModule</title>
<path fill="none" stroke="black" d="M543.38,-153.04C543.38,-153.04 543.38,-250.71 543.38,-250.71"/>
<polygon fill="black" stroke="black" points="539.88,-250.71 543.38,-260.71 546.88,-250.71 539.88,-250.71"/>
</g>
<!-- ApiMailModule -->
<g id="node7" class="node">
<title>ApiMailModule</title>
<polygon fill="#8dd3c7" stroke="black" points="164.49,-296.8 161.49,-300.8 140.49,-300.8 137.49,-296.8 57.51,-296.8 57.51,-260.8 164.49,-260.8 164.49,-296.8"/>
<text text-anchor="middle" x="111" y="-274.6" font-family="Times,serif" font-size="14.00">ApiMailModule</text>
</g>
<!-- ApiLogModule&#45;&gt;ApiMailModule -->
<g id="edge8" class="edge">
<title>ApiLogModule&#45;&gt;ApiMailModule</title>
<path fill="none" stroke="black" d="M453.27,-134.8C362.24,-134.8 183,-134.8 183,-134.8 183,-134.8 183,-272.8 183,-272.8 183,-272.8 174.83,-272.8 174.83,-272.8"/>
<polygon fill="black" stroke="black" points="174.83,-269.3 164.83,-272.8 174.83,-276.3 174.83,-269.3"/>
</g>
<!-- AuthModule -->
<g id="node9" class="node">
<title>AuthModule</title>
<polygon fill="#8dd3c7" stroke="black" points="1297.55,-296.8 1294.55,-300.8 1273.55,-300.8 1270.55,-296.8 1210.45,-296.8 1210.45,-260.8 1297.55,-260.8 1297.55,-296.8"/>
<text text-anchor="middle" x="1254" y="-274.6" font-family="Times,serif" font-size="14.00">AuthModule</text>
</g>
<!-- ApiLogModule&#45;&gt;AuthModule -->
<g id="edge24" class="edge">
<title>ApiLogModule&#45;&gt;AuthModule</title>
<path fill="none" stroke="black" d="M547.77,-152.86C547.77,-180.67 547.77,-230.8 547.77,-230.8 547.77,-230.8 1215.84,-230.8 1215.84,-230.8 1215.84,-230.8 1215.84,-250.65 1215.84,-250.65"/>
<polygon fill="black" stroke="black" points="1212.34,-250.65 1215.84,-260.65 1219.34,-250.65 1212.34,-250.65"/>
</g>
<!-- AppModule -->
<g id="node12" class="node">
<title>AppModule</title>
<polygon fill="#8dd3c7" stroke="black" points="839.66,-364.8 836.66,-368.8 815.66,-368.8 812.66,-364.8 756.34,-364.8 756.34,-328.8 839.66,-328.8 839.66,-364.8"/>
<text text-anchor="middle" x="798" y="-342.6" font-family="Times,serif" font-size="14.00">AppModule</text>
</g>
<!-- ApiLogModule&#45;&gt;AppModule -->
<g id="edge14" class="edge">
<title>ApiLogModule&#45;&gt;AppModule</title>
<path fill="none" stroke="black" d="M556.74,-143.8C625.07,-143.8 736.83,-143.8 736.83,-143.8 736.83,-143.8 736.83,-343.8 736.83,-343.8 736.83,-343.8 746.19,-343.8 746.19,-343.8"/>
<polygon fill="black" stroke="black" points="746.19,-347.3 756.19,-343.8 746.19,-340.3 746.19,-347.3"/>
</g>
<!-- ProfileModule -->
<g id="node22" class="node">
<title>ProfileModule</title>
<polygon fill="#8dd3c7" stroke="black" points="1152.66,-220.8 1149.66,-224.8 1128.66,-224.8 1125.66,-220.8 1055.34,-220.8 1055.34,-184.8 1152.66,-184.8 1152.66,-220.8"/>
<text text-anchor="middle" x="1104" y="-198.6" font-family="Times,serif" font-size="14.00">ProfileModule</text>
</g>
<!-- ApiLogModule&#45;&gt;ProfileModule -->
<g id="edge33" class="edge">
<title>ApiLogModule&#45;&gt;ProfileModule</title>
<path fill="none" stroke="black" d="M556.93,-134.8C684.58,-134.8 1003.41,-134.8 1003.41,-134.8 1003.41,-134.8 1003.41,-208.8 1003.41,-208.8 1003.41,-208.8 1045.18,-208.8 1045.18,-208.8"/>
<polygon fill="black" stroke="black" points="1045.18,-212.3 1055.18,-208.8 1045.18,-205.3 1045.18,-212.3"/>
</g>
<!-- UserModule&#45;&gt;ApiLandingPageModule -->
<g id="edge2" class="edge">
<title>UserModule&#45;&gt;ApiLandingPageModule</title>
<path fill="none" stroke="black" d="M496,-220.81C496,-220.81 496,-250.65 496,-250.65"/>
<polygon fill="black" stroke="black" points="492.5,-250.65 496,-260.65 499.5,-250.65 492.5,-250.65"/>
</g>
<!-- UserModule&#45;&gt;ApiMailModule -->
<g id="edge9" class="edge">
<title>UserModule&#45;&gt;ApiMailModule</title>
<path fill="none" stroke="black" d="M452.74,-196.8C369.74,-196.8 196.28,-196.8 196.28,-196.8 196.28,-196.8 196.28,-284.8 196.28,-284.8 196.28,-284.8 174.53,-284.8 174.53,-284.8"/>
<polygon fill="black" stroke="black" points="174.53,-281.3 164.53,-284.8 174.53,-288.3 174.53,-281.3"/>
</g>
<!-- UserModule&#45;&gt;AppModule -->
<g id="edge19" class="edge">
<title>UserModule&#45;&gt;AppModule</title>
<path fill="none" stroke="black" d="M539,-208.8C606.32,-208.8 728.98,-208.8 728.98,-208.8 728.98,-208.8 728.98,-350.8 728.98,-350.8 728.98,-350.8 746.26,-350.8 746.26,-350.8"/>
<polygon fill="black" stroke="black" points="746.26,-354.3 756.26,-350.8 746.26,-347.3 746.26,-354.3"/>
</g>
<!-- ApiLandingPageModule&#45;&gt;AppModule -->
<g id="edge13" class="edge">
<title>ApiLandingPageModule&#45;&gt;AppModule</title>
<path fill="none" stroke="black" d="M577.34,-278.8C641.1,-278.8 721.12,-278.8 721.12,-278.8 721.12,-278.8 721.12,-357.8 721.12,-357.8 721.12,-357.8 745.96,-357.8 745.96,-357.8"/>
<polygon fill="black" stroke="black" points="745.96,-361.3 755.96,-357.8 745.96,-354.3 745.96,-361.3"/>
</g>
<!-- ApiLandingPageService -->
<g id="node4" class="node">
<title>ApiLandingPageService</title>
<ellipse fill="#fdb462" stroke="black" cx="315" cy="-66.8" rx="105.36" ry="18"/>
<text text-anchor="middle" x="315" y="-62.6" font-family="Times,serif" font-size="14.00">ApiLandingPageService</text>
</g>
<!-- ApiLandingPageService&#45;&gt;ApiLandingPageModule -->
<g id="edge3" class="edge">
<title>ApiLandingPageService&#45;&gt;ApiLandingPageModule</title>
<path fill="none" stroke="black" d="M420.51,-66.8C426.88,-66.8 430.78,-66.8 430.78,-66.8 430.78,-66.8 430.78,-250.72 430.78,-250.72"/>
<polygon fill="black" stroke="black" points="427.28,-250.72 430.78,-260.72 434.28,-250.73 427.28,-250.72"/>
</g>
<!-- ApiLogService -->
<g id="node5" class="node">
<title>ApiLogService</title>
<ellipse fill="#fdb462" stroke="black" cx="643" cy="-66.8" rx="70.07" ry="18"/>
<text text-anchor="middle" x="643" y="-62.6" font-family="Times,serif" font-size="14.00">ApiLogService</text>
</g>
<!-- ApiLogService&#45;&gt;ApiLogModule -->
<g id="edge7" class="edge">
<title>ApiLogService&#45;&gt;ApiLogModule</title>
<path fill="none" stroke="black" d="M611.17,-82.92C611.17,-100.39 611.17,-125.8 611.17,-125.8 611.17,-125.8 566.84,-125.8 566.84,-125.8"/>
<polygon fill="black" stroke="black" points="566.84,-122.3 556.84,-125.8 566.84,-129.3 566.84,-122.3"/>
</g>
<!-- ApiLogService&#45;&gt;UserModule -->
<g id="edge37" class="edge">
<title>ApiLogService&#45;&gt;UserModule</title>
<path fill="none" stroke="black" d="M645.12,-84.88C645.12,-120.6 645.12,-196.8 645.12,-196.8 645.12,-196.8 549.13,-196.8 549.13,-196.8"/>
<polygon fill="black" stroke="black" points="549.13,-193.3 539.13,-196.8 549.13,-200.3 549.13,-193.3"/>
</g>
<!-- ApiLogService&#45;&gt;ApiLandingPageModule -->
<g id="edge4" class="edge">
<title>ApiLogService&#45;&gt;ApiLandingPageModule</title>
<path fill="none" stroke="black" d="M572.92,-66.8C569.53,-66.8 567.49,-66.8 567.49,-66.8 567.49,-66.8 567.49,-250.72 567.49,-250.72"/>
<polygon fill="black" stroke="black" points="563.99,-250.72 567.49,-260.72 570.99,-250.73 563.99,-250.72"/>
</g>
<!-- ApiLogService&#45;&gt;ApiMailModule -->
<g id="edge10" class="edge">
<title>ApiLogService&#45;&gt;ApiMailModule</title>
<path fill="none" stroke="black" d="M679.08,-82.49C679.08,-126.98 679.08,-250.8 679.08,-250.8 679.08,-250.8 137.75,-250.8 137.75,-250.8 137.75,-250.8 137.75,-251.78 137.75,-251.78"/>
<polygon fill="black" stroke="black" points="134.25,-250.59 137.75,-260.59 141.25,-250.59 134.25,-250.59"/>
</g>
<!-- ApiLogService&#45;&gt;AuthModule -->
<g id="edge26" class="edge">
<title>ApiLogService&#45;&gt;AuthModule</title>
<path fill="none" stroke="black" d="M703.85,-57.8C853.45,-57.8 1227.08,-57.8 1227.08,-57.8 1227.08,-57.8 1227.08,-250.71 1227.08,-250.71"/>
<polygon fill="black" stroke="black" points="1223.58,-250.71 1227.08,-260.71 1230.58,-250.71 1223.58,-250.71"/>
</g>
<!-- ApiLogService&#45;&gt;AppModule -->
<g id="edge20" class="edge">
<title>ApiLogService&#45;&gt;AppModule</title>
<path fill="none" stroke="black" d="M703.91,-75.8C725.57,-75.8 744.69,-75.8 744.69,-75.8 744.69,-75.8 744.69,-336.8 744.69,-336.8 744.69,-336.8 746.26,-336.8 746.26,-336.8"/>
<polygon fill="black" stroke="black" points="746.26,-340.3 756.26,-336.8 746.26,-333.3 746.26,-340.3"/>
</g>
<!-- ApiLogService&#45;&gt;ProfileModule -->
<g id="edge34" class="edge">
<title>ApiLogService&#45;&gt;ProfileModule</title>
<path fill="none" stroke="black" d="M713.1,-66.8C820.47,-66.8 1013.36,-66.8 1013.36,-66.8 1013.36,-66.8 1013.36,-196.8 1013.36,-196.8 1013.36,-196.8 1045.23,-196.8 1045.23,-196.8"/>
<polygon fill="black" stroke="black" points="1045.23,-200.3 1055.23,-196.8 1045.23,-193.3 1045.23,-200.3"/>
</g>
<!-- UserService -->
<g id="node6" class="node">
<title>UserService</title>
<ellipse fill="#fdb462" stroke="black" cx="497" cy="-66.8" rx="58.46" ry="18"/>
<text text-anchor="middle" x="497" y="-62.6" font-family="Times,serif" font-size="14.00">UserService</text>
</g>
<!-- UserService&#45;&gt;UserModule -->
<g id="edge38" class="edge">
<title>UserService&#45;&gt;UserModule</title>
<path fill="none" stroke="black" d="M449.45,-77.47C449.45,-110.5 449.45,-208.8 449.45,-208.8 449.45,-208.8 449.78,-208.8 449.78,-208.8"/>
<polygon fill="black" stroke="black" points="442.8,-212.3 452.8,-208.8 442.8,-205.3 442.8,-212.3"/>
</g>
<!-- UserService&#45;&gt;ApiLandingPageModule -->
<g id="edge5" class="edge">
<title>UserService&#45;&gt;ApiLandingPageModule</title>
<path fill="none" stroke="black" d="M445.89,-75.64C445.89,-75.64 445.89,-250.7 445.89,-250.7"/>
<polygon fill="black" stroke="black" points="442.39,-250.7 445.89,-260.7 449.39,-250.7 442.39,-250.7"/>
</g>
<!-- UserService&#45;&gt;ApiMailModule -->
<g id="edge12" class="edge">
<title>UserService&#45;&gt;ApiMailModule</title>
<path fill="none" stroke="black" d="M442.33,-73.41C442.33,-105.19 442.33,-240.8 442.33,-240.8 442.33,-240.8 111,-240.8 111,-240.8 111,-240.8 111,-250.69 111,-250.69"/>
<polygon fill="black" stroke="black" points="107.5,-250.69 111,-260.69 114.5,-250.69 107.5,-250.69"/>
</g>
<!-- UserService&#45;&gt;AuthModule -->
<g id="edge31" class="edge">
<title>UserService&#45;&gt;AuthModule</title>
<path fill="none" stroke="black" d="M521.3,-83.33C521.3,-89.85 521.3,-95.8 521.3,-95.8 521.3,-95.8 1221.46,-95.8 1221.46,-95.8 1221.46,-95.8 1221.46,-250.58 1221.46,-250.58"/>
<polygon fill="black" stroke="black" points="1217.96,-250.58 1221.46,-260.58 1224.96,-250.58 1217.96,-250.58"/>
</g>
<!-- ApiMailModule&#45;&gt;AppModule -->
<g id="edge15" class="edge">
<title>ApiMailModule&#45;&gt;AppModule</title>
<path fill="none" stroke="black" d="M111,-296.99C111,-305.08 111,-312.8 111,-312.8 111,-312.8 784.06,-312.8 784.06,-312.8 784.06,-312.8 784.06,-318.61 784.06,-318.61"/>
<polygon fill="black" stroke="black" points="780.56,-318.61 784.06,-328.61 787.56,-318.61 780.56,-318.61"/>
</g>
<!-- ApiMailService -->
<g id="node8" class="node">
<title>ApiMailService</title>
<ellipse fill="#fdb462" stroke="black" cx="97" cy="-202.8" rx="72.94" ry="18"/>
<text text-anchor="middle" x="97" y="-198.6" font-family="Times,serif" font-size="14.00">ApiMailService</text>
</g>
<!-- ApiMailService&#45;&gt;ApiMailModule -->
<g id="edge11" class="edge">
<title>ApiMailService&#45;&gt;ApiMailModule</title>
<path fill="none" stroke="black" d="M84.25,-220.81C84.25,-220.81 84.25,-250.65 84.25,-250.65"/>
<polygon fill="black" stroke="black" points="80.75,-250.65 84.25,-260.65 87.75,-250.65 80.75,-250.65"/>
</g>
<!-- AuthModule&#45;&gt;AppModule -->
<g id="edge16" class="edge">
<title>AuthModule&#45;&gt;AppModule</title>
<path fill="none" stroke="black" d="M1254,-297.05C1254,-319.82 1254,-355.8 1254,-355.8 1254,-355.8 849.68,-355.8 849.68,-355.8"/>
<polygon fill="black" stroke="black" points="849.68,-352.3 839.68,-355.8 849.68,-359.3 849.68,-352.3"/>
</g>
<!-- AuthService  -->
<g id="node16" class="node">
<title>AuthService </title>
<polygon fill="#fb8072" stroke="black" points="1985.98,-220.8 1896.02,-220.8 1896.02,-184.8 1985.98,-184.8 1985.98,-220.8"/>
<text text-anchor="middle" x="1941" y="-198.6" font-family="Times,serif" font-size="14.00">AuthService </text>
</g>
<!-- AuthModule&#45;&gt;AuthService  -->
<g id="edge25" class="edge">
<title>AuthModule&#45;&gt;AuthService </title>
<path fill="none" stroke="black" stroke-dasharray="5,2" d="M1297.76,-289.8C1449.08,-289.8 1941,-289.8 1941,-289.8 1941,-289.8 1941,-230.83 1941,-230.83"/>
<polygon fill="black" stroke="black" points="1944.5,-230.83 1941,-220.83 1937.5,-230.83 1944.5,-230.83"/>
</g>
<!-- EntitiesToMoveModule -->
<g id="node10" class="node">
<title>EntitiesToMoveModule</title>
<polygon fill="#8dd3c7" stroke="black" points="1192.04,-296.8 1189.04,-300.8 1168.04,-300.8 1165.04,-296.8 1041.96,-296.8 1041.96,-260.8 1192.04,-260.8 1192.04,-296.8"/>
<text text-anchor="middle" x="1117" y="-274.6" font-family="Times,serif" font-size="14.00">EntitiesToMoveModule</text>
</g>
<!-- EntitiesToMoveModule&#45;&gt;AppModule -->
<g id="edge17" class="edge">
<title>EntitiesToMoveModule&#45;&gt;AppModule</title>
<path fill="none" stroke="black" d="M1117,-297.02C1117,-317.17 1117,-346.8 1117,-346.8 1117,-346.8 849.7,-346.8 849.7,-346.8"/>
<polygon fill="black" stroke="black" points="849.7,-343.3 839.7,-346.8 849.7,-350.3 849.7,-343.3"/>
</g>
<!-- HealthCheckModule -->
<g id="node11" class="node">
<title>HealthCheckModule</title>
<polygon fill="#8dd3c7" stroke="black" points="1023.14,-296.8 1020.14,-300.8 999.14,-300.8 996.14,-296.8 890.86,-296.8 890.86,-260.8 1023.14,-260.8 1023.14,-296.8"/>
<text text-anchor="middle" x="957" y="-274.6" font-family="Times,serif" font-size="14.00">HealthCheckModule</text>
</g>
<!-- HealthCheckModule&#45;&gt;AppModule -->
<g id="edge18" class="edge">
<title>HealthCheckModule&#45;&gt;AppModule</title>
<path fill="none" stroke="black" d="M957,-296.82C957,-314.17 957,-337.8 957,-337.8 957,-337.8 849.78,-337.8 849.78,-337.8"/>
<polygon fill="black" stroke="black" points="849.78,-334.3 839.78,-337.8 849.78,-341.3 849.78,-334.3"/>
</g>
<!-- AppTestE2eModule -->
<g id="node14" class="node">
<title>AppTestE2eModule</title>
<polygon fill="#8dd3c7" stroke="black" points="704.53,-429.8 701.53,-433.8 680.53,-433.8 677.53,-429.8 575.47,-429.8 575.47,-393.8 704.53,-393.8 704.53,-429.8"/>
<text text-anchor="middle" x="640" y="-407.6" font-family="Times,serif" font-size="14.00">AppTestE2eModule</text>
</g>
<!-- AppModule&#45;&gt;AppTestE2eModule -->
<g id="edge22" class="edge">
<title>AppModule&#45;&gt;AppTestE2eModule</title>
<path fill="none" stroke="black" d="M798,-364.91C798,-384.14 798,-411.8 798,-411.8 798,-411.8 714.72,-411.8 714.72,-411.8"/>
<polygon fill="black" stroke="black" points="714.72,-408.3 704.72,-411.8 714.72,-415.3 714.72,-408.3"/>
</g>
<!-- AppService -->
<g id="node13" class="node">
<title>AppService</title>
<ellipse fill="#fdb462" stroke="black" cx="810" cy="-278.8" rx="56.75" ry="18"/>
<text text-anchor="middle" x="810" y="-274.6" font-family="Times,serif" font-size="14.00">AppService</text>
</g>
<!-- AppService&#45;&gt;AppModule -->
<g id="edge21" class="edge">
<title>AppService&#45;&gt;AppModule</title>
<path fill="none" stroke="black" d="M811.94,-297.02C811.94,-297.02 811.94,-318.53 811.94,-318.53"/>
<polygon fill="black" stroke="black" points="808.44,-318.53 811.94,-328.53 815.44,-318.53 808.44,-318.53"/>
</g>
<!-- AppTestE2eService -->
<g id="node15" class="node">
<title>AppTestE2eService</title>
<ellipse fill="#fdb462" stroke="black" cx="625" cy="-346.8" rx="88.03" ry="18"/>
<text text-anchor="middle" x="625" y="-342.6" font-family="Times,serif" font-size="14.00">AppTestE2eService</text>
</g>
<!-- AppTestE2eService&#45;&gt;AppTestE2eModule -->
<g id="edge23" class="edge">
<title>AppTestE2eService&#45;&gt;AppTestE2eModule</title>
<path fill="none" stroke="black" d="M640,-364.56C640,-364.56 640,-383.61 640,-383.61"/>
<polygon fill="black" stroke="black" points="636.5,-383.61 640,-393.61 643.5,-383.61 636.5,-383.61"/>
</g>
<!-- AuthService -->
<g id="node17" class="node">
<title>AuthService</title>
<ellipse fill="#fdb462" stroke="black" cx="1292" cy="-202.8" rx="59.11" ry="18"/>
<text text-anchor="middle" x="1292" y="-198.6" font-family="Times,serif" font-size="14.00">AuthService</text>
</g>
<!-- AuthService&#45;&gt;AuthModule -->
<g id="edge27" class="edge">
<title>AuthService&#45;&gt;AuthModule</title>
<path fill="none" stroke="black" d="M1265.23,-218.92C1265.23,-218.92 1265.23,-250.57 1265.23,-250.57"/>
<polygon fill="black" stroke="black" points="1261.73,-250.57 1265.23,-260.57 1268.73,-250.57 1261.73,-250.57"/>
</g>
<!-- JwtRefreshTokenStrategy -->
<g id="node18" class="node">
<title>JwtRefreshTokenStrategy</title>
<ellipse fill="#fdb462" stroke="black" cx="1761" cy="-202.8" rx="111.17" ry="18"/>
<text text-anchor="middle" x="1761" y="-198.6" font-family="Times,serif" font-size="14.00">JwtRefreshTokenStrategy</text>
</g>
<!-- JwtRefreshTokenStrategy&#45;&gt;AuthModule -->
<g id="edge28" class="edge">
<title>JwtRefreshTokenStrategy&#45;&gt;AuthModule</title>
<path fill="none" stroke="black" d="M1761,-220.95C1761,-244.56 1761,-282.8 1761,-282.8 1761,-282.8 1307.67,-282.8 1307.67,-282.8"/>
<polygon fill="black" stroke="black" points="1307.67,-279.3 1297.67,-282.8 1307.67,-286.3 1307.67,-279.3"/>
</g>
<!-- JwtStrategy -->
<g id="node19" class="node">
<title>JwtStrategy</title>
<ellipse fill="#fdb462" stroke="black" cx="1575" cy="-202.8" rx="56.77" ry="18"/>
<text text-anchor="middle" x="1575" y="-198.6" font-family="Times,serif" font-size="14.00">JwtStrategy</text>
</g>
<!-- JwtStrategy&#45;&gt;AuthModule -->
<g id="edge29" class="edge">
<title>JwtStrategy&#45;&gt;AuthModule</title>
<path fill="none" stroke="black" d="M1575,-220.84C1575,-242.46 1575,-275.8 1575,-275.8 1575,-275.8 1307.63,-275.8 1307.63,-275.8"/>
<polygon fill="black" stroke="black" points="1307.63,-272.3 1297.63,-275.8 1307.63,-279.3 1307.63,-272.3"/>
</g>
<!-- LocalStrategy -->
<g id="node20" class="node">
<title>LocalStrategy</title>
<ellipse fill="#fdb462" stroke="black" cx="1435" cy="-202.8" rx="65.4" ry="18"/>
<text text-anchor="middle" x="1435" y="-198.6" font-family="Times,serif" font-size="14.00">LocalStrategy</text>
</g>
<!-- LocalStrategy&#45;&gt;AuthModule -->
<g id="edge30" class="edge">
<title>LocalStrategy&#45;&gt;AuthModule</title>
<path fill="none" stroke="black" d="M1435,-220.83C1435,-240.38 1435,-268.8 1435,-268.8 1435,-268.8 1307.82,-268.8 1307.82,-268.8"/>
<polygon fill="black" stroke="black" points="1307.82,-265.3 1297.82,-268.8 1307.82,-272.3 1307.82,-265.3"/>
</g>
<!-- CustomHealthCheckService -->
<g id="node21" class="node">
<title>CustomHealthCheckService</title>
<ellipse fill="#fdb462" stroke="black" cx="873" cy="-202.8" rx="120.41" ry="18"/>
<text text-anchor="middle" x="873" y="-198.6" font-family="Times,serif" font-size="14.00">CustomHealthCheckService</text>
</g>
<!-- CustomHealthCheckService&#45;&gt;HealthCheckModule -->
<g id="edge32" class="edge">
<title>CustomHealthCheckService&#45;&gt;HealthCheckModule</title>
<path fill="none" stroke="black" d="M942.07,-217.82C942.07,-217.82 942.07,-250.6 942.07,-250.6"/>
<polygon fill="black" stroke="black" points="938.57,-250.6 942.07,-260.6 945.57,-250.6 938.57,-250.6"/>
</g>
<!-- ProfileService -->
<g id="node23" class="node">
<title>ProfileService</title>
<ellipse fill="#fdb462" stroke="black" cx="1127" cy="-134.8" rx="66.05" ry="18"/>
<text text-anchor="middle" x="1127" y="-130.6" font-family="Times,serif" font-size="14.00">ProfileService</text>
</g>
<!-- ProfileService&#45;&gt;ProfileModule -->
<g id="edge35" class="edge">
<title>ProfileService&#45;&gt;ProfileModule</title>
<path fill="none" stroke="black" d="M1106.78,-151.96C1106.78,-151.96 1106.78,-174.45 1106.78,-174.45"/>
<polygon fill="black" stroke="black" points="1103.28,-174.45 1106.78,-184.45 1110.28,-174.45 1103.28,-174.45"/>
</g>
</g>
</svg>
