<?xml version="1.0" encoding="UTF-8" standalone="no"?>
<!DOCTYPE svg PUBLIC "-//W3C//DTD SVG 1.1//EN"
 "http://www.w3.org/Graphics/SVG/1.1/DTD/svg11.dtd">
<!-- Generated by graphviz version 5.0.0 (20220707.1540)
 -->
<!-- Title: dependencies Pages: 1 -->
<svg width="2436pt" height="448pt"
 viewBox="0.00 0.00 2436.00 447.80" xmlns="http://www.w3.org/2000/svg" xmlns:xlink="http://www.w3.org/1999/xlink">
<g id="graph0" class="graph" transform="scale(1 1) rotate(0) translate(4 443.8)">
<title>dependencies</title>
<polygon fill="white" stroke="transparent" points="-4,4 -4,-443.8 2432,-443.8 2432,4 -4,4"/>
<text text-anchor="middle" x="1214" y="-8.2" font-family="sans-serif" font-size="14.00">dependencies</text>
<g id="clust1" class="cluster">
<title>cluster_ApiLandingPageModule</title>
<polygon fill="none" stroke="black" stroke-dasharray="1,5" points="194,-32.8 194,-298.8 729,-298.8 729,-32.8 194,-32.8"/>
</g>
<g id="clust3" class="cluster">
<title>cluster_ApiLandingPageModule_imports</title>
<polygon fill="none" stroke="black" points="407,-105.8 407,-222.8 545,-222.8 545,-105.8 407,-105.8"/>
</g>
<g id="clust6" class="cluster">
<title>cluster_ApiLandingPageModule_providers</title>
<polygon fill="none" stroke="black" points="202,-40.8 202,-92.8 721,-92.8 721,-40.8 202,-40.8"/>
</g>
<g id="clust13" class="cluster">
<title>cluster_ApiMailModule</title>
<polygon fill="none" stroke="black" stroke-dasharray="1,5" points="8,-162.8 8,-298.8 186,-298.8 186,-162.8 8,-162.8"/>
</g>
<g id="clust18" class="cluster">
<title>cluster_ApiMailModule_providers</title>
<polygon fill="none" stroke="black" points="16,-170.8 16,-222.8 178,-222.8 178,-170.8 16,-170.8"/>
</g>
<g id="clust19" class="cluster">
<title>cluster_AppModule</title>
<polygon fill="none" stroke="black" stroke-dasharray="1,5" points="737,-238.8 737,-366.8 1733,-366.8 1733,-238.8 737,-238.8"/>
</g>
<g id="clust21" class="cluster">
<title>cluster_AppModule_imports</title>
<polygon fill="none" stroke="black" points="883,-246.8 883,-298.8 1725,-298.8 1725,-246.8 883,-246.8"/>
</g>
<g id="clust24" class="cluster">
<title>cluster_AppModule_providers</title>
<polygon fill="none" stroke="black" points="745,-246.8 745,-298.8 875,-298.8 875,-246.8 745,-246.8"/>
</g>
<g id="clust25" class="cluster">
<title>cluster_AppTestE2eModule</title>
<polygon fill="none" stroke="black" stroke-dasharray="1,5" points="521,-306.8 521,-431.8 729,-431.8 729,-306.8 521,-306.8"/>
</g>
<g id="clust30" class="cluster">
<title>cluster_AppTestE2eModule_providers</title>
<polygon fill="none" stroke="black" points="529,-314.8 529,-366.8 721,-366.8 721,-314.8 529,-314.8"/>
</g>
<g id="clust31" class="cluster">
<title>cluster_AuthModule</title>
<polygon fill="none" stroke="black" stroke-dasharray="1,5" points="737,-162.8 737,-230.8 1522,-230.8 1522,-162.8 737,-162.8"/>
</g>
<g id="clust34" class="cluster">
<title>cluster_AuthModule_exports</title>
<polygon fill="none" stroke="black" points="1408,-170.8 1408,-222.8 1514,-222.8 1514,-170.8 1408,-170.8"/>
</g>
<g id="clust36" class="cluster">
<title>cluster_AuthModule_providers</title>
<polygon fill="none" stroke="black" points="745,-170.8 745,-222.8 1400,-222.8 1400,-170.8 745,-170.8"/>
</g>
<g id="clust43" class="cluster">
<title>cluster_HealthCheckModule</title>
<polygon fill="none" stroke="black" stroke-dasharray="1,5" points="1530,-162.8 1530,-230.8 1802,-230.8 1802,-162.8 1530,-162.8"/>
</g>
<g id="clust48" class="cluster">
<title>cluster_HealthCheckModule_providers</title>
<polygon fill="none" stroke="black" points="1538,-170.8 1538,-222.8 1794,-222.8 1794,-170.8 1538,-170.8"/>
</g>
<g id="clust49" class="cluster">
<title>cluster_OccupationModule</title>
<polygon fill="none" stroke="black" stroke-dasharray="1,5" points="1810,-162.8 1810,-230.8 2012,-230.8 2012,-162.8 1810,-162.8"/>
</g>
<g id="clust54" class="cluster">
<title>cluster_OccupationModule_providers</title>
<polygon fill="none" stroke="black" points="1818,-170.8 1818,-222.8 2004,-222.8 2004,-170.8 1818,-170.8"/>
</g>
<g id="clust55" class="cluster">
<title>cluster_ProfileModule</title>
<polygon fill="none" stroke="black" stroke-dasharray="1,5" points="2020,-162.8 2020,-230.8 2184,-230.8 2184,-162.8 2020,-162.8"/>
</g>
<g id="clust60" class="cluster">
<title>cluster_ProfileModule_providers</title>
<polygon fill="none" stroke="black" points="2028,-170.8 2028,-222.8 2176,-222.8 2176,-170.8 2028,-170.8"/>
</g>
<g id="clust61" class="cluster">
<title>cluster_SocialNetworkModule</title>
<polygon fill="none" stroke="black" stroke-dasharray="1,5" points="2192,-162.8 2192,-230.8 2420,-230.8 2420,-162.8 2192,-162.8"/>
</g>
<g id="clust66" class="cluster">
<title>cluster_SocialNetworkModule_providers</title>
<polygon fill="none" stroke="black" points="2200,-170.8 2200,-222.8 2412,-222.8 2412,-170.8 2200,-170.8"/>
</g>
<!-- ApiLogModule -->
<g id="node1" class="node">
<title>ApiLogModule</title>
<polygon fill="#8dd3c7" stroke="black" points="518.6,-149.8 515.6,-153.8 494.6,-153.8 491.6,-149.8 415.4,-149.8 415.4,-113.8 518.6,-113.8 518.6,-149.8"/>
<text text-anchor="middle" x="467" y="-127.6" font-family="Times,serif" font-size="14.00">ApiLogModule</text>
</g>
<!-- ApiLogModule&#45;&gt;ApiLogModule -->
<g id="edge6" class="edge">
<title>ApiLogModule&#45;&gt;ApiLogModule</title>
<path fill="none" stroke="black" d="M478.66,-113.56C478.66,-106.37 478.66,-99.8 478.66,-99.8 478.66,-99.8 522.68,-99.8 522.68,-99.8 522.68,-99.8 522.68,-164.8 522.68,-164.8 522.68,-164.8 515.04,-164.8 515.04,-164.8 515.04,-164.8 515.04,-159.84 515.04,-159.84"/>
<polygon fill="black" stroke="black" points="518.54,-159.84 515.04,-149.84 511.54,-159.84 518.54,-159.84"/>
</g>
<!-- UserModule -->
<g id="node2" class="node">
<title>UserModule</title>
<polygon fill="#8dd3c7" stroke="black" points="500.99,-214.8 497.99,-218.8 476.99,-218.8 473.99,-214.8 415.01,-214.8 415.01,-178.8 500.99,-178.8 500.99,-214.8"/>
<text text-anchor="middle" x="458" y="-192.6" font-family="Times,serif" font-size="14.00">UserModule</text>
</g>
<!-- ApiLogModule&#45;&gt;UserModule -->
<g id="edge45" class="edge">
<title>ApiLogModule&#45;&gt;UserModule</title>
<path fill="none" stroke="black" d="M458.22,-149.91C458.22,-149.91 458.22,-168.79 458.22,-168.79"/>
<polygon fill="black" stroke="black" points="454.72,-168.79 458.22,-178.79 461.72,-168.79 454.72,-168.79"/>
</g>
<!-- ApiLandingPageModule -->
<g id="node3" class="node">
<title>ApiLandingPageModule</title>
<polygon fill="#8dd3c7" stroke="black" points="539.42,-290.8 536.42,-294.8 515.42,-294.8 512.42,-290.8 384.58,-290.8 384.58,-254.8 539.42,-254.8 539.42,-290.8"/>
<text text-anchor="middle" x="462" y="-268.6" font-family="Times,serif" font-size="14.00">ApiLandingPageModule</text>
</g>
<!-- ApiLogModule&#45;&gt;ApiLandingPageModule -->
<g id="edge1" class="edge">
<title>ApiLogModule&#45;&gt;ApiLandingPageModule</title>
<path fill="none" stroke="black" d="M504.5,-149.94C504.5,-149.94 504.5,-244.73 504.5,-244.73"/>
<polygon fill="black" stroke="black" points="501,-244.72 504.5,-254.73 508,-244.73 501,-244.72"/>
</g>
<!-- ApiMailModule -->
<g id="node7" class="node">
<title>ApiMailModule</title>
<polygon fill="#8dd3c7" stroke="black" points="136.49,-290.8 133.49,-294.8 112.49,-294.8 109.49,-290.8 29.51,-290.8 29.51,-254.8 136.49,-254.8 136.49,-290.8"/>
<text text-anchor="middle" x="83" y="-268.6" font-family="Times,serif" font-size="14.00">ApiMailModule</text>
</g>
<!-- ApiLogModule&#45;&gt;ApiMailModule -->
<g id="edge8" class="edge">
<title>ApiLogModule&#45;&gt;ApiMailModule</title>
<path fill="none" stroke="black" d="M415.23,-131.8C356.26,-131.8 267.98,-131.8 267.98,-131.8 267.98,-131.8 267.98,-266.8 267.98,-266.8 267.98,-266.8 146.5,-266.8 146.5,-266.8"/>
<polygon fill="black" stroke="black" points="146.5,-263.3 136.5,-266.8 146.5,-270.3 146.5,-263.3"/>
</g>
<!-- AuthModule -->
<g id="node9" class="node">
<title>AuthModule</title>
<polygon fill="#8dd3c7" stroke="black" points="1716.55,-290.8 1713.55,-294.8 1692.55,-294.8 1689.55,-290.8 1629.45,-290.8 1629.45,-254.8 1716.55,-254.8 1716.55,-290.8"/>
<text text-anchor="middle" x="1673" y="-268.6" font-family="Times,serif" font-size="14.00">AuthModule</text>
</g>
<!-- ApiLogModule&#45;&gt;AuthModule -->
<g id="edge27" class="edge">
<title>ApiLogModule&#45;&gt;AuthModule</title>
<path fill="none" stroke="black" d="M511.53,-149.93C511.53,-182.55 511.53,-247.8 511.53,-247.8 511.53,-247.8 1638.95,-247.8 1638.95,-247.8 1638.95,-247.8 1638.95,-248.48 1638.95,-248.48"/>
<polygon fill="black" stroke="black" points="1635.45,-244.63 1638.95,-254.63 1642.45,-244.63 1635.45,-244.63"/>
</g>
<!-- OccupationModule -->
<g id="node12" class="node">
<title>OccupationModule</title>
<polygon fill="#8dd3c7" stroke="black" points="1165.08,-290.8 1162.08,-294.8 1141.08,-294.8 1138.08,-290.8 1040.92,-290.8 1040.92,-254.8 1165.08,-254.8 1165.08,-290.8"/>
<text text-anchor="middle" x="1103" y="-268.6" font-family="Times,serif" font-size="14.00">OccupationModule</text>
</g>
<!-- ApiLogModule&#45;&gt;OccupationModule -->
<g id="edge36" class="edge">
<title>ApiLogModule&#45;&gt;OccupationModule</title>
<path fill="none" stroke="black" d="M518.79,-135.8C679.05,-135.8 1156.1,-135.8 1156.1,-135.8 1156.1,-135.8 1156.1,-244.61 1156.1,-244.61"/>
<polygon fill="black" stroke="black" points="1152.6,-244.61 1156.1,-254.61 1159.6,-244.61 1152.6,-244.61"/>
</g>
<!-- ProfileModule -->
<g id="node13" class="node">
<title>ProfileModule</title>
<polygon fill="#8dd3c7" stroke="black" points="1280.66,-290.8 1277.66,-294.8 1256.66,-294.8 1253.66,-290.8 1183.34,-290.8 1183.34,-254.8 1280.66,-254.8 1280.66,-290.8"/>
<text text-anchor="middle" x="1232" y="-268.6" font-family="Times,serif" font-size="14.00">ProfileModule</text>
</g>
<!-- ApiLogModule&#45;&gt;ProfileModule -->
<g id="edge39" class="edge">
<title>ApiLogModule&#45;&gt;ProfileModule</title>
<path fill="none" stroke="black" d="M508.02,-149.91C508.02,-183.67 508.02,-252.8 508.02,-252.8 508.02,-252.8 1207.59,-252.8 1207.59,-252.8 1207.59,-252.8 1207.59,-252.98 1207.59,-252.98"/>
<polygon fill="black" stroke="black" points="1204.09,-244.65 1207.59,-254.65 1211.09,-244.65 1204.09,-244.65"/>
</g>
<!-- SocialNetworkModule -->
<g id="node14" class="node">
<title>SocialNetworkModule</title>
<polygon fill="#8dd3c7" stroke="black" points="1442.53,-290.8 1439.53,-294.8 1418.53,-294.8 1415.53,-290.8 1299.47,-290.8 1299.47,-254.8 1442.53,-254.8 1442.53,-290.8"/>
<text text-anchor="middle" x="1371" y="-268.6" font-family="Times,serif" font-size="14.00">SocialNetworkModule</text>
</g>
<!-- ApiLogModule&#45;&gt;SocialNetworkModule -->
<g id="edge42" class="edge">
<title>ApiLogModule&#45;&gt;SocialNetworkModule</title>
<path fill="none" stroke="black" d="M518.84,-128.8C714.95,-128.8 1400.31,-128.8 1400.31,-128.8 1400.31,-128.8 1400.31,-244.56 1400.31,-244.56"/>
<polygon fill="black" stroke="black" points="1396.81,-244.56 1400.31,-254.56 1403.81,-244.56 1396.81,-244.56"/>
</g>
<!-- AppModule -->
<g id="node15" class="node">
<title>AppModule</title>
<polygon fill="#8dd3c7" stroke="black" points="998.66,-358.8 995.66,-362.8 974.66,-362.8 971.66,-358.8 915.34,-358.8 915.34,-322.8 998.66,-322.8 998.66,-358.8"/>
<text text-anchor="middle" x="957" y="-336.6" font-family="Times,serif" font-size="14.00">AppModule</text>
</g>
<!-- ApiLogModule&#45;&gt;AppModule -->
<g id="edge14" class="edge">
<title>ApiLogModule&#45;&gt;AppModule</title>
<path fill="none" stroke="black" d="M518.72,-142.8C597.1,-142.8 736.92,-142.8 736.92,-142.8 736.92,-142.8 736.92,-340.8 736.92,-340.8 736.92,-340.8 905.09,-340.8 905.09,-340.8"/>
<polygon fill="black" stroke="black" points="905.09,-344.3 915.09,-340.8 905.09,-337.3 905.09,-344.3"/>
</g>
<!-- UserModule&#45;&gt;ApiLandingPageModule -->
<g id="edge2" class="edge">
<title>UserModule&#45;&gt;ApiLandingPageModule</title>
<path fill="none" stroke="black" d="M458,-214.81C458,-214.81 458,-244.65 458,-244.65"/>
<polygon fill="black" stroke="black" points="454.5,-244.65 458,-254.65 461.5,-244.65 454.5,-244.65"/>
</g>
<!-- UserModule&#45;&gt;ApiMailModule -->
<g id="edge9" class="edge">
<title>UserModule&#45;&gt;ApiMailModule</title>
<path fill="none" stroke="black" d="M414.9,-196.8C376.52,-196.8 326.38,-196.8 326.38,-196.8 326.38,-196.8 326.38,-278.8 326.38,-278.8 326.38,-278.8 146.71,-278.8 146.71,-278.8"/>
<polygon fill="black" stroke="black" points="146.71,-275.3 136.71,-278.8 146.71,-282.3 146.71,-275.3"/>
</g>
<!-- UserModule&#45;&gt;AppModule -->
<g id="edge22" class="edge">
<title>UserModule&#45;&gt;AppModule</title>
<path fill="none" stroke="black" d="M501.25,-205.8C577.77,-205.8 729.04,-205.8 729.04,-205.8 729.04,-205.8 729.04,-346.8 729.04,-346.8 729.04,-346.8 905.19,-346.8 905.19,-346.8"/>
<polygon fill="black" stroke="black" points="905.19,-350.3 915.19,-346.8 905.19,-343.3 905.19,-350.3"/>
</g>
<!-- ApiLandingPageModule&#45;&gt;AppModule -->
<g id="edge13" class="edge">
<title>ApiLandingPageModule&#45;&gt;AppModule</title>
<path fill="none" stroke="black" d="M539.4,-278.8C615.77,-278.8 721.15,-278.8 721.15,-278.8 721.15,-278.8 721.15,-352.8 721.15,-352.8 721.15,-352.8 905.11,-352.8 905.11,-352.8"/>
<polygon fill="black" stroke="black" points="905.11,-356.3 915.11,-352.8 905.11,-349.3 905.11,-356.3"/>
</g>
<!-- ApiLandingPageService -->
<g id="node4" class="node">
<title>ApiLandingPageService</title>
<ellipse fill="#fdb462" stroke="black" cx="315" cy="-66.8" rx="105.36" ry="18"/>
<text text-anchor="middle" x="315" y="-62.6" font-family="Times,serif" font-size="14.00">ApiLandingPageService</text>
</g>
<!-- ApiLandingPageService&#45;&gt;ApiLandingPageModule -->
<g id="edge3" class="edge">
<title>ApiLandingPageService&#45;&gt;ApiLandingPageModule</title>
<path fill="none" stroke="black" d="M399.9,-77.59C399.9,-77.59 399.9,-244.56 399.9,-244.56"/>
<polygon fill="black" stroke="black" points="396.4,-244.56 399.9,-254.56 403.4,-244.56 396.4,-244.56"/>
</g>
<!-- ApiLogService -->
<g id="node5" class="node">
<title>ApiLogService</title>
<ellipse fill="#fdb462" stroke="black" cx="643" cy="-66.8" rx="70.07" ry="18"/>
<text text-anchor="middle" x="643" y="-62.6" font-family="Times,serif" font-size="14.00">ApiLogService</text>
</g>
<!-- ApiLogService&#45;&gt;ApiLogModule -->
<g id="edge7" class="edge">
<title>ApiLogService&#45;&gt;ApiLogModule</title>
<path fill="none" stroke="black" d="M592.98,-79.56C592.98,-95.8 592.98,-121.8 592.98,-121.8 592.98,-121.8 528.6,-121.8 528.6,-121.8"/>
<polygon fill="black" stroke="black" points="528.6,-118.3 518.6,-121.8 528.6,-125.3 528.6,-118.3"/>
</g>
<!-- ApiLogService&#45;&gt;UserModule -->
<g id="edge46" class="edge">
<title>ApiLogService&#45;&gt;UserModule</title>
<path fill="none" stroke="black" d="M612.99,-83.26C612.99,-118.25 612.99,-196.8 612.99,-196.8 612.99,-196.8 511.17,-196.8 511.17,-196.8"/>
<polygon fill="black" stroke="black" points="511.17,-193.3 501.17,-196.8 511.17,-200.3 511.17,-193.3"/>
</g>
<!-- ApiLogService&#45;&gt;ApiLandingPageModule -->
<g id="edge4" class="edge">
<title>ApiLogService&#45;&gt;ApiLandingPageModule</title>
<path fill="none" stroke="black" d="M653,-84.9C653,-134.13 653,-266.8 653,-266.8 653,-266.8 549.41,-266.8 549.41,-266.8"/>
<polygon fill="black" stroke="black" points="549.41,-263.3 539.41,-266.8 549.41,-270.3 549.41,-263.3"/>
</g>
<!-- ApiLogService&#45;&gt;ApiMailModule -->
<g id="edge10" class="edge">
<title>ApiLogService&#45;&gt;ApiMailModule</title>
<path fill="none" stroke="black" d="M633,-84.87C633,-127.31 633,-229.8 633,-229.8 633,-229.8 109.75,-229.8 109.75,-229.8 109.75,-229.8 109.75,-244.31 109.75,-244.31"/>
<polygon fill="black" stroke="black" points="106.25,-244.31 109.75,-254.31 113.25,-244.31 106.25,-244.31"/>
</g>
<!-- ApiLogService&#45;&gt;AuthModule -->
<g id="edge29" class="edge">
<title>ApiLogService&#45;&gt;AuthModule</title>
<path fill="none" stroke="black" d="M693.02,-79.53C693.02,-120.11 693.02,-243.8 693.02,-243.8 693.02,-243.8 1658.41,-243.8 1658.41,-243.8 1658.41,-243.8 1658.41,-244.88 1658.41,-244.88"/>
<polygon fill="black" stroke="black" points="1654.91,-244.6 1658.41,-254.6 1661.91,-244.6 1654.91,-244.6"/>
</g>
<!-- ApiLogService&#45;&gt;OccupationModule -->
<g id="edge37" class="edge">
<title>ApiLogService&#45;&gt;OccupationModule</title>
<path fill="none" stroke="black" d="M713.07,-66.8C854.47,-66.8 1160.57,-66.8 1160.57,-66.8 1160.57,-66.8 1160.57,-244.52 1160.57,-244.52"/>
<polygon fill="black" stroke="black" points="1157.07,-244.52 1160.57,-254.52 1164.07,-244.52 1157.07,-244.52"/>
</g>
<!-- ApiLogService&#45;&gt;ProfileModule -->
<g id="edge40" class="edge">
<title>ApiLogService&#45;&gt;ProfileModule</title>
<path fill="none" stroke="black" d="M673.01,-83.13C673.01,-128.16 673.01,-250.8 673.01,-250.8 673.01,-250.8 1232,-250.8 1232,-250.8 1232,-250.8 1232,-251.18 1232,-251.18"/>
<polygon fill="black" stroke="black" points="1228.5,-244.63 1232,-254.63 1235.5,-244.63 1228.5,-244.63"/>
</g>
<!-- ApiLogService&#45;&gt;SocialNetworkModule -->
<g id="edge43" class="edge">
<title>ApiLogService&#45;&gt;SocialNetworkModule</title>
<path fill="none" stroke="black" d="M703.69,-57.8C884.7,-57.8 1408.29,-57.8 1408.29,-57.8 1408.29,-57.8 1408.29,-244.47 1408.29,-244.47"/>
<polygon fill="black" stroke="black" points="1404.79,-244.47 1408.29,-254.47 1411.79,-244.47 1404.79,-244.47"/>
</g>
<!-- ApiLogService&#45;&gt;AppModule -->
<g id="edge23" class="edge">
<title>ApiLogService&#45;&gt;AppModule</title>
<path fill="none" stroke="black" d="M703.69,-75.8C725.49,-75.8 744.81,-75.8 744.81,-75.8 744.81,-75.8 744.81,-334.8 744.81,-334.8 744.81,-334.8 905.33,-334.8 905.33,-334.8"/>
<polygon fill="black" stroke="black" points="905.33,-338.3 915.33,-334.8 905.33,-331.3 905.33,-338.3"/>
</g>
<!-- UserService -->
<g id="node6" class="node">
<title>UserService</title>
<ellipse fill="#fdb462" stroke="black" cx="497" cy="-66.8" rx="58.46" ry="18"/>
<text text-anchor="middle" x="497" y="-62.6" font-family="Times,serif" font-size="14.00">UserService</text>
</g>
<!-- UserService&#45;&gt;UserModule -->
<g id="edge47" class="edge">
<title>UserService&#45;&gt;UserModule</title>
<path fill="none" stroke="black" d="M526.82,-82.62C526.82,-115.42 526.82,-187.8 526.82,-187.8 526.82,-187.8 511.19,-187.8 511.19,-187.8"/>
<polygon fill="black" stroke="black" points="511.19,-184.3 501.19,-187.8 511.19,-191.3 511.19,-184.3"/>
</g>
<!-- UserService&#45;&gt;ApiLandingPageModule -->
<g id="edge5" class="edge">
<title>UserService&#45;&gt;ApiLandingPageModule</title>
<path fill="none" stroke="black" d="M535.08,-80.64C535.08,-80.64 535.08,-244.72 535.08,-244.72"/>
<polygon fill="black" stroke="black" points="531.58,-244.72 535.08,-254.72 538.58,-244.72 531.58,-244.72"/>
</g>
<!-- UserService&#45;&gt;ApiMailModule -->
<g id="edge12" class="edge">
<title>UserService&#45;&gt;ApiMailModule</title>
<path fill="none" stroke="black" d="M530.95,-81.57C530.95,-121.18 530.95,-226.8 530.95,-226.8 530.95,-226.8 83,-226.8 83,-226.8 83,-226.8 83,-244.62 83,-244.62"/>
<polygon fill="black" stroke="black" points="79.5,-244.62 83,-254.62 86.5,-244.62 79.5,-244.62"/>
</g>
<!-- UserService&#45;&gt;AuthModule -->
<g id="edge34" class="edge">
<title>UserService&#45;&gt;AuthModule</title>
<path fill="none" stroke="black" d="M547.22,-75.92C547.22,-112.4 547.22,-245.8 547.22,-245.8 547.22,-245.8 1648.68,-245.8 1648.68,-245.8 1648.68,-245.8 1648.68,-246.68 1648.68,-246.68"/>
<polygon fill="black" stroke="black" points="1645.18,-244.64 1648.68,-254.64 1652.18,-244.64 1645.18,-244.64"/>
</g>
<!-- ApiMailModule&#45;&gt;AppModule -->
<g id="edge15" class="edge">
<title>ApiMailModule&#45;&gt;AppModule</title>
<path fill="none" stroke="black" d="M83,-290.99C83,-299.08 83,-306.8 83,-306.8 83,-306.8 943.06,-306.8 943.06,-306.8 943.06,-306.8 943.06,-312.61 943.06,-312.61"/>
<polygon fill="black" stroke="black" points="939.56,-312.61 943.06,-322.61 946.56,-312.61 939.56,-312.61"/>
</g>
<!-- ApiMailService -->
<g id="node8" class="node">
<title>ApiMailService</title>
<ellipse fill="#fdb462" stroke="black" cx="97" cy="-196.8" rx="72.94" ry="18"/>
<text text-anchor="middle" x="97" y="-192.6" font-family="Times,serif" font-size="14.00">ApiMailService</text>
</g>
<!-- ApiMailService&#45;&gt;ApiMailModule -->
<g id="edge11" class="edge">
<title>ApiMailService&#45;&gt;ApiMailModule</title>
<path fill="none" stroke="black" d="M56.25,-211.82C56.25,-211.82 56.25,-244.6 56.25,-244.6"/>
<polygon fill="black" stroke="black" points="52.75,-244.6 56.25,-254.6 59.75,-244.6 52.75,-244.6"/>
</g>
<!-- AuthModule&#45;&gt;AppModule -->
<g id="edge16" class="edge">
<title>AuthModule&#45;&gt;AppModule</title>
<path fill="none" stroke="black" d="M1673,-290.95C1673,-314.56 1673,-352.8 1673,-352.8 1673,-352.8 1008.85,-352.8 1008.85,-352.8"/>
<polygon fill="black" stroke="black" points="1008.85,-349.3 998.85,-352.8 1008.85,-356.3 1008.85,-349.3"/>
</g>
<!-- AuthService  -->
<g id="node19" class="node">
<title>AuthService </title>
<polygon fill="#fb8072" stroke="black" points="1505.98,-214.8 1416.02,-214.8 1416.02,-178.8 1505.98,-178.8 1505.98,-214.8"/>
<text text-anchor="middle" x="1461" y="-192.6" font-family="Times,serif" font-size="14.00">AuthService </text>
</g>
<!-- AuthModule&#45;&gt;AuthService  -->
<g id="edge28" class="edge">
<title>AuthModule&#45;&gt;AuthService </title>
<path fill="none" stroke="black" stroke-dasharray="5,2" d="M1707.05,-254.7C1707.05,-243.71 1707.05,-231.8 1707.05,-231.8 1707.05,-231.8 1483.24,-231.8 1483.24,-231.8 1483.24,-231.8 1483.24,-225.12 1483.24,-225.12"/>
<polygon fill="black" stroke="black" points="1486.74,-225.12 1483.24,-215.12 1479.74,-225.12 1486.74,-225.12"/>
</g>
<!-- EntitiesToMoveModule -->
<g id="node10" class="node">
<title>EntitiesToMoveModule</title>
<polygon fill="#8dd3c7" stroke="black" points="1611.04,-290.8 1608.04,-294.8 1587.04,-294.8 1584.04,-290.8 1460.96,-290.8 1460.96,-254.8 1611.04,-254.8 1611.04,-290.8"/>
<text text-anchor="middle" x="1536" y="-268.6" font-family="Times,serif" font-size="14.00">EntitiesToMoveModule</text>
</g>
<!-- EntitiesToMoveModule&#45;&gt;AppModule -->
<g id="edge17" class="edge">
<title>EntitiesToMoveModule&#45;&gt;AppModule</title>
<path fill="none" stroke="black" d="M1536,-291.09C1536,-313.01 1536,-346.8 1536,-346.8 1536,-346.8 1009.11,-346.8 1009.11,-346.8"/>
<polygon fill="black" stroke="black" points="1009.11,-343.3 999.11,-346.8 1009.11,-350.3 1009.11,-343.3"/>
</g>
<!-- HealthCheckModule -->
<g id="node11" class="node">
<title>HealthCheckModule</title>
<polygon fill="#8dd3c7" stroke="black" points="1023.14,-290.8 1020.14,-294.8 999.14,-294.8 996.14,-290.8 890.86,-290.8 890.86,-254.8 1023.14,-254.8 1023.14,-290.8"/>
<text text-anchor="middle" x="957" y="-268.6" font-family="Times,serif" font-size="14.00">HealthCheckModule</text>
</g>
<!-- HealthCheckModule&#45;&gt;AppModule -->
<g id="edge18" class="edge">
<title>HealthCheckModule&#45;&gt;AppModule</title>
<path fill="none" stroke="black" d="M970.94,-291.02C970.94,-291.02 970.94,-312.53 970.94,-312.53"/>
<polygon fill="black" stroke="black" points="967.44,-312.53 970.94,-322.53 974.44,-312.53 967.44,-312.53"/>
</g>
<!-- OccupationModule&#45;&gt;AppModule -->
<g id="edge19" class="edge">
<title>OccupationModule&#45;&gt;AppModule</title>
<path fill="none" stroke="black" d="M1103,-290.83C1103,-307.2 1103,-328.8 1103,-328.8 1103,-328.8 1008.84,-328.8 1008.84,-328.8"/>
<polygon fill="black" stroke="black" points="1008.84,-325.3 998.84,-328.8 1008.84,-332.3 1008.84,-325.3"/>
</g>
<!-- ProfileModule&#45;&gt;AppModule -->
<g id="edge20" class="edge">
<title>ProfileModule&#45;&gt;AppModule</title>
<path fill="none" stroke="black" d="M1232,-291.07C1232,-309.36 1232,-334.8 1232,-334.8 1232,-334.8 1008.77,-334.8 1008.77,-334.8"/>
<polygon fill="black" stroke="black" points="1008.77,-331.3 998.77,-334.8 1008.77,-338.3 1008.77,-331.3"/>
</g>
<!-- SocialNetworkModule&#45;&gt;AppModule -->
<g id="edge21" class="edge">
<title>SocialNetworkModule&#45;&gt;AppModule</title>
<path fill="none" stroke="black" d="M1371,-291.02C1371,-311.17 1371,-340.8 1371,-340.8 1371,-340.8 1008.97,-340.8 1008.97,-340.8"/>
<polygon fill="black" stroke="black" points="1008.97,-337.3 998.97,-340.8 1008.97,-344.3 1008.97,-337.3"/>
</g>
<!-- AppTestE2eModule -->
<g id="node17" class="node">
<title>AppTestE2eModule</title>
<polygon fill="#8dd3c7" stroke="black" points="704.53,-423.8 701.53,-427.8 680.53,-427.8 677.53,-423.8 575.47,-423.8 575.47,-387.8 704.53,-387.8 704.53,-423.8"/>
<text text-anchor="middle" x="640" y="-401.6" font-family="Times,serif" font-size="14.00">AppTestE2eModule</text>
</g>
<!-- AppModule&#45;&gt;AppTestE2eModule -->
<g id="edge25" class="edge">
<title>AppModule&#45;&gt;AppTestE2eModule</title>
<path fill="none" stroke="black" d="M957,-358.91C957,-378.14 957,-405.8 957,-405.8 957,-405.8 714.91,-405.8 714.91,-405.8"/>
<polygon fill="black" stroke="black" points="714.91,-402.3 704.91,-405.8 714.91,-409.3 714.91,-402.3"/>
</g>
<!-- AppService -->
<g id="node16" class="node">
<title>AppService</title>
<ellipse fill="#fdb462" stroke="black" cx="810" cy="-272.8" rx="56.75" ry="18"/>
<text text-anchor="middle" x="810" y="-268.6" font-family="Times,serif" font-size="14.00">AppService</text>
</g>
<!-- AppService&#45;&gt;AppModule -->
<g id="edge24" class="edge">
<title>AppService&#45;&gt;AppModule</title>
<path fill="none" stroke="black" d="M810,-290.83C810,-307.2 810,-328.8 810,-328.8 810,-328.8 905.27,-328.8 905.27,-328.8"/>
<polygon fill="black" stroke="black" points="905.27,-332.3 915.27,-328.8 905.27,-325.3 905.27,-332.3"/>
</g>
<!-- AppTestE2eService -->
<g id="node18" class="node">
<title>AppTestE2eService</title>
<ellipse fill="#fdb462" stroke="black" cx="625" cy="-340.8" rx="88.03" ry="18"/>
<text text-anchor="middle" x="625" y="-336.6" font-family="Times,serif" font-size="14.00">AppTestE2eService</text>
</g>
<!-- AppTestE2eService&#45;&gt;AppTestE2eModule -->
<g id="edge26" class="edge">
<title>AppTestE2eService&#45;&gt;AppTestE2eModule</title>
<path fill="none" stroke="black" d="M640,-358.56C640,-358.56 640,-377.61 640,-377.61"/>
<polygon fill="black" stroke="black" points="636.5,-377.61 640,-387.61 643.5,-377.61 636.5,-377.61"/>
</g>
<!-- AuthService -->
<g id="node20" class="node">
<title>AuthService</title>
<ellipse fill="#fdb462" stroke="black" cx="812" cy="-196.8" rx="59.11" ry="18"/>
<text text-anchor="middle" x="812" y="-192.6" font-family="Times,serif" font-size="14.00">AuthService</text>
</g>
<!-- AuthService&#45;&gt;AuthModule -->
<g id="edge30" class="edge">
<title>AuthService&#45;&gt;AuthModule</title>
<path fill="none" stroke="black" d="M810,-214.95C810,-227.07 810,-240.8 810,-240.8 810,-240.8 1668.14,-240.8 1668.14,-240.8 1668.14,-240.8 1668.14,-244.56 1668.14,-244.56"/>
<polygon fill="black" stroke="black" points="1664.64,-244.56 1668.14,-254.56 1671.64,-244.56 1664.64,-244.56"/>
</g>
<!-- JwtRefreshTokenStrategy -->
<g id="node21" class="node">
<title>JwtRefreshTokenStrategy</title>
<ellipse fill="#fdb462" stroke="black" cx="1281" cy="-196.8" rx="111.17" ry="18"/>
<text text-anchor="middle" x="1281" y="-192.6" font-family="Times,serif" font-size="14.00">JwtRefreshTokenStrategy</text>
</g>
<!-- JwtRefreshTokenStrategy&#45;&gt;AuthModule -->
<g id="edge31" class="edge">
<title>JwtRefreshTokenStrategy&#45;&gt;AuthModule</title>
<path fill="none" stroke="black" d="M1345.79,-211.85C1345.79,-222.09 1345.79,-233.8 1345.79,-233.8 1345.79,-233.8 1697.32,-233.8 1697.32,-233.8 1697.32,-233.8 1697.32,-244.67 1697.32,-244.67"/>
<polygon fill="black" stroke="black" points="1693.82,-244.67 1697.32,-254.67 1700.82,-244.67 1693.82,-244.67"/>
</g>
<!-- JwtStrategy -->
<g id="node22" class="node">
<title>JwtStrategy</title>
<ellipse fill="#fdb462" stroke="black" cx="1095" cy="-196.8" rx="56.77" ry="18"/>
<text text-anchor="middle" x="1095" y="-192.6" font-family="Times,serif" font-size="14.00">JwtStrategy</text>
</g>
<!-- JwtStrategy&#45;&gt;AuthModule -->
<g id="edge32" class="edge">
<title>JwtStrategy&#45;&gt;AuthModule</title>
<path fill="none" stroke="black" d="M1114.74,-214C1114.74,-224.84 1114.74,-236.8 1114.74,-236.8 1114.74,-236.8 1687.59,-236.8 1687.59,-236.8 1687.59,-236.8 1687.59,-244.38 1687.59,-244.38"/>
<polygon fill="black" stroke="black" points="1684.09,-244.38 1687.59,-254.38 1691.09,-244.38 1684.09,-244.38"/>
</g>
<!-- LocalStrategy -->
<g id="node23" class="node">
<title>LocalStrategy</title>
<ellipse fill="#fdb462" stroke="black" cx="955" cy="-196.8" rx="65.4" ry="18"/>
<text text-anchor="middle" x="955" y="-192.6" font-family="Times,serif" font-size="14.00">LocalStrategy</text>
</g>
<!-- LocalStrategy&#45;&gt;AuthModule -->
<g id="edge33" class="edge">
<title>LocalStrategy&#45;&gt;AuthModule</title>
<path fill="none" stroke="black" d="M933.86,-213.88C933.86,-225.51 933.86,-238.8 933.86,-238.8 933.86,-238.8 1677.86,-238.8 1677.86,-238.8 1677.86,-238.8 1677.86,-244.61 1677.86,-244.61"/>
<polygon fill="black" stroke="black" points="1674.36,-244.61 1677.86,-254.61 1681.36,-244.61 1674.36,-244.61"/>
</g>
<!-- CustomHealthCheckService -->
<g id="node24" class="node">
<title>CustomHealthCheckService</title>
<ellipse fill="#fdb462" stroke="black" cx="1666" cy="-196.8" rx="120.41" ry="18"/>
<text text-anchor="middle" x="1666" y="-192.6" font-family="Times,serif" font-size="14.00">CustomHealthCheckService</text>
</g>
<!-- CustomHealthCheckService&#45;&gt;HealthCheckModule -->
<g id="edge35" class="edge">
<title>CustomHealthCheckService&#45;&gt;HealthCheckModule</title>
<path fill="none" stroke="black" d="M1578.41,-209.26C1578.41,-213.78 1578.41,-217.8 1578.41,-217.8 1578.41,-217.8 977.03,-217.8 977.03,-217.8 977.03,-217.8 977.03,-244.79 977.03,-244.79"/>
<polygon fill="black" stroke="black" points="973.53,-244.79 977.03,-254.79 980.53,-244.79 973.53,-244.79"/>
</g>
<!-- OccupationService -->
<g id="node25" class="node">
<title>OccupationService</title>
<ellipse fill="#fdb462" stroke="black" cx="1911" cy="-196.8" rx="84.51" ry="18"/>
<text text-anchor="middle" x="1911" y="-192.6" font-family="Times,serif" font-size="14.00">OccupationService</text>
</g>
<!-- OccupationService&#45;&gt;OccupationModule -->
<g id="edge38" class="edge">
<title>OccupationService&#45;&gt;OccupationModule</title>
<path fill="none" stroke="black" d="M1911,-214.92C1911,-217.77 1911,-219.8 1911,-219.8 1911,-219.8 1077.85,-219.8 1077.85,-219.8 1077.85,-219.8 1077.85,-244.56 1077.85,-244.56"/>
<polygon fill="black" stroke="black" points="1074.35,-244.56 1077.85,-254.56 1081.35,-244.56 1074.35,-244.56"/>
</g>
<!-- ProfileService -->
<g id="node26" class="node">
<title>ProfileService</title>
<ellipse fill="#fdb462" stroke="black" cx="2102" cy="-196.8" rx="66.05" ry="18"/>
<text text-anchor="middle" x="2102" y="-192.6" font-family="Times,serif" font-size="14.00">ProfileService</text>
</g>
<!-- ProfileService&#45;&gt;ProfileModule -->
<g id="edge41" class="edge">
<title>ProfileService&#45;&gt;ProfileModule</title>
<path fill="none" stroke="black" d="M2102,-214.86C2102,-219.29 2102,-222.8 2102,-222.8 2102,-222.8 1256.41,-222.8 1256.41,-222.8 1256.41,-222.8 1256.41,-244.75 1256.41,-244.75"/>
<polygon fill="black" stroke="black" points="1252.91,-244.75 1256.41,-254.75 1259.91,-244.75 1252.91,-244.75"/>
</g>
<!-- SocialNetworkService -->
<g id="node27" class="node">
<title>SocialNetworkService</title>
<ellipse fill="#fdb462" stroke="black" cx="2306" cy="-196.8" rx="97.84" ry="18"/>
<text text-anchor="middle" x="2306" y="-192.6" font-family="Times,serif" font-size="14.00">SocialNetworkService</text>
</g>
<!-- SocialNetworkService&#45;&gt;SocialNetworkModule -->
<g id="edge44" class="edge">
<title>SocialNetworkService&#45;&gt;SocialNetworkModule</title>
<path fill="none" stroke="black" d="M2306,-215.01C2306,-220.35 2306,-224.8 2306,-224.8 2306,-224.8 1429.51,-224.8 1429.51,-224.8 1429.51,-224.8 1429.51,-244.65 1429.51,-244.65"/>
<polygon fill="black" stroke="black" points="1426.01,-244.65 1429.51,-254.65 1433.01,-244.65 1426.01,-244.65"/>
</g>
</g>
</svg>
