<?xml version="1.0" encoding="UTF-8" standalone="no"?>
<!DOCTYPE svg PUBLIC "-//W3C//DTD SVG 1.1//EN"
 "http://www.w3.org/Graphics/SVG/1.1/DTD/svg11.dtd">
<!-- Generated by graphviz version 5.0.0 (20220707.1540)
 -->
<!-- Title: dependencies Pages: 1 -->
<svg width="2857pt" height="448pt"
 viewBox="0.00 0.00 2857.00 447.80" xmlns="http://www.w3.org/2000/svg" xmlns:xlink="http://www.w3.org/1999/xlink">
<g id="graph0" class="graph" transform="scale(1 1) rotate(0) translate(4 443.8)">
<title>dependencies</title>
<polygon fill="white" stroke="transparent" points="-4,4 -4,-443.8 2853,-443.8 2853,4 -4,4"/>
<text text-anchor="middle" x="1424.5" y="-8.2" font-family="sans-serif" font-size="14.00">dependencies</text>
<g id="clust1" class="cluster">
<title>cluster_ApiLandingPageModule</title>
<polygon fill="none" stroke="black" stroke-dasharray="1,5" points="1977,-32.8 1977,-298.8 2511,-298.8 2511,-32.8 1977,-32.8"/>
</g>
<g id="clust3" class="cluster">
<title>cluster_ApiLandingPageModule_imports</title>
<polygon fill="none" stroke="black" points="2248,-105.8 2248,-222.8 2386,-222.8 2386,-105.8 2248,-105.8"/>
</g>
<g id="clust6" class="cluster">
<title>cluster_ApiLandingPageModule_providers</title>
<polygon fill="none" stroke="black" points="1985,-40.8 1985,-92.8 2503,-92.8 2503,-40.8 1985,-40.8"/>
</g>
<g id="clust13" class="cluster">
<title>cluster_ApiMailModule</title>
<polygon fill="none" stroke="black" stroke-dasharray="1,5" points="2519,-162.8 2519,-298.8 2697,-298.8 2697,-162.8 2519,-162.8"/>
</g>
<g id="clust18" class="cluster">
<title>cluster_ApiMailModule_providers</title>
<polygon fill="none" stroke="black" points="2527,-170.8 2527,-222.8 2689,-222.8 2689,-170.8 2527,-170.8"/>
</g>
<g id="clust19" class="cluster">
<title>cluster_AppModule</title>
<polygon fill="none" stroke="black" stroke-dasharray="1,5" points="868,-238.8 868,-366.8 1969,-366.8 1969,-238.8 868,-238.8"/>
</g>
<g id="clust21" class="cluster">
<title>cluster_AppModule_imports</title>
<polygon fill="none" stroke="black" points="1014,-246.8 1014,-298.8 1961,-298.8 1961,-246.8 1014,-246.8"/>
</g>
<g id="clust24" class="cluster">
<title>cluster_AppModule_providers</title>
<polygon fill="none" stroke="black" points="876,-246.8 876,-298.8 1006,-298.8 1006,-246.8 876,-246.8"/>
</g>
<g id="clust25" class="cluster">
<title>cluster_AppTestE2eModule</title>
<polygon fill="none" stroke="black" stroke-dasharray="1,5" points="652,-306.8 652,-431.8 860,-431.8 860,-306.8 652,-306.8"/>
</g>
<g id="clust30" class="cluster">
<title>cluster_AppTestE2eModule_providers</title>
<polygon fill="none" stroke="black" points="660,-314.8 660,-366.8 852,-366.8 852,-314.8 660,-314.8"/>
</g>
<g id="clust31" class="cluster">
<title>cluster_AuthModule</title>
<polygon fill="none" stroke="black" stroke-dasharray="1,5" points="8,-162.8 8,-230.8 794,-230.8 794,-162.8 8,-162.8"/>
</g>
<g id="clust34" class="cluster">
<title>cluster_AuthModule_exports</title>
<polygon fill="none" stroke="black" points="680,-170.8 680,-222.8 786,-222.8 786,-170.8 680,-170.8"/>
</g>
<g id="clust36" class="cluster">
<title>cluster_AuthModule_providers</title>
<polygon fill="none" stroke="black" points="16,-170.8 16,-222.8 672,-222.8 672,-170.8 16,-170.8"/>
</g>
<g id="clust37" class="cluster">
<title>cluster_CardModule</title>
<polygon fill="none" stroke="black" stroke-dasharray="1,5" points="802,-162.8 802,-230.8 952,-230.8 952,-162.8 802,-162.8"/>
</g>
<g id="clust42" class="cluster">
<title>cluster_CardModule_providers</title>
<polygon fill="none" stroke="black" points="810,-170.8 810,-222.8 944,-222.8 944,-170.8 810,-170.8"/>
</g>
<g id="clust49" class="cluster">
<title>cluster_GroupModule</title>
<polygon fill="none" stroke="black" stroke-dasharray="1,5" points="2729,-170.8 2729,-222.8 2841,-222.8 2841,-170.8 2729,-170.8"/>
</g>
<g id="clust55" class="cluster">
<title>cluster_HealthCheckModule</title>
<polygon fill="none" stroke="black" stroke-dasharray="1,5" points="960,-162.8 960,-230.8 1232,-230.8 1232,-162.8 960,-162.8"/>
</g>
<g id="clust60" class="cluster">
<title>cluster_HealthCheckModule_providers</title>
<polygon fill="none" stroke="black" points="968,-170.8 968,-222.8 1224,-222.8 1224,-170.8 968,-170.8"/>
</g>
<g id="clust61" class="cluster">
<title>cluster_OccupationModule</title>
<polygon fill="none" stroke="black" stroke-dasharray="1,5" points="1240,-162.8 1240,-230.8 1442,-230.8 1442,-162.8 1240,-162.8"/>
</g>
<g id="clust66" class="cluster">
<title>cluster_OccupationModule_providers</title>
<polygon fill="none" stroke="black" points="1248,-170.8 1248,-222.8 1434,-222.8 1434,-170.8 1248,-170.8"/>
</g>
<g id="clust67" class="cluster">
<title>cluster_ProfileModule</title>
<polygon fill="none" stroke="black" stroke-dasharray="1,5" points="1450,-162.8 1450,-230.8 1614,-230.8 1614,-162.8 1450,-162.8"/>
</g>
<g id="clust72" class="cluster">
<title>cluster_ProfileModule_providers</title>
<polygon fill="none" stroke="black" points="1458,-170.8 1458,-222.8 1606,-222.8 1606,-170.8 1458,-170.8"/>
</g>
<g id="clust73" class="cluster">
<title>cluster_SocialNetworkModule</title>
<polygon fill="none" stroke="black" stroke-dasharray="1,5" points="1622,-162.8 1622,-230.8 1850,-230.8 1850,-162.8 1622,-162.8"/>
</g>
<g id="clust78" class="cluster">
<title>cluster_SocialNetworkModule_providers</title>
<polygon fill="none" stroke="black" points="1630,-170.8 1630,-222.8 1842,-222.8 1842,-170.8 1630,-170.8"/>
</g>
<!-- ApiLogModule -->
<g id="node1" class="node">
<title>ApiLogModule</title>
<polygon fill="#8dd3c7" stroke="black" points="2359.6,-149.8 2356.6,-153.8 2335.6,-153.8 2332.6,-149.8 2256.4,-149.8 2256.4,-113.8 2359.6,-113.8 2359.6,-149.8"/>
<text text-anchor="middle" x="2308" y="-127.6" font-family="Times,serif" font-size="14.00">ApiLogModule</text>
</g>
<!-- ApiLogModule&#45;&gt;ApiLogModule -->
<g id="edge6" class="edge">
<title>ApiLogModule&#45;&gt;ApiLogModule</title>
<path fill="none" stroke="black" d="M2282.22,-113.64C2282.22,-108.76 2282.22,-104.8 2282.22,-104.8 2282.22,-104.8 2252.9,-104.8 2252.9,-104.8 2252.9,-104.8 2252.9,-164.8 2252.9,-164.8 2252.9,-164.8 2272.57,-164.8 2272.57,-164.8 2272.57,-164.8 2272.57,-159.84 2272.57,-159.84"/>
<polygon fill="black" stroke="black" points="2276.07,-159.84 2272.57,-149.84 2269.07,-159.84 2276.07,-159.84"/>
</g>
<!-- UserModule -->
<g id="node2" class="node">
<title>UserModule</title>
<polygon fill="#8dd3c7" stroke="black" points="2377.99,-214.8 2374.99,-218.8 2353.99,-218.8 2350.99,-214.8 2292.01,-214.8 2292.01,-178.8 2377.99,-178.8 2377.99,-214.8"/>
<text text-anchor="middle" x="2335" y="-192.6" font-family="Times,serif" font-size="14.00">UserModule</text>
</g>
<!-- ApiLogModule&#45;&gt;UserModule -->
<g id="edge51" class="edge">
<title>ApiLogModule&#45;&gt;UserModule</title>
<path fill="none" stroke="black" d="M2325.78,-149.91C2325.78,-149.91 2325.78,-168.79 2325.78,-168.79"/>
<polygon fill="black" stroke="black" points="2322.28,-168.79 2325.78,-178.79 2329.28,-168.79 2322.28,-168.79"/>
</g>
<!-- ApiLandingPageModule -->
<g id="node3" class="node">
<title>ApiLandingPageModule</title>
<polygon fill="#8dd3c7" stroke="black" points="2430.42,-290.8 2427.42,-294.8 2406.42,-294.8 2403.42,-290.8 2275.58,-290.8 2275.58,-254.8 2430.42,-254.8 2430.42,-290.8"/>
<text text-anchor="middle" x="2353" y="-268.6" font-family="Times,serif" font-size="14.00">ApiLandingPageModule</text>
</g>
<!-- ApiLogModule&#45;&gt;ApiLandingPageModule -->
<g id="edge1" class="edge">
<title>ApiLogModule&#45;&gt;ApiLandingPageModule</title>
<path fill="none" stroke="black" d="M2283.9,-149.94C2283.9,-149.94 2283.9,-244.73 2283.9,-244.73"/>
<polygon fill="black" stroke="black" points="2280.4,-244.72 2283.9,-254.73 2287.4,-244.73 2280.4,-244.72"/>
</g>
<!-- ApiMailModule -->
<g id="node7" class="node">
<title>ApiMailModule</title>
<polygon fill="#8dd3c7" stroke="black" points="2675.49,-290.8 2672.49,-294.8 2651.49,-294.8 2648.49,-290.8 2568.51,-290.8 2568.51,-254.8 2675.49,-254.8 2675.49,-290.8"/>
<text text-anchor="middle" x="2622" y="-268.6" font-family="Times,serif" font-size="14.00">ApiMailModule</text>
</g>
<!-- ApiLogModule&#45;&gt;ApiMailModule -->
<g id="edge8" class="edge">
<title>ApiLogModule&#45;&gt;ApiMailModule</title>
<path fill="none" stroke="black" d="M2359.95,-137.8C2404.9,-137.8 2462.72,-137.8 2462.72,-137.8 2462.72,-137.8 2462.72,-272.8 2462.72,-272.8 2462.72,-272.8 2558.07,-272.8 2558.07,-272.8"/>
<polygon fill="black" stroke="black" points="2558.07,-276.3 2568.07,-272.8 2558.07,-269.3 2558.07,-276.3"/>
</g>
<!-- AuthModule -->
<g id="node9" class="node">
<title>AuthModule</title>
<polygon fill="#8dd3c7" stroke="black" points="1109.55,-290.8 1106.55,-294.8 1085.55,-294.8 1082.55,-290.8 1022.45,-290.8 1022.45,-254.8 1109.55,-254.8 1109.55,-290.8"/>
<text text-anchor="middle" x="1066" y="-268.6" font-family="Times,serif" font-size="14.00">AuthModule</text>
</g>
<!-- ApiLogModule&#45;&gt;AuthModule -->
<g id="edge28" class="edge">
<title>ApiLogModule&#45;&gt;AuthModule</title>
<path fill="none" stroke="black" d="M2259.67,-150.03C2259.67,-175.81 2259.67,-219.8 2259.67,-219.8 2259.67,-219.8 1090.32,-219.8 1090.32,-219.8 1090.32,-219.8 1090.32,-244.56 1090.32,-244.56"/>
<polygon fill="black" stroke="black" points="1086.82,-244.56 1090.32,-254.56 1093.82,-244.56 1086.82,-244.56"/>
</g>
<!-- CardModule -->
<g id="node10" class="node">
<title>CardModule</title>
<polygon fill="#8dd3c7" stroke="black" points="1214.27,-290.8 1211.27,-294.8 1190.27,-294.8 1187.27,-290.8 1127.73,-290.8 1127.73,-254.8 1214.27,-254.8 1214.27,-290.8"/>
<text text-anchor="middle" x="1171" y="-268.6" font-family="Times,serif" font-size="14.00">CardModule</text>
</g>
<!-- ApiLogModule&#45;&gt;CardModule -->
<g id="edge36" class="edge">
<title>ApiLogModule&#45;&gt;CardModule</title>
<path fill="none" stroke="black" d="M2256.11,-122.8C2040.24,-122.8 1224.57,-122.8 1224.57,-122.8 1224.57,-122.8 1224.57,-272.8 1224.57,-272.8 1224.57,-272.8 1223.59,-272.8 1223.59,-272.8"/>
<polygon fill="black" stroke="black" points="1224.74,-269.3 1214.74,-272.8 1224.74,-276.3 1224.74,-269.3"/>
</g>
<!-- OccupationModule -->
<g id="node13" class="node">
<title>OccupationModule</title>
<polygon fill="#8dd3c7" stroke="black" points="1623.08,-290.8 1620.08,-294.8 1599.08,-294.8 1596.08,-290.8 1498.92,-290.8 1498.92,-254.8 1623.08,-254.8 1623.08,-290.8"/>
<text text-anchor="middle" x="1561" y="-268.6" font-family="Times,serif" font-size="14.00">OccupationModule</text>
</g>
<!-- ApiLogModule&#45;&gt;OccupationModule -->
<g id="edge42" class="edge">
<title>ApiLogModule&#45;&gt;OccupationModule</title>
<path fill="none" stroke="black" d="M2256.42,-140.8C2094.42,-140.8 1606.53,-140.8 1606.53,-140.8 1606.53,-140.8 1606.53,-244.72 1606.53,-244.72"/>
<polygon fill="black" stroke="black" points="1603.03,-244.72 1606.53,-254.72 1610.03,-244.72 1603.03,-244.72"/>
</g>
<!-- ProfileModule -->
<g id="node14" class="node">
<title>ProfileModule</title>
<polygon fill="#8dd3c7" stroke="black" points="1480.66,-290.8 1477.66,-294.8 1456.66,-294.8 1453.66,-290.8 1383.34,-290.8 1383.34,-254.8 1480.66,-254.8 1480.66,-290.8"/>
<text text-anchor="middle" x="1432" y="-268.6" font-family="Times,serif" font-size="14.00">ProfileModule</text>
</g>
<!-- ApiLogModule&#45;&gt;ProfileModule -->
<g id="edge45" class="edge">
<title>ApiLogModule&#45;&gt;ProfileModule</title>
<path fill="none" stroke="black" d="M2256.32,-131.8C2070.26,-131.8 1445.61,-131.8 1445.61,-131.8 1445.61,-131.8 1445.61,-244.66 1445.61,-244.66"/>
<polygon fill="black" stroke="black" points="1442.11,-244.66 1445.61,-254.66 1449.11,-244.66 1442.11,-244.66"/>
</g>
<!-- SocialNetworkModule -->
<g id="node15" class="node">
<title>SocialNetworkModule</title>
<polygon fill="#8dd3c7" stroke="black" points="1784.53,-290.8 1781.53,-294.8 1760.53,-294.8 1757.53,-290.8 1641.47,-290.8 1641.47,-254.8 1784.53,-254.8 1784.53,-290.8"/>
<text text-anchor="middle" x="1713" y="-268.6" font-family="Times,serif" font-size="14.00">SocialNetworkModule</text>
</g>
<!-- ApiLogModule&#45;&gt;SocialNetworkModule -->
<g id="edge48" class="edge">
<title>ApiLogModule&#45;&gt;SocialNetworkModule</title>
<path fill="none" stroke="black" d="M2262.9,-150.04C2262.9,-179.37 2262.9,-233.8 2262.9,-233.8 2262.9,-233.8 1748.88,-233.8 1748.88,-233.8 1748.88,-233.8 1748.88,-244.67 1748.88,-244.67"/>
<polygon fill="black" stroke="black" points="1745.38,-244.67 1748.88,-254.67 1752.38,-244.67 1745.38,-244.67"/>
</g>
<!-- AppModule -->
<g id="node16" class="node">
<title>AppModule</title>
<polygon fill="#8dd3c7" stroke="black" points="1678.66,-358.8 1675.66,-362.8 1654.66,-362.8 1651.66,-358.8 1595.34,-358.8 1595.34,-322.8 1678.66,-322.8 1678.66,-358.8"/>
<text text-anchor="middle" x="1637" y="-336.6" font-family="Times,serif" font-size="14.00">AppModule</text>
</g>
<!-- ApiLogModule&#45;&gt;AppModule -->
<g id="edge14" class="edge">
<title>ApiLogModule&#45;&gt;AppModule</title>
<path fill="none" stroke="black" d="M2266.12,-149.81C2266.12,-200.17 2266.12,-338.8 2266.12,-338.8 2266.12,-338.8 1688.77,-338.8 1688.77,-338.8"/>
<polygon fill="black" stroke="black" points="1688.77,-335.3 1678.77,-338.8 1688.77,-342.3 1688.77,-335.3"/>
</g>
<!-- GroupModule -->
<g id="node26" class="node">
<title>GroupModule</title>
<polygon fill="#8dd3c7" stroke="black" points="2832.82,-214.8 2829.82,-218.8 2808.82,-218.8 2805.82,-214.8 2737.18,-214.8 2737.18,-178.8 2832.82,-178.8 2832.82,-214.8"/>
<text text-anchor="middle" x="2785" y="-192.6" font-family="Times,serif" font-size="14.00">GroupModule</text>
</g>
<!-- ApiLogModule&#45;&gt;GroupModule -->
<g id="edge39" class="edge">
<title>ApiLogModule&#45;&gt;GroupModule</title>
<path fill="none" stroke="black" d="M2359.55,-125.8C2479.88,-125.8 2769.11,-125.8 2769.11,-125.8 2769.11,-125.8 2769.11,-168.52 2769.11,-168.52"/>
<polygon fill="black" stroke="black" points="2765.61,-168.52 2769.11,-178.52 2772.61,-168.52 2765.61,-168.52"/>
</g>
<!-- UserModule&#45;&gt;ApiLandingPageModule -->
<g id="edge2" class="edge">
<title>UserModule&#45;&gt;ApiLandingPageModule</title>
<path fill="none" stroke="black" d="M2335,-214.81C2335,-214.81 2335,-244.65 2335,-244.65"/>
<polygon fill="black" stroke="black" points="2331.5,-244.65 2335,-254.65 2338.5,-244.65 2331.5,-244.65"/>
</g>
<!-- UserModule&#45;&gt;ApiMailModule -->
<g id="edge9" class="edge">
<title>UserModule&#45;&gt;ApiMailModule</title>
<path fill="none" stroke="black" d="M2378.1,-196.8C2409.46,-196.8 2446.46,-196.8 2446.46,-196.8 2446.46,-196.8 2446.46,-281.8 2446.46,-281.8 2446.46,-281.8 2558.38,-281.8 2558.38,-281.8"/>
<polygon fill="black" stroke="black" points="2558.38,-285.3 2568.38,-281.8 2558.38,-278.3 2558.38,-285.3"/>
</g>
<!-- UserModule&#45;&gt;AppModule -->
<g id="edge23" class="edge">
<title>UserModule&#45;&gt;AppModule</title>
<path fill="none" stroke="black" d="M2291.94,-196.8C2279.56,-196.8 2269.34,-196.8 2269.34,-196.8 2269.34,-196.8 2269.34,-343.8 2269.34,-343.8 2269.34,-343.8 1688.98,-343.8 1688.98,-343.8"/>
<polygon fill="black" stroke="black" points="1688.98,-340.3 1678.98,-343.8 1688.98,-347.3 1688.98,-340.3"/>
</g>
<!-- ApiLandingPageModule&#45;&gt;AppModule -->
<g id="edge13" class="edge">
<title>ApiLandingPageModule&#45;&gt;AppModule</title>
<path fill="none" stroke="black" d="M2353,-290.81C2353,-313.29 2353,-348.8 2353,-348.8 2353,-348.8 1688.85,-348.8 1688.85,-348.8"/>
<polygon fill="black" stroke="black" points="1688.85,-345.3 1678.85,-348.8 1688.85,-352.3 1688.85,-345.3"/>
</g>
<!-- ApiLandingPageService -->
<g id="node4" class="node">
<title>ApiLandingPageService</title>
<ellipse fill="#fdb462" stroke="black" cx="2098" cy="-66.8" rx="105.36" ry="18"/>
<text text-anchor="middle" x="2098" y="-62.6" font-family="Times,serif" font-size="14.00">ApiLandingPageService</text>
</g>
<!-- ApiLandingPageService&#45;&gt;ApiLandingPageModule -->
<g id="edge3" class="edge">
<title>ApiLandingPageService&#45;&gt;ApiLandingPageModule</title>
<path fill="none" stroke="black" d="M2098,-84.88C2098,-136.14 2098,-278.8 2098,-278.8 2098,-278.8 2265.45,-278.8 2265.45,-278.8"/>
<polygon fill="black" stroke="black" points="2265.45,-282.3 2275.45,-278.8 2265.45,-275.3 2265.45,-282.3"/>
</g>
<!-- ApiLogService -->
<g id="node5" class="node">
<title>ApiLogService</title>
<ellipse fill="#fdb462" stroke="black" cx="2291" cy="-66.8" rx="70.07" ry="18"/>
<text text-anchor="middle" x="2291" y="-62.6" font-family="Times,serif" font-size="14.00">ApiLogService</text>
</g>
<!-- ApiLogService&#45;&gt;ApiLogModule -->
<g id="edge7" class="edge">
<title>ApiLogService&#45;&gt;ApiLogModule</title>
<path fill="none" stroke="black" d="M2308,-84.56C2308,-84.56 2308,-103.61 2308,-103.61"/>
<polygon fill="black" stroke="black" points="2304.5,-103.61 2308,-113.61 2311.5,-103.61 2304.5,-103.61"/>
</g>
<!-- ApiLogService&#45;&gt;UserModule -->
<g id="edge52" class="edge">
<title>ApiLogService&#45;&gt;UserModule</title>
<path fill="none" stroke="black" d="M2357.1,-60.8C2362.94,-60.8 2366.69,-60.8 2366.69,-60.8 2366.69,-60.8 2366.69,-168.74 2366.69,-168.74"/>
<polygon fill="black" stroke="black" points="2363.19,-168.74 2366.69,-178.74 2370.19,-168.74 2363.19,-168.74"/>
</g>
<!-- ApiLogService&#45;&gt;ApiLandingPageModule -->
<g id="edge4" class="edge">
<title>ApiLogService&#45;&gt;ApiLandingPageModule</title>
<path fill="none" stroke="black" d="M2245.8,-80.86C2245.8,-126.39 2245.8,-266.8 2245.8,-266.8 2245.8,-266.8 2265.66,-266.8 2265.66,-266.8"/>
<polygon fill="black" stroke="black" points="2265.66,-270.3 2275.66,-266.8 2265.66,-263.3 2265.66,-270.3"/>
</g>
<!-- ApiLogService&#45;&gt;ApiMailModule -->
<g id="edge10" class="edge">
<title>ApiLogService&#45;&gt;ApiMailModule</title>
<path fill="none" stroke="black" d="M2249.35,-81.29C2249.35,-122.4 2249.35,-236.8 2249.35,-236.8 2249.35,-236.8 2604.17,-236.8 2604.17,-236.8 2604.17,-236.8 2604.17,-244.38 2604.17,-244.38"/>
<polygon fill="black" stroke="black" points="2600.67,-244.38 2604.17,-254.38 2607.67,-244.38 2600.67,-244.38"/>
</g>
<!-- ApiLogService&#45;&gt;AuthModule -->
<g id="edge30" class="edge">
<title>ApiLogService&#45;&gt;AuthModule</title>
<path fill="none" stroke="black" d="M2224.51,-72.53C2224.51,-100.12 2224.51,-217.8 2224.51,-217.8 2224.51,-217.8 1080.59,-217.8 1080.59,-217.8 1080.59,-217.8 1080.59,-244.79 1080.59,-244.79"/>
<polygon fill="black" stroke="black" points="1077.09,-244.79 1080.59,-254.79 1084.09,-244.79 1077.09,-244.79"/>
</g>
<!-- ApiLogService&#45;&gt;CardModule -->
<g id="edge37" class="edge">
<title>ApiLogService&#45;&gt;CardModule</title>
<path fill="none" stroke="black" d="M2228.06,-74.85C2228.06,-107.05 2228.06,-224.8 2228.06,-224.8 2228.06,-224.8 1185.46,-224.8 1185.46,-224.8 1185.46,-224.8 1185.46,-244.65 1185.46,-244.65"/>
<polygon fill="black" stroke="black" points="1181.96,-244.65 1185.46,-254.65 1188.96,-244.65 1181.96,-244.65"/>
</g>
<!-- ApiLogService&#45;&gt;OccupationModule -->
<g id="edge43" class="edge">
<title>ApiLogService&#45;&gt;OccupationModule</title>
<path fill="none" stroke="black" d="M2235.16,-77.75C2235.16,-114.29 2235.16,-229.8 2235.16,-229.8 2235.16,-229.8 1614.79,-229.8 1614.79,-229.8 1614.79,-229.8 1614.79,-244.31 1614.79,-244.31"/>
<polygon fill="black" stroke="black" points="1611.29,-244.31 1614.79,-254.31 1618.29,-244.31 1611.29,-244.31"/>
</g>
<!-- ApiLogService&#45;&gt;ProfileModule -->
<g id="edge46" class="edge">
<title>ApiLogService&#45;&gt;ProfileModule</title>
<path fill="none" stroke="black" d="M2231.61,-76.81C2231.61,-111.84 2231.61,-226.8 2231.61,-226.8 2231.61,-226.8 1475.79,-226.8 1475.79,-226.8 1475.79,-226.8 1475.79,-244.62 1475.79,-244.62"/>
<polygon fill="black" stroke="black" points="1472.29,-244.62 1475.79,-254.62 1479.29,-244.62 1472.29,-244.62"/>
</g>
<!-- ApiLogService&#45;&gt;SocialNetworkModule -->
<g id="edge49" class="edge">
<title>ApiLogService&#45;&gt;SocialNetworkModule</title>
<path fill="none" stroke="black" d="M2238.71,-78.93C2238.71,-117.04 2238.71,-231.8 2238.71,-231.8 2238.71,-231.8 1713,-231.8 1713,-231.8 1713,-231.8 1713,-244.7 1713,-244.7"/>
<polygon fill="black" stroke="black" points="1709.5,-244.7 1713,-254.7 1716.5,-244.7 1709.5,-244.7"/>
</g>
<!-- ApiLogService&#45;&gt;AppModule -->
<g id="edge24" class="edge">
<title>ApiLogService&#45;&gt;AppModule</title>
<path fill="none" stroke="black" d="M2242.26,-80.04C2242.26,-133.92 2242.26,-333.8 2242.26,-333.8 2242.26,-333.8 1689.08,-333.8 1689.08,-333.8"/>
<polygon fill="black" stroke="black" points="1689.08,-330.3 1679.08,-333.8 1689.08,-337.3 1689.08,-330.3"/>
</g>
<!-- ApiLogService&#45;&gt;GroupModule -->
<g id="edge40" class="edge">
<title>ApiLogService&#45;&gt;GroupModule</title>
<path fill="none" stroke="black" d="M2333.78,-81.13C2333.78,-88.02 2333.78,-94.8 2333.78,-94.8 2333.78,-94.8 2800.89,-94.8 2800.89,-94.8 2800.89,-94.8 2800.89,-168.56 2800.89,-168.56"/>
<polygon fill="black" stroke="black" points="2797.39,-168.56 2800.89,-178.56 2804.39,-168.56 2797.39,-168.56"/>
</g>
<!-- UserService -->
<g id="node6" class="node">
<title>UserService</title>
<ellipse fill="#fdb462" stroke="black" cx="2437" cy="-66.8" rx="58.46" ry="18"/>
<text text-anchor="middle" x="2437" y="-62.6" font-family="Times,serif" font-size="14.00">UserService</text>
</g>
<!-- UserService&#45;&gt;UserModule -->
<g id="edge53" class="edge">
<title>UserService&#45;&gt;UserModule</title>
<path fill="none" stroke="black" d="M2381.88,-72.8C2376.13,-72.8 2372.34,-72.8 2372.34,-72.8 2372.34,-72.8 2372.34,-168.77 2372.34,-168.77"/>
<polygon fill="black" stroke="black" points="2368.84,-168.77 2372.34,-178.77 2375.84,-168.77 2368.84,-168.77"/>
</g>
<!-- UserService&#45;&gt;ApiLandingPageModule -->
<g id="edge5" class="edge">
<title>UserService&#45;&gt;ApiLandingPageModule</title>
<path fill="none" stroke="black" d="M2413.06,-83.31C2413.06,-83.31 2413.06,-244.75 2413.06,-244.75"/>
<polygon fill="black" stroke="black" points="2409.56,-244.75 2413.06,-254.75 2416.56,-244.75 2409.56,-244.75"/>
</g>
<!-- UserService&#45;&gt;ApiMailModule -->
<g id="edge12" class="edge">
<title>UserService&#45;&gt;ApiMailModule</title>
<path fill="none" stroke="black" d="M2478.97,-79.42C2478.97,-122.9 2478.97,-263.8 2478.97,-263.8 2478.97,-263.8 2558.34,-263.8 2558.34,-263.8"/>
<polygon fill="black" stroke="black" points="2558.34,-267.3 2568.34,-263.8 2558.34,-260.3 2558.34,-267.3"/>
</g>
<!-- UserService&#45;&gt;AuthModule -->
<g id="edge35" class="edge">
<title>UserService&#45;&gt;AuthModule</title>
<path fill="none" stroke="black" d="M2395.92,-79.57C2395.92,-116.82 2395.92,-222.8 2395.92,-222.8 2395.92,-222.8 1100.05,-222.8 1100.05,-222.8 1100.05,-222.8 1100.05,-244.75 1100.05,-244.75"/>
<polygon fill="black" stroke="black" points="1096.55,-244.75 1100.05,-254.75 1103.55,-244.75 1096.55,-244.75"/>
</g>
<!-- ApiMailModule&#45;&gt;AppModule -->
<g id="edge15" class="edge">
<title>ApiMailModule&#45;&gt;AppModule</title>
<path fill="none" stroke="black" d="M2622,-291.18C2622,-315.08 2622,-353.8 2622,-353.8 2622,-353.8 1688.7,-353.8 1688.7,-353.8"/>
<polygon fill="black" stroke="black" points="1688.7,-350.3 1678.7,-353.8 1688.7,-357.3 1688.7,-350.3"/>
</g>
<!-- ApiMailService -->
<g id="node8" class="node">
<title>ApiMailService</title>
<ellipse fill="#fdb462" stroke="black" cx="2608" cy="-196.8" rx="72.94" ry="18"/>
<text text-anchor="middle" x="2608" y="-192.6" font-family="Times,serif" font-size="14.00">ApiMailService</text>
</g>
<!-- ApiMailService&#45;&gt;ApiMailModule -->
<g id="edge11" class="edge">
<title>ApiMailService&#45;&gt;ApiMailModule</title>
<path fill="none" stroke="black" d="M2639.83,-213.29C2639.83,-213.29 2639.83,-244.75 2639.83,-244.75"/>
<polygon fill="black" stroke="black" points="2636.33,-244.75 2639.83,-254.75 2643.33,-244.75 2636.33,-244.75"/>
</g>
<!-- AuthModule&#45;&gt;AppModule -->
<g id="edge16" class="edge">
<title>AuthModule&#45;&gt;AppModule</title>
<path fill="none" stroke="black" d="M1066,-291.09C1066,-313.01 1066,-346.8 1066,-346.8 1066,-346.8 1585.01,-346.8 1585.01,-346.8"/>
<polygon fill="black" stroke="black" points="1585.01,-350.3 1595.01,-346.8 1585.01,-343.3 1585.01,-350.3"/>
</g>
<!-- AuthService  -->
<g id="node20" class="node">
<title>AuthService </title>
<polygon fill="#fb8072" stroke="black" points="777.98,-214.8 688.02,-214.8 688.02,-178.8 777.98,-178.8 777.98,-214.8"/>
<text text-anchor="middle" x="733" y="-192.6" font-family="Times,serif" font-size="14.00">AuthService </text>
</g>
<!-- AuthModule&#45;&gt;AuthService  -->
<g id="edge29" class="edge">
<title>AuthModule&#45;&gt;AuthService </title>
<path fill="none" stroke="black" stroke-dasharray="5,2" d="M1070.86,-254.56C1070.86,-247.37 1070.86,-240.8 1070.86,-240.8 1070.86,-240.8 733,-240.8 733,-240.8 733,-240.8 733,-224.95 733,-224.95"/>
<polygon fill="black" stroke="black" points="736.5,-224.95 733,-214.95 729.5,-224.95 736.5,-224.95"/>
</g>
<!-- CardModule&#45;&gt;AppModule -->
<g id="edge17" class="edge">
<title>CardModule&#45;&gt;AppModule</title>
<path fill="none" stroke="black" d="M1171,-291.02C1171,-311.17 1171,-340.8 1171,-340.8 1171,-340.8 1585.24,-340.8 1585.24,-340.8"/>
<polygon fill="black" stroke="black" points="1585.24,-344.3 1595.24,-340.8 1585.24,-337.3 1585.24,-344.3"/>
</g>
<!-- EntitiesToMoveModule -->
<g id="node11" class="node">
<title>EntitiesToMoveModule</title>
<polygon fill="#8dd3c7" stroke="black" points="1953.04,-290.8 1950.04,-294.8 1929.04,-294.8 1926.04,-290.8 1802.96,-290.8 1802.96,-254.8 1953.04,-254.8 1953.04,-290.8"/>
<text text-anchor="middle" x="1878" y="-268.6" font-family="Times,serif" font-size="14.00">EntitiesToMoveModule</text>
</g>
<!-- EntitiesToMoveModule&#45;&gt;AppModule -->
<g id="edge18" class="edge">
<title>EntitiesToMoveModule&#45;&gt;AppModule</title>
<path fill="none" stroke="black" d="M1878,-290.83C1878,-307.2 1878,-328.8 1878,-328.8 1878,-328.8 1688.7,-328.8 1688.7,-328.8"/>
<polygon fill="black" stroke="black" points="1688.7,-325.3 1678.7,-328.8 1688.7,-332.3 1688.7,-325.3"/>
</g>
<!-- HealthCheckModule -->
<g id="node12" class="node">
<title>HealthCheckModule</title>
<polygon fill="#8dd3c7" stroke="black" points="1365.14,-290.8 1362.14,-294.8 1341.14,-294.8 1338.14,-290.8 1232.86,-290.8 1232.86,-254.8 1365.14,-254.8 1365.14,-290.8"/>
<text text-anchor="middle" x="1299" y="-268.6" font-family="Times,serif" font-size="14.00">HealthCheckModule</text>
</g>
<!-- HealthCheckModule&#45;&gt;AppModule -->
<g id="edge19" class="edge">
<title>HealthCheckModule&#45;&gt;AppModule</title>
<path fill="none" stroke="black" d="M1299,-291.07C1299,-309.36 1299,-334.8 1299,-334.8 1299,-334.8 1585.22,-334.8 1585.22,-334.8"/>
<polygon fill="black" stroke="black" points="1585.22,-338.3 1595.22,-334.8 1585.22,-331.3 1585.22,-338.3"/>
</g>
<!-- OccupationModule&#45;&gt;AppModule -->
<g id="edge20" class="edge">
<title>OccupationModule&#45;&gt;AppModule</title>
<path fill="none" stroke="black" d="M1609.11,-291.02C1609.11,-291.02 1609.11,-312.53 1609.11,-312.53"/>
<polygon fill="black" stroke="black" points="1605.61,-312.53 1609.11,-322.53 1612.61,-312.53 1605.61,-312.53"/>
</g>
<!-- ProfileModule&#45;&gt;AppModule -->
<g id="edge21" class="edge">
<title>ProfileModule&#45;&gt;AppModule</title>
<path fill="none" stroke="black" d="M1432,-290.83C1432,-307.2 1432,-328.8 1432,-328.8 1432,-328.8 1585.02,-328.8 1585.02,-328.8"/>
<polygon fill="black" stroke="black" points="1585.02,-332.3 1595.02,-328.8 1585.02,-325.3 1585.02,-332.3"/>
</g>
<!-- SocialNetworkModule&#45;&gt;AppModule -->
<g id="edge22" class="edge">
<title>SocialNetworkModule&#45;&gt;AppModule</title>
<path fill="none" stroke="black" d="M1660.03,-291.02C1660.03,-291.02 1660.03,-312.53 1660.03,-312.53"/>
<polygon fill="black" stroke="black" points="1656.53,-312.53 1660.03,-322.53 1663.53,-312.53 1656.53,-312.53"/>
</g>
<!-- AppTestE2eModule -->
<g id="node18" class="node">
<title>AppTestE2eModule</title>
<polygon fill="#8dd3c7" stroke="black" points="835.53,-423.8 832.53,-427.8 811.53,-427.8 808.53,-423.8 706.47,-423.8 706.47,-387.8 835.53,-387.8 835.53,-423.8"/>
<text text-anchor="middle" x="771" y="-401.6" font-family="Times,serif" font-size="14.00">AppTestE2eModule</text>
</g>
<!-- AppModule&#45;&gt;AppTestE2eModule -->
<g id="edge26" class="edge">
<title>AppModule&#45;&gt;AppTestE2eModule</title>
<path fill="none" stroke="black" d="M1637,-358.91C1637,-378.14 1637,-405.8 1637,-405.8 1637,-405.8 845.74,-405.8 845.74,-405.8"/>
<polygon fill="black" stroke="black" points="845.74,-402.3 835.74,-405.8 845.74,-409.3 845.74,-402.3"/>
</g>
<!-- AppService -->
<g id="node17" class="node">
<title>AppService</title>
<ellipse fill="#fdb462" stroke="black" cx="941" cy="-272.8" rx="56.75" ry="18"/>
<text text-anchor="middle" x="941" y="-268.6" font-family="Times,serif" font-size="14.00">AppService</text>
</g>
<!-- AppService&#45;&gt;AppModule -->
<g id="edge25" class="edge">
<title>AppService&#45;&gt;AppModule</title>
<path fill="none" stroke="black" d="M941,-290.95C941,-314.56 941,-352.8 941,-352.8 941,-352.8 1585.29,-352.8 1585.29,-352.8"/>
<polygon fill="black" stroke="black" points="1585.29,-356.3 1595.29,-352.8 1585.29,-349.3 1585.29,-356.3"/>
</g>
<!-- AppTestE2eService -->
<g id="node19" class="node">
<title>AppTestE2eService</title>
<ellipse fill="#fdb462" stroke="black" cx="756" cy="-340.8" rx="88.03" ry="18"/>
<text text-anchor="middle" x="756" y="-336.6" font-family="Times,serif" font-size="14.00">AppTestE2eService</text>
</g>
<!-- AppTestE2eService&#45;&gt;AppTestE2eModule -->
<g id="edge27" class="edge">
<title>AppTestE2eService&#45;&gt;AppTestE2eModule</title>
<path fill="none" stroke="black" d="M771,-358.56C771,-358.56 771,-377.61 771,-377.61"/>
<polygon fill="black" stroke="black" points="767.5,-377.61 771,-387.61 774.5,-377.61 767.5,-377.61"/>
</g>
<!-- AuthService -->
<g id="node21" class="node">
<title>AuthService</title>
<ellipse fill="#fdb462" stroke="black" cx="324" cy="-196.8" rx="59.11" ry="18"/>
<text text-anchor="middle" x="324" y="-192.6" font-family="Times,serif" font-size="14.00">AuthService</text>
</g>
<!-- AuthService&#45;&gt;AuthModule -->
<g id="edge31" class="edge">
<title>AuthService&#45;&gt;AuthModule</title>
<path fill="none" stroke="black" d="M324,-214.92C324,-229.58 324,-247.8 324,-247.8 324,-247.8 1041.68,-247.8 1041.68,-247.8 1041.68,-247.8 1041.68,-248.48 1041.68,-248.48"/>
<polygon fill="black" stroke="black" points="1038.18,-244.63 1041.68,-254.63 1045.18,-244.63 1038.18,-244.63"/>
</g>
<!-- JwtRefreshTokenStrategy -->
<g id="node22" class="node">
<title>JwtRefreshTokenStrategy</title>
<ellipse fill="#fdb462" stroke="black" cx="135" cy="-196.8" rx="111.17" ry="18"/>
<text text-anchor="middle" x="135" y="-192.6" font-family="Times,serif" font-size="14.00">JwtRefreshTokenStrategy</text>
</g>
<!-- JwtRefreshTokenStrategy&#45;&gt;AuthModule -->
<g id="edge32" class="edge">
<title>JwtRefreshTokenStrategy&#45;&gt;AuthModule</title>
<path fill="none" stroke="black" d="M135,-215.08C135,-230.75 135,-250.8 135,-250.8 135,-250.8 1031.95,-250.8 1031.95,-250.8 1031.95,-250.8 1031.95,-251.18 1031.95,-251.18"/>
<polygon fill="black" stroke="black" points="1028.45,-244.63 1031.95,-254.63 1035.45,-244.63 1028.45,-244.63"/>
</g>
<!-- JwtStrategy -->
<g id="node23" class="node">
<title>JwtStrategy</title>
<ellipse fill="#fdb462" stroke="black" cx="607" cy="-196.8" rx="56.77" ry="18"/>
<text text-anchor="middle" x="607" y="-192.6" font-family="Times,serif" font-size="14.00">JwtStrategy</text>
</g>
<!-- JwtStrategy&#45;&gt;AuthModule -->
<g id="edge33" class="edge">
<title>JwtStrategy&#45;&gt;AuthModule</title>
<path fill="none" stroke="black" d="M607,-214.84C607,-228.09 607,-243.8 607,-243.8 607,-243.8 1061.14,-243.8 1061.14,-243.8 1061.14,-243.8 1061.14,-244.88 1061.14,-244.88"/>
<polygon fill="black" stroke="black" points="1057.64,-244.6 1061.14,-254.6 1064.64,-244.6 1057.64,-244.6"/>
</g>
<!-- LocalStrategy -->
<g id="node24" class="node">
<title>LocalStrategy</title>
<ellipse fill="#fdb462" stroke="black" cx="467" cy="-196.8" rx="65.4" ry="18"/>
<text text-anchor="middle" x="467" y="-192.6" font-family="Times,serif" font-size="14.00">LocalStrategy</text>
</g>
<!-- LocalStrategy&#45;&gt;AuthModule -->
<g id="edge34" class="edge">
<title>LocalStrategy&#45;&gt;AuthModule</title>
<path fill="none" stroke="black" d="M467,-215.05C467,-228.98 467,-245.8 467,-245.8 467,-245.8 1051.41,-245.8 1051.41,-245.8 1051.41,-245.8 1051.41,-246.68 1051.41,-246.68"/>
<polygon fill="black" stroke="black" points="1047.91,-244.64 1051.41,-254.64 1054.91,-244.64 1047.91,-244.64"/>
</g>
<!-- CardService -->
<g id="node25" class="node">
<title>CardService</title>
<ellipse fill="#fdb462" stroke="black" cx="877" cy="-196.8" rx="58.53" ry="18"/>
<text text-anchor="middle" x="877" y="-192.6" font-family="Times,serif" font-size="14.00">CardService</text>
</g>
<!-- CardService&#45;&gt;CardModule -->
<g id="edge38" class="edge">
<title>CardService&#45;&gt;CardModule</title>
<path fill="none" stroke="black" d="M910.07,-211.96C910.07,-223.99 910.07,-238.8 910.07,-238.8 910.07,-238.8 1156.54,-238.8 1156.54,-238.8 1156.54,-238.8 1156.54,-244.61 1156.54,-244.61"/>
<polygon fill="black" stroke="black" points="1153.04,-244.61 1156.54,-254.61 1160.04,-244.61 1153.04,-244.61"/>
</g>
<!-- CustomHealthCheckService -->
<g id="node27" class="node">
<title>CustomHealthCheckService</title>
<ellipse fill="#fdb462" stroke="black" cx="1096" cy="-196.8" rx="120.41" ry="18"/>
<text text-anchor="middle" x="1096" y="-192.6" font-family="Times,serif" font-size="14.00">CustomHealthCheckService</text>
</g>
<!-- CustomHealthCheckService&#45;&gt;HealthCheckModule -->
<g id="edge41" class="edge">
<title>CustomHealthCheckService&#45;&gt;HealthCheckModule</title>
<path fill="none" stroke="black" d="M1216.64,-196.8C1233.16,-196.8 1244.59,-196.8 1244.59,-196.8 1244.59,-196.8 1244.59,-244.79 1244.59,-244.79"/>
<polygon fill="black" stroke="black" points="1241.09,-244.79 1244.59,-254.79 1248.09,-244.79 1241.09,-244.79"/>
</g>
<!-- OccupationService -->
<g id="node28" class="node">
<title>OccupationService</title>
<ellipse fill="#fdb462" stroke="black" cx="1341" cy="-196.8" rx="84.51" ry="18"/>
<text text-anchor="middle" x="1341" y="-192.6" font-family="Times,serif" font-size="14.00">OccupationService</text>
</g>
<!-- OccupationService&#45;&gt;OccupationModule -->
<g id="edge44" class="edge">
<title>OccupationService&#45;&gt;OccupationModule</title>
<path fill="none" stroke="black" d="M1404.34,-208.95C1404.34,-225.42 1404.34,-252.8 1404.34,-252.8 1404.34,-252.8 1548.62,-252.8 1548.62,-252.8 1548.62,-252.8 1548.62,-252.98 1548.62,-252.98"/>
<polygon fill="black" stroke="black" points="1545.12,-244.65 1548.62,-254.65 1552.12,-244.65 1545.12,-244.65"/>
</g>
<!-- ProfileService -->
<g id="node29" class="node">
<title>ProfileService</title>
<ellipse fill="#fdb462" stroke="black" cx="1532" cy="-196.8" rx="66.05" ry="18"/>
<text text-anchor="middle" x="1532" y="-192.6" font-family="Times,serif" font-size="14.00">ProfileService</text>
</g>
<!-- ProfileService&#45;&gt;ProfileModule -->
<g id="edge47" class="edge">
<title>ProfileService&#45;&gt;ProfileModule</title>
<path fill="none" stroke="black" d="M1470.76,-203.81C1470.76,-203.81 1470.76,-244.69 1470.76,-244.69"/>
<polygon fill="black" stroke="black" points="1467.26,-244.69 1470.76,-254.69 1474.26,-244.69 1467.26,-244.69"/>
</g>
<!-- SocialNetworkService -->
<g id="node30" class="node">
<title>SocialNetworkService</title>
<ellipse fill="#fdb462" stroke="black" cx="1736" cy="-196.8" rx="97.84" ry="18"/>
<text text-anchor="middle" x="1736" y="-192.6" font-family="Times,serif" font-size="14.00">SocialNetworkService</text>
</g>
<!-- SocialNetworkService&#45;&gt;SocialNetworkModule -->
<g id="edge50" class="edge">
<title>SocialNetworkService&#45;&gt;SocialNetworkModule</title>
<path fill="none" stroke="black" d="M1677.12,-211.45C1677.12,-211.45 1677.12,-244.7 1677.12,-244.7"/>
<polygon fill="black" stroke="black" points="1673.62,-244.7 1677.12,-254.7 1680.62,-244.7 1673.62,-244.7"/>
</g>
</g>
</svg>
