<?xml version="1.0" encoding="UTF-8" standalone="no"?>
<!DOCTYPE svg PUBLIC "-//W3C//DTD SVG 1.1//EN"
 "http://www.w3.org/Graphics/SVG/1.1/DTD/svg11.dtd">
<!-- Generated by graphviz version 5.0.0 (20220707.1540)
 -->
<!-- Title: dependencies Pages: 1 -->
<svg width="711pt" height="318pt"
 viewBox="0.00 0.00 711.00 317.80" xmlns="http://www.w3.org/2000/svg" xmlns:xlink="http://www.w3.org/1999/xlink">
<g id="graph0" class="graph" transform="scale(1 1) rotate(0) translate(4 313.8)">
<title>dependencies</title>
<polygon fill="white" stroke="transparent" points="-4,4 -4,-313.8 707,-313.8 707,4 -4,4"/>
<text text-anchor="middle" x="351.5" y="-8.2" font-family="sans-serif" font-size="14.00">dependencies</text>
<g id="clust1" class="cluster">
<title>cluster_AppModule</title>
<polygon fill="none" stroke="black" stroke-dasharray="1,5" points="224,-108.8 224,-236.8 695,-236.8 695,-108.8 224,-108.8"/>
</g>
<g id="clust3" class="cluster">
<title>cluster_AppModule_imports</title>
<polygon fill="none" stroke="black" points="370,-116.8 370,-168.8 687,-168.8 687,-116.8 370,-116.8"/>
</g>
<g id="clust6" class="cluster">
<title>cluster_AppModule_providers</title>
<polygon fill="none" stroke="black" points="232,-116.8 232,-168.8 362,-168.8 362,-116.8 232,-116.8"/>
</g>
<g id="clust7" class="cluster">
<title>cluster_AppTestE2eModule</title>
<polygon fill="none" stroke="black" stroke-dasharray="1,5" points="8,-176.8 8,-301.8 216,-301.8 216,-176.8 8,-176.8"/>
</g>
<g id="clust12" class="cluster">
<title>cluster_AppTestE2eModule_providers</title>
<polygon fill="none" stroke="black" points="16,-184.8 16,-236.8 208,-236.8 208,-184.8 16,-184.8"/>
</g>
<g id="clust19" class="cluster">
<title>cluster_HealthCheckModule</title>
<polygon fill="none" stroke="black" stroke-dasharray="1,5" points="308,-32.8 308,-100.8 580,-100.8 580,-32.8 308,-32.8"/>
</g>
<g id="clust24" class="cluster">
<title>cluster_HealthCheckModule_providers</title>
<polygon fill="none" stroke="black" points="316,-40.8 316,-92.8 572,-92.8 572,-40.8 316,-40.8"/>
</g>
<!-- EntitiesToMoveModule -->
<g id="node1" class="node">
<title>EntitiesToMoveModule</title>
<polygon fill="#8dd3c7" stroke="black" points="679.04,-160.8 676.04,-164.8 655.04,-164.8 652.04,-160.8 528.96,-160.8 528.96,-124.8 679.04,-124.8 679.04,-160.8"/>
<text text-anchor="middle" x="604" y="-138.6" font-family="Times,serif" font-size="14.00">EntitiesToMoveModule</text>
</g>
<!-- AppModule -->
<g id="node3" class="node">
<title>AppModule</title>
<polygon fill="#8dd3c7" stroke="black" points="411.66,-228.8 408.66,-232.8 387.66,-232.8 384.66,-228.8 328.34,-228.8 328.34,-192.8 411.66,-192.8 411.66,-228.8"/>
<text text-anchor="middle" x="370" y="-206.6" font-family="Times,serif" font-size="14.00">AppModule</text>
</g>
<!-- EntitiesToMoveModule&#45;&gt;AppModule -->
<g id="edge1" class="edge">
<title>EntitiesToMoveModule&#45;&gt;AppModule</title>
<path fill="none" stroke="black" d="M604,-161.02C604,-181.17 604,-210.8 604,-210.8 604,-210.8 421.83,-210.8 421.83,-210.8"/>
<polygon fill="black" stroke="black" points="421.83,-207.3 411.83,-210.8 421.83,-214.3 421.83,-207.3"/>
</g>
<!-- HealthCheckModule -->
<g id="node2" class="node">
<title>HealthCheckModule</title>
<polygon fill="#8dd3c7" stroke="black" points="510.14,-160.8 507.14,-164.8 486.14,-164.8 483.14,-160.8 377.86,-160.8 377.86,-124.8 510.14,-124.8 510.14,-160.8"/>
<text text-anchor="middle" x="444" y="-138.6" font-family="Times,serif" font-size="14.00">HealthCheckModule</text>
</g>
<!-- HealthCheckModule&#45;&gt;AppModule -->
<g id="edge2" class="edge">
<title>HealthCheckModule&#45;&gt;AppModule</title>
<path fill="none" stroke="black" d="M394.76,-161.02C394.76,-161.02 394.76,-182.53 394.76,-182.53"/>
<polygon fill="black" stroke="black" points="391.26,-182.53 394.76,-192.53 398.26,-182.53 391.26,-182.53"/>
</g>
<!-- AppTestE2eModule -->
<g id="node5" class="node">
<title>AppTestE2eModule</title>
<polygon fill="#8dd3c7" stroke="black" points="191.53,-293.8 188.53,-297.8 167.53,-297.8 164.53,-293.8 62.47,-293.8 62.47,-257.8 191.53,-257.8 191.53,-293.8"/>
<text text-anchor="middle" x="127" y="-271.6" font-family="Times,serif" font-size="14.00">AppTestE2eModule</text>
</g>
<!-- AppModule&#45;&gt;AppTestE2eModule -->
<g id="edge4" class="edge">
<title>AppModule&#45;&gt;AppTestE2eModule</title>
<path fill="none" stroke="black" d="M370,-228.91C370,-248.14 370,-275.8 370,-275.8 370,-275.8 201.8,-275.8 201.8,-275.8"/>
<polygon fill="black" stroke="black" points="201.8,-272.3 191.8,-275.8 201.8,-279.3 201.8,-272.3"/>
</g>
<!-- AppService -->
<g id="node4" class="node">
<title>AppService</title>
<ellipse fill="#fdb462" stroke="black" cx="297" cy="-142.8" rx="56.75" ry="18"/>
<text text-anchor="middle" x="297" y="-138.6" font-family="Times,serif" font-size="14.00">AppService</text>
</g>
<!-- AppService&#45;&gt;AppModule -->
<g id="edge3" class="edge">
<title>AppService&#45;&gt;AppModule</title>
<path fill="none" stroke="black" d="M340.9,-154.34C340.9,-154.34 340.9,-182.8 340.9,-182.8"/>
<polygon fill="black" stroke="black" points="337.4,-182.8 340.9,-192.8 344.4,-182.8 337.4,-182.8"/>
</g>
<!-- AppTestE2eService -->
<g id="node6" class="node">
<title>AppTestE2eService</title>
<ellipse fill="#fdb462" stroke="black" cx="112" cy="-210.8" rx="88.03" ry="18"/>
<text text-anchor="middle" x="112" y="-206.6" font-family="Times,serif" font-size="14.00">AppTestE2eService</text>
</g>
<!-- AppTestE2eService&#45;&gt;AppTestE2eModule -->
<g id="edge5" class="edge">
<title>AppTestE2eService&#45;&gt;AppTestE2eModule</title>
<path fill="none" stroke="black" d="M127,-228.56C127,-228.56 127,-247.61 127,-247.61"/>
<polygon fill="black" stroke="black" points="123.5,-247.61 127,-257.61 130.5,-247.61 123.5,-247.61"/>
</g>
<!-- CustomHealthCheckService -->
<g id="node7" class="node">
<title>CustomHealthCheckService</title>
<ellipse fill="#fdb462" stroke="black" cx="444" cy="-66.8" rx="120.41" ry="18"/>
<text text-anchor="middle" x="444" y="-62.6" font-family="Times,serif" font-size="14.00">CustomHealthCheckService</text>
</g>
<!-- CustomHealthCheckService&#45;&gt;HealthCheckModule -->
<g id="edge6" class="edge">
<title>CustomHealthCheckService&#45;&gt;HealthCheckModule</title>
<path fill="none" stroke="black" d="M444,-84.81C444,-84.81 444,-114.65 444,-114.65"/>
<polygon fill="black" stroke="black" points="440.5,-114.65 444,-124.65 447.5,-114.65 440.5,-114.65"/>
</g>
</g>
</svg>
