<?xml version="1.0" encoding="UTF-8" standalone="no"?>
<!DOCTYPE svg PUBLIC "-//W3C//DTD SVG 1.1//EN"
 "http://www.w3.org/Graphics/SVG/1.1/DTD/svg11.dtd">
<!-- Generated by graphviz version 5.0.0 (20220707.1540)
 -->
<!-- Title: dependencies Pages: 1 -->
<svg width="3042pt" height="454pt"
 viewBox="0.00 0.00 3042.00 453.80" xmlns="http://www.w3.org/2000/svg" xmlns:xlink="http://www.w3.org/1999/xlink">
<g id="graph0" class="graph" transform="scale(1 1) rotate(0) translate(4 449.8)">
<title>dependencies</title>
<polygon fill="white" stroke="transparent" points="-4,4 -4,-449.8 3038,-449.8 3038,4 -4,4"/>
<text text-anchor="middle" x="1517" y="-8.2" font-family="sans-serif" font-size="14.00">dependencies</text>
<g id="clust1" class="cluster">
<title>cluster_ApiLandingPageModule</title>
<polygon fill="none" stroke="black" stroke-dasharray="1,5" points="2113,-32.8 2113,-304.8 2648,-304.8 2648,-32.8 2113,-32.8"/>
</g>
<g id="clust3" class="cluster">
<title>cluster_ApiLandingPageModule_imports</title>
<polygon fill="none" stroke="black" points="2200,-108.8 2200,-228.8 2338,-228.8 2338,-108.8 2200,-108.8"/>
</g>
<g id="clust6" class="cluster">
<title>cluster_ApiLandingPageModule_providers</title>
<polygon fill="none" stroke="black" points="2121,-40.8 2121,-92.8 2640,-92.8 2640,-40.8 2121,-40.8"/>
</g>
<g id="clust13" class="cluster">
<title>cluster_ApiMailModule</title>
<polygon fill="none" stroke="black" stroke-dasharray="1,5" points="2656,-168.8 2656,-304.8 2834,-304.8 2834,-168.8 2656,-168.8"/>
</g>
<g id="clust18" class="cluster">
<title>cluster_ApiMailModule_providers</title>
<polygon fill="none" stroke="black" points="2664,-176.8 2664,-228.8 2826,-228.8 2826,-176.8 2664,-176.8"/>
</g>
<g id="clust19" class="cluster">
<title>cluster_AppModule</title>
<polygon fill="none" stroke="black" stroke-dasharray="1,5" points="784,-244.8 784,-372.8 1885,-372.8 1885,-244.8 784,-244.8"/>
</g>
<g id="clust21" class="cluster">
<title>cluster_AppModule_imports</title>
<polygon fill="none" stroke="black" points="930,-252.8 930,-304.8 1877,-304.8 1877,-252.8 930,-252.8"/>
</g>
<g id="clust24" class="cluster">
<title>cluster_AppModule_providers</title>
<polygon fill="none" stroke="black" points="792,-252.8 792,-304.8 922,-304.8 922,-252.8 792,-252.8"/>
</g>
<g id="clust25" class="cluster">
<title>cluster_AppTestE2eModule</title>
<polygon fill="none" stroke="black" stroke-dasharray="1,5" points="568,-312.8 568,-437.8 776,-437.8 776,-312.8 568,-312.8"/>
</g>
<g id="clust30" class="cluster">
<title>cluster_AppTestE2eModule_providers</title>
<polygon fill="none" stroke="black" points="576,-320.8 576,-372.8 768,-372.8 768,-320.8 576,-320.8"/>
</g>
<g id="clust31" class="cluster">
<title>cluster_AuthModule</title>
<polygon fill="none" stroke="black" stroke-dasharray="1,5" points="8,-168.8 8,-236.8 793,-236.8 793,-168.8 8,-168.8"/>
</g>
<g id="clust34" class="cluster">
<title>cluster_AuthModule_exports</title>
<polygon fill="none" stroke="black" points="679,-176.8 679,-228.8 785,-228.8 785,-176.8 679,-176.8"/>
</g>
<g id="clust36" class="cluster">
<title>cluster_AuthModule_providers</title>
<polygon fill="none" stroke="black" points="16,-176.8 16,-228.8 671,-228.8 671,-176.8 16,-176.8"/>
</g>
<g id="clust37" class="cluster">
<title>cluster_CardModule</title>
<polygon fill="none" stroke="black" stroke-dasharray="1,5" points="801,-168.8 801,-236.8 951,-236.8 951,-168.8 801,-168.8"/>
</g>
<g id="clust42" class="cluster">
<title>cluster_CardModule_providers</title>
<polygon fill="none" stroke="black" points="809,-176.8 809,-228.8 943,-228.8 943,-176.8 809,-176.8"/>
</g>
<g id="clust49" class="cluster">
<title>cluster_GroupModule</title>
<polygon fill="none" stroke="black" stroke-dasharray="1,5" points="2864,-100.8 2864,-228.8 3026,-228.8 3026,-100.8 2864,-100.8"/>
</g>
<g id="clust54" class="cluster">
<title>cluster_GroupModule_providers</title>
<polygon fill="none" stroke="black" points="2872,-108.8 2872,-160.8 3018,-160.8 3018,-108.8 2872,-108.8"/>
</g>
<g id="clust55" class="cluster">
<title>cluster_HealthCheckModule</title>
<polygon fill="none" stroke="black" stroke-dasharray="1,5" points="959,-168.8 959,-236.8 1231,-236.8 1231,-168.8 959,-168.8"/>
</g>
<g id="clust60" class="cluster">
<title>cluster_HealthCheckModule_providers</title>
<polygon fill="none" stroke="black" points="967,-176.8 967,-228.8 1223,-228.8 1223,-176.8 967,-176.8"/>
</g>
<g id="clust61" class="cluster">
<title>cluster_OccupationModule</title>
<polygon fill="none" stroke="black" stroke-dasharray="1,5" points="1239,-168.8 1239,-236.8 1441,-236.8 1441,-168.8 1239,-168.8"/>
</g>
<g id="clust66" class="cluster">
<title>cluster_OccupationModule_providers</title>
<polygon fill="none" stroke="black" points="1247,-176.8 1247,-228.8 1433,-228.8 1433,-176.8 1247,-176.8"/>
</g>
<g id="clust67" class="cluster">
<title>cluster_ProfileModule</title>
<polygon fill="none" stroke="black" stroke-dasharray="1,5" points="1449,-168.8 1449,-236.8 1613,-236.8 1613,-168.8 1449,-168.8"/>
</g>
<g id="clust72" class="cluster">
<title>cluster_ProfileModule_providers</title>
<polygon fill="none" stroke="black" points="1457,-176.8 1457,-228.8 1605,-228.8 1605,-176.8 1457,-176.8"/>
</g>
<g id="clust73" class="cluster">
<title>cluster_SocialNetworkModule</title>
<polygon fill="none" stroke="black" stroke-dasharray="1,5" points="1877,-168.8 1877,-236.8 2105,-236.8 2105,-168.8 1877,-168.8"/>
</g>
<g id="clust78" class="cluster">
<title>cluster_SocialNetworkModule_providers</title>
<polygon fill="none" stroke="black" points="1885,-176.8 1885,-228.8 2097,-228.8 2097,-176.8 1885,-176.8"/>
</g>
<!-- ApiLogModule -->
<g id="node1" class="node">
<title>ApiLogModule</title>
<polygon fill="#8dd3c7" stroke="black" points="2311.6,-152.8 2308.6,-156.8 2287.6,-156.8 2284.6,-152.8 2208.4,-152.8 2208.4,-116.8 2311.6,-116.8 2311.6,-152.8"/>
<text text-anchor="middle" x="2260" y="-130.6" font-family="Times,serif" font-size="14.00">ApiLogModule</text>
</g>
<!-- ApiLogModule&#45;&gt;ApiLogModule -->
<g id="edge6" class="edge">
<title>ApiLogModule&#45;&gt;ApiLogModule</title>
<path fill="none" stroke="black" d="M2299.06,-116.59C2299.06,-111.25 2299.06,-106.8 2299.06,-106.8 2299.06,-106.8 2320.77,-106.8 2320.77,-106.8 2320.77,-106.8 2320.77,-163.8 2320.77,-163.8 2320.77,-163.8 2289.04,-163.8 2289.04,-163.8 2289.04,-163.8 2289.04,-162.72 2289.04,-162.72"/>
<polygon fill="black" stroke="black" points="2292.54,-163 2289.04,-153 2285.54,-163 2292.54,-163"/>
</g>
<!-- UserModule -->
<g id="node2" class="node">
<title>UserModule</title>
<polygon fill="#8dd3c7" stroke="black" points="2329.99,-220.8 2326.99,-224.8 2305.99,-224.8 2302.99,-220.8 2244.01,-220.8 2244.01,-184.8 2329.99,-184.8 2329.99,-220.8"/>
<text text-anchor="middle" x="2287" y="-198.6" font-family="Times,serif" font-size="14.00">UserModule</text>
</g>
<!-- ApiLogModule&#45;&gt;UserModule -->
<g id="edge52" class="edge">
<title>ApiLogModule&#45;&gt;UserModule</title>
<path fill="none" stroke="black" d="M2266.52,-153.02C2266.52,-153.02 2266.52,-174.53 2266.52,-174.53"/>
<polygon fill="black" stroke="black" points="2263.02,-174.53 2266.52,-184.53 2270.02,-174.53 2263.02,-174.53"/>
</g>
<!-- ApiLandingPageModule -->
<g id="node3" class="node">
<title>ApiLandingPageModule</title>
<polygon fill="#8dd3c7" stroke="black" points="2343.42,-296.8 2340.42,-300.8 2319.42,-300.8 2316.42,-296.8 2188.58,-296.8 2188.58,-260.8 2343.42,-260.8 2343.42,-296.8"/>
<text text-anchor="middle" x="2266" y="-274.6" font-family="Times,serif" font-size="14.00">ApiLandingPageModule</text>
</g>
<!-- ApiLogModule&#45;&gt;ApiLandingPageModule -->
<g id="edge1" class="edge">
<title>ApiLogModule&#45;&gt;ApiLandingPageModule</title>
<path fill="none" stroke="black" d="M2235.12,-153.04C2235.12,-153.04 2235.12,-250.71 2235.12,-250.71"/>
<polygon fill="black" stroke="black" points="2231.62,-250.71 2235.12,-260.71 2238.62,-250.71 2231.62,-250.71"/>
</g>
<!-- ApiMailModule -->
<g id="node7" class="node">
<title>ApiMailModule</title>
<polygon fill="#8dd3c7" stroke="black" points="2770.49,-296.8 2767.49,-300.8 2746.49,-300.8 2743.49,-296.8 2663.51,-296.8 2663.51,-260.8 2770.49,-260.8 2770.49,-296.8"/>
<text text-anchor="middle" x="2717" y="-274.6" font-family="Times,serif" font-size="14.00">ApiMailModule</text>
</g>
<!-- ApiLogModule&#45;&gt;ApiMailModule -->
<g id="edge8" class="edge">
<title>ApiLogModule&#45;&gt;ApiMailModule</title>
<path fill="none" stroke="black" d="M2311.96,-140.8C2421.69,-140.8 2667.02,-140.8 2667.02,-140.8 2667.02,-140.8 2667.02,-250.76 2667.02,-250.76"/>
<polygon fill="black" stroke="black" points="2663.52,-250.76 2667.02,-260.76 2670.52,-250.76 2663.52,-250.76"/>
</g>
<!-- AuthModule -->
<g id="node9" class="node">
<title>AuthModule</title>
<polygon fill="#8dd3c7" stroke="black" points="1193.55,-296.8 1190.55,-300.8 1169.55,-300.8 1166.55,-296.8 1106.45,-296.8 1106.45,-260.8 1193.55,-260.8 1193.55,-296.8"/>
<text text-anchor="middle" x="1150" y="-274.6" font-family="Times,serif" font-size="14.00">AuthModule</text>
</g>
<!-- ApiLogModule&#45;&gt;AuthModule -->
<g id="edge28" class="edge">
<title>ApiLogModule&#45;&gt;AuthModule</title>
<path fill="none" stroke="black" d="M2217.34,-152.98C2217.34,-179.79 2217.34,-226.8 2217.34,-226.8 2217.34,-226.8 1174.32,-226.8 1174.32,-226.8 1174.32,-226.8 1174.32,-250.61 1174.32,-250.61"/>
<polygon fill="black" stroke="black" points="1170.82,-250.61 1174.32,-260.61 1177.82,-250.61 1170.82,-250.61"/>
</g>
<!-- CardModule -->
<g id="node10" class="node">
<title>CardModule</title>
<polygon fill="#8dd3c7" stroke="black" points="1298.27,-296.8 1295.27,-300.8 1274.27,-300.8 1271.27,-296.8 1211.73,-296.8 1211.73,-260.8 1298.27,-260.8 1298.27,-296.8"/>
<text text-anchor="middle" x="1255" y="-274.6" font-family="Times,serif" font-size="14.00">CardModule</text>
</g>
<!-- ApiLogModule&#45;&gt;CardModule -->
<g id="edge36" class="edge">
<title>ApiLogModule&#45;&gt;CardModule</title>
<path fill="none" stroke="black" d="M2208.3,-124.8C2001.56,-124.8 1245.48,-124.8 1245.48,-124.8 1245.48,-124.8 1245.48,-250.53 1245.48,-250.53"/>
<polygon fill="black" stroke="black" points="1241.98,-250.53 1245.48,-260.53 1248.98,-250.53 1241.98,-250.53"/>
</g>
<!-- OccupationModule -->
<g id="node13" class="node">
<title>OccupationModule</title>
<polygon fill="#8dd3c7" stroke="black" points="1707.08,-296.8 1704.08,-300.8 1683.08,-300.8 1680.08,-296.8 1582.92,-296.8 1582.92,-260.8 1707.08,-260.8 1707.08,-296.8"/>
<text text-anchor="middle" x="1645" y="-274.6" font-family="Times,serif" font-size="14.00">OccupationModule</text>
</g>
<!-- ApiLogModule&#45;&gt;OccupationModule -->
<g id="edge43" class="edge">
<title>ApiLogModule&#45;&gt;OccupationModule</title>
<path fill="none" stroke="black" d="M2208.2,-138.8C2064.34,-138.8 1670.45,-138.8 1670.45,-138.8 1670.45,-138.8 1670.45,-250.78 1670.45,-250.78"/>
<polygon fill="black" stroke="black" points="1666.95,-250.78 1670.45,-260.78 1673.95,-250.78 1666.95,-250.78"/>
</g>
<!-- ProfileModule -->
<g id="node14" class="node">
<title>ProfileModule</title>
<polygon fill="#8dd3c7" stroke="black" points="1564.66,-296.8 1561.66,-300.8 1540.66,-300.8 1537.66,-296.8 1467.34,-296.8 1467.34,-260.8 1564.66,-260.8 1564.66,-296.8"/>
<text text-anchor="middle" x="1516" y="-274.6" font-family="Times,serif" font-size="14.00">ProfileModule</text>
</g>
<!-- ApiLogModule&#45;&gt;ProfileModule -->
<g id="edge46" class="edge">
<title>ApiLogModule&#45;&gt;ProfileModule</title>
<path fill="none" stroke="black" d="M2226.23,-152.86C2226.23,-181.91 2226.23,-235.8 2226.23,-235.8 2226.23,-235.8 1540.41,-235.8 1540.41,-235.8 1540.41,-235.8 1540.41,-250.31 1540.41,-250.31"/>
<polygon fill="black" stroke="black" points="1536.91,-250.31 1540.41,-260.31 1543.91,-250.31 1536.91,-250.31"/>
</g>
<!-- SocialNetworkModule -->
<g id="node15" class="node">
<title>SocialNetworkModule</title>
<polygon fill="#8dd3c7" stroke="black" points="1868.53,-296.8 1865.53,-300.8 1844.53,-300.8 1841.53,-296.8 1725.47,-296.8 1725.47,-260.8 1868.53,-260.8 1868.53,-296.8"/>
<text text-anchor="middle" x="1797" y="-274.6" font-family="Times,serif" font-size="14.00">SocialNetworkModule</text>
</g>
<!-- ApiLogModule&#45;&gt;SocialNetworkModule -->
<g id="edge49" class="edge">
<title>ApiLogModule&#45;&gt;SocialNetworkModule</title>
<path fill="none" stroke="black" d="M2208.35,-145.8C2083.04,-145.8 1773.08,-145.8 1773.08,-145.8 1773.08,-145.8 1773.08,-250.59 1773.08,-250.59"/>
<polygon fill="black" stroke="black" points="1769.58,-250.59 1773.08,-260.59 1776.58,-250.59 1769.58,-250.59"/>
</g>
<!-- AppModule -->
<g id="node16" class="node">
<title>AppModule</title>
<polygon fill="#8dd3c7" stroke="black" points="1490.66,-364.8 1487.66,-368.8 1466.66,-368.8 1463.66,-364.8 1407.34,-364.8 1407.34,-328.8 1490.66,-328.8 1490.66,-364.8"/>
<text text-anchor="middle" x="1449" y="-342.6" font-family="Times,serif" font-size="14.00">AppModule</text>
</g>
<!-- ApiLogModule&#45;&gt;AppModule -->
<g id="edge14" class="edge">
<title>ApiLogModule&#45;&gt;AppModule</title>
<path fill="none" stroke="black" d="M2208.24,-131.8C2030.66,-131.8 1457.02,-131.8 1457.02,-131.8 1457.02,-131.8 1457.02,-318.47 1457.02,-318.47"/>
<polygon fill="black" stroke="black" points="1453.52,-318.47 1457.02,-328.47 1460.52,-318.47 1453.52,-318.47"/>
</g>
<!-- GroupModule -->
<g id="node26" class="node">
<title>GroupModule</title>
<polygon fill="#8dd3c7" stroke="black" points="2969.82,-220.8 2966.82,-224.8 2945.82,-224.8 2942.82,-220.8 2874.18,-220.8 2874.18,-184.8 2969.82,-184.8 2969.82,-220.8"/>
<text text-anchor="middle" x="2922" y="-198.6" font-family="Times,serif" font-size="14.00">GroupModule</text>
</g>
<!-- ApiLogModule&#45;&gt;GroupModule -->
<g id="edge39" class="edge">
<title>ApiLogModule&#45;&gt;GroupModule</title>
<path fill="none" stroke="black" d="M2311.75,-128.8C2454.96,-128.8 2846.03,-128.8 2846.03,-128.8 2846.03,-128.8 2846.03,-202.8 2846.03,-202.8 2846.03,-202.8 2864.32,-202.8 2864.32,-202.8"/>
<polygon fill="black" stroke="black" points="2864.32,-206.3 2874.32,-202.8 2864.32,-199.3 2864.32,-206.3"/>
</g>
<!-- UserModule&#45;&gt;ApiLandingPageModule -->
<g id="edge2" class="edge">
<title>UserModule&#45;&gt;ApiLandingPageModule</title>
<path fill="none" stroke="black" d="M2287,-220.81C2287,-220.81 2287,-250.65 2287,-250.65"/>
<polygon fill="black" stroke="black" points="2283.5,-250.65 2287,-260.65 2290.5,-250.65 2283.5,-250.65"/>
</g>
<!-- UserModule&#45;&gt;ApiMailModule -->
<g id="edge9" class="edge">
<title>UserModule&#45;&gt;ApiMailModule</title>
<path fill="none" stroke="black" d="M2330.02,-208.8C2429.16,-208.8 2665.26,-208.8 2665.26,-208.8 2665.26,-208.8 2665.26,-250.77 2665.26,-250.77"/>
<polygon fill="black" stroke="black" points="2661.76,-250.77 2665.26,-260.77 2668.76,-250.77 2661.76,-250.77"/>
</g>
<!-- UserModule&#45;&gt;AppModule -->
<g id="edge23" class="edge">
<title>UserModule&#45;&gt;AppModule</title>
<path fill="none" stroke="black" d="M2243.93,-208.8C2213.76,-208.8 2178.82,-208.8 2178.82,-208.8 2178.82,-208.8 2178.82,-349.8 2178.82,-349.8 2178.82,-349.8 1500.86,-349.8 1500.86,-349.8"/>
<polygon fill="black" stroke="black" points="1500.86,-346.3 1490.86,-349.8 1500.86,-353.3 1500.86,-346.3"/>
</g>
<!-- ApiLandingPageModule&#45;&gt;AppModule -->
<g id="edge13" class="edge">
<title>ApiLandingPageModule&#45;&gt;AppModule</title>
<path fill="none" stroke="black" d="M2266,-296.81C2266,-319.29 2266,-354.8 2266,-354.8 2266,-354.8 1500.92,-354.8 1500.92,-354.8"/>
<polygon fill="black" stroke="black" points="1500.92,-351.3 1490.92,-354.8 1500.92,-358.3 1500.92,-351.3"/>
</g>
<!-- ApiLandingPageService -->
<g id="node4" class="node">
<title>ApiLandingPageService</title>
<ellipse fill="#fdb462" stroke="black" cx="2392" cy="-66.8" rx="105.36" ry="18"/>
<text text-anchor="middle" x="2392" y="-62.6" font-family="Times,serif" font-size="14.00">ApiLandingPageService</text>
</g>
<!-- ApiLandingPageService&#45;&gt;ApiLandingPageModule -->
<g id="edge3" class="edge">
<title>ApiLandingPageService&#45;&gt;ApiLandingPageModule</title>
<path fill="none" stroke="black" d="M2336.6,-82.39C2336.6,-82.39 2336.6,-250.51 2336.6,-250.51"/>
<polygon fill="black" stroke="black" points="2333.1,-250.51 2336.6,-260.51 2340.1,-250.51 2333.1,-250.51"/>
</g>
<!-- ApiLogService -->
<g id="node5" class="node">
<title>ApiLogService</title>
<ellipse fill="#fdb462" stroke="black" cx="2199" cy="-66.8" rx="70.07" ry="18"/>
<text text-anchor="middle" x="2199" y="-62.6" font-family="Times,serif" font-size="14.00">ApiLogService</text>
</g>
<!-- ApiLogService&#45;&gt;ApiLogModule -->
<g id="edge7" class="edge">
<title>ApiLogService&#45;&gt;ApiLogModule</title>
<path fill="none" stroke="black" d="M2228.64,-83.26C2228.64,-83.26 2228.64,-106.58 2228.64,-106.58"/>
<polygon fill="black" stroke="black" points="2225.14,-106.58 2228.64,-116.58 2232.14,-106.58 2225.14,-106.58"/>
</g>
<!-- ApiLogService&#45;&gt;UserModule -->
<g id="edge53" class="edge">
<title>ApiLogService&#45;&gt;UserModule</title>
<path fill="none" stroke="black" d="M2198.62,-84.88C2198.62,-120.6 2198.62,-196.8 2198.62,-196.8 2198.62,-196.8 2233.85,-196.8 2233.85,-196.8"/>
<polygon fill="black" stroke="black" points="2233.85,-200.3 2243.85,-196.8 2233.85,-193.3 2233.85,-200.3"/>
</g>
<!-- ApiLogService&#45;&gt;ApiLandingPageModule -->
<g id="edge4" class="edge">
<title>ApiLogService&#45;&gt;ApiLandingPageModule</title>
<path fill="none" stroke="black" d="M2193.7,-84.88C2193.7,-84.88 2193.7,-250.77 2193.7,-250.77"/>
<polygon fill="black" stroke="black" points="2190.2,-250.77 2193.7,-260.77 2197.2,-250.77 2190.2,-250.77"/>
</g>
<!-- ApiLogService&#45;&gt;ApiMailModule -->
<g id="edge10" class="edge">
<title>ApiLogService&#45;&gt;ApiMailModule</title>
<path fill="none" stroke="black" d="M2248.84,-79.6C2248.84,-87.37 2248.84,-95.8 2248.84,-95.8 2248.84,-95.8 2668.77,-95.8 2668.77,-95.8 2668.77,-95.8 2668.77,-250.58 2668.77,-250.58"/>
<polygon fill="black" stroke="black" points="2665.27,-250.58 2668.77,-260.58 2672.27,-250.58 2665.27,-250.58"/>
</g>
<!-- ApiLogService&#45;&gt;AuthModule -->
<g id="edge30" class="edge">
<title>ApiLogService&#45;&gt;AuthModule</title>
<path fill="none" stroke="black" d="M2138.94,-76.15C2138.94,-109.95 2138.94,-223.8 2138.94,-223.8 2138.94,-223.8 1164.59,-223.8 1164.59,-223.8 1164.59,-223.8 1164.59,-250.79 1164.59,-250.79"/>
<polygon fill="black" stroke="black" points="1161.09,-250.79 1164.59,-260.79 1168.09,-250.79 1161.09,-250.79"/>
</g>
<!-- ApiLogService&#45;&gt;CardModule -->
<g id="edge37" class="edge">
<title>ApiLogService&#45;&gt;CardModule</title>
<path fill="none" stroke="black" d="M2132.77,-60.8C1915.09,-60.8 1235.47,-60.8 1235.47,-60.8 1235.47,-60.8 1235.47,-250.59 1235.47,-250.59"/>
<polygon fill="black" stroke="black" points="1231.97,-250.59 1235.47,-260.59 1238.97,-250.59 1231.97,-250.59"/>
</g>
<!-- ApiLogService&#45;&gt;OccupationModule -->
<g id="edge44" class="edge">
<title>ApiLogService&#45;&gt;OccupationModule</title>
<path fill="none" stroke="black" d="M2132.79,-72.8C1983.56,-72.8 1633.86,-72.8 1633.86,-72.8 1633.86,-72.8 1633.86,-250.52 1633.86,-250.52"/>
<polygon fill="black" stroke="black" points="1630.36,-250.52 1633.86,-260.52 1637.36,-250.52 1630.36,-250.52"/>
</g>
<!-- ApiLogService&#45;&gt;ProfileModule -->
<g id="edge47" class="edge">
<title>ApiLogService&#45;&gt;ProfileModule</title>
<path fill="none" stroke="black" d="M2148.91,-79.55C2148.91,-118.42 2148.91,-232.8 2148.91,-232.8 2148.91,-232.8 1516,-232.8 1516,-232.8 1516,-232.8 1516,-250.62 1516,-250.62"/>
<polygon fill="black" stroke="black" points="1512.5,-250.62 1516,-260.62 1519.5,-250.62 1512.5,-250.62"/>
</g>
<!-- ApiLogService&#45;&gt;SocialNetworkModule -->
<g id="edge50" class="edge">
<title>ApiLogService&#45;&gt;SocialNetworkModule</title>
<path fill="none" stroke="black" d="M2158.88,-81.71C2158.88,-129.96 2158.88,-278.8 2158.88,-278.8 2158.88,-278.8 1878.93,-278.8 1878.93,-278.8"/>
<polygon fill="black" stroke="black" points="1878.93,-275.3 1868.93,-278.8 1878.93,-282.3 1878.93,-275.3"/>
</g>
<!-- ApiLogService&#45;&gt;AppModule -->
<g id="edge24" class="edge">
<title>ApiLogService&#45;&gt;AppModule</title>
<path fill="none" stroke="black" d="M2168.85,-83.36C2168.85,-143.21 2168.85,-344.8 2168.85,-344.8 2168.85,-344.8 1500.81,-344.8 1500.81,-344.8"/>
<polygon fill="black" stroke="black" points="1500.81,-341.3 1490.81,-344.8 1500.81,-348.3 1500.81,-341.3"/>
</g>
<!-- ApiLogService&#45;&gt;GroupModule -->
<g id="edge40" class="edge">
<title>ApiLogService&#45;&gt;GroupModule</title>
<path fill="none" stroke="black" d="M2203.53,-85.12C2203.53,-115.93 2203.53,-174.8 2203.53,-174.8 2203.53,-174.8 2910.11,-174.8 2910.11,-174.8 2910.11,-174.8 2910.11,-175.78 2910.11,-175.78"/>
<polygon fill="black" stroke="black" points="2906.61,-174.59 2910.11,-184.59 2913.61,-174.59 2906.61,-174.59"/>
</g>
<!-- UserService -->
<g id="node6" class="node">
<title>UserService</title>
<ellipse fill="#fdb462" stroke="black" cx="2574" cy="-66.8" rx="58.46" ry="18"/>
<text text-anchor="middle" x="2574" y="-62.6" font-family="Times,serif" font-size="14.00">UserService</text>
</g>
<!-- UserService&#45;&gt;UserModule -->
<g id="edge54" class="edge">
<title>UserService&#45;&gt;UserModule</title>
<path fill="none" stroke="black" d="M2544.89,-82.48C2544.89,-117.06 2544.89,-196.8 2544.89,-196.8 2544.89,-196.8 2340.16,-196.8 2340.16,-196.8"/>
<polygon fill="black" stroke="black" points="2340.16,-193.3 2330.16,-196.8 2340.16,-200.3 2340.16,-193.3"/>
</g>
<!-- UserService&#45;&gt;ApiLandingPageModule -->
<g id="edge5" class="edge">
<title>UserService&#45;&gt;ApiLandingPageModule</title>
<path fill="none" stroke="black" d="M2603.11,-82.39C2603.11,-131.35 2603.11,-278.8 2603.11,-278.8 2603.11,-278.8 2353.34,-278.8 2353.34,-278.8"/>
<polygon fill="black" stroke="black" points="2353.34,-275.3 2343.34,-278.8 2353.34,-282.3 2353.34,-275.3"/>
</g>
<!-- UserService&#45;&gt;ApiMailModule -->
<g id="edge12" class="edge">
<title>UserService&#45;&gt;ApiMailModule</title>
<path fill="none" stroke="black" d="M2632.38,-66.8C2652.7,-66.8 2670.53,-66.8 2670.53,-66.8 2670.53,-66.8 2670.53,-250.72 2670.53,-250.72"/>
<polygon fill="black" stroke="black" points="2667.03,-250.72 2670.53,-260.72 2674.03,-250.73 2667.03,-250.72"/>
</g>
<!-- UserService&#45;&gt;AuthModule -->
<g id="edge35" class="edge">
<title>UserService&#45;&gt;AuthModule</title>
<path fill="none" stroke="black" d="M2574,-84.87C2574,-127.31 2574,-229.8 2574,-229.8 2574,-229.8 1184.05,-229.8 1184.05,-229.8 1184.05,-229.8 1184.05,-250.55 1184.05,-250.55"/>
<polygon fill="black" stroke="black" points="1180.55,-250.55 1184.05,-260.55 1187.55,-250.55 1180.55,-250.55"/>
</g>
<!-- ApiMailModule&#45;&gt;AppModule -->
<g id="edge15" class="edge">
<title>ApiMailModule&#45;&gt;AppModule</title>
<path fill="none" stroke="black" d="M2717,-297.18C2717,-321.08 2717,-359.8 2717,-359.8 2717,-359.8 1500.83,-359.8 1500.83,-359.8"/>
<polygon fill="black" stroke="black" points="1500.83,-356.3 1490.83,-359.8 1500.83,-363.3 1500.83,-356.3"/>
</g>
<!-- ApiMailService -->
<g id="node8" class="node">
<title>ApiMailService</title>
<ellipse fill="#fdb462" stroke="black" cx="2745" cy="-202.8" rx="72.94" ry="18"/>
<text text-anchor="middle" x="2745" y="-198.6" font-family="Times,serif" font-size="14.00">ApiMailService</text>
</g>
<!-- ApiMailService&#45;&gt;ApiMailModule -->
<g id="edge11" class="edge">
<title>ApiMailService&#45;&gt;ApiMailModule</title>
<path fill="none" stroke="black" d="M2721.39,-220.05C2721.39,-220.05 2721.39,-250.56 2721.39,-250.56"/>
<polygon fill="black" stroke="black" points="2717.89,-250.56 2721.39,-260.56 2724.89,-250.56 2717.89,-250.56"/>
</g>
<!-- AuthModule&#45;&gt;AppModule -->
<g id="edge16" class="edge">
<title>AuthModule&#45;&gt;AppModule</title>
<path fill="none" stroke="black" d="M1150,-296.91C1150,-316.14 1150,-343.8 1150,-343.8 1150,-343.8 1397.11,-343.8 1397.11,-343.8"/>
<polygon fill="black" stroke="black" points="1397.11,-347.3 1407.11,-343.8 1397.11,-340.3 1397.11,-347.3"/>
</g>
<!-- AuthService  -->
<g id="node20" class="node">
<title>AuthService </title>
<polygon fill="#fb8072" stroke="black" points="776.98,-220.8 687.02,-220.8 687.02,-184.8 776.98,-184.8 776.98,-220.8"/>
<text text-anchor="middle" x="732" y="-198.6" font-family="Times,serif" font-size="14.00">AuthService </text>
</g>
<!-- AuthModule&#45;&gt;AuthService  -->
<g id="edge29" class="edge">
<title>AuthModule&#45;&gt;AuthService </title>
<path fill="none" stroke="black" stroke-dasharray="5,2" d="M1154.86,-260.56C1154.86,-253.37 1154.86,-246.8 1154.86,-246.8 1154.86,-246.8 768.5,-246.8 768.5,-246.8 768.5,-246.8 768.5,-230.95 768.5,-230.95"/>
<polygon fill="black" stroke="black" points="772,-230.95 768.5,-220.95 765,-230.95 772,-230.95"/>
</g>
<!-- CardModule&#45;&gt;AppModule -->
<g id="edge17" class="edge">
<title>CardModule&#45;&gt;AppModule</title>
<path fill="none" stroke="black" d="M1255,-296.83C1255,-313.86 1255,-336.8 1255,-336.8 1255,-336.8 1396.9,-336.8 1396.9,-336.8"/>
<polygon fill="black" stroke="black" points="1396.9,-340.3 1406.9,-336.8 1396.9,-333.3 1396.9,-340.3"/>
</g>
<!-- EntitiesToMoveModule -->
<g id="node11" class="node">
<title>EntitiesToMoveModule</title>
<polygon fill="#8dd3c7" stroke="black" points="1088.04,-296.8 1085.04,-300.8 1064.04,-300.8 1061.04,-296.8 937.96,-296.8 937.96,-260.8 1088.04,-260.8 1088.04,-296.8"/>
<text text-anchor="middle" x="1013" y="-274.6" font-family="Times,serif" font-size="14.00">EntitiesToMoveModule</text>
</g>
<!-- EntitiesToMoveModule&#45;&gt;AppModule -->
<g id="edge18" class="edge">
<title>EntitiesToMoveModule&#45;&gt;AppModule</title>
<path fill="none" stroke="black" d="M1013,-296.97C1013,-318.3 1013,-350.8 1013,-350.8 1013,-350.8 1397.19,-350.8 1397.19,-350.8"/>
<polygon fill="black" stroke="black" points="1397.19,-354.3 1407.19,-350.8 1397.19,-347.3 1397.19,-354.3"/>
</g>
<!-- HealthCheckModule -->
<g id="node12" class="node">
<title>HealthCheckModule</title>
<polygon fill="#8dd3c7" stroke="black" points="1449.14,-296.8 1446.14,-300.8 1425.14,-300.8 1422.14,-296.8 1316.86,-296.8 1316.86,-260.8 1449.14,-260.8 1449.14,-296.8"/>
<text text-anchor="middle" x="1383" y="-274.6" font-family="Times,serif" font-size="14.00">HealthCheckModule</text>
</g>
<!-- HealthCheckModule&#45;&gt;AppModule -->
<g id="edge19" class="edge">
<title>HealthCheckModule&#45;&gt;AppModule</title>
<path fill="none" stroke="black" d="M1428.24,-297.02C1428.24,-297.02 1428.24,-318.53 1428.24,-318.53"/>
<polygon fill="black" stroke="black" points="1424.74,-318.53 1428.24,-328.53 1431.74,-318.53 1424.74,-318.53"/>
</g>
<!-- OccupationModule&#45;&gt;AppModule -->
<g id="edge20" class="edge">
<title>OccupationModule&#45;&gt;AppModule</title>
<path fill="none" stroke="black" d="M1645,-296.83C1645,-313.2 1645,-334.8 1645,-334.8 1645,-334.8 1501.05,-334.8 1501.05,-334.8"/>
<polygon fill="black" stroke="black" points="1501.05,-331.3 1491.05,-334.8 1501.05,-338.3 1501.05,-331.3"/>
</g>
<!-- ProfileModule&#45;&gt;AppModule -->
<g id="edge21" class="edge">
<title>ProfileModule&#45;&gt;AppModule</title>
<path fill="none" stroke="black" d="M1479,-297.02C1479,-297.02 1479,-318.53 1479,-318.53"/>
<polygon fill="black" stroke="black" points="1475.5,-318.53 1479,-328.53 1482.5,-318.53 1475.5,-318.53"/>
</g>
<!-- SocialNetworkModule&#45;&gt;AppModule -->
<g id="edge22" class="edge">
<title>SocialNetworkModule&#45;&gt;AppModule</title>
<path fill="none" stroke="black" d="M1797,-297.1C1797,-315.07 1797,-339.8 1797,-339.8 1797,-339.8 1500.98,-339.8 1500.98,-339.8"/>
<polygon fill="black" stroke="black" points="1500.98,-336.3 1490.98,-339.8 1500.98,-343.3 1500.98,-336.3"/>
</g>
<!-- AppTestE2eModule -->
<g id="node18" class="node">
<title>AppTestE2eModule</title>
<polygon fill="#8dd3c7" stroke="black" points="751.53,-429.8 748.53,-433.8 727.53,-433.8 724.53,-429.8 622.47,-429.8 622.47,-393.8 751.53,-393.8 751.53,-429.8"/>
<text text-anchor="middle" x="687" y="-407.6" font-family="Times,serif" font-size="14.00">AppTestE2eModule</text>
</g>
<!-- AppModule&#45;&gt;AppTestE2eModule -->
<g id="edge26" class="edge">
<title>AppModule&#45;&gt;AppTestE2eModule</title>
<path fill="none" stroke="black" d="M1449,-364.91C1449,-384.14 1449,-411.8 1449,-411.8 1449,-411.8 761.64,-411.8 761.64,-411.8"/>
<polygon fill="black" stroke="black" points="761.64,-408.3 751.64,-411.8 761.64,-415.3 761.64,-408.3"/>
</g>
<!-- AppService -->
<g id="node17" class="node">
<title>AppService</title>
<ellipse fill="#fdb462" stroke="black" cx="857" cy="-278.8" rx="56.75" ry="18"/>
<text text-anchor="middle" x="857" y="-274.6" font-family="Times,serif" font-size="14.00">AppService</text>
</g>
<!-- AppService&#45;&gt;AppModule -->
<g id="edge25" class="edge">
<title>AppService&#45;&gt;AppModule</title>
<path fill="none" stroke="black" d="M857,-297.12C857,-320.46 857,-357.8 857,-357.8 857,-357.8 1396.9,-357.8 1396.9,-357.8"/>
<polygon fill="black" stroke="black" points="1396.9,-361.3 1406.9,-357.8 1396.9,-354.3 1396.9,-361.3"/>
</g>
<!-- AppTestE2eService -->
<g id="node19" class="node">
<title>AppTestE2eService</title>
<ellipse fill="#fdb462" stroke="black" cx="672" cy="-346.8" rx="88.03" ry="18"/>
<text text-anchor="middle" x="672" y="-342.6" font-family="Times,serif" font-size="14.00">AppTestE2eService</text>
</g>
<!-- AppTestE2eService&#45;&gt;AppTestE2eModule -->
<g id="edge27" class="edge">
<title>AppTestE2eService&#45;&gt;AppTestE2eModule</title>
<path fill="none" stroke="black" d="M687,-364.56C687,-364.56 687,-383.61 687,-383.61"/>
<polygon fill="black" stroke="black" points="683.5,-383.61 687,-393.61 690.5,-383.61 683.5,-383.61"/>
</g>
<!-- AuthService -->
<g id="node21" class="node">
<title>AuthService</title>
<ellipse fill="#fdb462" stroke="black" cx="83" cy="-202.8" rx="59.11" ry="18"/>
<text text-anchor="middle" x="83" y="-198.6" font-family="Times,serif" font-size="14.00">AuthService</text>
</g>
<!-- AuthService&#45;&gt;AuthModule -->
<g id="edge31" class="edge">
<title>AuthService&#45;&gt;AuthModule</title>
<path fill="none" stroke="black" d="M83,-220.83C83,-237.2 83,-258.8 83,-258.8 83,-258.8 1115.95,-258.8 1115.95,-258.8 1115.95,-258.8 1115.95,-258.98 1115.95,-258.98"/>
<polygon fill="black" stroke="black" points="1112.45,-250.65 1115.95,-260.65 1119.45,-250.65 1112.45,-250.65"/>
</g>
<!-- JwtRefreshTokenStrategy -->
<g id="node22" class="node">
<title>JwtRefreshTokenStrategy</title>
<ellipse fill="#fdb462" stroke="black" cx="552" cy="-202.8" rx="111.17" ry="18"/>
<text text-anchor="middle" x="552" y="-198.6" font-family="Times,serif" font-size="14.00">JwtRefreshTokenStrategy</text>
</g>
<!-- JwtRefreshTokenStrategy&#45;&gt;AuthModule -->
<g id="edge32" class="edge">
<title>JwtRefreshTokenStrategy&#45;&gt;AuthModule</title>
<path fill="none" stroke="black" d="M623.54,-216.65C623.54,-230.51 623.54,-249.8 623.54,-249.8 623.54,-249.8 1145.14,-249.8 1145.14,-249.8 1145.14,-249.8 1145.14,-250.88 1145.14,-250.88"/>
<polygon fill="black" stroke="black" points="1141.64,-250.6 1145.14,-260.6 1148.64,-250.6 1141.64,-250.6"/>
</g>
<!-- JwtStrategy -->
<g id="node23" class="node">
<title>JwtStrategy</title>
<ellipse fill="#fdb462" stroke="black" cx="366" cy="-202.8" rx="56.77" ry="18"/>
<text text-anchor="middle" x="366" y="-198.6" font-family="Times,serif" font-size="14.00">JwtStrategy</text>
</g>
<!-- JwtStrategy&#45;&gt;AuthModule -->
<g id="edge33" class="edge">
<title>JwtStrategy&#45;&gt;AuthModule</title>
<path fill="none" stroke="black" d="M366,-220.85C366,-235.17 366,-252.8 366,-252.8 366,-252.8 1135.41,-252.8 1135.41,-252.8 1135.41,-252.8 1135.41,-253.59 1135.41,-253.59"/>
<polygon fill="black" stroke="black" points="1131.91,-250.74 1135.41,-260.74 1138.91,-250.74 1131.91,-250.74"/>
</g>
<!-- LocalStrategy -->
<g id="node24" class="node">
<title>LocalStrategy</title>
<ellipse fill="#fdb462" stroke="black" cx="226" cy="-202.8" rx="65.4" ry="18"/>
<text text-anchor="middle" x="226" y="-198.6" font-family="Times,serif" font-size="14.00">LocalStrategy</text>
</g>
<!-- LocalStrategy&#45;&gt;AuthModule -->
<g id="edge34" class="edge">
<title>LocalStrategy&#45;&gt;AuthModule</title>
<path fill="none" stroke="black" d="M226,-221.04C226,-236.37 226,-255.8 226,-255.8 226,-255.8 1125.68,-255.8 1125.68,-255.8 1125.68,-255.8 1125.68,-256.29 1125.68,-256.29"/>
<polygon fill="black" stroke="black" points="1122.18,-250.68 1125.68,-260.68 1129.18,-250.68 1122.18,-250.68"/>
</g>
<!-- CardService -->
<g id="node25" class="node">
<title>CardService</title>
<ellipse fill="#fdb462" stroke="black" cx="876" cy="-202.8" rx="58.53" ry="18"/>
<text text-anchor="middle" x="876" y="-198.6" font-family="Times,serif" font-size="14.00">CardService</text>
</g>
<!-- CardService&#45;&gt;CardModule -->
<g id="edge38" class="edge">
<title>CardService&#45;&gt;CardModule</title>
<path fill="none" stroke="black" d="M924.19,-213.15C924.19,-225.29 924.19,-243.8 924.19,-243.8 924.19,-243.8 1225.46,-243.8 1225.46,-243.8 1225.46,-243.8 1225.46,-250.48 1225.46,-250.48"/>
<polygon fill="black" stroke="black" points="1221.97,-250.48 1225.46,-260.48 1228.97,-250.48 1221.97,-250.48"/>
</g>
<!-- GroupService -->
<g id="node27" class="node">
<title>GroupService</title>
<ellipse fill="#fdb462" stroke="black" cx="2945" cy="-134.8" rx="64.84" ry="18"/>
<text text-anchor="middle" x="2945" y="-130.6" font-family="Times,serif" font-size="14.00">GroupService</text>
</g>
<!-- GroupService&#45;&gt;GroupModule -->
<g id="edge41" class="edge">
<title>GroupService&#45;&gt;GroupModule</title>
<path fill="none" stroke="black" d="M2939.89,-153.02C2939.89,-153.02 2939.89,-174.53 2939.89,-174.53"/>
<polygon fill="black" stroke="black" points="2936.39,-174.53 2939.89,-184.53 2943.39,-174.53 2936.39,-174.53"/>
</g>
<!-- CustomHealthCheckService -->
<g id="node28" class="node">
<title>CustomHealthCheckService</title>
<ellipse fill="#fdb462" stroke="black" cx="1095" cy="-202.8" rx="120.41" ry="18"/>
<text text-anchor="middle" x="1095" y="-198.6" font-family="Times,serif" font-size="14.00">CustomHealthCheckService</text>
</g>
<!-- CustomHealthCheckService&#45;&gt;HealthCheckModule -->
<g id="edge42" class="edge">
<title>CustomHealthCheckService&#45;&gt;HealthCheckModule</title>
<path fill="none" stroke="black" d="M1202.7,-211.23C1202.7,-222.43 1202.7,-240.8 1202.7,-240.8 1202.7,-240.8 1352.62,-240.8 1352.62,-240.8 1352.62,-240.8 1352.62,-250.69 1352.62,-250.69"/>
<polygon fill="black" stroke="black" points="1349.12,-250.69 1352.62,-260.69 1356.12,-250.69 1349.12,-250.69"/>
</g>
<!-- OccupationService -->
<g id="node29" class="node">
<title>OccupationService</title>
<ellipse fill="#fdb462" stroke="black" cx="1340" cy="-202.8" rx="84.51" ry="18"/>
<text text-anchor="middle" x="1340" y="-198.6" font-family="Times,serif" font-size="14.00">OccupationService</text>
</g>
<!-- OccupationService&#45;&gt;OccupationModule -->
<g id="edge45" class="edge">
<title>OccupationService&#45;&gt;OccupationModule</title>
<path fill="none" stroke="black" d="M1388.56,-217.86C1388.56,-227.72 1388.56,-238.8 1388.56,-238.8 1388.56,-238.8 1590.12,-238.8 1590.12,-238.8 1590.12,-238.8 1590.12,-250.67 1590.12,-250.67"/>
<polygon fill="black" stroke="black" points="1586.62,-250.67 1590.12,-260.67 1593.62,-250.67 1586.62,-250.67"/>
</g>
<!-- ProfileService -->
<g id="node30" class="node">
<title>ProfileService</title>
<ellipse fill="#fdb462" stroke="black" cx="1531" cy="-202.8" rx="66.05" ry="18"/>
<text text-anchor="middle" x="1531" y="-198.6" font-family="Times,serif" font-size="14.00">ProfileService</text>
</g>
<!-- ProfileService&#45;&gt;ProfileModule -->
<g id="edge48" class="edge">
<title>ProfileService&#45;&gt;ProfileModule</title>
<path fill="none" stroke="black" d="M1491.59,-217.45C1491.59,-217.45 1491.59,-250.7 1491.59,-250.7"/>
<polygon fill="black" stroke="black" points="1488.09,-250.7 1491.59,-260.7 1495.09,-250.7 1488.09,-250.7"/>
</g>
<!-- SocialNetworkService -->
<g id="node31" class="node">
<title>SocialNetworkService</title>
<ellipse fill="#fdb462" stroke="black" cx="1991" cy="-202.8" rx="97.84" ry="18"/>
<text text-anchor="middle" x="1991" y="-198.6" font-family="Times,serif" font-size="14.00">SocialNetworkService</text>
</g>
<!-- SocialNetworkService&#45;&gt;SocialNetworkModule -->
<g id="edge51" class="edge">
<title>SocialNetworkService&#45;&gt;SocialNetworkModule</title>
<path fill="none" stroke="black" d="M1893.05,-202.8C1855.24,-202.8 1820.92,-202.8 1820.92,-202.8 1820.92,-202.8 1820.92,-250.79 1820.92,-250.79"/>
<polygon fill="black" stroke="black" points="1817.42,-250.79 1820.92,-260.79 1824.42,-250.79 1817.42,-250.79"/>
</g>
</g>
</svg>
