<?xml version="1.0" encoding="UTF-8" standalone="no"?>
<!DOCTYPE svg PUBLIC "-//W3C//DTD SVG 1.1//EN"
 "http://www.w3.org/Graphics/SVG/1.1/DTD/svg11.dtd">
<!-- Generated by graphviz version 5.0.0 (20220707.1540)
 -->
<!-- Title: dependencies Pages: 1 -->
<svg width="386pt" height="242pt"
 viewBox="0.00 0.00 386.00 241.80" xmlns="http://www.w3.org/2000/svg" xmlns:xlink="http://www.w3.org/1999/xlink">
<g id="graph0" class="graph" transform="scale(1 1) rotate(0) translate(4 237.8)">
<title>dependencies</title>
<polygon fill="white" stroke="transparent" points="-4,4 -4,-237.8 382,-237.8 382,4 -4,4"/>
<text text-anchor="middle" x="189" y="-8.2" font-family="sans-serif" font-size="14.00">dependencies</text>
<g id="clust1" class="cluster">
<title>cluster_AppModule</title>
<polygon fill="none" stroke="black" stroke-dasharray="1,5" points="8,-32.8 8,-160.8 154,-160.8 154,-32.8 8,-32.8"/>
</g>
<g id="clust6" class="cluster">
<title>cluster_AppModule_providers</title>
<polygon fill="none" stroke="black" points="16,-40.8 16,-92.8 146,-92.8 146,-40.8 16,-40.8"/>
</g>
<g id="clust7" class="cluster">
<title>cluster_AppTestE2eModule</title>
<polygon fill="none" stroke="black" stroke-dasharray="1,5" points="162,-100.8 162,-225.8 370,-225.8 370,-100.8 162,-100.8"/>
</g>
<g id="clust12" class="cluster">
<title>cluster_AppTestE2eModule_providers</title>
<polygon fill="none" stroke="black" points="170,-108.8 170,-160.8 362,-160.8 362,-108.8 170,-108.8"/>
</g>
<!-- AppService -->
<g id="node1" class="node">
<title>AppService</title>
<ellipse fill="#fdb462" stroke="black" cx="81" cy="-66.8" rx="56.75" ry="18"/>
<text text-anchor="middle" x="81" y="-62.6" font-family="Times,serif" font-size="14.00">AppService</text>
</g>
<!-- AppModule -->
<g id="node2" class="node">
<title>AppModule</title>
<polygon fill="#8dd3c7" stroke="black" points="133.66,-152.8 130.66,-156.8 109.66,-156.8 106.66,-152.8 50.34,-152.8 50.34,-116.8 133.66,-116.8 133.66,-152.8"/>
<text text-anchor="middle" x="92" y="-130.6" font-family="Times,serif" font-size="14.00">AppModule</text>
</g>
<!-- AppService&#45;&gt;AppModule -->
<g id="edge1" class="edge">
<title>AppService&#45;&gt;AppModule</title>
<path fill="none" stroke="black" d="M92,-84.67C92,-84.67 92,-106.34 92,-106.34"/>
<polygon fill="black" stroke="black" points="88.5,-106.34 92,-116.34 95.5,-106.34 88.5,-106.34"/>
</g>
<!-- AppTestE2eModule -->
<g id="node3" class="node">
<title>AppTestE2eModule</title>
<polygon fill="#8dd3c7" stroke="black" points="314.53,-217.8 311.53,-221.8 290.53,-221.8 287.53,-217.8 185.47,-217.8 185.47,-181.8 314.53,-181.8 314.53,-217.8"/>
<text text-anchor="middle" x="250" y="-195.6" font-family="Times,serif" font-size="14.00">AppTestE2eModule</text>
</g>
<!-- AppModule&#45;&gt;AppTestE2eModule -->
<g id="edge2" class="edge">
<title>AppModule&#45;&gt;AppTestE2eModule</title>
<path fill="none" stroke="black" d="M92,-152.91C92,-172.14 92,-199.8 92,-199.8 92,-199.8 175.28,-199.8 175.28,-199.8"/>
<polygon fill="black" stroke="black" points="175.28,-203.3 185.28,-199.8 175.28,-196.3 175.28,-203.3"/>
</g>
<!-- AppTestE2eService -->
<g id="node4" class="node">
<title>AppTestE2eService</title>
<ellipse fill="#fdb462" stroke="black" cx="266" cy="-134.8" rx="88.03" ry="18"/>
<text text-anchor="middle" x="266" y="-130.6" font-family="Times,serif" font-size="14.00">AppTestE2eService</text>
</g>
<!-- AppTestE2eService&#45;&gt;AppTestE2eModule -->
<g id="edge3" class="edge">
<title>AppTestE2eService&#45;&gt;AppTestE2eModule</title>
<path fill="none" stroke="black" d="M250,-152.56C250,-152.56 250,-171.61 250,-171.61"/>
<polygon fill="black" stroke="black" points="246.5,-171.61 250,-181.61 253.5,-171.61 246.5,-171.61"/>
</g>
</g>
</svg>
