<?xml version="1.0" encoding="UTF-8" standalone="no"?>
<!DOCTYPE svg PUBLIC "-//W3C//DTD SVG 1.1//EN"
 "http://www.w3.org/Graphics/SVG/1.1/DTD/svg11.dtd">
<!-- Generated by graphviz version 5.0.0 (20220707.1540)
 -->
<!-- Title: dependencies Pages: 1 -->
<svg width="994pt" height="318pt"
 viewBox="0.00 0.00 994.00 317.80" xmlns="http://www.w3.org/2000/svg" xmlns:xlink="http://www.w3.org/1999/xlink">
<g id="graph0" class="graph" transform="scale(1 1) rotate(0) translate(4 313.8)">
<title>dependencies</title>
<polygon fill="white" stroke="transparent" points="-4,4 -4,-313.8 990,-313.8 990,4 -4,4"/>
<text text-anchor="middle" x="493" y="-8.2" font-family="sans-serif" font-size="14.00">dependencies</text>
<g id="clust1" class="cluster">
<title>cluster_ApiLogModule</title>
<polygon fill="none" stroke="black" stroke-dasharray="1,5" points="8,-32.8 8,-168.8 180,-168.8 180,-32.8 8,-32.8"/>
</g>
<g id="clust6" class="cluster">
<title>cluster_ApiLogModule_providers</title>
<polygon fill="none" stroke="black" points="16,-40.8 16,-92.8 172,-92.8 172,-40.8 16,-40.8"/>
</g>
<g id="clust7" class="cluster">
<title>cluster_AppModule</title>
<polygon fill="none" stroke="black" stroke-dasharray="1,5" points="188,-108.8 188,-236.8 762,-236.8 762,-108.8 188,-108.8"/>
</g>
<g id="clust9" class="cluster">
<title>cluster_AppModule_imports</title>
<polygon fill="none" stroke="black" points="334,-116.8 334,-168.8 754,-168.8 754,-116.8 334,-116.8"/>
</g>
<g id="clust12" class="cluster">
<title>cluster_AppModule_providers</title>
<polygon fill="none" stroke="black" points="196,-116.8 196,-168.8 326,-168.8 326,-116.8 196,-116.8"/>
</g>
<g id="clust13" class="cluster">
<title>cluster_AppTestE2eModule</title>
<polygon fill="none" stroke="black" stroke-dasharray="1,5" points="770,-176.8 770,-301.8 978,-301.8 978,-176.8 770,-176.8"/>
</g>
<g id="clust18" class="cluster">
<title>cluster_AppTestE2eModule_providers</title>
<polygon fill="none" stroke="black" points="778,-184.8 778,-236.8 970,-236.8 970,-184.8 778,-184.8"/>
</g>
<g id="clust25" class="cluster">
<title>cluster_HealthCheckModule</title>
<polygon fill="none" stroke="black" stroke-dasharray="1,5" points="230,-32.8 230,-100.8 502,-100.8 502,-32.8 230,-32.8"/>
</g>
<g id="clust30" class="cluster">
<title>cluster_HealthCheckModule_providers</title>
<polygon fill="none" stroke="black" points="238,-40.8 238,-92.8 494,-92.8 494,-40.8 238,-40.8"/>
</g>
<g id="clust31" class="cluster">
<title>cluster_UserModule</title>
<polygon fill="none" stroke="black" stroke-dasharray="1,5" points="510,-32.8 510,-100.8 658,-100.8 658,-32.8 510,-32.8"/>
</g>
<g id="clust36" class="cluster">
<title>cluster_UserModule_providers</title>
<polygon fill="none" stroke="black" points="518,-40.8 518,-92.8 650,-92.8 650,-40.8 518,-40.8"/>
</g>
<!-- ApiLogService -->
<g id="node1" class="node">
<title>ApiLogService</title>
<ellipse fill="#fdb462" stroke="black" cx="94" cy="-66.8" rx="70.07" ry="18"/>
<text text-anchor="middle" x="94" y="-62.6" font-family="Times,serif" font-size="14.00">ApiLogService</text>
</g>
<!-- ApiLogModule -->
<g id="node2" class="node">
<title>ApiLogModule</title>
<polygon fill="#8dd3c7" stroke="black" points="145.6,-160.8 142.6,-164.8 121.6,-164.8 118.6,-160.8 42.4,-160.8 42.4,-124.8 145.6,-124.8 145.6,-160.8"/>
<text text-anchor="middle" x="94" y="-138.6" font-family="Times,serif" font-size="14.00">ApiLogModule</text>
</g>
<!-- ApiLogService&#45;&gt;ApiLogModule -->
<g id="edge1" class="edge">
<title>ApiLogService&#45;&gt;ApiLogModule</title>
<path fill="none" stroke="black" d="M94,-84.81C94,-84.81 94,-114.65 94,-114.65"/>
<polygon fill="black" stroke="black" points="90.5,-114.65 94,-124.65 97.5,-114.65 90.5,-114.65"/>
</g>
<!-- AppModule -->
<g id="node6" class="node">
<title>AppModule</title>
<polygon fill="#8dd3c7" stroke="black" points="449.66,-228.8 446.66,-232.8 425.66,-232.8 422.66,-228.8 366.34,-228.8 366.34,-192.8 449.66,-192.8 449.66,-228.8"/>
<text text-anchor="middle" x="408" y="-206.6" font-family="Times,serif" font-size="14.00">AppModule</text>
</g>
<!-- ApiLogService&#45;&gt;AppModule -->
<g id="edge6" class="edge">
<title>ApiLogService&#45;&gt;AppModule</title>
<path fill="none" stroke="black" d="M154.79,-75.81C154.79,-107.33 154.79,-210.8 154.79,-210.8 154.79,-210.8 356.19,-210.8 356.19,-210.8"/>
<polygon fill="black" stroke="black" points="356.19,-214.3 366.19,-210.8 356.19,-207.3 356.19,-214.3"/>
</g>
<!-- ApiLogModule&#45;&gt;AppModule -->
<g id="edge2" class="edge">
<title>ApiLogModule&#45;&gt;AppModule</title>
<path fill="none" stroke="black" d="M94,-161.05C94,-183.82 94,-219.8 94,-219.8 94,-219.8 356.3,-219.8 356.3,-219.8"/>
<polygon fill="black" stroke="black" points="356.3,-223.3 366.3,-219.8 356.3,-216.3 356.3,-223.3"/>
</g>
<!-- EntitiesToMoveModule -->
<g id="node3" class="node">
<title>EntitiesToMoveModule</title>
<polygon fill="#8dd3c7" stroke="black" points="746.04,-160.8 743.04,-164.8 722.04,-164.8 719.04,-160.8 595.96,-160.8 595.96,-124.8 746.04,-124.8 746.04,-160.8"/>
<text text-anchor="middle" x="671" y="-138.6" font-family="Times,serif" font-size="14.00">EntitiesToMoveModule</text>
</g>
<!-- EntitiesToMoveModule&#45;&gt;AppModule -->
<g id="edge3" class="edge">
<title>EntitiesToMoveModule&#45;&gt;AppModule</title>
<path fill="none" stroke="black" d="M671,-161.09C671,-183.01 671,-216.8 671,-216.8 671,-216.8 459.67,-216.8 459.67,-216.8"/>
<polygon fill="black" stroke="black" points="459.67,-213.3 449.67,-216.8 459.67,-220.3 459.67,-213.3"/>
</g>
<!-- HealthCheckModule -->
<g id="node4" class="node">
<title>HealthCheckModule</title>
<polygon fill="#8dd3c7" stroke="black" points="474.14,-160.8 471.14,-164.8 450.14,-164.8 447.14,-160.8 341.86,-160.8 341.86,-124.8 474.14,-124.8 474.14,-160.8"/>
<text text-anchor="middle" x="408" y="-138.6" font-family="Times,serif" font-size="14.00">HealthCheckModule</text>
</g>
<!-- HealthCheckModule&#45;&gt;AppModule -->
<g id="edge4" class="edge">
<title>HealthCheckModule&#45;&gt;AppModule</title>
<path fill="none" stroke="black" d="M408,-161.02C408,-161.02 408,-182.53 408,-182.53"/>
<polygon fill="black" stroke="black" points="404.5,-182.53 408,-192.53 411.5,-182.53 404.5,-182.53"/>
</g>
<!-- UserModule -->
<g id="node5" class="node">
<title>UserModule</title>
<polygon fill="#8dd3c7" stroke="black" points="577.99,-160.8 574.99,-164.8 553.99,-164.8 550.99,-160.8 492.01,-160.8 492.01,-124.8 577.99,-124.8 577.99,-160.8"/>
<text text-anchor="middle" x="535" y="-138.6" font-family="Times,serif" font-size="14.00">UserModule</text>
</g>
<!-- UserModule&#45;&gt;AppModule -->
<g id="edge5" class="edge">
<title>UserModule&#45;&gt;AppModule</title>
<path fill="none" stroke="black" d="M535,-161.07C535,-179.36 535,-204.8 535,-204.8 535,-204.8 459.94,-204.8 459.94,-204.8"/>
<polygon fill="black" stroke="black" points="459.94,-201.3 449.94,-204.8 459.94,-208.3 459.94,-201.3"/>
</g>
<!-- AppTestE2eModule -->
<g id="node8" class="node">
<title>AppTestE2eModule</title>
<polygon fill="#8dd3c7" stroke="black" points="922.53,-293.8 919.53,-297.8 898.53,-297.8 895.53,-293.8 793.47,-293.8 793.47,-257.8 922.53,-257.8 922.53,-293.8"/>
<text text-anchor="middle" x="858" y="-271.6" font-family="Times,serif" font-size="14.00">AppTestE2eModule</text>
</g>
<!-- AppModule&#45;&gt;AppTestE2eModule -->
<g id="edge8" class="edge">
<title>AppModule&#45;&gt;AppTestE2eModule</title>
<path fill="none" stroke="black" d="M408,-228.91C408,-248.14 408,-275.8 408,-275.8 408,-275.8 783.05,-275.8 783.05,-275.8"/>
<polygon fill="black" stroke="black" points="783.05,-279.3 793.05,-275.8 783.05,-272.3 783.05,-279.3"/>
</g>
<!-- AppService -->
<g id="node7" class="node">
<title>AppService</title>
<ellipse fill="#fdb462" stroke="black" cx="261" cy="-142.8" rx="56.75" ry="18"/>
<text text-anchor="middle" x="261" y="-138.6" font-family="Times,serif" font-size="14.00">AppService</text>
</g>
<!-- AppService&#45;&gt;AppModule -->
<g id="edge7" class="edge">
<title>AppService&#45;&gt;AppModule</title>
<path fill="none" stroke="black" d="M261,-160.82C261,-178.17 261,-201.8 261,-201.8 261,-201.8 356.27,-201.8 356.27,-201.8"/>
<polygon fill="black" stroke="black" points="356.27,-205.3 366.27,-201.8 356.27,-198.3 356.27,-205.3"/>
</g>
<!-- AppTestE2eService -->
<g id="node9" class="node">
<title>AppTestE2eService</title>
<ellipse fill="#fdb462" stroke="black" cx="874" cy="-210.8" rx="88.03" ry="18"/>
<text text-anchor="middle" x="874" y="-206.6" font-family="Times,serif" font-size="14.00">AppTestE2eService</text>
</g>
<!-- AppTestE2eService&#45;&gt;AppTestE2eModule -->
<g id="edge9" class="edge">
<title>AppTestE2eService&#45;&gt;AppTestE2eModule</title>
<path fill="none" stroke="black" d="M858,-228.56C858,-228.56 858,-247.61 858,-247.61"/>
<polygon fill="black" stroke="black" points="854.5,-247.61 858,-257.61 861.5,-247.61 854.5,-247.61"/>
</g>
<!-- CustomHealthCheckService -->
<g id="node10" class="node">
<title>CustomHealthCheckService</title>
<ellipse fill="#fdb462" stroke="black" cx="366" cy="-66.8" rx="120.41" ry="18"/>
<text text-anchor="middle" x="366" y="-62.6" font-family="Times,serif" font-size="14.00">CustomHealthCheckService</text>
</g>
<!-- CustomHealthCheckService&#45;&gt;HealthCheckModule -->
<g id="edge10" class="edge">
<title>CustomHealthCheckService&#45;&gt;HealthCheckModule</title>
<path fill="none" stroke="black" d="M408,-84.05C408,-84.05 408,-114.56 408,-114.56"/>
<polygon fill="black" stroke="black" points="404.5,-114.56 408,-124.56 411.5,-114.56 404.5,-114.56"/>
</g>
<!-- UserService -->
<g id="node11" class="node">
<title>UserService</title>
<ellipse fill="#fdb462" stroke="black" cx="584" cy="-66.8" rx="58.46" ry="18"/>
<text text-anchor="middle" x="584" y="-62.6" font-family="Times,serif" font-size="14.00">UserService</text>
</g>
<!-- UserService&#45;&gt;UserModule -->
<g id="edge11" class="edge">
<title>UserService&#45;&gt;UserModule</title>
<path fill="none" stroke="black" d="M551.88,-81.82C551.88,-81.82 551.88,-114.6 551.88,-114.6"/>
<polygon fill="black" stroke="black" points="548.38,-114.6 551.88,-124.6 555.38,-114.6 548.38,-114.6"/>
</g>
</g>
</svg>
